G04 #@! TF.GenerationSoftware,KiCad,Pcbnew,(5.1.6)-1*
G04 #@! TF.CreationDate,2020-07-14T11:46:24+02:00*
G04 #@! TF.ProjectId,sboxnet-booster,73626f78-6e65-4742-9d62-6f6f73746572,rev?*
G04 #@! TF.SameCoordinates,Original*
G04 #@! TF.FileFunction,Paste,Top*
G04 #@! TF.FilePolarity,Positive*
%FSLAX46Y46*%
G04 Gerber Fmt 4.6, Leading zero omitted, Abs format (unit mm)*
G04 Created by KiCad (PCBNEW (5.1.6)-1) date 2020-07-14 11:46:24*
%MOMM*%
%LPD*%
G01*
G04 APERTURE LIST*
%ADD10C,0.100000*%
%ADD11R,1.300000X0.900000*%
%ADD12R,3.400000X2.415000*%
%ADD13R,6.400000X11.270000*%
%ADD14R,1.700000X0.380000*%
%ADD15R,0.600000X0.450000*%
%ADD16R,0.900000X0.800000*%
G04 APERTURE END LIST*
D10*
G36*
X85635001Y-54487901D02*
G01*
X82510001Y-54487901D01*
X82510001Y-54071401D01*
X81035001Y-54071401D01*
X81035001Y-53171401D01*
X82510001Y-53171401D01*
X82510001Y-52754901D01*
X85635001Y-52754901D01*
X85635001Y-54487901D01*
G37*
D11*
X81685001Y-55121401D03*
X81685001Y-52121401D03*
D12*
X97891600Y-135976100D03*
X97891600Y-122291100D03*
D13*
X97891600Y-129133600D03*
D14*
X104741600Y-123608600D03*
X104741600Y-124258600D03*
X104741600Y-124908600D03*
X104741600Y-125558600D03*
X104741600Y-126208600D03*
X104741600Y-126858600D03*
X104741600Y-127508600D03*
X104741600Y-128158600D03*
X104741600Y-128808600D03*
X104741600Y-129458600D03*
X104741600Y-130108600D03*
X104741600Y-130758600D03*
X104741600Y-131408600D03*
X104741600Y-132058600D03*
X104741600Y-132708600D03*
X104741600Y-133358600D03*
X104741600Y-134008600D03*
X91041600Y-134658600D03*
X91041600Y-134008600D03*
X91041600Y-133358600D03*
X91041600Y-132708600D03*
X91041600Y-132058600D03*
X91041600Y-131408600D03*
X91041600Y-130758600D03*
X91041600Y-130108600D03*
X91041600Y-129458600D03*
X91041600Y-128808600D03*
X91041600Y-128158600D03*
X91041600Y-127508600D03*
X91041600Y-126858600D03*
X91041600Y-126208600D03*
X91041600Y-125558600D03*
X91041600Y-124908600D03*
X91041600Y-124258600D03*
X104741600Y-134658600D03*
X91041600Y-123608600D03*
G36*
G01*
X86390001Y-65496401D02*
X86390001Y-64246401D01*
G75*
G02*
X86640001Y-63996401I250000J0D01*
G01*
X87390001Y-63996401D01*
G75*
G02*
X87640001Y-64246401I0J-250000D01*
G01*
X87640001Y-65496401D01*
G75*
G02*
X87390001Y-65746401I-250000J0D01*
G01*
X86640001Y-65746401D01*
G75*
G02*
X86390001Y-65496401I0J250000D01*
G01*
G37*
G36*
G01*
X83590001Y-65496401D02*
X83590001Y-64246401D01*
G75*
G02*
X83840001Y-63996401I250000J0D01*
G01*
X84590001Y-63996401D01*
G75*
G02*
X84840001Y-64246401I0J-250000D01*
G01*
X84840001Y-65496401D01*
G75*
G02*
X84590001Y-65746401I-250000J0D01*
G01*
X83840001Y-65746401D01*
G75*
G02*
X83590001Y-65496401I0J250000D01*
G01*
G37*
G36*
G01*
X101210001Y-51496401D02*
X101210001Y-50246401D01*
G75*
G02*
X101460001Y-49996401I250000J0D01*
G01*
X102210001Y-49996401D01*
G75*
G02*
X102460001Y-50246401I0J-250000D01*
G01*
X102460001Y-51496401D01*
G75*
G02*
X102210001Y-51746401I-250000J0D01*
G01*
X101460001Y-51746401D01*
G75*
G02*
X101210001Y-51496401I0J250000D01*
G01*
G37*
G36*
G01*
X98410001Y-51496401D02*
X98410001Y-50246401D01*
G75*
G02*
X98660001Y-49996401I250000J0D01*
G01*
X99410001Y-49996401D01*
G75*
G02*
X99660001Y-50246401I0J-250000D01*
G01*
X99660001Y-51496401D01*
G75*
G02*
X99410001Y-51746401I-250000J0D01*
G01*
X98660001Y-51746401D01*
G75*
G02*
X98410001Y-51496401I0J250000D01*
G01*
G37*
G36*
G01*
X112010001Y-39936401D02*
X112010001Y-38686401D01*
G75*
G02*
X112260001Y-38436401I250000J0D01*
G01*
X113010001Y-38436401D01*
G75*
G02*
X113260001Y-38686401I0J-250000D01*
G01*
X113260001Y-39936401D01*
G75*
G02*
X113010001Y-40186401I-250000J0D01*
G01*
X112260001Y-40186401D01*
G75*
G02*
X112010001Y-39936401I0J250000D01*
G01*
G37*
G36*
G01*
X109210001Y-39936401D02*
X109210001Y-38686401D01*
G75*
G02*
X109460001Y-38436401I250000J0D01*
G01*
X110210001Y-38436401D01*
G75*
G02*
X110460001Y-38686401I0J-250000D01*
G01*
X110460001Y-39936401D01*
G75*
G02*
X110210001Y-40186401I-250000J0D01*
G01*
X109460001Y-40186401D01*
G75*
G02*
X109210001Y-39936401I0J250000D01*
G01*
G37*
G36*
G01*
X95060001Y-59446401D02*
X95060001Y-58196401D01*
G75*
G02*
X95310001Y-57946401I250000J0D01*
G01*
X96060001Y-57946401D01*
G75*
G02*
X96310001Y-58196401I0J-250000D01*
G01*
X96310001Y-59446401D01*
G75*
G02*
X96060001Y-59696401I-250000J0D01*
G01*
X95310001Y-59696401D01*
G75*
G02*
X95060001Y-59446401I0J250000D01*
G01*
G37*
G36*
G01*
X92260001Y-59446401D02*
X92260001Y-58196401D01*
G75*
G02*
X92510001Y-57946401I250000J0D01*
G01*
X93260001Y-57946401D01*
G75*
G02*
X93510001Y-58196401I0J-250000D01*
G01*
X93510001Y-59446401D01*
G75*
G02*
X93260001Y-59696401I-250000J0D01*
G01*
X92510001Y-59696401D01*
G75*
G02*
X92260001Y-59446401I0J250000D01*
G01*
G37*
G36*
G01*
X89450001Y-62206401D02*
X89450001Y-60956401D01*
G75*
G02*
X89700001Y-60706401I250000J0D01*
G01*
X90450001Y-60706401D01*
G75*
G02*
X90700001Y-60956401I0J-250000D01*
G01*
X90700001Y-62206401D01*
G75*
G02*
X90450001Y-62456401I-250000J0D01*
G01*
X89700001Y-62456401D01*
G75*
G02*
X89450001Y-62206401I0J250000D01*
G01*
G37*
G36*
G01*
X86650001Y-62206401D02*
X86650001Y-60956401D01*
G75*
G02*
X86900001Y-60706401I250000J0D01*
G01*
X87650001Y-60706401D01*
G75*
G02*
X87900001Y-60956401I0J-250000D01*
G01*
X87900001Y-62206401D01*
G75*
G02*
X87650001Y-62456401I-250000J0D01*
G01*
X86900001Y-62456401D01*
G75*
G02*
X86650001Y-62206401I0J250000D01*
G01*
G37*
G36*
G01*
X95060001Y-56156401D02*
X95060001Y-54906401D01*
G75*
G02*
X95310001Y-54656401I250000J0D01*
G01*
X96060001Y-54656401D01*
G75*
G02*
X96310001Y-54906401I0J-250000D01*
G01*
X96310001Y-56156401D01*
G75*
G02*
X96060001Y-56406401I-250000J0D01*
G01*
X95310001Y-56406401D01*
G75*
G02*
X95060001Y-56156401I0J250000D01*
G01*
G37*
G36*
G01*
X92260001Y-56156401D02*
X92260001Y-54906401D01*
G75*
G02*
X92510001Y-54656401I250000J0D01*
G01*
X93260001Y-54656401D01*
G75*
G02*
X93510001Y-54906401I0J-250000D01*
G01*
X93510001Y-56156401D01*
G75*
G02*
X93260001Y-56406401I-250000J0D01*
G01*
X92510001Y-56406401D01*
G75*
G02*
X92260001Y-56156401I0J250000D01*
G01*
G37*
G36*
G01*
X106400001Y-45486401D02*
X106400001Y-44236401D01*
G75*
G02*
X106650001Y-43986401I250000J0D01*
G01*
X107400001Y-43986401D01*
G75*
G02*
X107650001Y-44236401I0J-250000D01*
G01*
X107650001Y-45486401D01*
G75*
G02*
X107400001Y-45736401I-250000J0D01*
G01*
X106650001Y-45736401D01*
G75*
G02*
X106400001Y-45486401I0J250000D01*
G01*
G37*
G36*
G01*
X103600001Y-45486401D02*
X103600001Y-44236401D01*
G75*
G02*
X103850001Y-43986401I250000J0D01*
G01*
X104600001Y-43986401D01*
G75*
G02*
X104850001Y-44236401I0J-250000D01*
G01*
X104850001Y-45486401D01*
G75*
G02*
X104600001Y-45736401I-250000J0D01*
G01*
X103850001Y-45736401D01*
G75*
G02*
X103600001Y-45486401I0J250000D01*
G01*
G37*
G36*
G01*
X83840001Y-58916401D02*
X83840001Y-57666401D01*
G75*
G02*
X84090001Y-57416401I250000J0D01*
G01*
X84840001Y-57416401D01*
G75*
G02*
X85090001Y-57666401I0J-250000D01*
G01*
X85090001Y-58916401D01*
G75*
G02*
X84840001Y-59166401I-250000J0D01*
G01*
X84090001Y-59166401D01*
G75*
G02*
X83840001Y-58916401I0J250000D01*
G01*
G37*
G36*
G01*
X81040001Y-58916401D02*
X81040001Y-57666401D01*
G75*
G02*
X81290001Y-57416401I250000J0D01*
G01*
X82040001Y-57416401D01*
G75*
G02*
X82290001Y-57666401I0J-250000D01*
G01*
X82290001Y-58916401D01*
G75*
G02*
X82040001Y-59166401I-250000J0D01*
G01*
X81290001Y-59166401D01*
G75*
G02*
X81040001Y-58916401I0J250000D01*
G01*
G37*
G36*
G01*
X111050001Y-36646401D02*
X111050001Y-35396401D01*
G75*
G02*
X111300001Y-35146401I250000J0D01*
G01*
X112050001Y-35146401D01*
G75*
G02*
X112300001Y-35396401I0J-250000D01*
G01*
X112300001Y-36646401D01*
G75*
G02*
X112050001Y-36896401I-250000J0D01*
G01*
X111300001Y-36896401D01*
G75*
G02*
X111050001Y-36646401I0J250000D01*
G01*
G37*
G36*
G01*
X108250001Y-36646401D02*
X108250001Y-35396401D01*
G75*
G02*
X108500001Y-35146401I250000J0D01*
G01*
X109250001Y-35146401D01*
G75*
G02*
X109500001Y-35396401I0J-250000D01*
G01*
X109500001Y-36646401D01*
G75*
G02*
X109250001Y-36896401I-250000J0D01*
G01*
X108500001Y-36896401D01*
G75*
G02*
X108250001Y-36646401I0J250000D01*
G01*
G37*
G36*
G01*
X95600001Y-52866401D02*
X95600001Y-51616401D01*
G75*
G02*
X95850001Y-51366401I250000J0D01*
G01*
X96600001Y-51366401D01*
G75*
G02*
X96850001Y-51616401I0J-250000D01*
G01*
X96850001Y-52866401D01*
G75*
G02*
X96600001Y-53116401I-250000J0D01*
G01*
X95850001Y-53116401D01*
G75*
G02*
X95600001Y-52866401I0J250000D01*
G01*
G37*
G36*
G01*
X92800001Y-52866401D02*
X92800001Y-51616401D01*
G75*
G02*
X93050001Y-51366401I250000J0D01*
G01*
X93800001Y-51366401D01*
G75*
G02*
X94050001Y-51616401I0J-250000D01*
G01*
X94050001Y-52866401D01*
G75*
G02*
X93800001Y-53116401I-250000J0D01*
G01*
X93050001Y-53116401D01*
G75*
G02*
X92800001Y-52866401I0J250000D01*
G01*
G37*
G36*
G01*
X105440001Y-38906401D02*
X105440001Y-37656401D01*
G75*
G02*
X105690001Y-37406401I250000J0D01*
G01*
X106440001Y-37406401D01*
G75*
G02*
X106690001Y-37656401I0J-250000D01*
G01*
X106690001Y-38906401D01*
G75*
G02*
X106440001Y-39156401I-250000J0D01*
G01*
X105690001Y-39156401D01*
G75*
G02*
X105440001Y-38906401I0J250000D01*
G01*
G37*
G36*
G01*
X102640001Y-38906401D02*
X102640001Y-37656401D01*
G75*
G02*
X102890001Y-37406401I250000J0D01*
G01*
X103640001Y-37406401D01*
G75*
G02*
X103890001Y-37656401I0J-250000D01*
G01*
X103890001Y-38906401D01*
G75*
G02*
X103640001Y-39156401I-250000J0D01*
G01*
X102890001Y-39156401D01*
G75*
G02*
X102640001Y-38906401I0J250000D01*
G01*
G37*
G36*
G01*
X111680001Y-33356401D02*
X111680001Y-32106401D01*
G75*
G02*
X111930001Y-31856401I250000J0D01*
G01*
X112680001Y-31856401D01*
G75*
G02*
X112930001Y-32106401I0J-250000D01*
G01*
X112930001Y-33356401D01*
G75*
G02*
X112680001Y-33606401I-250000J0D01*
G01*
X111930001Y-33606401D01*
G75*
G02*
X111680001Y-33356401I0J250000D01*
G01*
G37*
G36*
G01*
X108880001Y-33356401D02*
X108880001Y-32106401D01*
G75*
G02*
X109130001Y-31856401I250000J0D01*
G01*
X109880001Y-31856401D01*
G75*
G02*
X110130001Y-32106401I0J-250000D01*
G01*
X110130001Y-33356401D01*
G75*
G02*
X109880001Y-33606401I-250000J0D01*
G01*
X109130001Y-33606401D01*
G75*
G02*
X108880001Y-33356401I0J250000D01*
G01*
G37*
G36*
G01*
X83840001Y-62206401D02*
X83840001Y-60956401D01*
G75*
G02*
X84090001Y-60706401I250000J0D01*
G01*
X84840001Y-60706401D01*
G75*
G02*
X85090001Y-60956401I0J-250000D01*
G01*
X85090001Y-62206401D01*
G75*
G02*
X84840001Y-62456401I-250000J0D01*
G01*
X84090001Y-62456401D01*
G75*
G02*
X83840001Y-62206401I0J250000D01*
G01*
G37*
G36*
G01*
X81040001Y-62206401D02*
X81040001Y-60956401D01*
G75*
G02*
X81290001Y-60706401I250000J0D01*
G01*
X82040001Y-60706401D01*
G75*
G02*
X82290001Y-60956401I0J-250000D01*
G01*
X82290001Y-62206401D01*
G75*
G02*
X82040001Y-62456401I-250000J0D01*
G01*
X81290001Y-62456401D01*
G75*
G02*
X81040001Y-62206401I0J250000D01*
G01*
G37*
G36*
G01*
X89450001Y-58916401D02*
X89450001Y-57666401D01*
G75*
G02*
X89700001Y-57416401I250000J0D01*
G01*
X90450001Y-57416401D01*
G75*
G02*
X90700001Y-57666401I0J-250000D01*
G01*
X90700001Y-58916401D01*
G75*
G02*
X90450001Y-59166401I-250000J0D01*
G01*
X89700001Y-59166401D01*
G75*
G02*
X89450001Y-58916401I0J250000D01*
G01*
G37*
G36*
G01*
X86650001Y-58916401D02*
X86650001Y-57666401D01*
G75*
G02*
X86900001Y-57416401I250000J0D01*
G01*
X87650001Y-57416401D01*
G75*
G02*
X87900001Y-57666401I0J-250000D01*
G01*
X87900001Y-58916401D01*
G75*
G02*
X87650001Y-59166401I-250000J0D01*
G01*
X86900001Y-59166401D01*
G75*
G02*
X86650001Y-58916401I0J250000D01*
G01*
G37*
G36*
G01*
X100790001Y-44916401D02*
X100790001Y-43666401D01*
G75*
G02*
X101040001Y-43416401I250000J0D01*
G01*
X101790001Y-43416401D01*
G75*
G02*
X102040001Y-43666401I0J-250000D01*
G01*
X102040001Y-44916401D01*
G75*
G02*
X101790001Y-45166401I-250000J0D01*
G01*
X101040001Y-45166401D01*
G75*
G02*
X100790001Y-44916401I0J250000D01*
G01*
G37*
G36*
G01*
X97990001Y-44916401D02*
X97990001Y-43666401D01*
G75*
G02*
X98240001Y-43416401I250000J0D01*
G01*
X98990001Y-43416401D01*
G75*
G02*
X99240001Y-43666401I0J-250000D01*
G01*
X99240001Y-44916401D01*
G75*
G02*
X98990001Y-45166401I-250000J0D01*
G01*
X98240001Y-45166401D01*
G75*
G02*
X97990001Y-44916401I0J250000D01*
G01*
G37*
G36*
G01*
X75170001Y-69126401D02*
X75170001Y-67876401D01*
G75*
G02*
X75420001Y-67626401I250000J0D01*
G01*
X76170001Y-67626401D01*
G75*
G02*
X76420001Y-67876401I0J-250000D01*
G01*
X76420001Y-69126401D01*
G75*
G02*
X76170001Y-69376401I-250000J0D01*
G01*
X75420001Y-69376401D01*
G75*
G02*
X75170001Y-69126401I0J250000D01*
G01*
G37*
G36*
G01*
X72370001Y-69126401D02*
X72370001Y-67876401D01*
G75*
G02*
X72620001Y-67626401I250000J0D01*
G01*
X73370001Y-67626401D01*
G75*
G02*
X73620001Y-67876401I0J-250000D01*
G01*
X73620001Y-69126401D01*
G75*
G02*
X73370001Y-69376401I-250000J0D01*
G01*
X72620001Y-69376401D01*
G75*
G02*
X72370001Y-69126401I0J250000D01*
G01*
G37*
G36*
G01*
X106400001Y-42196401D02*
X106400001Y-40946401D01*
G75*
G02*
X106650001Y-40696401I250000J0D01*
G01*
X107400001Y-40696401D01*
G75*
G02*
X107650001Y-40946401I0J-250000D01*
G01*
X107650001Y-42196401D01*
G75*
G02*
X107400001Y-42446401I-250000J0D01*
G01*
X106650001Y-42446401D01*
G75*
G02*
X106400001Y-42196401I0J250000D01*
G01*
G37*
G36*
G01*
X103600001Y-42196401D02*
X103600001Y-40946401D01*
G75*
G02*
X103850001Y-40696401I250000J0D01*
G01*
X104600001Y-40696401D01*
G75*
G02*
X104850001Y-40946401I0J-250000D01*
G01*
X104850001Y-42196401D01*
G75*
G02*
X104600001Y-42446401I-250000J0D01*
G01*
X103850001Y-42446401D01*
G75*
G02*
X103600001Y-42196401I0J250000D01*
G01*
G37*
G36*
G01*
X80780001Y-68256401D02*
X80780001Y-67006401D01*
G75*
G02*
X81030001Y-66756401I250000J0D01*
G01*
X81780001Y-66756401D01*
G75*
G02*
X82030001Y-67006401I0J-250000D01*
G01*
X82030001Y-68256401D01*
G75*
G02*
X81780001Y-68506401I-250000J0D01*
G01*
X81030001Y-68506401D01*
G75*
G02*
X80780001Y-68256401I0J250000D01*
G01*
G37*
G36*
G01*
X77980001Y-68256401D02*
X77980001Y-67006401D01*
G75*
G02*
X78230001Y-66756401I250000J0D01*
G01*
X78980001Y-66756401D01*
G75*
G02*
X79230001Y-67006401I0J-250000D01*
G01*
X79230001Y-68256401D01*
G75*
G02*
X78980001Y-68506401I-250000J0D01*
G01*
X78230001Y-68506401D01*
G75*
G02*
X77980001Y-68256401I0J250000D01*
G01*
G37*
G36*
G01*
X111970001Y-30066401D02*
X111970001Y-28816401D01*
G75*
G02*
X112220001Y-28566401I250000J0D01*
G01*
X112970001Y-28566401D01*
G75*
G02*
X113220001Y-28816401I0J-250000D01*
G01*
X113220001Y-30066401D01*
G75*
G02*
X112970001Y-30316401I-250000J0D01*
G01*
X112220001Y-30316401D01*
G75*
G02*
X111970001Y-30066401I0J250000D01*
G01*
G37*
G36*
G01*
X109170001Y-30066401D02*
X109170001Y-28816401D01*
G75*
G02*
X109420001Y-28566401I250000J0D01*
G01*
X110170001Y-28566401D01*
G75*
G02*
X110420001Y-28816401I0J-250000D01*
G01*
X110420001Y-30066401D01*
G75*
G02*
X110170001Y-30316401I-250000J0D01*
G01*
X109420001Y-30316401D01*
G75*
G02*
X109170001Y-30066401I0J250000D01*
G01*
G37*
D15*
X117175001Y-28931401D03*
X115075001Y-28931401D03*
X117175001Y-25981401D03*
X115075001Y-25981401D03*
D16*
X116935001Y-33361401D03*
X114935001Y-34311401D03*
X114935001Y-32411401D03*
X71405001Y-56381401D03*
X69405001Y-57331401D03*
X69405001Y-55431401D03*
X86035001Y-68791401D03*
X84035001Y-69741401D03*
X84035001Y-67841401D03*
G36*
G01*
X89990001Y-52866401D02*
X89990001Y-51616401D01*
G75*
G02*
X90240001Y-51366401I250000J0D01*
G01*
X90990001Y-51366401D01*
G75*
G02*
X91240001Y-51616401I0J-250000D01*
G01*
X91240001Y-52866401D01*
G75*
G02*
X90990001Y-53116401I-250000J0D01*
G01*
X90240001Y-53116401D01*
G75*
G02*
X89990001Y-52866401I0J250000D01*
G01*
G37*
G36*
G01*
X87190001Y-52866401D02*
X87190001Y-51616401D01*
G75*
G02*
X87440001Y-51366401I250000J0D01*
G01*
X88190001Y-51366401D01*
G75*
G02*
X88440001Y-51616401I0J-250000D01*
G01*
X88440001Y-52866401D01*
G75*
G02*
X88190001Y-53116401I-250000J0D01*
G01*
X87440001Y-53116401D01*
G75*
G02*
X87190001Y-52866401I0J250000D01*
G01*
G37*
G36*
G01*
X106070001Y-32326401D02*
X106070001Y-31076401D01*
G75*
G02*
X106320001Y-30826401I250000J0D01*
G01*
X107070001Y-30826401D01*
G75*
G02*
X107320001Y-31076401I0J-250000D01*
G01*
X107320001Y-32326401D01*
G75*
G02*
X107070001Y-32576401I-250000J0D01*
G01*
X106320001Y-32576401D01*
G75*
G02*
X106070001Y-32326401I0J250000D01*
G01*
G37*
G36*
G01*
X103270001Y-32326401D02*
X103270001Y-31076401D01*
G75*
G02*
X103520001Y-30826401I250000J0D01*
G01*
X104270001Y-30826401D01*
G75*
G02*
X104520001Y-31076401I0J-250000D01*
G01*
X104520001Y-32326401D01*
G75*
G02*
X104270001Y-32576401I-250000J0D01*
G01*
X103520001Y-32576401D01*
G75*
G02*
X103270001Y-32326401I0J250000D01*
G01*
G37*
G36*
G01*
X63950001Y-70126401D02*
X63950001Y-68876401D01*
G75*
G02*
X64200001Y-68626401I250000J0D01*
G01*
X64950001Y-68626401D01*
G75*
G02*
X65200001Y-68876401I0J-250000D01*
G01*
X65200001Y-70126401D01*
G75*
G02*
X64950001Y-70376401I-250000J0D01*
G01*
X64200001Y-70376401D01*
G75*
G02*
X63950001Y-70126401I0J250000D01*
G01*
G37*
G36*
G01*
X61150001Y-70126401D02*
X61150001Y-68876401D01*
G75*
G02*
X61400001Y-68626401I250000J0D01*
G01*
X62150001Y-68626401D01*
G75*
G02*
X62400001Y-68876401I0J-250000D01*
G01*
X62400001Y-70126401D01*
G75*
G02*
X62150001Y-70376401I-250000J0D01*
G01*
X61400001Y-70376401D01*
G75*
G02*
X61150001Y-70126401I0J250000D01*
G01*
G37*
G36*
G01*
X69560001Y-70126401D02*
X69560001Y-68876401D01*
G75*
G02*
X69810001Y-68626401I250000J0D01*
G01*
X70560001Y-68626401D01*
G75*
G02*
X70810001Y-68876401I0J-250000D01*
G01*
X70810001Y-70126401D01*
G75*
G02*
X70560001Y-70376401I-250000J0D01*
G01*
X69810001Y-70376401D01*
G75*
G02*
X69560001Y-70126401I0J250000D01*
G01*
G37*
G36*
G01*
X66760001Y-70126401D02*
X66760001Y-68876401D01*
G75*
G02*
X67010001Y-68626401I250000J0D01*
G01*
X67760001Y-68626401D01*
G75*
G02*
X68010001Y-68876401I0J-250000D01*
G01*
X68010001Y-70126401D01*
G75*
G02*
X67760001Y-70376401I-250000J0D01*
G01*
X67010001Y-70376401D01*
G75*
G02*
X66760001Y-70126401I0J250000D01*
G01*
G37*
G36*
G01*
X111970001Y-26776401D02*
X111970001Y-25526401D01*
G75*
G02*
X112220001Y-25276401I250000J0D01*
G01*
X112970001Y-25276401D01*
G75*
G02*
X113220001Y-25526401I0J-250000D01*
G01*
X113220001Y-26776401D01*
G75*
G02*
X112970001Y-27026401I-250000J0D01*
G01*
X112220001Y-27026401D01*
G75*
G02*
X111970001Y-26776401I0J250000D01*
G01*
G37*
G36*
G01*
X109170001Y-26776401D02*
X109170001Y-25526401D01*
G75*
G02*
X109420001Y-25276401I250000J0D01*
G01*
X110170001Y-25276401D01*
G75*
G02*
X110420001Y-25526401I0J-250000D01*
G01*
X110420001Y-26776401D01*
G75*
G02*
X110170001Y-27026401I-250000J0D01*
G01*
X109420001Y-27026401D01*
G75*
G02*
X109170001Y-26776401I0J250000D01*
G01*
G37*
G36*
G01*
X112010001Y-43226401D02*
X112010001Y-41976401D01*
G75*
G02*
X112260001Y-41726401I250000J0D01*
G01*
X113010001Y-41726401D01*
G75*
G02*
X113260001Y-41976401I0J-250000D01*
G01*
X113260001Y-43226401D01*
G75*
G02*
X113010001Y-43476401I-250000J0D01*
G01*
X112260001Y-43476401D01*
G75*
G02*
X112010001Y-43226401I0J250000D01*
G01*
G37*
G36*
G01*
X109210001Y-43226401D02*
X109210001Y-41976401D01*
G75*
G02*
X109460001Y-41726401I250000J0D01*
G01*
X110210001Y-41726401D01*
G75*
G02*
X110460001Y-41976401I0J-250000D01*
G01*
X110460001Y-43226401D01*
G75*
G02*
X110210001Y-43476401I-250000J0D01*
G01*
X109460001Y-43476401D01*
G75*
G02*
X109210001Y-43226401I0J250000D01*
G01*
G37*
G36*
G01*
X100790001Y-48206401D02*
X100790001Y-46956401D01*
G75*
G02*
X101040001Y-46706401I250000J0D01*
G01*
X101790001Y-46706401D01*
G75*
G02*
X102040001Y-46956401I0J-250000D01*
G01*
X102040001Y-48206401D01*
G75*
G02*
X101790001Y-48456401I-250000J0D01*
G01*
X101040001Y-48456401D01*
G75*
G02*
X100790001Y-48206401I0J250000D01*
G01*
G37*
G36*
G01*
X97990001Y-48206401D02*
X97990001Y-46956401D01*
G75*
G02*
X98240001Y-46706401I250000J0D01*
G01*
X98990001Y-46706401D01*
G75*
G02*
X99240001Y-46956401I0J-250000D01*
G01*
X99240001Y-48206401D01*
G75*
G02*
X98990001Y-48456401I-250000J0D01*
G01*
X98240001Y-48456401D01*
G75*
G02*
X97990001Y-48206401I0J250000D01*
G01*
G37*
G36*
G01*
X105440001Y-35616401D02*
X105440001Y-34366401D01*
G75*
G02*
X105690001Y-34116401I250000J0D01*
G01*
X106440001Y-34116401D01*
G75*
G02*
X106690001Y-34366401I0J-250000D01*
G01*
X106690001Y-35616401D01*
G75*
G02*
X106440001Y-35866401I-250000J0D01*
G01*
X105690001Y-35866401D01*
G75*
G02*
X105440001Y-35616401I0J250000D01*
G01*
G37*
G36*
G01*
X102640001Y-35616401D02*
X102640001Y-34366401D01*
G75*
G02*
X102890001Y-34116401I250000J0D01*
G01*
X103640001Y-34116401D01*
G75*
G02*
X103890001Y-34366401I0J-250000D01*
G01*
X103890001Y-35616401D01*
G75*
G02*
X103640001Y-35866401I-250000J0D01*
G01*
X102890001Y-35866401D01*
G75*
G02*
X102640001Y-35616401I0J250000D01*
G01*
G37*
M02*
