G04 #@! TF.GenerationSoftware,KiCad,Pcbnew,(5.1.6)-1*
G04 #@! TF.CreationDate,2020-07-14T11:46:24+02:00*
G04 #@! TF.ProjectId,sboxnet-booster,73626f78-6e65-4742-9d62-6f6f73746572,rev?*
G04 #@! TF.SameCoordinates,Original*
G04 #@! TF.FileFunction,Copper,L2,Bot*
G04 #@! TF.FilePolarity,Positive*
%FSLAX46Y46*%
G04 Gerber Fmt 4.6, Leading zero omitted, Abs format (unit mm)*
G04 Created by KiCad (PCBNEW (5.1.6)-1) date 2020-07-14 11:46:24*
%MOMM*%
%LPD*%
G01*
G04 APERTURE LIST*
G04 #@! TA.AperFunction,ComponentPad*
%ADD10O,1.700000X1.700000*%
G04 #@! TD*
G04 #@! TA.AperFunction,ComponentPad*
%ADD11R,1.700000X1.700000*%
G04 #@! TD*
G04 #@! TA.AperFunction,Conductor*
%ADD12R,6.780000X11.860000*%
G04 #@! TD*
G04 #@! TA.AperFunction,ViaPad*
%ADD13C,1.000000*%
G04 #@! TD*
G04 #@! TA.AperFunction,ComponentPad*
%ADD14O,2.400000X2.400000*%
G04 #@! TD*
G04 #@! TA.AperFunction,ComponentPad*
%ADD15C,2.400000*%
G04 #@! TD*
G04 #@! TA.AperFunction,ComponentPad*
%ADD16C,3.000000*%
G04 #@! TD*
G04 #@! TA.AperFunction,ComponentPad*
%ADD17O,1.980000X3.960000*%
G04 #@! TD*
G04 #@! TA.AperFunction,ComponentPad*
%ADD18R,1.980000X3.960000*%
G04 #@! TD*
G04 #@! TA.AperFunction,ComponentPad*
%ADD19C,1.524000*%
G04 #@! TD*
G04 #@! TA.AperFunction,ComponentPad*
%ADD20R,1.524000X1.524000*%
G04 #@! TD*
G04 #@! TA.AperFunction,ComponentPad*
%ADD21O,2.800000X2.800000*%
G04 #@! TD*
G04 #@! TA.AperFunction,ComponentPad*
%ADD22R,2.800000X2.800000*%
G04 #@! TD*
G04 #@! TA.AperFunction,ComponentPad*
%ADD23C,1.800000*%
G04 #@! TD*
G04 #@! TA.AperFunction,ComponentPad*
%ADD24R,1.800000X1.800000*%
G04 #@! TD*
G04 #@! TA.AperFunction,ComponentPad*
%ADD25C,1.600000*%
G04 #@! TD*
G04 #@! TA.AperFunction,ComponentPad*
%ADD26R,1.600000X1.600000*%
G04 #@! TD*
G04 #@! TA.AperFunction,ComponentPad*
%ADD27R,2.400000X2.400000*%
G04 #@! TD*
G04 #@! TA.AperFunction,ViaPad*
%ADD28C,0.800000*%
G04 #@! TD*
G04 #@! TA.AperFunction,Conductor*
%ADD29C,1.000000*%
G04 #@! TD*
G04 APERTURE END LIST*
D10*
X90779600Y-147574000D03*
D11*
X93319600Y-147574000D03*
D12*
X97891600Y-129133600D03*
D13*
X96621600Y-124053600D03*
X97891600Y-124053600D03*
X99161600Y-124053600D03*
X95351600Y-126593600D03*
X96621600Y-126593600D03*
X97891600Y-126593600D03*
X99161600Y-126593600D03*
X100431600Y-126593600D03*
X95351600Y-129133600D03*
X96621600Y-129133600D03*
X97891600Y-129133600D03*
X99161600Y-129133600D03*
X100431600Y-129133600D03*
X95351600Y-131673600D03*
X96621600Y-131673600D03*
X97891600Y-131673600D03*
X99161600Y-131673600D03*
X100431600Y-131673600D03*
X96621600Y-134213600D03*
X97891600Y-134213600D03*
X99161600Y-134213600D03*
D10*
X99535001Y-40351401D03*
X99535001Y-37811401D03*
D11*
X99535001Y-35271401D03*
D14*
X71325001Y-24231401D03*
D15*
X25605001Y-24231401D03*
D14*
X71325001Y-34781401D03*
D15*
X25605001Y-34781401D03*
D16*
X50901600Y-123240800D03*
X38201600Y-123240800D03*
X38201600Y-134670800D03*
X50901600Y-134670800D03*
D17*
X68420000Y-156210000D03*
X73420000Y-156210000D03*
X63420000Y-156210000D03*
D18*
X58420000Y-156210000D03*
D17*
X128110000Y-156210000D03*
X133110000Y-156210000D03*
X123110000Y-156210000D03*
D18*
X118110000Y-156210000D03*
D10*
X107492800Y-142900400D03*
D11*
X110032800Y-142900400D03*
D19*
X77924001Y-62886400D03*
X77924001Y-60346400D03*
X77924001Y-57806400D03*
X77924001Y-55266400D03*
X77924001Y-52726400D03*
X77924001Y-50186400D03*
X77924001Y-47646400D03*
X75384001Y-62886400D03*
X75384001Y-60346400D03*
X75384001Y-57806400D03*
X75384001Y-55266400D03*
X75384001Y-52726400D03*
X75384001Y-50186400D03*
X75384001Y-47646400D03*
X77924001Y-45106400D03*
X75384001Y-45106400D03*
X77924001Y-42566400D03*
X75384001Y-42566400D03*
X77924001Y-40026400D03*
X75384001Y-40026400D03*
X77924001Y-37486400D03*
X75384001Y-37486400D03*
X77924001Y-34946400D03*
X75384001Y-34946400D03*
X77924001Y-32406400D03*
X75384001Y-32406400D03*
X77924001Y-29866400D03*
X75384001Y-29866400D03*
X77924001Y-27326400D03*
X75384001Y-27326400D03*
X77924001Y-24786400D03*
X75384001Y-24786400D03*
D20*
X77924001Y-22246400D03*
D19*
X75384001Y-22246400D03*
D21*
X38201600Y-143103600D03*
D22*
X48361600Y-143103600D03*
D23*
X71215001Y-64081401D03*
D24*
X68675001Y-64081401D03*
D23*
X106705001Y-21731401D03*
D24*
X104165001Y-21731401D03*
D23*
X112605001Y-21731401D03*
D24*
X110065001Y-21731401D03*
D23*
X106705001Y-27281401D03*
D24*
X104165001Y-27281401D03*
D23*
X50075001Y-60631401D03*
D24*
X47535001Y-60631401D03*
D23*
X55975001Y-60631401D03*
D24*
X53435001Y-60631401D03*
D25*
X64734776Y-64581401D03*
D26*
X62734776Y-64581401D03*
D15*
X68757083Y-47081401D03*
D27*
X63757083Y-47081401D03*
D28*
X84429600Y-125526800D03*
X107391200Y-125476000D03*
X88595200Y-132740400D03*
X86817200Y-139496800D03*
X86817200Y-127152400D03*
X107594400Y-132740400D03*
D29*
X48361600Y-143103600D02*
X66852800Y-143103600D01*
X66852800Y-143103600D02*
X84429600Y-125526800D01*
X84429600Y-125526800D02*
X84429600Y-125526800D01*
X84429600Y-125526800D02*
X90220800Y-119735600D01*
X90220800Y-119735600D02*
X107391200Y-119735600D01*
X107391200Y-119735600D02*
X107391200Y-125476000D01*
X107391200Y-125476000D02*
X107391200Y-125476000D01*
X90728800Y-142798800D02*
X90728800Y-131470400D01*
X90728800Y-142798800D02*
X90728800Y-134874000D01*
X90728800Y-134874000D02*
X88595200Y-132740400D01*
X88595200Y-132740400D02*
X88595200Y-132740400D01*
X90728800Y-142798800D02*
X90728800Y-154025600D01*
X90728800Y-154025600D02*
X90017600Y-154736800D01*
X90017600Y-154736800D02*
X75133200Y-154736800D01*
X75133200Y-154736800D02*
X73660000Y-156210000D01*
X73420000Y-156210000D02*
X68580000Y-156210000D01*
X68420000Y-156210000D02*
X63500000Y-156210000D01*
X63420000Y-156210000D02*
X58420000Y-156210000D01*
X86817200Y-139496800D02*
X86817200Y-127152400D01*
X86817200Y-127152400D02*
X86817200Y-127152400D01*
X107594400Y-132740400D02*
X107645200Y-132689600D01*
X93319600Y-147574000D02*
X104038400Y-147574000D01*
X104038400Y-147574000D02*
X105156000Y-146456400D01*
X105156000Y-146456400D02*
X105156000Y-136144000D01*
X105156000Y-136144000D02*
X107543600Y-136144000D01*
X107594400Y-136093200D02*
X107594400Y-132740400D01*
X107543600Y-136144000D02*
X107594400Y-136093200D01*
M02*
