G04 #@! TF.GenerationSoftware,KiCad,Pcbnew,(5.1.6)-1*
G04 #@! TF.CreationDate,2020-07-14T11:46:25+02:00*
G04 #@! TF.ProjectId,sboxnet-booster,73626f78-6e65-4742-9d62-6f6f73746572,rev?*
G04 #@! TF.SameCoordinates,Original*
G04 #@! TF.FileFunction,Soldermask,Bot*
G04 #@! TF.FilePolarity,Negative*
%FSLAX46Y46*%
G04 Gerber Fmt 4.6, Leading zero omitted, Abs format (unit mm)*
G04 Created by KiCad (PCBNEW (5.1.6)-1) date 2020-07-14 11:46:25*
%MOMM*%
%LPD*%
G01*
G04 APERTURE LIST*
%ADD10C,0.100000*%
G04 APERTURE END LIST*
D10*
G36*
X63624071Y-154194063D02*
G01*
X63820300Y-154253589D01*
X64001146Y-154350253D01*
X64042437Y-154384140D01*
X64159660Y-154480340D01*
X64289748Y-154638855D01*
X64386410Y-154819697D01*
X64386411Y-154819699D01*
X64445937Y-155015928D01*
X64461000Y-155168868D01*
X64461000Y-157251132D01*
X64445937Y-157404072D01*
X64386411Y-157600301D01*
X64386410Y-157600303D01*
X64289748Y-157781145D01*
X64159660Y-157939660D01*
X64001145Y-158069748D01*
X63820303Y-158166410D01*
X63820301Y-158166411D01*
X63624072Y-158225937D01*
X63420000Y-158246036D01*
X63215929Y-158225937D01*
X63019700Y-158166411D01*
X63019698Y-158166410D01*
X62838856Y-158069748D01*
X62680341Y-157939660D01*
X62550253Y-157781145D01*
X62453591Y-157600303D01*
X62453590Y-157600301D01*
X62394064Y-157404072D01*
X62379001Y-157251132D01*
X62379000Y-155168869D01*
X62394063Y-155015929D01*
X62453589Y-154819700D01*
X62550253Y-154638854D01*
X62584140Y-154597563D01*
X62680340Y-154480340D01*
X62838855Y-154350252D01*
X63019697Y-154253590D01*
X63019699Y-154253589D01*
X63215928Y-154194063D01*
X63420000Y-154173964D01*
X63624071Y-154194063D01*
G37*
G36*
X123314071Y-154194063D02*
G01*
X123510300Y-154253589D01*
X123691146Y-154350253D01*
X123732437Y-154384140D01*
X123849660Y-154480340D01*
X123979748Y-154638855D01*
X124076410Y-154819697D01*
X124076411Y-154819699D01*
X124135937Y-155015928D01*
X124151000Y-155168868D01*
X124151000Y-157251132D01*
X124135937Y-157404072D01*
X124076411Y-157600301D01*
X124076410Y-157600303D01*
X123979748Y-157781145D01*
X123849660Y-157939660D01*
X123691145Y-158069748D01*
X123510303Y-158166410D01*
X123510301Y-158166411D01*
X123314072Y-158225937D01*
X123110000Y-158246036D01*
X122905929Y-158225937D01*
X122709700Y-158166411D01*
X122709698Y-158166410D01*
X122528856Y-158069748D01*
X122370341Y-157939660D01*
X122240253Y-157781145D01*
X122143591Y-157600303D01*
X122143590Y-157600301D01*
X122084064Y-157404072D01*
X122069001Y-157251132D01*
X122069000Y-155168869D01*
X122084063Y-155015929D01*
X122143589Y-154819700D01*
X122240253Y-154638854D01*
X122274140Y-154597563D01*
X122370340Y-154480340D01*
X122528855Y-154350252D01*
X122709697Y-154253590D01*
X122709699Y-154253589D01*
X122905928Y-154194063D01*
X123110000Y-154173964D01*
X123314071Y-154194063D01*
G37*
G36*
X133314071Y-154194063D02*
G01*
X133510300Y-154253589D01*
X133691146Y-154350253D01*
X133732437Y-154384140D01*
X133849660Y-154480340D01*
X133979748Y-154638855D01*
X134076410Y-154819697D01*
X134076411Y-154819699D01*
X134135937Y-155015928D01*
X134151000Y-155168868D01*
X134151000Y-157251132D01*
X134135937Y-157404072D01*
X134076411Y-157600301D01*
X134076410Y-157600303D01*
X133979748Y-157781145D01*
X133849660Y-157939660D01*
X133691145Y-158069748D01*
X133510303Y-158166410D01*
X133510301Y-158166411D01*
X133314072Y-158225937D01*
X133110000Y-158246036D01*
X132905929Y-158225937D01*
X132709700Y-158166411D01*
X132709698Y-158166410D01*
X132528856Y-158069748D01*
X132370341Y-157939660D01*
X132240253Y-157781145D01*
X132143591Y-157600303D01*
X132143590Y-157600301D01*
X132084064Y-157404072D01*
X132069001Y-157251132D01*
X132069000Y-155168869D01*
X132084063Y-155015929D01*
X132143589Y-154819700D01*
X132240253Y-154638854D01*
X132274140Y-154597563D01*
X132370340Y-154480340D01*
X132528855Y-154350252D01*
X132709697Y-154253590D01*
X132709699Y-154253589D01*
X132905928Y-154194063D01*
X133110000Y-154173964D01*
X133314071Y-154194063D01*
G37*
G36*
X128314071Y-154194063D02*
G01*
X128510300Y-154253589D01*
X128691146Y-154350253D01*
X128732437Y-154384140D01*
X128849660Y-154480340D01*
X128979748Y-154638855D01*
X129076410Y-154819697D01*
X129076411Y-154819699D01*
X129135937Y-155015928D01*
X129151000Y-155168868D01*
X129151000Y-157251132D01*
X129135937Y-157404072D01*
X129076411Y-157600301D01*
X129076410Y-157600303D01*
X128979748Y-157781145D01*
X128849660Y-157939660D01*
X128691145Y-158069748D01*
X128510303Y-158166410D01*
X128510301Y-158166411D01*
X128314072Y-158225937D01*
X128110000Y-158246036D01*
X127905929Y-158225937D01*
X127709700Y-158166411D01*
X127709698Y-158166410D01*
X127528856Y-158069748D01*
X127370341Y-157939660D01*
X127240253Y-157781145D01*
X127143591Y-157600303D01*
X127143590Y-157600301D01*
X127084064Y-157404072D01*
X127069001Y-157251132D01*
X127069000Y-155168869D01*
X127084063Y-155015929D01*
X127143589Y-154819700D01*
X127240253Y-154638854D01*
X127274140Y-154597563D01*
X127370340Y-154480340D01*
X127528855Y-154350252D01*
X127709697Y-154253590D01*
X127709699Y-154253589D01*
X127905928Y-154194063D01*
X128110000Y-154173964D01*
X128314071Y-154194063D01*
G37*
G36*
X68624071Y-154194063D02*
G01*
X68820300Y-154253589D01*
X69001146Y-154350253D01*
X69042437Y-154384140D01*
X69159660Y-154480340D01*
X69289748Y-154638855D01*
X69386410Y-154819697D01*
X69386411Y-154819699D01*
X69445937Y-155015928D01*
X69461000Y-155168868D01*
X69461000Y-157251132D01*
X69445937Y-157404072D01*
X69386411Y-157600301D01*
X69386410Y-157600303D01*
X69289748Y-157781145D01*
X69159660Y-157939660D01*
X69001145Y-158069748D01*
X68820303Y-158166410D01*
X68820301Y-158166411D01*
X68624072Y-158225937D01*
X68420000Y-158246036D01*
X68215929Y-158225937D01*
X68019700Y-158166411D01*
X68019698Y-158166410D01*
X67838856Y-158069748D01*
X67680341Y-157939660D01*
X67550253Y-157781145D01*
X67453591Y-157600303D01*
X67453590Y-157600301D01*
X67394064Y-157404072D01*
X67379001Y-157251132D01*
X67379000Y-155168869D01*
X67394063Y-155015929D01*
X67453589Y-154819700D01*
X67550253Y-154638854D01*
X67584140Y-154597563D01*
X67680340Y-154480340D01*
X67838855Y-154350252D01*
X68019697Y-154253590D01*
X68019699Y-154253589D01*
X68215928Y-154194063D01*
X68420000Y-154173964D01*
X68624071Y-154194063D01*
G37*
G36*
X73624071Y-154194063D02*
G01*
X73820300Y-154253589D01*
X74001146Y-154350253D01*
X74042437Y-154384140D01*
X74159660Y-154480340D01*
X74289748Y-154638855D01*
X74386410Y-154819697D01*
X74386411Y-154819699D01*
X74445937Y-155015928D01*
X74461000Y-155168868D01*
X74461000Y-157251132D01*
X74445937Y-157404072D01*
X74386411Y-157600301D01*
X74386410Y-157600303D01*
X74289748Y-157781145D01*
X74159660Y-157939660D01*
X74001145Y-158069748D01*
X73820303Y-158166410D01*
X73820301Y-158166411D01*
X73624072Y-158225937D01*
X73420000Y-158246036D01*
X73215929Y-158225937D01*
X73019700Y-158166411D01*
X73019698Y-158166410D01*
X72838856Y-158069748D01*
X72680341Y-157939660D01*
X72550253Y-157781145D01*
X72453591Y-157600303D01*
X72453590Y-157600301D01*
X72394064Y-157404072D01*
X72379001Y-157251132D01*
X72379000Y-155168869D01*
X72394063Y-155015929D01*
X72453589Y-154819700D01*
X72550253Y-154638854D01*
X72584140Y-154597563D01*
X72680340Y-154480340D01*
X72838855Y-154350252D01*
X73019697Y-154253590D01*
X73019699Y-154253589D01*
X73215928Y-154194063D01*
X73420000Y-154173964D01*
X73624071Y-154194063D01*
G37*
G36*
X59461000Y-158241000D02*
G01*
X57379000Y-158241000D01*
X57379000Y-154179000D01*
X59461000Y-154179000D01*
X59461000Y-158241000D01*
G37*
G36*
X119151000Y-158241000D02*
G01*
X117069000Y-158241000D01*
X117069000Y-154179000D01*
X119151000Y-154179000D01*
X119151000Y-158241000D01*
G37*
G36*
X90893112Y-146677927D02*
G01*
X91042412Y-146707624D01*
X91206384Y-146775544D01*
X91353954Y-146874147D01*
X91479453Y-146999646D01*
X91578056Y-147147216D01*
X91645976Y-147311188D01*
X91680600Y-147485259D01*
X91680600Y-147662741D01*
X91645976Y-147836812D01*
X91578056Y-148000784D01*
X91479453Y-148148354D01*
X91353954Y-148273853D01*
X91206384Y-148372456D01*
X91042412Y-148440376D01*
X90893112Y-148470073D01*
X90868342Y-148475000D01*
X90690858Y-148475000D01*
X90666088Y-148470073D01*
X90516788Y-148440376D01*
X90352816Y-148372456D01*
X90205246Y-148273853D01*
X90079747Y-148148354D01*
X89981144Y-148000784D01*
X89913224Y-147836812D01*
X89878600Y-147662741D01*
X89878600Y-147485259D01*
X89913224Y-147311188D01*
X89981144Y-147147216D01*
X90079747Y-146999646D01*
X90205246Y-146874147D01*
X90352816Y-146775544D01*
X90516788Y-146707624D01*
X90666088Y-146677927D01*
X90690858Y-146673000D01*
X90868342Y-146673000D01*
X90893112Y-146677927D01*
G37*
G36*
X94220600Y-148475000D02*
G01*
X92418600Y-148475000D01*
X92418600Y-146673000D01*
X94220600Y-146673000D01*
X94220600Y-148475000D01*
G37*
G36*
X49812600Y-144554600D02*
G01*
X46910600Y-144554600D01*
X46910600Y-141652600D01*
X49812600Y-141652600D01*
X49812600Y-144554600D01*
G37*
G36*
X38624841Y-141708360D02*
G01*
X38888905Y-141817739D01*
X39126558Y-141976534D01*
X39328666Y-142178642D01*
X39487461Y-142416295D01*
X39596840Y-142680359D01*
X39652600Y-142960688D01*
X39652600Y-143246512D01*
X39596840Y-143526841D01*
X39487461Y-143790905D01*
X39328666Y-144028558D01*
X39126558Y-144230666D01*
X38888905Y-144389461D01*
X38624841Y-144498840D01*
X38344512Y-144554600D01*
X38058688Y-144554600D01*
X37778359Y-144498840D01*
X37514295Y-144389461D01*
X37276642Y-144230666D01*
X37074534Y-144028558D01*
X36915739Y-143790905D01*
X36806360Y-143526841D01*
X36750600Y-143246512D01*
X36750600Y-142960688D01*
X36806360Y-142680359D01*
X36915739Y-142416295D01*
X37074534Y-142178642D01*
X37276642Y-141976534D01*
X37514295Y-141817739D01*
X37778359Y-141708360D01*
X38058688Y-141652600D01*
X38344512Y-141652600D01*
X38624841Y-141708360D01*
G37*
G36*
X107606312Y-142004327D02*
G01*
X107755612Y-142034024D01*
X107919584Y-142101944D01*
X108067154Y-142200547D01*
X108192653Y-142326046D01*
X108291256Y-142473616D01*
X108359176Y-142637588D01*
X108393800Y-142811659D01*
X108393800Y-142989141D01*
X108359176Y-143163212D01*
X108291256Y-143327184D01*
X108192653Y-143474754D01*
X108067154Y-143600253D01*
X107919584Y-143698856D01*
X107755612Y-143766776D01*
X107606312Y-143796473D01*
X107581542Y-143801400D01*
X107404058Y-143801400D01*
X107379288Y-143796473D01*
X107229988Y-143766776D01*
X107066016Y-143698856D01*
X106918446Y-143600253D01*
X106792947Y-143474754D01*
X106694344Y-143327184D01*
X106626424Y-143163212D01*
X106591800Y-142989141D01*
X106591800Y-142811659D01*
X106626424Y-142637588D01*
X106694344Y-142473616D01*
X106792947Y-142326046D01*
X106918446Y-142200547D01*
X107066016Y-142101944D01*
X107229988Y-142034024D01*
X107379288Y-142004327D01*
X107404058Y-141999400D01*
X107581542Y-141999400D01*
X107606312Y-142004327D01*
G37*
G36*
X110933800Y-143801400D02*
G01*
X109131800Y-143801400D01*
X109131800Y-141999400D01*
X110933800Y-141999400D01*
X110933800Y-143801400D01*
G37*
G36*
X51204185Y-133149602D02*
G01*
X51354010Y-133179404D01*
X51636274Y-133296321D01*
X51890305Y-133466059D01*
X52106341Y-133682095D01*
X52276079Y-133936126D01*
X52392996Y-134218390D01*
X52452600Y-134518040D01*
X52452600Y-134823560D01*
X52392996Y-135123210D01*
X52276079Y-135405474D01*
X52106341Y-135659505D01*
X51890305Y-135875541D01*
X51636274Y-136045279D01*
X51354010Y-136162196D01*
X51204185Y-136191998D01*
X51054361Y-136221800D01*
X50748839Y-136221800D01*
X50599015Y-136191998D01*
X50449190Y-136162196D01*
X50166926Y-136045279D01*
X49912895Y-135875541D01*
X49696859Y-135659505D01*
X49527121Y-135405474D01*
X49410204Y-135123210D01*
X49350600Y-134823560D01*
X49350600Y-134518040D01*
X49410204Y-134218390D01*
X49527121Y-133936126D01*
X49696859Y-133682095D01*
X49912895Y-133466059D01*
X50166926Y-133296321D01*
X50449190Y-133179404D01*
X50599015Y-133149602D01*
X50748839Y-133119800D01*
X51054361Y-133119800D01*
X51204185Y-133149602D01*
G37*
G36*
X38504185Y-133149602D02*
G01*
X38654010Y-133179404D01*
X38936274Y-133296321D01*
X39190305Y-133466059D01*
X39406341Y-133682095D01*
X39576079Y-133936126D01*
X39692996Y-134218390D01*
X39752600Y-134518040D01*
X39752600Y-134823560D01*
X39692996Y-135123210D01*
X39576079Y-135405474D01*
X39406341Y-135659505D01*
X39190305Y-135875541D01*
X38936274Y-136045279D01*
X38654010Y-136162196D01*
X38504185Y-136191998D01*
X38354361Y-136221800D01*
X38048839Y-136221800D01*
X37899015Y-136191998D01*
X37749190Y-136162196D01*
X37466926Y-136045279D01*
X37212895Y-135875541D01*
X36996859Y-135659505D01*
X36827121Y-135405474D01*
X36710204Y-135123210D01*
X36650600Y-134823560D01*
X36650600Y-134518040D01*
X36710204Y-134218390D01*
X36827121Y-133936126D01*
X36996859Y-133682095D01*
X37212895Y-133466059D01*
X37466926Y-133296321D01*
X37749190Y-133179404D01*
X37899015Y-133149602D01*
X38048839Y-133119800D01*
X38354361Y-133119800D01*
X38504185Y-133149602D01*
G37*
G36*
X41708164Y-133660189D02*
G01*
X41899433Y-133739415D01*
X41899435Y-133739416D01*
X42071573Y-133854435D01*
X42217965Y-134000827D01*
X42332985Y-134172967D01*
X42412211Y-134364236D01*
X42452600Y-134567284D01*
X42452600Y-134774316D01*
X42412211Y-134977364D01*
X42351800Y-135123209D01*
X42332984Y-135168635D01*
X42217965Y-135340773D01*
X42071573Y-135487165D01*
X41899435Y-135602184D01*
X41899434Y-135602185D01*
X41899433Y-135602185D01*
X41708164Y-135681411D01*
X41505116Y-135721800D01*
X41298084Y-135721800D01*
X41095036Y-135681411D01*
X40903767Y-135602185D01*
X40903766Y-135602185D01*
X40903765Y-135602184D01*
X40731627Y-135487165D01*
X40585235Y-135340773D01*
X40470216Y-135168635D01*
X40451400Y-135123209D01*
X40390989Y-134977364D01*
X40350600Y-134774316D01*
X40350600Y-134567284D01*
X40390989Y-134364236D01*
X40470215Y-134172967D01*
X40585235Y-134000827D01*
X40731627Y-133854435D01*
X40903765Y-133739416D01*
X40903767Y-133739415D01*
X41095036Y-133660189D01*
X41298084Y-133619800D01*
X41505116Y-133619800D01*
X41708164Y-133660189D01*
G37*
G36*
X48054185Y-131019602D02*
G01*
X48204010Y-131049404D01*
X48486274Y-131166321D01*
X48740305Y-131336059D01*
X48956341Y-131552095D01*
X49126079Y-131806126D01*
X49242996Y-132088390D01*
X49302600Y-132388040D01*
X49302600Y-132693560D01*
X49242996Y-132993210D01*
X49126079Y-133275474D01*
X48956341Y-133529505D01*
X48740305Y-133745541D01*
X48486274Y-133915279D01*
X48204010Y-134032196D01*
X48054185Y-134061998D01*
X47904361Y-134091800D01*
X47598839Y-134091800D01*
X47449015Y-134061998D01*
X47299190Y-134032196D01*
X47016926Y-133915279D01*
X46762895Y-133745541D01*
X46546859Y-133529505D01*
X46377121Y-133275474D01*
X46260204Y-132993210D01*
X46200600Y-132693560D01*
X46200600Y-132388040D01*
X46260204Y-132088390D01*
X46377121Y-131806126D01*
X46546859Y-131552095D01*
X46762895Y-131336059D01*
X47016926Y-131166321D01*
X47299190Y-131049404D01*
X47449015Y-131019602D01*
X47598839Y-130989800D01*
X47904361Y-130989800D01*
X48054185Y-131019602D01*
G37*
G36*
X38504185Y-121719602D02*
G01*
X38654010Y-121749404D01*
X38936274Y-121866321D01*
X39190305Y-122036059D01*
X39406341Y-122252095D01*
X39576079Y-122506126D01*
X39692996Y-122788390D01*
X39752600Y-123088040D01*
X39752600Y-123393560D01*
X39692996Y-123693210D01*
X39576079Y-123975474D01*
X39406341Y-124229505D01*
X39190305Y-124445541D01*
X38936274Y-124615279D01*
X38654010Y-124732196D01*
X38504185Y-124761998D01*
X38354361Y-124791800D01*
X38048839Y-124791800D01*
X37899015Y-124761998D01*
X37749190Y-124732196D01*
X37466926Y-124615279D01*
X37212895Y-124445541D01*
X36996859Y-124229505D01*
X36827121Y-123975474D01*
X36710204Y-123693210D01*
X36650600Y-123393560D01*
X36650600Y-123088040D01*
X36710204Y-122788390D01*
X36827121Y-122506126D01*
X36996859Y-122252095D01*
X37212895Y-122036059D01*
X37466926Y-121866321D01*
X37749190Y-121749404D01*
X37899015Y-121719602D01*
X38048839Y-121689800D01*
X38354361Y-121689800D01*
X38504185Y-121719602D01*
G37*
G36*
X51204185Y-121719602D02*
G01*
X51354010Y-121749404D01*
X51636274Y-121866321D01*
X51890305Y-122036059D01*
X52106341Y-122252095D01*
X52276079Y-122506126D01*
X52392996Y-122788390D01*
X52452600Y-123088040D01*
X52452600Y-123393560D01*
X52392996Y-123693210D01*
X52276079Y-123975474D01*
X52106341Y-124229505D01*
X51890305Y-124445541D01*
X51636274Y-124615279D01*
X51354010Y-124732196D01*
X51204185Y-124761998D01*
X51054361Y-124791800D01*
X50748839Y-124791800D01*
X50599015Y-124761998D01*
X50449190Y-124732196D01*
X50166926Y-124615279D01*
X49912895Y-124445541D01*
X49696859Y-124229505D01*
X49527121Y-123975474D01*
X49410204Y-123693210D01*
X49350600Y-123393560D01*
X49350600Y-123088040D01*
X49410204Y-122788390D01*
X49527121Y-122506126D01*
X49696859Y-122252095D01*
X49912895Y-122036059D01*
X50166926Y-121866321D01*
X50449190Y-121749404D01*
X50599015Y-121719602D01*
X50748839Y-121689800D01*
X51054361Y-121689800D01*
X51204185Y-121719602D01*
G37*
G36*
X41708164Y-122230189D02*
G01*
X41899433Y-122309415D01*
X41899435Y-122309416D01*
X42071573Y-122424435D01*
X42217965Y-122570827D01*
X42332985Y-122742967D01*
X42412211Y-122934236D01*
X42452600Y-123137284D01*
X42452600Y-123344316D01*
X42412211Y-123547364D01*
X42351800Y-123693209D01*
X42332984Y-123738635D01*
X42217965Y-123910773D01*
X42071573Y-124057165D01*
X41899435Y-124172184D01*
X41899434Y-124172185D01*
X41899433Y-124172185D01*
X41708164Y-124251411D01*
X41505116Y-124291800D01*
X41298084Y-124291800D01*
X41095036Y-124251411D01*
X40903767Y-124172185D01*
X40903766Y-124172185D01*
X40903765Y-124172184D01*
X40731627Y-124057165D01*
X40585235Y-123910773D01*
X40470216Y-123738635D01*
X40451400Y-123693209D01*
X40390989Y-123547364D01*
X40350600Y-123344316D01*
X40350600Y-123137284D01*
X40390989Y-122934236D01*
X40470215Y-122742967D01*
X40585235Y-122570827D01*
X40731627Y-122424435D01*
X40903765Y-122309416D01*
X40903767Y-122309415D01*
X41095036Y-122230189D01*
X41298084Y-122189800D01*
X41505116Y-122189800D01*
X41708164Y-122230189D01*
G37*
G36*
X64983004Y-63763104D02*
G01*
X65137876Y-63827254D01*
X65277257Y-63920386D01*
X65395791Y-64038920D01*
X65488923Y-64178301D01*
X65553073Y-64333173D01*
X65585776Y-64497585D01*
X65585776Y-64665217D01*
X65553073Y-64829629D01*
X65488923Y-64984501D01*
X65395791Y-65123882D01*
X65277257Y-65242416D01*
X65137876Y-65335548D01*
X64983004Y-65399698D01*
X64818592Y-65432401D01*
X64650960Y-65432401D01*
X64486548Y-65399698D01*
X64331676Y-65335548D01*
X64192295Y-65242416D01*
X64073761Y-65123882D01*
X63980629Y-64984501D01*
X63916479Y-64829629D01*
X63883776Y-64665217D01*
X63883776Y-64497585D01*
X63916479Y-64333173D01*
X63980629Y-64178301D01*
X64073761Y-64038920D01*
X64192295Y-63920386D01*
X64331676Y-63827254D01*
X64486548Y-63763104D01*
X64650960Y-63730401D01*
X64818592Y-63730401D01*
X64983004Y-63763104D01*
G37*
G36*
X63585776Y-65432401D02*
G01*
X61883776Y-65432401D01*
X61883776Y-63730401D01*
X63585776Y-63730401D01*
X63585776Y-65432401D01*
G37*
G36*
X71492396Y-63166947D02*
G01*
X71665467Y-63238635D01*
X71665468Y-63238636D01*
X71821228Y-63342711D01*
X71953691Y-63475174D01*
X71953692Y-63475176D01*
X72057767Y-63630935D01*
X72129455Y-63804006D01*
X72166001Y-63987734D01*
X72166001Y-64175068D01*
X72129455Y-64358796D01*
X72057767Y-64531867D01*
X72057766Y-64531868D01*
X71953691Y-64687628D01*
X71821228Y-64820091D01*
X71742819Y-64872482D01*
X71665467Y-64924167D01*
X71492396Y-64995855D01*
X71308668Y-65032401D01*
X71121334Y-65032401D01*
X70937606Y-64995855D01*
X70764535Y-64924167D01*
X70687183Y-64872482D01*
X70608774Y-64820091D01*
X70476311Y-64687628D01*
X70372236Y-64531868D01*
X70372235Y-64531867D01*
X70300547Y-64358796D01*
X70264001Y-64175068D01*
X70264001Y-63987734D01*
X70300547Y-63804006D01*
X70372235Y-63630935D01*
X70476310Y-63475176D01*
X70476311Y-63475174D01*
X70608774Y-63342711D01*
X70764534Y-63238636D01*
X70764535Y-63238635D01*
X70937606Y-63166947D01*
X71121334Y-63130401D01*
X71308668Y-63130401D01*
X71492396Y-63166947D01*
G37*
G36*
X69626001Y-65032401D02*
G01*
X67724001Y-65032401D01*
X67724001Y-63130401D01*
X69626001Y-63130401D01*
X69626001Y-65032401D01*
G37*
G36*
X78161143Y-62104642D02*
G01*
X78309102Y-62165929D01*
X78442256Y-62254899D01*
X78555502Y-62368145D01*
X78644472Y-62501299D01*
X78705759Y-62649258D01*
X78737001Y-62806325D01*
X78737001Y-62966475D01*
X78705759Y-63123542D01*
X78644472Y-63271501D01*
X78555502Y-63404655D01*
X78442256Y-63517901D01*
X78309102Y-63606871D01*
X78161143Y-63668158D01*
X78004076Y-63699400D01*
X77843926Y-63699400D01*
X77686859Y-63668158D01*
X77538900Y-63606871D01*
X77405746Y-63517901D01*
X77292500Y-63404655D01*
X77203530Y-63271501D01*
X77142243Y-63123542D01*
X77111001Y-62966475D01*
X77111001Y-62806325D01*
X77142243Y-62649258D01*
X77203530Y-62501299D01*
X77292500Y-62368145D01*
X77405746Y-62254899D01*
X77538900Y-62165929D01*
X77686859Y-62104642D01*
X77843926Y-62073400D01*
X78004076Y-62073400D01*
X78161143Y-62104642D01*
G37*
G36*
X75621143Y-62104642D02*
G01*
X75769102Y-62165929D01*
X75902256Y-62254899D01*
X76015502Y-62368145D01*
X76104472Y-62501299D01*
X76165759Y-62649258D01*
X76197001Y-62806325D01*
X76197001Y-62966475D01*
X76165759Y-63123542D01*
X76104472Y-63271501D01*
X76015502Y-63404655D01*
X75902256Y-63517901D01*
X75769102Y-63606871D01*
X75621143Y-63668158D01*
X75464076Y-63699400D01*
X75303926Y-63699400D01*
X75146859Y-63668158D01*
X74998900Y-63606871D01*
X74865746Y-63517901D01*
X74752500Y-63404655D01*
X74663530Y-63271501D01*
X74602243Y-63123542D01*
X74571001Y-62966475D01*
X74571001Y-62806325D01*
X74602243Y-62649258D01*
X74663530Y-62501299D01*
X74752500Y-62368145D01*
X74865746Y-62254899D01*
X74998900Y-62165929D01*
X75146859Y-62104642D01*
X75303926Y-62073400D01*
X75464076Y-62073400D01*
X75621143Y-62104642D01*
G37*
G36*
X54386001Y-61582401D02*
G01*
X52484001Y-61582401D01*
X52484001Y-59680401D01*
X54386001Y-59680401D01*
X54386001Y-61582401D01*
G37*
G36*
X56252396Y-59716947D02*
G01*
X56425467Y-59788635D01*
X56425468Y-59788636D01*
X56581228Y-59892711D01*
X56713691Y-60025174D01*
X56713692Y-60025176D01*
X56817767Y-60180935D01*
X56889455Y-60354006D01*
X56926001Y-60537734D01*
X56926001Y-60725068D01*
X56889455Y-60908796D01*
X56817767Y-61081867D01*
X56817766Y-61081868D01*
X56713691Y-61237628D01*
X56581228Y-61370091D01*
X56502819Y-61422482D01*
X56425467Y-61474167D01*
X56252396Y-61545855D01*
X56068668Y-61582401D01*
X55881334Y-61582401D01*
X55697606Y-61545855D01*
X55524535Y-61474167D01*
X55447183Y-61422482D01*
X55368774Y-61370091D01*
X55236311Y-61237628D01*
X55132236Y-61081868D01*
X55132235Y-61081867D01*
X55060547Y-60908796D01*
X55024001Y-60725068D01*
X55024001Y-60537734D01*
X55060547Y-60354006D01*
X55132235Y-60180935D01*
X55236310Y-60025176D01*
X55236311Y-60025174D01*
X55368774Y-59892711D01*
X55524534Y-59788636D01*
X55524535Y-59788635D01*
X55697606Y-59716947D01*
X55881334Y-59680401D01*
X56068668Y-59680401D01*
X56252396Y-59716947D01*
G37*
G36*
X48486001Y-61582401D02*
G01*
X46584001Y-61582401D01*
X46584001Y-59680401D01*
X48486001Y-59680401D01*
X48486001Y-61582401D01*
G37*
G36*
X50352396Y-59716947D02*
G01*
X50525467Y-59788635D01*
X50525468Y-59788636D01*
X50681228Y-59892711D01*
X50813691Y-60025174D01*
X50813692Y-60025176D01*
X50917767Y-60180935D01*
X50989455Y-60354006D01*
X51026001Y-60537734D01*
X51026001Y-60725068D01*
X50989455Y-60908796D01*
X50917767Y-61081867D01*
X50917766Y-61081868D01*
X50813691Y-61237628D01*
X50681228Y-61370091D01*
X50602819Y-61422482D01*
X50525467Y-61474167D01*
X50352396Y-61545855D01*
X50168668Y-61582401D01*
X49981334Y-61582401D01*
X49797606Y-61545855D01*
X49624535Y-61474167D01*
X49547183Y-61422482D01*
X49468774Y-61370091D01*
X49336311Y-61237628D01*
X49232236Y-61081868D01*
X49232235Y-61081867D01*
X49160547Y-60908796D01*
X49124001Y-60725068D01*
X49124001Y-60537734D01*
X49160547Y-60354006D01*
X49232235Y-60180935D01*
X49336310Y-60025176D01*
X49336311Y-60025174D01*
X49468774Y-59892711D01*
X49624534Y-59788636D01*
X49624535Y-59788635D01*
X49797606Y-59716947D01*
X49981334Y-59680401D01*
X50168668Y-59680401D01*
X50352396Y-59716947D01*
G37*
G36*
X78161143Y-59564642D02*
G01*
X78309102Y-59625929D01*
X78442256Y-59714899D01*
X78555502Y-59828145D01*
X78644472Y-59961299D01*
X78705759Y-60109258D01*
X78737001Y-60266325D01*
X78737001Y-60426475D01*
X78705759Y-60583542D01*
X78644472Y-60731501D01*
X78555502Y-60864655D01*
X78442256Y-60977901D01*
X78309102Y-61066871D01*
X78161143Y-61128158D01*
X78004076Y-61159400D01*
X77843926Y-61159400D01*
X77686859Y-61128158D01*
X77538900Y-61066871D01*
X77405746Y-60977901D01*
X77292500Y-60864655D01*
X77203530Y-60731501D01*
X77142243Y-60583542D01*
X77111001Y-60426475D01*
X77111001Y-60266325D01*
X77142243Y-60109258D01*
X77203530Y-59961299D01*
X77292500Y-59828145D01*
X77405746Y-59714899D01*
X77538900Y-59625929D01*
X77686859Y-59564642D01*
X77843926Y-59533400D01*
X78004076Y-59533400D01*
X78161143Y-59564642D01*
G37*
G36*
X75621143Y-59564642D02*
G01*
X75769102Y-59625929D01*
X75902256Y-59714899D01*
X76015502Y-59828145D01*
X76104472Y-59961299D01*
X76165759Y-60109258D01*
X76197001Y-60266325D01*
X76197001Y-60426475D01*
X76165759Y-60583542D01*
X76104472Y-60731501D01*
X76015502Y-60864655D01*
X75902256Y-60977901D01*
X75769102Y-61066871D01*
X75621143Y-61128158D01*
X75464076Y-61159400D01*
X75303926Y-61159400D01*
X75146859Y-61128158D01*
X74998900Y-61066871D01*
X74865746Y-60977901D01*
X74752500Y-60864655D01*
X74663530Y-60731501D01*
X74602243Y-60583542D01*
X74571001Y-60426475D01*
X74571001Y-60266325D01*
X74602243Y-60109258D01*
X74663530Y-59961299D01*
X74752500Y-59828145D01*
X74865746Y-59714899D01*
X74998900Y-59625929D01*
X75146859Y-59564642D01*
X75303926Y-59533400D01*
X75464076Y-59533400D01*
X75621143Y-59564642D01*
G37*
G36*
X78161143Y-57024642D02*
G01*
X78309102Y-57085929D01*
X78442256Y-57174899D01*
X78555502Y-57288145D01*
X78644472Y-57421299D01*
X78705759Y-57569258D01*
X78737001Y-57726325D01*
X78737001Y-57886475D01*
X78705759Y-58043542D01*
X78644472Y-58191501D01*
X78555502Y-58324655D01*
X78442256Y-58437901D01*
X78309102Y-58526871D01*
X78161143Y-58588158D01*
X78004076Y-58619400D01*
X77843926Y-58619400D01*
X77686859Y-58588158D01*
X77538900Y-58526871D01*
X77405746Y-58437901D01*
X77292500Y-58324655D01*
X77203530Y-58191501D01*
X77142243Y-58043542D01*
X77111001Y-57886475D01*
X77111001Y-57726325D01*
X77142243Y-57569258D01*
X77203530Y-57421299D01*
X77292500Y-57288145D01*
X77405746Y-57174899D01*
X77538900Y-57085929D01*
X77686859Y-57024642D01*
X77843926Y-56993400D01*
X78004076Y-56993400D01*
X78161143Y-57024642D01*
G37*
G36*
X75621143Y-57024642D02*
G01*
X75769102Y-57085929D01*
X75902256Y-57174899D01*
X76015502Y-57288145D01*
X76104472Y-57421299D01*
X76165759Y-57569258D01*
X76197001Y-57726325D01*
X76197001Y-57886475D01*
X76165759Y-58043542D01*
X76104472Y-58191501D01*
X76015502Y-58324655D01*
X75902256Y-58437901D01*
X75769102Y-58526871D01*
X75621143Y-58588158D01*
X75464076Y-58619400D01*
X75303926Y-58619400D01*
X75146859Y-58588158D01*
X74998900Y-58526871D01*
X74865746Y-58437901D01*
X74752500Y-58324655D01*
X74663530Y-58191501D01*
X74602243Y-58043542D01*
X74571001Y-57886475D01*
X74571001Y-57726325D01*
X74602243Y-57569258D01*
X74663530Y-57421299D01*
X74752500Y-57288145D01*
X74865746Y-57174899D01*
X74998900Y-57085929D01*
X75146859Y-57024642D01*
X75303926Y-56993400D01*
X75464076Y-56993400D01*
X75621143Y-57024642D01*
G37*
G36*
X78161143Y-54484642D02*
G01*
X78309102Y-54545929D01*
X78442256Y-54634899D01*
X78555502Y-54748145D01*
X78644472Y-54881299D01*
X78705759Y-55029258D01*
X78737001Y-55186325D01*
X78737001Y-55346475D01*
X78705759Y-55503542D01*
X78644472Y-55651501D01*
X78555502Y-55784655D01*
X78442256Y-55897901D01*
X78309102Y-55986871D01*
X78161143Y-56048158D01*
X78004076Y-56079400D01*
X77843926Y-56079400D01*
X77686859Y-56048158D01*
X77538900Y-55986871D01*
X77405746Y-55897901D01*
X77292500Y-55784655D01*
X77203530Y-55651501D01*
X77142243Y-55503542D01*
X77111001Y-55346475D01*
X77111001Y-55186325D01*
X77142243Y-55029258D01*
X77203530Y-54881299D01*
X77292500Y-54748145D01*
X77405746Y-54634899D01*
X77538900Y-54545929D01*
X77686859Y-54484642D01*
X77843926Y-54453400D01*
X78004076Y-54453400D01*
X78161143Y-54484642D01*
G37*
G36*
X75621143Y-54484642D02*
G01*
X75769102Y-54545929D01*
X75902256Y-54634899D01*
X76015502Y-54748145D01*
X76104472Y-54881299D01*
X76165759Y-55029258D01*
X76197001Y-55186325D01*
X76197001Y-55346475D01*
X76165759Y-55503542D01*
X76104472Y-55651501D01*
X76015502Y-55784655D01*
X75902256Y-55897901D01*
X75769102Y-55986871D01*
X75621143Y-56048158D01*
X75464076Y-56079400D01*
X75303926Y-56079400D01*
X75146859Y-56048158D01*
X74998900Y-55986871D01*
X74865746Y-55897901D01*
X74752500Y-55784655D01*
X74663530Y-55651501D01*
X74602243Y-55503542D01*
X74571001Y-55346475D01*
X74571001Y-55186325D01*
X74602243Y-55029258D01*
X74663530Y-54881299D01*
X74752500Y-54748145D01*
X74865746Y-54634899D01*
X74998900Y-54545929D01*
X75146859Y-54484642D01*
X75303926Y-54453400D01*
X75464076Y-54453400D01*
X75621143Y-54484642D01*
G37*
G36*
X78161143Y-51944642D02*
G01*
X78309102Y-52005929D01*
X78442256Y-52094899D01*
X78555502Y-52208145D01*
X78644472Y-52341299D01*
X78705759Y-52489258D01*
X78737001Y-52646325D01*
X78737001Y-52806475D01*
X78705759Y-52963542D01*
X78644472Y-53111501D01*
X78555502Y-53244655D01*
X78442256Y-53357901D01*
X78309102Y-53446871D01*
X78161143Y-53508158D01*
X78004076Y-53539400D01*
X77843926Y-53539400D01*
X77686859Y-53508158D01*
X77538900Y-53446871D01*
X77405746Y-53357901D01*
X77292500Y-53244655D01*
X77203530Y-53111501D01*
X77142243Y-52963542D01*
X77111001Y-52806475D01*
X77111001Y-52646325D01*
X77142243Y-52489258D01*
X77203530Y-52341299D01*
X77292500Y-52208145D01*
X77405746Y-52094899D01*
X77538900Y-52005929D01*
X77686859Y-51944642D01*
X77843926Y-51913400D01*
X78004076Y-51913400D01*
X78161143Y-51944642D01*
G37*
G36*
X75621143Y-51944642D02*
G01*
X75769102Y-52005929D01*
X75902256Y-52094899D01*
X76015502Y-52208145D01*
X76104472Y-52341299D01*
X76165759Y-52489258D01*
X76197001Y-52646325D01*
X76197001Y-52806475D01*
X76165759Y-52963542D01*
X76104472Y-53111501D01*
X76015502Y-53244655D01*
X75902256Y-53357901D01*
X75769102Y-53446871D01*
X75621143Y-53508158D01*
X75464076Y-53539400D01*
X75303926Y-53539400D01*
X75146859Y-53508158D01*
X74998900Y-53446871D01*
X74865746Y-53357901D01*
X74752500Y-53244655D01*
X74663530Y-53111501D01*
X74602243Y-52963542D01*
X74571001Y-52806475D01*
X74571001Y-52646325D01*
X74602243Y-52489258D01*
X74663530Y-52341299D01*
X74752500Y-52208145D01*
X74865746Y-52094899D01*
X74998900Y-52005929D01*
X75146859Y-51944642D01*
X75303926Y-51913400D01*
X75464076Y-51913400D01*
X75621143Y-51944642D01*
G37*
G36*
X75621143Y-49404642D02*
G01*
X75769102Y-49465929D01*
X75902256Y-49554899D01*
X76015502Y-49668145D01*
X76104472Y-49801299D01*
X76165759Y-49949258D01*
X76197001Y-50106325D01*
X76197001Y-50266475D01*
X76165759Y-50423542D01*
X76104472Y-50571501D01*
X76015502Y-50704655D01*
X75902256Y-50817901D01*
X75769102Y-50906871D01*
X75621143Y-50968158D01*
X75464076Y-50999400D01*
X75303926Y-50999400D01*
X75146859Y-50968158D01*
X74998900Y-50906871D01*
X74865746Y-50817901D01*
X74752500Y-50704655D01*
X74663530Y-50571501D01*
X74602243Y-50423542D01*
X74571001Y-50266475D01*
X74571001Y-50106325D01*
X74602243Y-49949258D01*
X74663530Y-49801299D01*
X74752500Y-49668145D01*
X74865746Y-49554899D01*
X74998900Y-49465929D01*
X75146859Y-49404642D01*
X75303926Y-49373400D01*
X75464076Y-49373400D01*
X75621143Y-49404642D01*
G37*
G36*
X78161143Y-49404642D02*
G01*
X78309102Y-49465929D01*
X78442256Y-49554899D01*
X78555502Y-49668145D01*
X78644472Y-49801299D01*
X78705759Y-49949258D01*
X78737001Y-50106325D01*
X78737001Y-50266475D01*
X78705759Y-50423542D01*
X78644472Y-50571501D01*
X78555502Y-50704655D01*
X78442256Y-50817901D01*
X78309102Y-50906871D01*
X78161143Y-50968158D01*
X78004076Y-50999400D01*
X77843926Y-50999400D01*
X77686859Y-50968158D01*
X77538900Y-50906871D01*
X77405746Y-50817901D01*
X77292500Y-50704655D01*
X77203530Y-50571501D01*
X77142243Y-50423542D01*
X77111001Y-50266475D01*
X77111001Y-50106325D01*
X77142243Y-49949258D01*
X77203530Y-49801299D01*
X77292500Y-49668145D01*
X77405746Y-49554899D01*
X77538900Y-49465929D01*
X77686859Y-49404642D01*
X77843926Y-49373400D01*
X78004076Y-49373400D01*
X78161143Y-49404642D01*
G37*
G36*
X78161143Y-46864642D02*
G01*
X78309102Y-46925929D01*
X78442256Y-47014899D01*
X78555502Y-47128145D01*
X78644472Y-47261299D01*
X78705759Y-47409258D01*
X78737001Y-47566325D01*
X78737001Y-47726475D01*
X78705759Y-47883542D01*
X78644472Y-48031501D01*
X78555502Y-48164655D01*
X78442256Y-48277901D01*
X78309102Y-48366871D01*
X78161143Y-48428158D01*
X78004076Y-48459400D01*
X77843926Y-48459400D01*
X77686859Y-48428158D01*
X77538900Y-48366871D01*
X77405746Y-48277901D01*
X77292500Y-48164655D01*
X77203530Y-48031501D01*
X77142243Y-47883542D01*
X77111001Y-47726475D01*
X77111001Y-47566325D01*
X77142243Y-47409258D01*
X77203530Y-47261299D01*
X77292500Y-47128145D01*
X77405746Y-47014899D01*
X77538900Y-46925929D01*
X77686859Y-46864642D01*
X77843926Y-46833400D01*
X78004076Y-46833400D01*
X78161143Y-46864642D01*
G37*
G36*
X75621143Y-46864642D02*
G01*
X75769102Y-46925929D01*
X75902256Y-47014899D01*
X76015502Y-47128145D01*
X76104472Y-47261299D01*
X76165759Y-47409258D01*
X76197001Y-47566325D01*
X76197001Y-47726475D01*
X76165759Y-47883542D01*
X76104472Y-48031501D01*
X76015502Y-48164655D01*
X75902256Y-48277901D01*
X75769102Y-48366871D01*
X75621143Y-48428158D01*
X75464076Y-48459400D01*
X75303926Y-48459400D01*
X75146859Y-48428158D01*
X74998900Y-48366871D01*
X74865746Y-48277901D01*
X74752500Y-48164655D01*
X74663530Y-48031501D01*
X74602243Y-47883542D01*
X74571001Y-47726475D01*
X74571001Y-47566325D01*
X74602243Y-47409258D01*
X74663530Y-47261299D01*
X74752500Y-47128145D01*
X74865746Y-47014899D01*
X74998900Y-46925929D01*
X75146859Y-46864642D01*
X75303926Y-46833400D01*
X75464076Y-46833400D01*
X75621143Y-46864642D01*
G37*
G36*
X65008083Y-48332401D02*
G01*
X62506083Y-48332401D01*
X62506083Y-45830401D01*
X65008083Y-45830401D01*
X65008083Y-48332401D01*
G37*
G36*
X69121986Y-45878476D02*
G01*
X69220786Y-45919400D01*
X69349654Y-45972779D01*
X69554549Y-46109686D01*
X69728798Y-46283935D01*
X69728799Y-46283937D01*
X69865706Y-46488832D01*
X69960008Y-46716498D01*
X70008083Y-46958187D01*
X70008083Y-47204615D01*
X69967377Y-47409257D01*
X69960008Y-47446304D01*
X69865705Y-47673972D01*
X69728798Y-47878867D01*
X69554549Y-48053116D01*
X69349654Y-48190023D01*
X69349653Y-48190024D01*
X69349652Y-48190024D01*
X69121986Y-48284326D01*
X68880297Y-48332401D01*
X68633869Y-48332401D01*
X68392180Y-48284326D01*
X68164514Y-48190024D01*
X68164513Y-48190024D01*
X68164512Y-48190023D01*
X67959617Y-48053116D01*
X67785368Y-47878867D01*
X67648461Y-47673972D01*
X67554158Y-47446304D01*
X67546789Y-47409257D01*
X67506083Y-47204615D01*
X67506083Y-46958187D01*
X67554158Y-46716498D01*
X67648460Y-46488832D01*
X67785367Y-46283937D01*
X67785368Y-46283935D01*
X67959617Y-46109686D01*
X68164512Y-45972779D01*
X68293381Y-45919400D01*
X68392180Y-45878476D01*
X68633869Y-45830401D01*
X68880297Y-45830401D01*
X69121986Y-45878476D01*
G37*
G36*
X78161143Y-44324642D02*
G01*
X78309102Y-44385929D01*
X78442256Y-44474899D01*
X78555502Y-44588145D01*
X78644472Y-44721299D01*
X78705759Y-44869258D01*
X78737001Y-45026325D01*
X78737001Y-45186475D01*
X78705759Y-45343542D01*
X78644472Y-45491501D01*
X78555502Y-45624655D01*
X78442256Y-45737901D01*
X78309102Y-45826871D01*
X78161143Y-45888158D01*
X78004076Y-45919400D01*
X77843926Y-45919400D01*
X77686859Y-45888158D01*
X77538900Y-45826871D01*
X77405746Y-45737901D01*
X77292500Y-45624655D01*
X77203530Y-45491501D01*
X77142243Y-45343542D01*
X77111001Y-45186475D01*
X77111001Y-45026325D01*
X77142243Y-44869258D01*
X77203530Y-44721299D01*
X77292500Y-44588145D01*
X77405746Y-44474899D01*
X77538900Y-44385929D01*
X77686859Y-44324642D01*
X77843926Y-44293400D01*
X78004076Y-44293400D01*
X78161143Y-44324642D01*
G37*
G36*
X75621143Y-44324642D02*
G01*
X75769102Y-44385929D01*
X75902256Y-44474899D01*
X76015502Y-44588145D01*
X76104472Y-44721299D01*
X76165759Y-44869258D01*
X76197001Y-45026325D01*
X76197001Y-45186475D01*
X76165759Y-45343542D01*
X76104472Y-45491501D01*
X76015502Y-45624655D01*
X75902256Y-45737901D01*
X75769102Y-45826871D01*
X75621143Y-45888158D01*
X75464076Y-45919400D01*
X75303926Y-45919400D01*
X75146859Y-45888158D01*
X74998900Y-45826871D01*
X74865746Y-45737901D01*
X74752500Y-45624655D01*
X74663530Y-45491501D01*
X74602243Y-45343542D01*
X74571001Y-45186475D01*
X74571001Y-45026325D01*
X74602243Y-44869258D01*
X74663530Y-44721299D01*
X74752500Y-44588145D01*
X74865746Y-44474899D01*
X74998900Y-44385929D01*
X75146859Y-44324642D01*
X75303926Y-44293400D01*
X75464076Y-44293400D01*
X75621143Y-44324642D01*
G37*
G36*
X78161143Y-41784642D02*
G01*
X78309102Y-41845929D01*
X78442256Y-41934899D01*
X78555502Y-42048145D01*
X78644472Y-42181299D01*
X78705759Y-42329258D01*
X78737001Y-42486325D01*
X78737001Y-42646475D01*
X78705759Y-42803542D01*
X78644472Y-42951501D01*
X78555502Y-43084655D01*
X78442256Y-43197901D01*
X78309102Y-43286871D01*
X78161143Y-43348158D01*
X78004076Y-43379400D01*
X77843926Y-43379400D01*
X77686859Y-43348158D01*
X77538900Y-43286871D01*
X77405746Y-43197901D01*
X77292500Y-43084655D01*
X77203530Y-42951501D01*
X77142243Y-42803542D01*
X77111001Y-42646475D01*
X77111001Y-42486325D01*
X77142243Y-42329258D01*
X77203530Y-42181299D01*
X77292500Y-42048145D01*
X77405746Y-41934899D01*
X77538900Y-41845929D01*
X77686859Y-41784642D01*
X77843926Y-41753400D01*
X78004076Y-41753400D01*
X78161143Y-41784642D01*
G37*
G36*
X75621143Y-41784642D02*
G01*
X75769102Y-41845929D01*
X75902256Y-41934899D01*
X76015502Y-42048145D01*
X76104472Y-42181299D01*
X76165759Y-42329258D01*
X76197001Y-42486325D01*
X76197001Y-42646475D01*
X76165759Y-42803542D01*
X76104472Y-42951501D01*
X76015502Y-43084655D01*
X75902256Y-43197901D01*
X75769102Y-43286871D01*
X75621143Y-43348158D01*
X75464076Y-43379400D01*
X75303926Y-43379400D01*
X75146859Y-43348158D01*
X74998900Y-43286871D01*
X74865746Y-43197901D01*
X74752500Y-43084655D01*
X74663530Y-42951501D01*
X74602243Y-42803542D01*
X74571001Y-42646475D01*
X74571001Y-42486325D01*
X74602243Y-42329258D01*
X74663530Y-42181299D01*
X74752500Y-42048145D01*
X74865746Y-41934899D01*
X74998900Y-41845929D01*
X75146859Y-41784642D01*
X75303926Y-41753400D01*
X75464076Y-41753400D01*
X75621143Y-41784642D01*
G37*
G36*
X99648513Y-39455328D02*
G01*
X99797813Y-39485025D01*
X99961785Y-39552945D01*
X100109355Y-39651548D01*
X100234854Y-39777047D01*
X100333457Y-39924617D01*
X100401377Y-40088589D01*
X100436001Y-40262660D01*
X100436001Y-40440142D01*
X100401377Y-40614213D01*
X100333457Y-40778185D01*
X100234854Y-40925755D01*
X100109355Y-41051254D01*
X99961785Y-41149857D01*
X99797813Y-41217777D01*
X99648513Y-41247474D01*
X99623743Y-41252401D01*
X99446259Y-41252401D01*
X99421489Y-41247474D01*
X99272189Y-41217777D01*
X99108217Y-41149857D01*
X98960647Y-41051254D01*
X98835148Y-40925755D01*
X98736545Y-40778185D01*
X98668625Y-40614213D01*
X98634001Y-40440142D01*
X98634001Y-40262660D01*
X98668625Y-40088589D01*
X98736545Y-39924617D01*
X98835148Y-39777047D01*
X98960647Y-39651548D01*
X99108217Y-39552945D01*
X99272189Y-39485025D01*
X99421489Y-39455328D01*
X99446259Y-39450401D01*
X99623743Y-39450401D01*
X99648513Y-39455328D01*
G37*
G36*
X78161143Y-39244642D02*
G01*
X78309102Y-39305929D01*
X78442256Y-39394899D01*
X78555502Y-39508145D01*
X78644472Y-39641299D01*
X78705759Y-39789258D01*
X78737001Y-39946325D01*
X78737001Y-40106475D01*
X78705759Y-40263542D01*
X78644472Y-40411501D01*
X78555502Y-40544655D01*
X78442256Y-40657901D01*
X78309102Y-40746871D01*
X78161143Y-40808158D01*
X78004076Y-40839400D01*
X77843926Y-40839400D01*
X77686859Y-40808158D01*
X77538900Y-40746871D01*
X77405746Y-40657901D01*
X77292500Y-40544655D01*
X77203530Y-40411501D01*
X77142243Y-40263542D01*
X77111001Y-40106475D01*
X77111001Y-39946325D01*
X77142243Y-39789258D01*
X77203530Y-39641299D01*
X77292500Y-39508145D01*
X77405746Y-39394899D01*
X77538900Y-39305929D01*
X77686859Y-39244642D01*
X77843926Y-39213400D01*
X78004076Y-39213400D01*
X78161143Y-39244642D01*
G37*
G36*
X75621143Y-39244642D02*
G01*
X75769102Y-39305929D01*
X75902256Y-39394899D01*
X76015502Y-39508145D01*
X76104472Y-39641299D01*
X76165759Y-39789258D01*
X76197001Y-39946325D01*
X76197001Y-40106475D01*
X76165759Y-40263542D01*
X76104472Y-40411501D01*
X76015502Y-40544655D01*
X75902256Y-40657901D01*
X75769102Y-40746871D01*
X75621143Y-40808158D01*
X75464076Y-40839400D01*
X75303926Y-40839400D01*
X75146859Y-40808158D01*
X74998900Y-40746871D01*
X74865746Y-40657901D01*
X74752500Y-40544655D01*
X74663530Y-40411501D01*
X74602243Y-40263542D01*
X74571001Y-40106475D01*
X74571001Y-39946325D01*
X74602243Y-39789258D01*
X74663530Y-39641299D01*
X74752500Y-39508145D01*
X74865746Y-39394899D01*
X74998900Y-39305929D01*
X75146859Y-39244642D01*
X75303926Y-39213400D01*
X75464076Y-39213400D01*
X75621143Y-39244642D01*
G37*
G36*
X99648513Y-36915328D02*
G01*
X99797813Y-36945025D01*
X99961785Y-37012945D01*
X100109355Y-37111548D01*
X100234854Y-37237047D01*
X100333457Y-37384617D01*
X100401377Y-37548589D01*
X100436001Y-37722660D01*
X100436001Y-37900142D01*
X100401377Y-38074213D01*
X100333457Y-38238185D01*
X100234854Y-38385755D01*
X100109355Y-38511254D01*
X99961785Y-38609857D01*
X99797813Y-38677777D01*
X99648513Y-38707474D01*
X99623743Y-38712401D01*
X99446259Y-38712401D01*
X99421489Y-38707474D01*
X99272189Y-38677777D01*
X99108217Y-38609857D01*
X98960647Y-38511254D01*
X98835148Y-38385755D01*
X98736545Y-38238185D01*
X98668625Y-38074213D01*
X98634001Y-37900142D01*
X98634001Y-37722660D01*
X98668625Y-37548589D01*
X98736545Y-37384617D01*
X98835148Y-37237047D01*
X98960647Y-37111548D01*
X99108217Y-37012945D01*
X99272189Y-36945025D01*
X99421489Y-36915328D01*
X99446259Y-36910401D01*
X99623743Y-36910401D01*
X99648513Y-36915328D01*
G37*
G36*
X78161143Y-36704642D02*
G01*
X78309102Y-36765929D01*
X78442256Y-36854899D01*
X78555502Y-36968145D01*
X78644472Y-37101299D01*
X78705759Y-37249258D01*
X78737001Y-37406325D01*
X78737001Y-37566475D01*
X78705759Y-37723542D01*
X78644472Y-37871501D01*
X78555502Y-38004655D01*
X78442256Y-38117901D01*
X78309102Y-38206871D01*
X78161143Y-38268158D01*
X78004076Y-38299400D01*
X77843926Y-38299400D01*
X77686859Y-38268158D01*
X77538900Y-38206871D01*
X77405746Y-38117901D01*
X77292500Y-38004655D01*
X77203530Y-37871501D01*
X77142243Y-37723542D01*
X77111001Y-37566475D01*
X77111001Y-37406325D01*
X77142243Y-37249258D01*
X77203530Y-37101299D01*
X77292500Y-36968145D01*
X77405746Y-36854899D01*
X77538900Y-36765929D01*
X77686859Y-36704642D01*
X77843926Y-36673400D01*
X78004076Y-36673400D01*
X78161143Y-36704642D01*
G37*
G36*
X75621143Y-36704642D02*
G01*
X75769102Y-36765929D01*
X75902256Y-36854899D01*
X76015502Y-36968145D01*
X76104472Y-37101299D01*
X76165759Y-37249258D01*
X76197001Y-37406325D01*
X76197001Y-37566475D01*
X76165759Y-37723542D01*
X76104472Y-37871501D01*
X76015502Y-38004655D01*
X75902256Y-38117901D01*
X75769102Y-38206871D01*
X75621143Y-38268158D01*
X75464076Y-38299400D01*
X75303926Y-38299400D01*
X75146859Y-38268158D01*
X74998900Y-38206871D01*
X74865746Y-38117901D01*
X74752500Y-38004655D01*
X74663530Y-37871501D01*
X74602243Y-37723542D01*
X74571001Y-37566475D01*
X74571001Y-37406325D01*
X74602243Y-37249258D01*
X74663530Y-37101299D01*
X74752500Y-36968145D01*
X74865746Y-36854899D01*
X74998900Y-36765929D01*
X75146859Y-36704642D01*
X75303926Y-36673400D01*
X75464076Y-36673400D01*
X75621143Y-36704642D01*
G37*
G36*
X100436001Y-36172401D02*
G01*
X98634001Y-36172401D01*
X98634001Y-34370401D01*
X100436001Y-34370401D01*
X100436001Y-36172401D01*
G37*
G36*
X71689904Y-33578476D02*
G01*
X71917572Y-33672779D01*
X72122467Y-33809686D01*
X72296716Y-33983935D01*
X72433623Y-34188830D01*
X72433624Y-34188832D01*
X72527926Y-34416498D01*
X72576001Y-34658187D01*
X72576001Y-34904615D01*
X72527926Y-35146304D01*
X72451216Y-35331500D01*
X72433623Y-35373972D01*
X72296716Y-35578867D01*
X72122467Y-35753116D01*
X71917572Y-35890023D01*
X71917571Y-35890024D01*
X71917570Y-35890024D01*
X71689904Y-35984326D01*
X71448215Y-36032401D01*
X71201787Y-36032401D01*
X70960098Y-35984326D01*
X70732432Y-35890024D01*
X70732431Y-35890024D01*
X70732430Y-35890023D01*
X70527535Y-35753116D01*
X70353286Y-35578867D01*
X70216379Y-35373972D01*
X70198787Y-35331500D01*
X70122076Y-35146304D01*
X70074001Y-34904615D01*
X70074001Y-34658187D01*
X70122076Y-34416498D01*
X70216378Y-34188832D01*
X70216379Y-34188830D01*
X70353286Y-33983935D01*
X70527535Y-33809686D01*
X70732430Y-33672779D01*
X70960098Y-33578476D01*
X71201787Y-33530401D01*
X71448215Y-33530401D01*
X71689904Y-33578476D01*
G37*
G36*
X25969904Y-33578476D02*
G01*
X26197572Y-33672779D01*
X26402467Y-33809686D01*
X26576716Y-33983935D01*
X26713623Y-34188830D01*
X26713624Y-34188832D01*
X26807926Y-34416498D01*
X26856001Y-34658187D01*
X26856001Y-34904615D01*
X26807926Y-35146304D01*
X26731216Y-35331500D01*
X26713623Y-35373972D01*
X26576716Y-35578867D01*
X26402467Y-35753116D01*
X26197572Y-35890023D01*
X26197571Y-35890024D01*
X26197570Y-35890024D01*
X25969904Y-35984326D01*
X25728215Y-36032401D01*
X25481787Y-36032401D01*
X25240098Y-35984326D01*
X25012432Y-35890024D01*
X25012431Y-35890024D01*
X25012430Y-35890023D01*
X24807535Y-35753116D01*
X24633286Y-35578867D01*
X24496379Y-35373972D01*
X24478787Y-35331500D01*
X24402076Y-35146304D01*
X24354001Y-34904615D01*
X24354001Y-34658187D01*
X24402076Y-34416498D01*
X24496378Y-34188832D01*
X24496379Y-34188830D01*
X24633286Y-33983935D01*
X24807535Y-33809686D01*
X25012430Y-33672779D01*
X25240098Y-33578476D01*
X25481787Y-33530401D01*
X25728215Y-33530401D01*
X25969904Y-33578476D01*
G37*
G36*
X78161143Y-34164642D02*
G01*
X78309102Y-34225929D01*
X78442256Y-34314899D01*
X78555502Y-34428145D01*
X78644472Y-34561299D01*
X78705759Y-34709258D01*
X78737001Y-34866325D01*
X78737001Y-35026475D01*
X78705759Y-35183542D01*
X78644472Y-35331501D01*
X78555502Y-35464655D01*
X78442256Y-35577901D01*
X78309102Y-35666871D01*
X78161143Y-35728158D01*
X78004076Y-35759400D01*
X77843926Y-35759400D01*
X77686859Y-35728158D01*
X77538900Y-35666871D01*
X77405746Y-35577901D01*
X77292500Y-35464655D01*
X77203530Y-35331501D01*
X77142243Y-35183542D01*
X77111001Y-35026475D01*
X77111001Y-34866325D01*
X77142243Y-34709258D01*
X77203530Y-34561299D01*
X77292500Y-34428145D01*
X77405746Y-34314899D01*
X77538900Y-34225929D01*
X77686859Y-34164642D01*
X77843926Y-34133400D01*
X78004076Y-34133400D01*
X78161143Y-34164642D01*
G37*
G36*
X75621143Y-34164642D02*
G01*
X75769102Y-34225929D01*
X75902256Y-34314899D01*
X76015502Y-34428145D01*
X76104472Y-34561299D01*
X76165759Y-34709258D01*
X76197001Y-34866325D01*
X76197001Y-35026475D01*
X76165759Y-35183542D01*
X76104472Y-35331501D01*
X76015502Y-35464655D01*
X75902256Y-35577901D01*
X75769102Y-35666871D01*
X75621143Y-35728158D01*
X75464076Y-35759400D01*
X75303926Y-35759400D01*
X75146859Y-35728158D01*
X74998900Y-35666871D01*
X74865746Y-35577901D01*
X74752500Y-35464655D01*
X74663530Y-35331501D01*
X74602243Y-35183542D01*
X74571001Y-35026475D01*
X74571001Y-34866325D01*
X74602243Y-34709258D01*
X74663530Y-34561299D01*
X74752500Y-34428145D01*
X74865746Y-34314899D01*
X74998900Y-34225929D01*
X75146859Y-34164642D01*
X75303926Y-34133400D01*
X75464076Y-34133400D01*
X75621143Y-34164642D01*
G37*
G36*
X78161143Y-31624642D02*
G01*
X78309102Y-31685929D01*
X78442256Y-31774899D01*
X78555502Y-31888145D01*
X78644472Y-32021299D01*
X78705759Y-32169258D01*
X78737001Y-32326325D01*
X78737001Y-32486475D01*
X78705759Y-32643542D01*
X78644472Y-32791501D01*
X78555502Y-32924655D01*
X78442256Y-33037901D01*
X78309102Y-33126871D01*
X78161143Y-33188158D01*
X78004076Y-33219400D01*
X77843926Y-33219400D01*
X77686859Y-33188158D01*
X77538900Y-33126871D01*
X77405746Y-33037901D01*
X77292500Y-32924655D01*
X77203530Y-32791501D01*
X77142243Y-32643542D01*
X77111001Y-32486475D01*
X77111001Y-32326325D01*
X77142243Y-32169258D01*
X77203530Y-32021299D01*
X77292500Y-31888145D01*
X77405746Y-31774899D01*
X77538900Y-31685929D01*
X77686859Y-31624642D01*
X77843926Y-31593400D01*
X78004076Y-31593400D01*
X78161143Y-31624642D01*
G37*
G36*
X75621143Y-31624642D02*
G01*
X75769102Y-31685929D01*
X75902256Y-31774899D01*
X76015502Y-31888145D01*
X76104472Y-32021299D01*
X76165759Y-32169258D01*
X76197001Y-32326325D01*
X76197001Y-32486475D01*
X76165759Y-32643542D01*
X76104472Y-32791501D01*
X76015502Y-32924655D01*
X75902256Y-33037901D01*
X75769102Y-33126871D01*
X75621143Y-33188158D01*
X75464076Y-33219400D01*
X75303926Y-33219400D01*
X75146859Y-33188158D01*
X74998900Y-33126871D01*
X74865746Y-33037901D01*
X74752500Y-32924655D01*
X74663530Y-32791501D01*
X74602243Y-32643542D01*
X74571001Y-32486475D01*
X74571001Y-32326325D01*
X74602243Y-32169258D01*
X74663530Y-32021299D01*
X74752500Y-31888145D01*
X74865746Y-31774899D01*
X74998900Y-31685929D01*
X75146859Y-31624642D01*
X75303926Y-31593400D01*
X75464076Y-31593400D01*
X75621143Y-31624642D01*
G37*
G36*
X78161143Y-29084642D02*
G01*
X78309102Y-29145929D01*
X78442256Y-29234899D01*
X78555502Y-29348145D01*
X78644472Y-29481299D01*
X78705759Y-29629258D01*
X78737001Y-29786325D01*
X78737001Y-29946475D01*
X78705759Y-30103542D01*
X78644472Y-30251501D01*
X78555502Y-30384655D01*
X78442256Y-30497901D01*
X78309102Y-30586871D01*
X78161143Y-30648158D01*
X78004076Y-30679400D01*
X77843926Y-30679400D01*
X77686859Y-30648158D01*
X77538900Y-30586871D01*
X77405746Y-30497901D01*
X77292500Y-30384655D01*
X77203530Y-30251501D01*
X77142243Y-30103542D01*
X77111001Y-29946475D01*
X77111001Y-29786325D01*
X77142243Y-29629258D01*
X77203530Y-29481299D01*
X77292500Y-29348145D01*
X77405746Y-29234899D01*
X77538900Y-29145929D01*
X77686859Y-29084642D01*
X77843926Y-29053400D01*
X78004076Y-29053400D01*
X78161143Y-29084642D01*
G37*
G36*
X75621143Y-29084642D02*
G01*
X75769102Y-29145929D01*
X75902256Y-29234899D01*
X76015502Y-29348145D01*
X76104472Y-29481299D01*
X76165759Y-29629258D01*
X76197001Y-29786325D01*
X76197001Y-29946475D01*
X76165759Y-30103542D01*
X76104472Y-30251501D01*
X76015502Y-30384655D01*
X75902256Y-30497901D01*
X75769102Y-30586871D01*
X75621143Y-30648158D01*
X75464076Y-30679400D01*
X75303926Y-30679400D01*
X75146859Y-30648158D01*
X74998900Y-30586871D01*
X74865746Y-30497901D01*
X74752500Y-30384655D01*
X74663530Y-30251501D01*
X74602243Y-30103542D01*
X74571001Y-29946475D01*
X74571001Y-29786325D01*
X74602243Y-29629258D01*
X74663530Y-29481299D01*
X74752500Y-29348145D01*
X74865746Y-29234899D01*
X74998900Y-29145929D01*
X75146859Y-29084642D01*
X75303926Y-29053400D01*
X75464076Y-29053400D01*
X75621143Y-29084642D01*
G37*
G36*
X106982396Y-26366947D02*
G01*
X107155467Y-26438635D01*
X107155468Y-26438636D01*
X107311228Y-26542711D01*
X107443691Y-26675174D01*
X107443692Y-26675176D01*
X107547767Y-26830935D01*
X107619455Y-27004006D01*
X107656001Y-27187734D01*
X107656001Y-27375068D01*
X107619455Y-27558796D01*
X107547767Y-27731867D01*
X107547766Y-27731868D01*
X107443691Y-27887628D01*
X107311228Y-28020091D01*
X107232819Y-28072482D01*
X107155467Y-28124167D01*
X106982396Y-28195855D01*
X106798668Y-28232401D01*
X106611334Y-28232401D01*
X106427606Y-28195855D01*
X106254535Y-28124167D01*
X106177183Y-28072482D01*
X106098774Y-28020091D01*
X105966311Y-27887628D01*
X105862236Y-27731868D01*
X105862235Y-27731867D01*
X105790547Y-27558796D01*
X105754001Y-27375068D01*
X105754001Y-27187734D01*
X105790547Y-27004006D01*
X105862235Y-26830935D01*
X105966310Y-26675176D01*
X105966311Y-26675174D01*
X106098774Y-26542711D01*
X106254534Y-26438636D01*
X106254535Y-26438635D01*
X106427606Y-26366947D01*
X106611334Y-26330401D01*
X106798668Y-26330401D01*
X106982396Y-26366947D01*
G37*
G36*
X105116001Y-28232401D02*
G01*
X103214001Y-28232401D01*
X103214001Y-26330401D01*
X105116001Y-26330401D01*
X105116001Y-28232401D01*
G37*
G36*
X78161143Y-26544642D02*
G01*
X78309102Y-26605929D01*
X78442256Y-26694899D01*
X78555502Y-26808145D01*
X78644472Y-26941299D01*
X78705759Y-27089258D01*
X78737001Y-27246325D01*
X78737001Y-27406475D01*
X78705759Y-27563542D01*
X78644472Y-27711501D01*
X78555502Y-27844655D01*
X78442256Y-27957901D01*
X78309102Y-28046871D01*
X78161143Y-28108158D01*
X78004076Y-28139400D01*
X77843926Y-28139400D01*
X77686859Y-28108158D01*
X77538900Y-28046871D01*
X77405746Y-27957901D01*
X77292500Y-27844655D01*
X77203530Y-27711501D01*
X77142243Y-27563542D01*
X77111001Y-27406475D01*
X77111001Y-27246325D01*
X77142243Y-27089258D01*
X77203530Y-26941299D01*
X77292500Y-26808145D01*
X77405746Y-26694899D01*
X77538900Y-26605929D01*
X77686859Y-26544642D01*
X77843926Y-26513400D01*
X78004076Y-26513400D01*
X78161143Y-26544642D01*
G37*
G36*
X75621143Y-26544642D02*
G01*
X75769102Y-26605929D01*
X75902256Y-26694899D01*
X76015502Y-26808145D01*
X76104472Y-26941299D01*
X76165759Y-27089258D01*
X76197001Y-27246325D01*
X76197001Y-27406475D01*
X76165759Y-27563542D01*
X76104472Y-27711501D01*
X76015502Y-27844655D01*
X75902256Y-27957901D01*
X75769102Y-28046871D01*
X75621143Y-28108158D01*
X75464076Y-28139400D01*
X75303926Y-28139400D01*
X75146859Y-28108158D01*
X74998900Y-28046871D01*
X74865746Y-27957901D01*
X74752500Y-27844655D01*
X74663530Y-27711501D01*
X74602243Y-27563542D01*
X74571001Y-27406475D01*
X74571001Y-27246325D01*
X74602243Y-27089258D01*
X74663530Y-26941299D01*
X74752500Y-26808145D01*
X74865746Y-26694899D01*
X74998900Y-26605929D01*
X75146859Y-26544642D01*
X75303926Y-26513400D01*
X75464076Y-26513400D01*
X75621143Y-26544642D01*
G37*
G36*
X78161143Y-24004642D02*
G01*
X78309102Y-24065929D01*
X78442256Y-24154899D01*
X78555502Y-24268145D01*
X78644472Y-24401299D01*
X78705759Y-24549258D01*
X78737001Y-24706325D01*
X78737001Y-24866475D01*
X78705759Y-25023542D01*
X78644472Y-25171501D01*
X78555502Y-25304655D01*
X78442256Y-25417901D01*
X78309102Y-25506871D01*
X78161143Y-25568158D01*
X78004076Y-25599400D01*
X77843926Y-25599400D01*
X77686859Y-25568158D01*
X77538900Y-25506871D01*
X77405746Y-25417901D01*
X77292500Y-25304655D01*
X77203530Y-25171501D01*
X77142243Y-25023542D01*
X77111001Y-24866475D01*
X77111001Y-24706325D01*
X77142243Y-24549258D01*
X77203530Y-24401299D01*
X77292500Y-24268145D01*
X77405746Y-24154899D01*
X77538900Y-24065929D01*
X77686859Y-24004642D01*
X77843926Y-23973400D01*
X78004076Y-23973400D01*
X78161143Y-24004642D01*
G37*
G36*
X75621143Y-24004642D02*
G01*
X75769102Y-24065929D01*
X75902256Y-24154899D01*
X76015502Y-24268145D01*
X76104472Y-24401299D01*
X76165759Y-24549258D01*
X76197001Y-24706325D01*
X76197001Y-24866475D01*
X76165759Y-25023542D01*
X76104472Y-25171501D01*
X76015502Y-25304655D01*
X75902256Y-25417901D01*
X75769102Y-25506871D01*
X75621143Y-25568158D01*
X75464076Y-25599400D01*
X75303926Y-25599400D01*
X75146859Y-25568158D01*
X74998900Y-25506871D01*
X74865746Y-25417901D01*
X74752500Y-25304655D01*
X74663530Y-25171501D01*
X74602243Y-25023542D01*
X74571001Y-24866475D01*
X74571001Y-24706325D01*
X74602243Y-24549258D01*
X74663530Y-24401299D01*
X74752500Y-24268145D01*
X74865746Y-24154899D01*
X74998900Y-24065929D01*
X75146859Y-24004642D01*
X75303926Y-23973400D01*
X75464076Y-23973400D01*
X75621143Y-24004642D01*
G37*
G36*
X25968300Y-23028157D02*
G01*
X25969904Y-23028476D01*
X26197572Y-23122779D01*
X26402467Y-23259686D01*
X26576716Y-23433935D01*
X26576717Y-23433937D01*
X26713624Y-23638832D01*
X26807926Y-23866498D01*
X26856001Y-24108187D01*
X26856001Y-24354615D01*
X26807926Y-24596304D01*
X26762354Y-24706326D01*
X26713623Y-24823972D01*
X26576716Y-25028867D01*
X26402467Y-25203116D01*
X26197572Y-25340023D01*
X26197571Y-25340024D01*
X26197570Y-25340024D01*
X25969904Y-25434326D01*
X25728215Y-25482401D01*
X25481787Y-25482401D01*
X25240098Y-25434326D01*
X25012432Y-25340024D01*
X25012431Y-25340024D01*
X25012430Y-25340023D01*
X24807535Y-25203116D01*
X24633286Y-25028867D01*
X24496379Y-24823972D01*
X24447649Y-24706326D01*
X24402076Y-24596304D01*
X24354001Y-24354615D01*
X24354001Y-24108187D01*
X24402076Y-23866498D01*
X24496378Y-23638832D01*
X24633285Y-23433937D01*
X24633286Y-23433935D01*
X24807535Y-23259686D01*
X25012430Y-23122779D01*
X25240098Y-23028476D01*
X25241702Y-23028157D01*
X25481787Y-22980401D01*
X25728215Y-22980401D01*
X25968300Y-23028157D01*
G37*
G36*
X71688300Y-23028157D02*
G01*
X71689904Y-23028476D01*
X71917572Y-23122779D01*
X72122467Y-23259686D01*
X72296716Y-23433935D01*
X72296717Y-23433937D01*
X72433624Y-23638832D01*
X72527926Y-23866498D01*
X72576001Y-24108187D01*
X72576001Y-24354615D01*
X72527926Y-24596304D01*
X72482354Y-24706326D01*
X72433623Y-24823972D01*
X72296716Y-25028867D01*
X72122467Y-25203116D01*
X71917572Y-25340023D01*
X71917571Y-25340024D01*
X71917570Y-25340024D01*
X71689904Y-25434326D01*
X71448215Y-25482401D01*
X71201787Y-25482401D01*
X70960098Y-25434326D01*
X70732432Y-25340024D01*
X70732431Y-25340024D01*
X70732430Y-25340023D01*
X70527535Y-25203116D01*
X70353286Y-25028867D01*
X70216379Y-24823972D01*
X70167649Y-24706326D01*
X70122076Y-24596304D01*
X70074001Y-24354615D01*
X70074001Y-24108187D01*
X70122076Y-23866498D01*
X70216378Y-23638832D01*
X70353285Y-23433937D01*
X70353286Y-23433935D01*
X70527535Y-23259686D01*
X70732430Y-23122779D01*
X70960098Y-23028476D01*
X70961702Y-23028157D01*
X71201787Y-22980401D01*
X71448215Y-22980401D01*
X71688300Y-23028157D01*
G37*
G36*
X75621143Y-21464642D02*
G01*
X75769102Y-21525929D01*
X75902256Y-21614899D01*
X76015502Y-21728145D01*
X76104472Y-21861299D01*
X76165759Y-22009258D01*
X76197001Y-22166325D01*
X76197001Y-22326475D01*
X76165759Y-22483542D01*
X76104472Y-22631501D01*
X76015502Y-22764655D01*
X75902256Y-22877901D01*
X75769102Y-22966871D01*
X75621143Y-23028158D01*
X75464076Y-23059400D01*
X75303926Y-23059400D01*
X75146859Y-23028158D01*
X74998900Y-22966871D01*
X74865746Y-22877901D01*
X74752500Y-22764655D01*
X74663530Y-22631501D01*
X74602243Y-22483542D01*
X74571001Y-22326475D01*
X74571001Y-22166325D01*
X74602243Y-22009258D01*
X74663530Y-21861299D01*
X74752500Y-21728145D01*
X74865746Y-21614899D01*
X74998900Y-21525929D01*
X75146859Y-21464642D01*
X75303926Y-21433400D01*
X75464076Y-21433400D01*
X75621143Y-21464642D01*
G37*
G36*
X78737001Y-23059400D02*
G01*
X77111001Y-23059400D01*
X77111001Y-21433400D01*
X78737001Y-21433400D01*
X78737001Y-23059400D01*
G37*
G36*
X112882396Y-20816947D02*
G01*
X113055467Y-20888635D01*
X113055468Y-20888636D01*
X113211228Y-20992711D01*
X113343691Y-21125174D01*
X113343692Y-21125176D01*
X113447767Y-21280935D01*
X113519455Y-21454006D01*
X113556001Y-21637734D01*
X113556001Y-21825068D01*
X113519455Y-22008796D01*
X113447767Y-22181867D01*
X113447766Y-22181868D01*
X113343691Y-22337628D01*
X113211228Y-22470091D01*
X113132819Y-22522482D01*
X113055467Y-22574167D01*
X112882396Y-22645855D01*
X112698668Y-22682401D01*
X112511334Y-22682401D01*
X112327606Y-22645855D01*
X112154535Y-22574167D01*
X112077183Y-22522482D01*
X111998774Y-22470091D01*
X111866311Y-22337628D01*
X111762236Y-22181868D01*
X111762235Y-22181867D01*
X111690547Y-22008796D01*
X111654001Y-21825068D01*
X111654001Y-21637734D01*
X111690547Y-21454006D01*
X111762235Y-21280935D01*
X111866310Y-21125176D01*
X111866311Y-21125174D01*
X111998774Y-20992711D01*
X112154534Y-20888636D01*
X112154535Y-20888635D01*
X112327606Y-20816947D01*
X112511334Y-20780401D01*
X112698668Y-20780401D01*
X112882396Y-20816947D01*
G37*
G36*
X111016001Y-22682401D02*
G01*
X109114001Y-22682401D01*
X109114001Y-20780401D01*
X111016001Y-20780401D01*
X111016001Y-22682401D01*
G37*
G36*
X105116001Y-22682401D02*
G01*
X103214001Y-22682401D01*
X103214001Y-20780401D01*
X105116001Y-20780401D01*
X105116001Y-22682401D01*
G37*
G36*
X106982396Y-20816947D02*
G01*
X107155467Y-20888635D01*
X107155468Y-20888636D01*
X107311228Y-20992711D01*
X107443691Y-21125174D01*
X107443692Y-21125176D01*
X107547767Y-21280935D01*
X107619455Y-21454006D01*
X107656001Y-21637734D01*
X107656001Y-21825068D01*
X107619455Y-22008796D01*
X107547767Y-22181867D01*
X107547766Y-22181868D01*
X107443691Y-22337628D01*
X107311228Y-22470091D01*
X107232819Y-22522482D01*
X107155467Y-22574167D01*
X106982396Y-22645855D01*
X106798668Y-22682401D01*
X106611334Y-22682401D01*
X106427606Y-22645855D01*
X106254535Y-22574167D01*
X106177183Y-22522482D01*
X106098774Y-22470091D01*
X105966311Y-22337628D01*
X105862236Y-22181868D01*
X105862235Y-22181867D01*
X105790547Y-22008796D01*
X105754001Y-21825068D01*
X105754001Y-21637734D01*
X105790547Y-21454006D01*
X105862235Y-21280935D01*
X105966310Y-21125176D01*
X105966311Y-21125174D01*
X106098774Y-20992711D01*
X106254534Y-20888636D01*
X106254535Y-20888635D01*
X106427606Y-20816947D01*
X106611334Y-20780401D01*
X106798668Y-20780401D01*
X106982396Y-20816947D01*
G37*
M02*
