G04 #@! TF.GenerationSoftware,KiCad,Pcbnew,(5.1.6)-1*
G04 #@! TF.CreationDate,2020-07-14T11:46:25+02:00*
G04 #@! TF.ProjectId,sboxnet-booster,73626f78-6e65-4742-9d62-6f6f73746572,rev?*
G04 #@! TF.SameCoordinates,Original*
G04 #@! TF.FileFunction,Legend,Top*
G04 #@! TF.FilePolarity,Positive*
%FSLAX46Y46*%
G04 Gerber Fmt 4.6, Leading zero omitted, Abs format (unit mm)*
G04 Created by KiCad (PCBNEW (5.1.6)-1) date 2020-07-14 11:46:25*
%MOMM*%
%LPD*%
G01*
G04 APERTURE LIST*
%ADD10C,0.120000*%
%ADD11C,0.150000*%
G04 APERTURE END LIST*
D10*
X94649600Y-146244000D02*
X94649600Y-147574000D01*
X93319600Y-146244000D02*
X94649600Y-146244000D01*
X92049600Y-146244000D02*
X92049600Y-148904000D01*
X92049600Y-148904000D02*
X89449600Y-148904000D01*
X92049600Y-146244000D02*
X89449600Y-146244000D01*
X89449600Y-146244000D02*
X89449600Y-148904000D01*
X82275001Y-55981401D02*
X82275001Y-55751401D01*
X82275001Y-51261401D02*
X82275001Y-51491401D01*
X82275001Y-51261401D02*
X84995001Y-51261401D01*
X84995001Y-51261401D02*
X84995001Y-52571401D01*
X81135001Y-51491401D02*
X82275001Y-51491401D01*
X84995001Y-55981401D02*
X82275001Y-55981401D01*
X84995001Y-54671401D02*
X84995001Y-55981401D01*
X103491600Y-137183600D02*
X99891600Y-137183600D01*
X95891600Y-121083600D02*
X92291600Y-121083600D01*
X92291600Y-123133600D02*
X90291600Y-123133600D01*
X92291600Y-121083600D02*
X92291600Y-123133600D01*
X103491600Y-121083600D02*
X99891600Y-121083600D01*
X92291600Y-137183600D02*
X92291600Y-135133600D01*
X95891600Y-137183600D02*
X92291600Y-137183600D01*
X103491600Y-137183600D02*
X103491600Y-135133600D01*
X103491600Y-121083600D02*
X103491600Y-123133600D01*
X98205001Y-33941401D02*
X99535001Y-33941401D01*
X98205001Y-35271401D02*
X98205001Y-33941401D01*
X98205001Y-36541401D02*
X100865001Y-36541401D01*
X100865001Y-36541401D02*
X100865001Y-41681401D01*
X98205001Y-36541401D02*
X98205001Y-41681401D01*
X98205001Y-41681401D02*
X100865001Y-41681401D01*
X85012937Y-65781401D02*
X86217065Y-65781401D01*
X85012937Y-63961401D02*
X86217065Y-63961401D01*
X99832937Y-51781401D02*
X101037065Y-51781401D01*
X99832937Y-49961401D02*
X101037065Y-49961401D01*
X110632937Y-40221401D02*
X111837065Y-40221401D01*
X110632937Y-38401401D02*
X111837065Y-38401401D01*
X93682937Y-59731401D02*
X94887065Y-59731401D01*
X93682937Y-57911401D02*
X94887065Y-57911401D01*
X88072937Y-62491401D02*
X89277065Y-62491401D01*
X88072937Y-60671401D02*
X89277065Y-60671401D01*
X93682937Y-56441401D02*
X94887065Y-56441401D01*
X93682937Y-54621401D02*
X94887065Y-54621401D01*
X105022937Y-45771401D02*
X106227065Y-45771401D01*
X105022937Y-43951401D02*
X106227065Y-43951401D01*
X69885001Y-24231401D02*
X67585001Y-24231401D01*
X27045001Y-24231401D02*
X29345001Y-24231401D01*
X67585001Y-19611401D02*
X29345001Y-19611401D01*
X67585001Y-28851401D02*
X67585001Y-19611401D01*
X29345001Y-28851401D02*
X67585001Y-28851401D01*
X29345001Y-19611401D02*
X29345001Y-28851401D01*
X69885001Y-34781401D02*
X67585001Y-34781401D01*
X27045001Y-34781401D02*
X29345001Y-34781401D01*
X67585001Y-30161401D02*
X29345001Y-30161401D01*
X67585001Y-39401401D02*
X67585001Y-30161401D01*
X29345001Y-39401401D02*
X67585001Y-39401401D01*
X29345001Y-30161401D02*
X29345001Y-39401401D01*
X82462937Y-59201401D02*
X83667065Y-59201401D01*
X82462937Y-57381401D02*
X83667065Y-57381401D01*
X109672937Y-36931401D02*
X110877065Y-36931401D01*
X109672937Y-35111401D02*
X110877065Y-35111401D01*
X94222937Y-53151401D02*
X95427065Y-53151401D01*
X94222937Y-51331401D02*
X95427065Y-51331401D01*
X104062937Y-39191401D02*
X105267065Y-39191401D01*
X104062937Y-37371401D02*
X105267065Y-37371401D01*
X110302937Y-33641401D02*
X111507065Y-33641401D01*
X110302937Y-31821401D02*
X111507065Y-31821401D01*
X82462937Y-62491401D02*
X83667065Y-62491401D01*
X82462937Y-60671401D02*
X83667065Y-60671401D01*
X88072937Y-59201401D02*
X89277065Y-59201401D01*
X88072937Y-57381401D02*
X89277065Y-57381401D01*
X99412937Y-45201401D02*
X100617065Y-45201401D01*
X99412937Y-43381401D02*
X100617065Y-43381401D01*
X73792937Y-69411401D02*
X74997065Y-69411401D01*
X73792937Y-67591401D02*
X74997065Y-67591401D01*
X105022937Y-42481401D02*
X106227065Y-42481401D01*
X105022937Y-40661401D02*
X106227065Y-40661401D01*
X79402937Y-68541401D02*
X80607065Y-68541401D01*
X79402937Y-66721401D02*
X80607065Y-66721401D01*
X110592937Y-30351401D02*
X111797065Y-30351401D01*
X110592937Y-28531401D02*
X111797065Y-28531401D01*
X58371600Y-136880800D02*
X33831600Y-136880800D01*
X33831600Y-136880800D02*
X33831600Y-120890800D01*
X24931600Y-133060800D02*
X33831600Y-133060800D01*
X24931600Y-121820800D02*
X24931600Y-133060800D01*
X24931600Y-121820800D02*
X33831600Y-121820800D01*
X58371600Y-120890800D02*
X58371600Y-136880800D01*
X58371600Y-120890800D02*
X33831600Y-120890800D01*
X55770000Y-162510000D02*
X55770000Y-149910000D01*
X76070000Y-162510000D02*
X55770000Y-162510000D01*
X76070000Y-161560000D02*
X76070000Y-162510000D01*
X76620000Y-161860000D02*
X76070000Y-161560000D01*
X76620000Y-159810000D02*
X76620000Y-161860000D01*
X76070000Y-160110000D02*
X76620000Y-159810000D01*
X76070000Y-154710000D02*
X76070000Y-160110000D01*
X76570000Y-154960000D02*
X76070000Y-154710000D01*
X76570000Y-149910000D02*
X76570000Y-154960000D01*
X55770000Y-149910000D02*
X76570000Y-149910000D01*
X115460000Y-162510000D02*
X115460000Y-149910000D01*
X135760000Y-162510000D02*
X115460000Y-162510000D01*
X135760000Y-161560000D02*
X135760000Y-162510000D01*
X136310000Y-161860000D02*
X135760000Y-161560000D01*
X136310000Y-159810000D02*
X136310000Y-161860000D01*
X135760000Y-160110000D02*
X136310000Y-159810000D01*
X135760000Y-154710000D02*
X135760000Y-160110000D01*
X136260000Y-154960000D02*
X135760000Y-154710000D01*
X136260000Y-149910000D02*
X136260000Y-154960000D01*
X115460000Y-149910000D02*
X136260000Y-149910000D01*
X111362800Y-141570400D02*
X111362800Y-142900400D01*
X110032800Y-141570400D02*
X111362800Y-141570400D01*
X108762800Y-141570400D02*
X108762800Y-144230400D01*
X108762800Y-144230400D02*
X106162800Y-144230400D01*
X108762800Y-141570400D02*
X106162800Y-141570400D01*
X106162800Y-141570400D02*
X106162800Y-144230400D01*
X79702001Y-20722400D02*
X74114001Y-20722400D01*
X79702001Y-21484400D02*
X79702001Y-20722400D01*
X79702001Y-65426400D02*
X79702001Y-21484400D01*
X73860001Y-65426400D02*
X79702001Y-65426400D01*
X74114001Y-20722400D02*
X73860001Y-65426400D01*
X46516600Y-145073600D02*
X46516600Y-141133600D01*
X46276600Y-145073600D02*
X46276600Y-141133600D01*
X46396600Y-145073600D02*
X46396600Y-141133600D01*
X38711600Y-141133600D02*
X38711600Y-141463600D01*
X47851600Y-141133600D02*
X38711600Y-141133600D01*
X47851600Y-141463600D02*
X47851600Y-141133600D01*
X38711600Y-145073600D02*
X38711600Y-144743600D01*
X47851600Y-145073600D02*
X38711600Y-145073600D01*
X47851600Y-144743600D02*
X47851600Y-145073600D01*
X68385001Y-65161401D02*
X68385001Y-65317401D01*
X68385001Y-62845401D02*
X68385001Y-63001401D01*
X70986131Y-65161238D02*
G75*
G02*
X68904040Y-65161401I-1041130J1079837D01*
G01*
X70986131Y-63001564D02*
G75*
G03*
X68904040Y-63001401I-1041130J-1079837D01*
G01*
X71617336Y-65160009D02*
G75*
G02*
X68385001Y-65316917I-1672335J1078608D01*
G01*
X71617336Y-63002793D02*
G75*
G03*
X68385001Y-62845885I-1672335J-1078608D01*
G01*
X103875001Y-22811401D02*
X103875001Y-22967401D01*
X103875001Y-20495401D02*
X103875001Y-20651401D01*
X106476131Y-22811238D02*
G75*
G02*
X104394040Y-22811401I-1041130J1079837D01*
G01*
X106476131Y-20651564D02*
G75*
G03*
X104394040Y-20651401I-1041130J-1079837D01*
G01*
X107107336Y-22810009D02*
G75*
G02*
X103875001Y-22966917I-1672335J1078608D01*
G01*
X107107336Y-20652793D02*
G75*
G03*
X103875001Y-20495885I-1672335J-1078608D01*
G01*
X109775001Y-22811401D02*
X109775001Y-22967401D01*
X109775001Y-20495401D02*
X109775001Y-20651401D01*
X112376131Y-22811238D02*
G75*
G02*
X110294040Y-22811401I-1041130J1079837D01*
G01*
X112376131Y-20651564D02*
G75*
G03*
X110294040Y-20651401I-1041130J-1079837D01*
G01*
X113007336Y-22810009D02*
G75*
G02*
X109775001Y-22966917I-1672335J1078608D01*
G01*
X113007336Y-20652793D02*
G75*
G03*
X109775001Y-20495885I-1672335J-1078608D01*
G01*
X114625001Y-28081401D02*
X117175001Y-28081401D01*
X114625001Y-29781401D02*
X117175001Y-29781401D01*
X114625001Y-28081401D02*
X114625001Y-29781401D01*
X114625001Y-25131401D02*
X117175001Y-25131401D01*
X114625001Y-26831401D02*
X117175001Y-26831401D01*
X114625001Y-25131401D02*
X114625001Y-26831401D01*
X116695001Y-34941401D02*
X115235001Y-34941401D01*
X116695001Y-31781401D02*
X114535001Y-31781401D01*
X116695001Y-31781401D02*
X116695001Y-32711401D01*
X116695001Y-34941401D02*
X116695001Y-34011401D01*
X71165001Y-57961401D02*
X69705001Y-57961401D01*
X71165001Y-54801401D02*
X69005001Y-54801401D01*
X71165001Y-54801401D02*
X71165001Y-55731401D01*
X71165001Y-57961401D02*
X71165001Y-57031401D01*
X85795001Y-70371401D02*
X84335001Y-70371401D01*
X85795001Y-67211401D02*
X83635001Y-67211401D01*
X85795001Y-67211401D02*
X85795001Y-68141401D01*
X85795001Y-70371401D02*
X85795001Y-69441401D01*
X103875001Y-28361401D02*
X103875001Y-28517401D01*
X103875001Y-26045401D02*
X103875001Y-26201401D01*
X106476131Y-28361238D02*
G75*
G02*
X104394040Y-28361401I-1041130J1079837D01*
G01*
X106476131Y-26201564D02*
G75*
G03*
X104394040Y-26201401I-1041130J-1079837D01*
G01*
X107107336Y-28360009D02*
G75*
G02*
X103875001Y-28516917I-1672335J1078608D01*
G01*
X107107336Y-26202793D02*
G75*
G03*
X103875001Y-26045885I-1672335J-1078608D01*
G01*
X47245001Y-61711401D02*
X47245001Y-61867401D01*
X47245001Y-59395401D02*
X47245001Y-59551401D01*
X49846131Y-61711238D02*
G75*
G02*
X47764040Y-61711401I-1041130J1079837D01*
G01*
X49846131Y-59551564D02*
G75*
G03*
X47764040Y-59551401I-1041130J-1079837D01*
G01*
X50477336Y-61710009D02*
G75*
G02*
X47245001Y-61866917I-1672335J1078608D01*
G01*
X50477336Y-59552793D02*
G75*
G03*
X47245001Y-59395885I-1672335J-1078608D01*
G01*
X53145001Y-61711401D02*
X53145001Y-61867401D01*
X53145001Y-59395401D02*
X53145001Y-59551401D01*
X55746131Y-61711238D02*
G75*
G02*
X53664040Y-61711401I-1041130J1079837D01*
G01*
X55746131Y-59551564D02*
G75*
G03*
X53664040Y-59551401I-1041130J-1079837D01*
G01*
X56377336Y-61710009D02*
G75*
G02*
X53145001Y-61866917I-1672335J1078608D01*
G01*
X56377336Y-59552793D02*
G75*
G03*
X53145001Y-59395885I-1672335J-1078608D01*
G01*
X88612937Y-53151401D02*
X89817065Y-53151401D01*
X88612937Y-51331401D02*
X89817065Y-51331401D01*
X104692937Y-32611401D02*
X105897065Y-32611401D01*
X104692937Y-30791401D02*
X105897065Y-30791401D01*
X61180001Y-62856401D02*
X61180001Y-63356401D01*
X60930001Y-63106401D02*
X61430001Y-63106401D01*
X66335776Y-64297401D02*
X66335776Y-64865401D01*
X66295776Y-64063401D02*
X66295776Y-65099401D01*
X66255776Y-63904401D02*
X66255776Y-65258401D01*
X66215776Y-63776401D02*
X66215776Y-65386401D01*
X66175776Y-63666401D02*
X66175776Y-65496401D01*
X66135776Y-63570401D02*
X66135776Y-65592401D01*
X66095776Y-63483401D02*
X66095776Y-65679401D01*
X66055776Y-63403401D02*
X66055776Y-65759401D01*
X66015776Y-63330401D02*
X66015776Y-65832401D01*
X65975776Y-63262401D02*
X65975776Y-65900401D01*
X65935776Y-63198401D02*
X65935776Y-65964401D01*
X65895776Y-63138401D02*
X65895776Y-66024401D01*
X65855776Y-63081401D02*
X65855776Y-66081401D01*
X65815776Y-63027401D02*
X65815776Y-66135401D01*
X65775776Y-62976401D02*
X65775776Y-66186401D01*
X65735776Y-65621401D02*
X65735776Y-66234401D01*
X65735776Y-62928401D02*
X65735776Y-63541401D01*
X65695776Y-65621401D02*
X65695776Y-66280401D01*
X65695776Y-62882401D02*
X65695776Y-63541401D01*
X65655776Y-65621401D02*
X65655776Y-66324401D01*
X65655776Y-62838401D02*
X65655776Y-63541401D01*
X65615776Y-65621401D02*
X65615776Y-66366401D01*
X65615776Y-62796401D02*
X65615776Y-63541401D01*
X65575776Y-65621401D02*
X65575776Y-66407401D01*
X65575776Y-62755401D02*
X65575776Y-63541401D01*
X65535776Y-65621401D02*
X65535776Y-66445401D01*
X65535776Y-62717401D02*
X65535776Y-63541401D01*
X65495776Y-65621401D02*
X65495776Y-66482401D01*
X65495776Y-62680401D02*
X65495776Y-63541401D01*
X65455776Y-65621401D02*
X65455776Y-66518401D01*
X65455776Y-62644401D02*
X65455776Y-63541401D01*
X65415776Y-65621401D02*
X65415776Y-66552401D01*
X65415776Y-62610401D02*
X65415776Y-63541401D01*
X65375776Y-65621401D02*
X65375776Y-66585401D01*
X65375776Y-62577401D02*
X65375776Y-63541401D01*
X65335776Y-65621401D02*
X65335776Y-66616401D01*
X65335776Y-62546401D02*
X65335776Y-63541401D01*
X65295776Y-65621401D02*
X65295776Y-66646401D01*
X65295776Y-62516401D02*
X65295776Y-63541401D01*
X65255776Y-65621401D02*
X65255776Y-66676401D01*
X65255776Y-62486401D02*
X65255776Y-63541401D01*
X65215776Y-65621401D02*
X65215776Y-66703401D01*
X65215776Y-62459401D02*
X65215776Y-63541401D01*
X65175776Y-65621401D02*
X65175776Y-66730401D01*
X65175776Y-62432401D02*
X65175776Y-63541401D01*
X65135776Y-65621401D02*
X65135776Y-66756401D01*
X65135776Y-62406401D02*
X65135776Y-63541401D01*
X65095776Y-65621401D02*
X65095776Y-66781401D01*
X65095776Y-62381401D02*
X65095776Y-63541401D01*
X65055776Y-65621401D02*
X65055776Y-66805401D01*
X65055776Y-62357401D02*
X65055776Y-63541401D01*
X65015776Y-65621401D02*
X65015776Y-66828401D01*
X65015776Y-62334401D02*
X65015776Y-63541401D01*
X64975776Y-65621401D02*
X64975776Y-66849401D01*
X64975776Y-62313401D02*
X64975776Y-63541401D01*
X64935776Y-65621401D02*
X64935776Y-66871401D01*
X64935776Y-62291401D02*
X64935776Y-63541401D01*
X64895776Y-65621401D02*
X64895776Y-66891401D01*
X64895776Y-62271401D02*
X64895776Y-63541401D01*
X64855776Y-65621401D02*
X64855776Y-66910401D01*
X64855776Y-62252401D02*
X64855776Y-63541401D01*
X64815776Y-65621401D02*
X64815776Y-66929401D01*
X64815776Y-62233401D02*
X64815776Y-63541401D01*
X64775776Y-65621401D02*
X64775776Y-66946401D01*
X64775776Y-62216401D02*
X64775776Y-63541401D01*
X64735776Y-65621401D02*
X64735776Y-66963401D01*
X64735776Y-62199401D02*
X64735776Y-63541401D01*
X64695776Y-65621401D02*
X64695776Y-66979401D01*
X64695776Y-62183401D02*
X64695776Y-63541401D01*
X64655776Y-65621401D02*
X64655776Y-66995401D01*
X64655776Y-62167401D02*
X64655776Y-63541401D01*
X64615776Y-65621401D02*
X64615776Y-67009401D01*
X64615776Y-62153401D02*
X64615776Y-63541401D01*
X64575776Y-65621401D02*
X64575776Y-67023401D01*
X64575776Y-62139401D02*
X64575776Y-63541401D01*
X64535776Y-65621401D02*
X64535776Y-67036401D01*
X64535776Y-62126401D02*
X64535776Y-63541401D01*
X64495776Y-65621401D02*
X64495776Y-67049401D01*
X64495776Y-62113401D02*
X64495776Y-63541401D01*
X64455776Y-65621401D02*
X64455776Y-67061401D01*
X64455776Y-62101401D02*
X64455776Y-63541401D01*
X64414776Y-65621401D02*
X64414776Y-67072401D01*
X64414776Y-62090401D02*
X64414776Y-63541401D01*
X64374776Y-65621401D02*
X64374776Y-67082401D01*
X64374776Y-62080401D02*
X64374776Y-63541401D01*
X64334776Y-65621401D02*
X64334776Y-67092401D01*
X64334776Y-62070401D02*
X64334776Y-63541401D01*
X64294776Y-65621401D02*
X64294776Y-67101401D01*
X64294776Y-62061401D02*
X64294776Y-63541401D01*
X64254776Y-65621401D02*
X64254776Y-67109401D01*
X64254776Y-62053401D02*
X64254776Y-63541401D01*
X64214776Y-65621401D02*
X64214776Y-67117401D01*
X64214776Y-62045401D02*
X64214776Y-63541401D01*
X64174776Y-65621401D02*
X64174776Y-67124401D01*
X64174776Y-62038401D02*
X64174776Y-63541401D01*
X64134776Y-65621401D02*
X64134776Y-67131401D01*
X64134776Y-62031401D02*
X64134776Y-63541401D01*
X64094776Y-65621401D02*
X64094776Y-67137401D01*
X64094776Y-62025401D02*
X64094776Y-63541401D01*
X64054776Y-65621401D02*
X64054776Y-67142401D01*
X64054776Y-62020401D02*
X64054776Y-63541401D01*
X64014776Y-65621401D02*
X64014776Y-67146401D01*
X64014776Y-62016401D02*
X64014776Y-63541401D01*
X63974776Y-65621401D02*
X63974776Y-67150401D01*
X63974776Y-62012401D02*
X63974776Y-63541401D01*
X63934776Y-65621401D02*
X63934776Y-67154401D01*
X63934776Y-62008401D02*
X63934776Y-63541401D01*
X63894776Y-65621401D02*
X63894776Y-67157401D01*
X63894776Y-62005401D02*
X63894776Y-63541401D01*
X63854776Y-65621401D02*
X63854776Y-67159401D01*
X63854776Y-62003401D02*
X63854776Y-63541401D01*
X63814776Y-65621401D02*
X63814776Y-67160401D01*
X63814776Y-62002401D02*
X63814776Y-63541401D01*
X63774776Y-62001401D02*
X63774776Y-63541401D01*
X63774776Y-65621401D02*
X63774776Y-67161401D01*
X63734776Y-62001401D02*
X63734776Y-63541401D01*
X63734776Y-65621401D02*
X63734776Y-67161401D01*
X66354776Y-64581401D02*
G75*
G03*
X66354776Y-64581401I-2620000J0D01*
G01*
X60065001Y-42881401D02*
X60065001Y-44131401D01*
X59440001Y-43506401D02*
X60690001Y-43506401D01*
X72618083Y-46764401D02*
X72618083Y-47398401D01*
X72578083Y-46324401D02*
X72578083Y-47838401D01*
X72538083Y-46053401D02*
X72538083Y-48109401D01*
X72498083Y-45840401D02*
X72498083Y-48322401D01*
X72458083Y-45659401D02*
X72458083Y-48503401D01*
X72418083Y-45498401D02*
X72418083Y-48664401D01*
X72378083Y-45353401D02*
X72378083Y-48809401D01*
X72338083Y-45220401D02*
X72338083Y-48942401D01*
X72298083Y-45097401D02*
X72298083Y-49065401D01*
X72258083Y-44981401D02*
X72258083Y-49181401D01*
X72218083Y-44872401D02*
X72218083Y-49290401D01*
X72178083Y-44769401D02*
X72178083Y-49393401D01*
X72138083Y-44671401D02*
X72138083Y-49491401D01*
X72098083Y-44577401D02*
X72098083Y-49585401D01*
X72058083Y-44487401D02*
X72058083Y-49675401D01*
X72018083Y-44400401D02*
X72018083Y-49762401D01*
X71978083Y-44317401D02*
X71978083Y-49845401D01*
X71938083Y-44237401D02*
X71938083Y-49925401D01*
X71898083Y-44160401D02*
X71898083Y-50002401D01*
X71858083Y-44085401D02*
X71858083Y-50077401D01*
X71818083Y-44012401D02*
X71818083Y-50150401D01*
X71778083Y-43941401D02*
X71778083Y-50221401D01*
X71738083Y-43873401D02*
X71738083Y-50289401D01*
X71698083Y-43806401D02*
X71698083Y-50356401D01*
X71658083Y-43742401D02*
X71658083Y-50420401D01*
X71618083Y-43679401D02*
X71618083Y-50483401D01*
X71578083Y-43617401D02*
X71578083Y-50545401D01*
X71538083Y-43557401D02*
X71538083Y-50605401D01*
X71498083Y-43498401D02*
X71498083Y-50664401D01*
X71458083Y-43441401D02*
X71458083Y-50721401D01*
X71418083Y-43385401D02*
X71418083Y-50777401D01*
X71378083Y-43331401D02*
X71378083Y-50831401D01*
X71338083Y-43277401D02*
X71338083Y-50885401D01*
X71298083Y-43225401D02*
X71298083Y-50937401D01*
X71258083Y-43174401D02*
X71258083Y-50988401D01*
X71218083Y-43124401D02*
X71218083Y-51038401D01*
X71178083Y-43074401D02*
X71178083Y-51088401D01*
X71138083Y-43026401D02*
X71138083Y-51136401D01*
X71098083Y-42979401D02*
X71098083Y-51183401D01*
X71058083Y-42933401D02*
X71058083Y-51229401D01*
X71018083Y-42887401D02*
X71018083Y-51275401D01*
X70978083Y-42843401D02*
X70978083Y-51319401D01*
X70938083Y-42799401D02*
X70938083Y-51363401D01*
X70898083Y-42756401D02*
X70898083Y-51406401D01*
X70858083Y-42714401D02*
X70858083Y-51448401D01*
X70818083Y-42673401D02*
X70818083Y-51489401D01*
X70778083Y-42632401D02*
X70778083Y-51530401D01*
X70738083Y-42592401D02*
X70738083Y-51570401D01*
X70698083Y-42553401D02*
X70698083Y-51609401D01*
X70658083Y-42514401D02*
X70658083Y-51648401D01*
X70618083Y-42476401D02*
X70618083Y-51686401D01*
X70578083Y-42439401D02*
X70578083Y-51723401D01*
X70538083Y-42403401D02*
X70538083Y-51759401D01*
X70498083Y-42367401D02*
X70498083Y-51795401D01*
X70458083Y-42331401D02*
X70458083Y-51831401D01*
X70418083Y-42296401D02*
X70418083Y-51866401D01*
X70378083Y-42262401D02*
X70378083Y-51900401D01*
X70338083Y-42229401D02*
X70338083Y-51933401D01*
X70298083Y-42196401D02*
X70298083Y-51966401D01*
X70258083Y-42163401D02*
X70258083Y-51999401D01*
X70218083Y-42131401D02*
X70218083Y-52031401D01*
X70178083Y-48521401D02*
X70178083Y-52063401D01*
X70178083Y-42099401D02*
X70178083Y-45641401D01*
X70138083Y-48521401D02*
X70138083Y-52093401D01*
X70138083Y-42069401D02*
X70138083Y-45641401D01*
X70098083Y-48521401D02*
X70098083Y-52124401D01*
X70098083Y-42038401D02*
X70098083Y-45641401D01*
X70058083Y-48521401D02*
X70058083Y-52154401D01*
X70058083Y-42008401D02*
X70058083Y-45641401D01*
X70018083Y-48521401D02*
X70018083Y-52183401D01*
X70018083Y-41979401D02*
X70018083Y-45641401D01*
X69978083Y-48521401D02*
X69978083Y-52212401D01*
X69978083Y-41950401D02*
X69978083Y-45641401D01*
X69938083Y-48521401D02*
X69938083Y-52241401D01*
X69938083Y-41921401D02*
X69938083Y-45641401D01*
X69898083Y-48521401D02*
X69898083Y-52269401D01*
X69898083Y-41893401D02*
X69898083Y-45641401D01*
X69858083Y-48521401D02*
X69858083Y-52297401D01*
X69858083Y-41865401D02*
X69858083Y-45641401D01*
X69818083Y-48521401D02*
X69818083Y-52324401D01*
X69818083Y-41838401D02*
X69818083Y-45641401D01*
X69778083Y-48521401D02*
X69778083Y-52351401D01*
X69778083Y-41811401D02*
X69778083Y-45641401D01*
X69738083Y-48521401D02*
X69738083Y-52377401D01*
X69738083Y-41785401D02*
X69738083Y-45641401D01*
X69698083Y-48521401D02*
X69698083Y-52403401D01*
X69698083Y-41759401D02*
X69698083Y-45641401D01*
X69658083Y-48521401D02*
X69658083Y-52428401D01*
X69658083Y-41734401D02*
X69658083Y-45641401D01*
X69618083Y-48521401D02*
X69618083Y-52453401D01*
X69618083Y-41709401D02*
X69618083Y-45641401D01*
X69578083Y-48521401D02*
X69578083Y-52478401D01*
X69578083Y-41684401D02*
X69578083Y-45641401D01*
X69538083Y-48521401D02*
X69538083Y-52502401D01*
X69538083Y-41660401D02*
X69538083Y-45641401D01*
X69498083Y-48521401D02*
X69498083Y-52526401D01*
X69498083Y-41636401D02*
X69498083Y-45641401D01*
X69458083Y-48521401D02*
X69458083Y-52549401D01*
X69458083Y-41613401D02*
X69458083Y-45641401D01*
X69418083Y-48521401D02*
X69418083Y-52572401D01*
X69418083Y-41590401D02*
X69418083Y-45641401D01*
X69378083Y-48521401D02*
X69378083Y-52595401D01*
X69378083Y-41567401D02*
X69378083Y-45641401D01*
X69338083Y-48521401D02*
X69338083Y-52617401D01*
X69338083Y-41545401D02*
X69338083Y-45641401D01*
X69298083Y-48521401D02*
X69298083Y-52639401D01*
X69298083Y-41523401D02*
X69298083Y-45641401D01*
X69258083Y-48521401D02*
X69258083Y-52661401D01*
X69258083Y-41501401D02*
X69258083Y-45641401D01*
X69218083Y-48521401D02*
X69218083Y-52682401D01*
X69218083Y-41480401D02*
X69218083Y-45641401D01*
X69178083Y-48521401D02*
X69178083Y-52703401D01*
X69178083Y-41459401D02*
X69178083Y-45641401D01*
X69138083Y-48521401D02*
X69138083Y-52723401D01*
X69138083Y-41439401D02*
X69138083Y-45641401D01*
X69098083Y-48521401D02*
X69098083Y-52743401D01*
X69098083Y-41419401D02*
X69098083Y-45641401D01*
X69058083Y-48521401D02*
X69058083Y-52763401D01*
X69058083Y-41399401D02*
X69058083Y-45641401D01*
X69018083Y-48521401D02*
X69018083Y-52783401D01*
X69018083Y-41379401D02*
X69018083Y-45641401D01*
X68978083Y-48521401D02*
X68978083Y-52802401D01*
X68978083Y-41360401D02*
X68978083Y-45641401D01*
X68938083Y-48521401D02*
X68938083Y-52820401D01*
X68938083Y-41342401D02*
X68938083Y-45641401D01*
X68898083Y-48521401D02*
X68898083Y-52839401D01*
X68898083Y-41323401D02*
X68898083Y-45641401D01*
X68858083Y-48521401D02*
X68858083Y-52857401D01*
X68858083Y-41305401D02*
X68858083Y-45641401D01*
X68818083Y-48521401D02*
X68818083Y-52874401D01*
X68818083Y-41288401D02*
X68818083Y-45641401D01*
X68778083Y-48521401D02*
X68778083Y-52892401D01*
X68778083Y-41270401D02*
X68778083Y-45641401D01*
X68738083Y-48521401D02*
X68738083Y-52909401D01*
X68738083Y-41253401D02*
X68738083Y-45641401D01*
X68698083Y-48521401D02*
X68698083Y-52926401D01*
X68698083Y-41236401D02*
X68698083Y-45641401D01*
X68658083Y-48521401D02*
X68658083Y-52942401D01*
X68658083Y-41220401D02*
X68658083Y-45641401D01*
X68618083Y-48521401D02*
X68618083Y-52958401D01*
X68618083Y-41204401D02*
X68618083Y-45641401D01*
X68578083Y-48521401D02*
X68578083Y-52974401D01*
X68578083Y-41188401D02*
X68578083Y-45641401D01*
X68538083Y-48521401D02*
X68538083Y-52989401D01*
X68538083Y-41173401D02*
X68538083Y-45641401D01*
X68498083Y-48521401D02*
X68498083Y-53005401D01*
X68498083Y-41157401D02*
X68498083Y-45641401D01*
X68458083Y-48521401D02*
X68458083Y-53020401D01*
X68458083Y-41142401D02*
X68458083Y-45641401D01*
X68418083Y-48521401D02*
X68418083Y-53034401D01*
X68418083Y-41128401D02*
X68418083Y-45641401D01*
X68378083Y-48521401D02*
X68378083Y-53048401D01*
X68378083Y-41114401D02*
X68378083Y-45641401D01*
X68338083Y-48521401D02*
X68338083Y-53062401D01*
X68338083Y-41100401D02*
X68338083Y-45641401D01*
X68298083Y-48521401D02*
X68298083Y-53076401D01*
X68298083Y-41086401D02*
X68298083Y-45641401D01*
X68258083Y-48521401D02*
X68258083Y-53089401D01*
X68258083Y-41073401D02*
X68258083Y-45641401D01*
X68218083Y-48521401D02*
X68218083Y-53102401D01*
X68218083Y-41060401D02*
X68218083Y-45641401D01*
X68178083Y-48521401D02*
X68178083Y-53115401D01*
X68178083Y-41047401D02*
X68178083Y-45641401D01*
X68138083Y-48521401D02*
X68138083Y-53128401D01*
X68138083Y-41034401D02*
X68138083Y-45641401D01*
X68098083Y-48521401D02*
X68098083Y-53140401D01*
X68098083Y-41022401D02*
X68098083Y-45641401D01*
X68058083Y-48521401D02*
X68058083Y-53152401D01*
X68058083Y-41010401D02*
X68058083Y-45641401D01*
X68018083Y-48521401D02*
X68018083Y-53164401D01*
X68018083Y-40998401D02*
X68018083Y-45641401D01*
X67978083Y-48521401D02*
X67978083Y-53175401D01*
X67978083Y-40987401D02*
X67978083Y-45641401D01*
X67938083Y-48521401D02*
X67938083Y-53186401D01*
X67938083Y-40976401D02*
X67938083Y-45641401D01*
X67898083Y-48521401D02*
X67898083Y-53197401D01*
X67898083Y-40965401D02*
X67898083Y-45641401D01*
X67858083Y-48521401D02*
X67858083Y-53207401D01*
X67858083Y-40955401D02*
X67858083Y-45641401D01*
X67818083Y-48521401D02*
X67818083Y-53218401D01*
X67818083Y-40944401D02*
X67818083Y-45641401D01*
X67778083Y-48521401D02*
X67778083Y-53227401D01*
X67778083Y-40935401D02*
X67778083Y-45641401D01*
X67738083Y-48521401D02*
X67738083Y-53237401D01*
X67738083Y-40925401D02*
X67738083Y-45641401D01*
X67698083Y-48521401D02*
X67698083Y-53247401D01*
X67698083Y-40915401D02*
X67698083Y-45641401D01*
X67658083Y-48521401D02*
X67658083Y-53256401D01*
X67658083Y-40906401D02*
X67658083Y-45641401D01*
X67618083Y-48521401D02*
X67618083Y-53265401D01*
X67618083Y-40897401D02*
X67618083Y-45641401D01*
X67578083Y-48521401D02*
X67578083Y-53273401D01*
X67578083Y-40889401D02*
X67578083Y-45641401D01*
X67538083Y-48521401D02*
X67538083Y-53282401D01*
X67538083Y-40880401D02*
X67538083Y-45641401D01*
X67498083Y-48521401D02*
X67498083Y-53290401D01*
X67498083Y-40872401D02*
X67498083Y-45641401D01*
X67458083Y-48521401D02*
X67458083Y-53297401D01*
X67458083Y-40865401D02*
X67458083Y-45641401D01*
X67418083Y-48521401D02*
X67418083Y-53305401D01*
X67418083Y-40857401D02*
X67418083Y-45641401D01*
X67378083Y-48521401D02*
X67378083Y-53312401D01*
X67378083Y-40850401D02*
X67378083Y-45641401D01*
X67338083Y-48521401D02*
X67338083Y-53319401D01*
X67338083Y-40843401D02*
X67338083Y-45641401D01*
X67298083Y-40836401D02*
X67298083Y-53326401D01*
X67258083Y-40829401D02*
X67258083Y-53333401D01*
X67218083Y-40823401D02*
X67218083Y-53339401D01*
X67178083Y-40817401D02*
X67178083Y-53345401D01*
X67138083Y-40812401D02*
X67138083Y-53350401D01*
X67098083Y-40806401D02*
X67098083Y-53356401D01*
X67058083Y-40801401D02*
X67058083Y-53361401D01*
X67018083Y-40796401D02*
X67018083Y-53366401D01*
X66978083Y-40791401D02*
X66978083Y-53371401D01*
X66937083Y-40787401D02*
X66937083Y-53375401D01*
X66897083Y-40783401D02*
X66897083Y-53379401D01*
X66857083Y-40779401D02*
X66857083Y-53383401D01*
X66817083Y-40775401D02*
X66817083Y-53387401D01*
X66777083Y-40772401D02*
X66777083Y-53390401D01*
X66737083Y-40769401D02*
X66737083Y-53393401D01*
X66697083Y-40766401D02*
X66697083Y-53396401D01*
X66657083Y-40763401D02*
X66657083Y-53399401D01*
X66617083Y-40761401D02*
X66617083Y-53401401D01*
X66577083Y-40759401D02*
X66577083Y-53403401D01*
X66537083Y-40757401D02*
X66537083Y-53405401D01*
X66497083Y-40755401D02*
X66497083Y-53407401D01*
X66457083Y-40754401D02*
X66457083Y-53408401D01*
X66417083Y-40753401D02*
X66417083Y-53409401D01*
X66377083Y-40752401D02*
X66377083Y-53410401D01*
X66337083Y-40751401D02*
X66337083Y-53411401D01*
X66297083Y-40751401D02*
X66297083Y-53411401D01*
X66257083Y-40751401D02*
X66257083Y-53411401D01*
X72627083Y-47081401D02*
G75*
G03*
X72627083Y-47081401I-6370000J0D01*
G01*
X62572937Y-70411401D02*
X63777065Y-70411401D01*
X62572937Y-68591401D02*
X63777065Y-68591401D01*
X68182937Y-70411401D02*
X69387065Y-70411401D01*
X68182937Y-68591401D02*
X69387065Y-68591401D01*
X110592937Y-27061401D02*
X111797065Y-27061401D01*
X110592937Y-25241401D02*
X111797065Y-25241401D01*
X110632937Y-43511401D02*
X111837065Y-43511401D01*
X110632937Y-41691401D02*
X111837065Y-41691401D01*
X99412937Y-48491401D02*
X100617065Y-48491401D01*
X99412937Y-46671401D02*
X100617065Y-46671401D01*
X104062937Y-35901401D02*
X105267065Y-35901401D01*
X104062937Y-34081401D02*
X105267065Y-34081401D01*
D11*
X95101980Y-147907333D02*
X95816266Y-147907333D01*
X95959123Y-147954952D01*
X96054361Y-148050190D01*
X96101980Y-148193047D01*
X96101980Y-148288285D01*
X95435314Y-147002571D02*
X96101980Y-147002571D01*
X95054361Y-147240666D02*
X95768647Y-147478761D01*
X95768647Y-146859714D01*
X82873096Y-49573781D02*
X82873096Y-50383305D01*
X82920715Y-50478543D01*
X82968334Y-50526162D01*
X83063572Y-50573781D01*
X83254048Y-50573781D01*
X83349286Y-50526162D01*
X83396905Y-50478543D01*
X83444524Y-50383305D01*
X83444524Y-49573781D01*
X83873096Y-49669020D02*
X83920715Y-49621401D01*
X84015953Y-49573781D01*
X84254048Y-49573781D01*
X84349286Y-49621401D01*
X84396905Y-49669020D01*
X84444524Y-49764258D01*
X84444524Y-49859496D01*
X84396905Y-50002353D01*
X83825477Y-50573781D01*
X84444524Y-50573781D01*
X97129695Y-119585980D02*
X97129695Y-120395504D01*
X97177314Y-120490742D01*
X97224933Y-120538361D01*
X97320171Y-120585980D01*
X97510647Y-120585980D01*
X97605885Y-120538361D01*
X97653504Y-120490742D01*
X97701123Y-120395504D01*
X97701123Y-119585980D01*
X98701123Y-120585980D02*
X98129695Y-120585980D01*
X98415409Y-120585980D02*
X98415409Y-119585980D01*
X98320171Y-119728838D01*
X98224933Y-119824076D01*
X98129695Y-119871695D01*
X98201667Y-33346162D02*
X98344524Y-33393781D01*
X98582620Y-33393781D01*
X98677858Y-33346162D01*
X98725477Y-33298543D01*
X98773096Y-33203305D01*
X98773096Y-33108067D01*
X98725477Y-33012829D01*
X98677858Y-32965210D01*
X98582620Y-32917591D01*
X98392143Y-32869972D01*
X98296905Y-32822353D01*
X98249286Y-32774734D01*
X98201667Y-32679496D01*
X98201667Y-32584258D01*
X98249286Y-32489020D01*
X98296905Y-32441401D01*
X98392143Y-32393781D01*
X98630239Y-32393781D01*
X98773096Y-32441401D01*
X99106429Y-32393781D02*
X99344524Y-33393781D01*
X99535001Y-32679496D01*
X99725477Y-33393781D01*
X99963572Y-32393781D01*
X100868334Y-33393781D02*
X100296905Y-33393781D01*
X100582620Y-33393781D02*
X100582620Y-32393781D01*
X100487381Y-32536639D01*
X100392143Y-32631877D01*
X100296905Y-32679496D01*
X84972143Y-63503781D02*
X84638810Y-63027591D01*
X84400715Y-63503781D02*
X84400715Y-62503781D01*
X84781667Y-62503781D01*
X84876905Y-62551401D01*
X84924524Y-62599020D01*
X84972143Y-62694258D01*
X84972143Y-62837115D01*
X84924524Y-62932353D01*
X84876905Y-62979972D01*
X84781667Y-63027591D01*
X84400715Y-63027591D01*
X85353096Y-62599020D02*
X85400715Y-62551401D01*
X85495953Y-62503781D01*
X85734048Y-62503781D01*
X85829286Y-62551401D01*
X85876905Y-62599020D01*
X85924524Y-62694258D01*
X85924524Y-62789496D01*
X85876905Y-62932353D01*
X85305477Y-63503781D01*
X85924524Y-63503781D01*
X86876905Y-63503781D02*
X86305477Y-63503781D01*
X86591191Y-63503781D02*
X86591191Y-62503781D01*
X86495953Y-62646639D01*
X86400715Y-62741877D01*
X86305477Y-62789496D01*
X99792143Y-49503781D02*
X99458810Y-49027591D01*
X99220715Y-49503781D02*
X99220715Y-48503781D01*
X99601667Y-48503781D01*
X99696905Y-48551401D01*
X99744524Y-48599020D01*
X99792143Y-48694258D01*
X99792143Y-48837115D01*
X99744524Y-48932353D01*
X99696905Y-48979972D01*
X99601667Y-49027591D01*
X99220715Y-49027591D01*
X100173096Y-48599020D02*
X100220715Y-48551401D01*
X100315953Y-48503781D01*
X100554048Y-48503781D01*
X100649286Y-48551401D01*
X100696905Y-48599020D01*
X100744524Y-48694258D01*
X100744524Y-48789496D01*
X100696905Y-48932353D01*
X100125477Y-49503781D01*
X100744524Y-49503781D01*
X101363572Y-48503781D02*
X101458810Y-48503781D01*
X101554048Y-48551401D01*
X101601667Y-48599020D01*
X101649286Y-48694258D01*
X101696905Y-48884734D01*
X101696905Y-49122829D01*
X101649286Y-49313305D01*
X101601667Y-49408543D01*
X101554048Y-49456162D01*
X101458810Y-49503781D01*
X101363572Y-49503781D01*
X101268334Y-49456162D01*
X101220715Y-49408543D01*
X101173096Y-49313305D01*
X101125477Y-49122829D01*
X101125477Y-48884734D01*
X101173096Y-48694258D01*
X101220715Y-48599020D01*
X101268334Y-48551401D01*
X101363572Y-48503781D01*
X110592143Y-37943781D02*
X110258810Y-37467591D01*
X110020715Y-37943781D02*
X110020715Y-36943781D01*
X110401667Y-36943781D01*
X110496905Y-36991401D01*
X110544524Y-37039020D01*
X110592143Y-37134258D01*
X110592143Y-37277115D01*
X110544524Y-37372353D01*
X110496905Y-37419972D01*
X110401667Y-37467591D01*
X110020715Y-37467591D01*
X111544524Y-37943781D02*
X110973096Y-37943781D01*
X111258810Y-37943781D02*
X111258810Y-36943781D01*
X111163572Y-37086639D01*
X111068334Y-37181877D01*
X110973096Y-37229496D01*
X112020715Y-37943781D02*
X112211191Y-37943781D01*
X112306429Y-37896162D01*
X112354048Y-37848543D01*
X112449286Y-37705686D01*
X112496905Y-37515210D01*
X112496905Y-37134258D01*
X112449286Y-37039020D01*
X112401667Y-36991401D01*
X112306429Y-36943781D01*
X112115953Y-36943781D01*
X112020715Y-36991401D01*
X111973096Y-37039020D01*
X111925477Y-37134258D01*
X111925477Y-37372353D01*
X111973096Y-37467591D01*
X112020715Y-37515210D01*
X112115953Y-37562829D01*
X112306429Y-37562829D01*
X112401667Y-37515210D01*
X112449286Y-37467591D01*
X112496905Y-37372353D01*
X93642143Y-57453781D02*
X93308810Y-56977591D01*
X93070715Y-57453781D02*
X93070715Y-56453781D01*
X93451667Y-56453781D01*
X93546905Y-56501401D01*
X93594524Y-56549020D01*
X93642143Y-56644258D01*
X93642143Y-56787115D01*
X93594524Y-56882353D01*
X93546905Y-56929972D01*
X93451667Y-56977591D01*
X93070715Y-56977591D01*
X94594524Y-57453781D02*
X94023096Y-57453781D01*
X94308810Y-57453781D02*
X94308810Y-56453781D01*
X94213572Y-56596639D01*
X94118334Y-56691877D01*
X94023096Y-56739496D01*
X95165953Y-56882353D02*
X95070715Y-56834734D01*
X95023096Y-56787115D01*
X94975477Y-56691877D01*
X94975477Y-56644258D01*
X95023096Y-56549020D01*
X95070715Y-56501401D01*
X95165953Y-56453781D01*
X95356429Y-56453781D01*
X95451667Y-56501401D01*
X95499286Y-56549020D01*
X95546905Y-56644258D01*
X95546905Y-56691877D01*
X95499286Y-56787115D01*
X95451667Y-56834734D01*
X95356429Y-56882353D01*
X95165953Y-56882353D01*
X95070715Y-56929972D01*
X95023096Y-56977591D01*
X94975477Y-57072829D01*
X94975477Y-57263305D01*
X95023096Y-57358543D01*
X95070715Y-57406162D01*
X95165953Y-57453781D01*
X95356429Y-57453781D01*
X95451667Y-57406162D01*
X95499286Y-57358543D01*
X95546905Y-57263305D01*
X95546905Y-57072829D01*
X95499286Y-56977591D01*
X95451667Y-56929972D01*
X95356429Y-56882353D01*
X88032143Y-60213781D02*
X87698810Y-59737591D01*
X87460715Y-60213781D02*
X87460715Y-59213781D01*
X87841667Y-59213781D01*
X87936905Y-59261401D01*
X87984524Y-59309020D01*
X88032143Y-59404258D01*
X88032143Y-59547115D01*
X87984524Y-59642353D01*
X87936905Y-59689972D01*
X87841667Y-59737591D01*
X87460715Y-59737591D01*
X88984524Y-60213781D02*
X88413096Y-60213781D01*
X88698810Y-60213781D02*
X88698810Y-59213781D01*
X88603572Y-59356639D01*
X88508334Y-59451877D01*
X88413096Y-59499496D01*
X89317858Y-59213781D02*
X89984524Y-59213781D01*
X89555953Y-60213781D01*
X93642143Y-54163781D02*
X93308810Y-53687591D01*
X93070715Y-54163781D02*
X93070715Y-53163781D01*
X93451667Y-53163781D01*
X93546905Y-53211401D01*
X93594524Y-53259020D01*
X93642143Y-53354258D01*
X93642143Y-53497115D01*
X93594524Y-53592353D01*
X93546905Y-53639972D01*
X93451667Y-53687591D01*
X93070715Y-53687591D01*
X94594524Y-54163781D02*
X94023096Y-54163781D01*
X94308810Y-54163781D02*
X94308810Y-53163781D01*
X94213572Y-53306639D01*
X94118334Y-53401877D01*
X94023096Y-53449496D01*
X95451667Y-53163781D02*
X95261191Y-53163781D01*
X95165953Y-53211401D01*
X95118334Y-53259020D01*
X95023096Y-53401877D01*
X94975477Y-53592353D01*
X94975477Y-53973305D01*
X95023096Y-54068543D01*
X95070715Y-54116162D01*
X95165953Y-54163781D01*
X95356429Y-54163781D01*
X95451667Y-54116162D01*
X95499286Y-54068543D01*
X95546905Y-53973305D01*
X95546905Y-53735210D01*
X95499286Y-53639972D01*
X95451667Y-53592353D01*
X95356429Y-53544734D01*
X95165953Y-53544734D01*
X95070715Y-53592353D01*
X95023096Y-53639972D01*
X94975477Y-53735210D01*
X104982143Y-43493781D02*
X104648810Y-43017591D01*
X104410715Y-43493781D02*
X104410715Y-42493781D01*
X104791667Y-42493781D01*
X104886905Y-42541401D01*
X104934524Y-42589020D01*
X104982143Y-42684258D01*
X104982143Y-42827115D01*
X104934524Y-42922353D01*
X104886905Y-42969972D01*
X104791667Y-43017591D01*
X104410715Y-43017591D01*
X105934524Y-43493781D02*
X105363096Y-43493781D01*
X105648810Y-43493781D02*
X105648810Y-42493781D01*
X105553572Y-42636639D01*
X105458334Y-42731877D01*
X105363096Y-42779496D01*
X106839286Y-42493781D02*
X106363096Y-42493781D01*
X106315477Y-42969972D01*
X106363096Y-42922353D01*
X106458334Y-42874734D01*
X106696429Y-42874734D01*
X106791667Y-42922353D01*
X106839286Y-42969972D01*
X106886905Y-43065210D01*
X106886905Y-43303305D01*
X106839286Y-43398543D01*
X106791667Y-43446162D01*
X106696429Y-43493781D01*
X106458334Y-43493781D01*
X106363096Y-43446162D01*
X106315477Y-43398543D01*
X47822143Y-19063781D02*
X47488810Y-18587591D01*
X47250715Y-19063781D02*
X47250715Y-18063781D01*
X47631667Y-18063781D01*
X47726905Y-18111401D01*
X47774524Y-18159020D01*
X47822143Y-18254258D01*
X47822143Y-18397115D01*
X47774524Y-18492353D01*
X47726905Y-18539972D01*
X47631667Y-18587591D01*
X47250715Y-18587591D01*
X48774524Y-19063781D02*
X48203096Y-19063781D01*
X48488810Y-19063781D02*
X48488810Y-18063781D01*
X48393572Y-18206639D01*
X48298334Y-18301877D01*
X48203096Y-18349496D01*
X49631667Y-18397115D02*
X49631667Y-19063781D01*
X49393572Y-18016162D02*
X49155477Y-18730448D01*
X49774524Y-18730448D01*
X47822143Y-29613781D02*
X47488810Y-29137591D01*
X47250715Y-29613781D02*
X47250715Y-28613781D01*
X47631667Y-28613781D01*
X47726905Y-28661401D01*
X47774524Y-28709020D01*
X47822143Y-28804258D01*
X47822143Y-28947115D01*
X47774524Y-29042353D01*
X47726905Y-29089972D01*
X47631667Y-29137591D01*
X47250715Y-29137591D01*
X48774524Y-29613781D02*
X48203096Y-29613781D01*
X48488810Y-29613781D02*
X48488810Y-28613781D01*
X48393572Y-28756639D01*
X48298334Y-28851877D01*
X48203096Y-28899496D01*
X49107858Y-28613781D02*
X49726905Y-28613781D01*
X49393572Y-28994734D01*
X49536429Y-28994734D01*
X49631667Y-29042353D01*
X49679286Y-29089972D01*
X49726905Y-29185210D01*
X49726905Y-29423305D01*
X49679286Y-29518543D01*
X49631667Y-29566162D01*
X49536429Y-29613781D01*
X49250715Y-29613781D01*
X49155477Y-29566162D01*
X49107858Y-29518543D01*
X82422143Y-56923781D02*
X82088810Y-56447591D01*
X81850715Y-56923781D02*
X81850715Y-55923781D01*
X82231667Y-55923781D01*
X82326905Y-55971401D01*
X82374524Y-56019020D01*
X82422143Y-56114258D01*
X82422143Y-56257115D01*
X82374524Y-56352353D01*
X82326905Y-56399972D01*
X82231667Y-56447591D01*
X81850715Y-56447591D01*
X83374524Y-56923781D02*
X82803096Y-56923781D01*
X83088810Y-56923781D02*
X83088810Y-55923781D01*
X82993572Y-56066639D01*
X82898334Y-56161877D01*
X82803096Y-56209496D01*
X83755477Y-56019020D02*
X83803096Y-55971401D01*
X83898334Y-55923781D01*
X84136429Y-55923781D01*
X84231667Y-55971401D01*
X84279286Y-56019020D01*
X84326905Y-56114258D01*
X84326905Y-56209496D01*
X84279286Y-56352353D01*
X83707858Y-56923781D01*
X84326905Y-56923781D01*
X109632143Y-34653781D02*
X109298810Y-34177591D01*
X109060715Y-34653781D02*
X109060715Y-33653781D01*
X109441667Y-33653781D01*
X109536905Y-33701401D01*
X109584524Y-33749020D01*
X109632143Y-33844258D01*
X109632143Y-33987115D01*
X109584524Y-34082353D01*
X109536905Y-34129972D01*
X109441667Y-34177591D01*
X109060715Y-34177591D01*
X110584524Y-34653781D02*
X110013096Y-34653781D01*
X110298810Y-34653781D02*
X110298810Y-33653781D01*
X110203572Y-33796639D01*
X110108334Y-33891877D01*
X110013096Y-33939496D01*
X111536905Y-34653781D02*
X110965477Y-34653781D01*
X111251191Y-34653781D02*
X111251191Y-33653781D01*
X111155953Y-33796639D01*
X111060715Y-33891877D01*
X110965477Y-33939496D01*
X94182143Y-50873781D02*
X93848810Y-50397591D01*
X93610715Y-50873781D02*
X93610715Y-49873781D01*
X93991667Y-49873781D01*
X94086905Y-49921401D01*
X94134524Y-49969020D01*
X94182143Y-50064258D01*
X94182143Y-50207115D01*
X94134524Y-50302353D01*
X94086905Y-50349972D01*
X93991667Y-50397591D01*
X93610715Y-50397591D01*
X95134524Y-50873781D02*
X94563096Y-50873781D01*
X94848810Y-50873781D02*
X94848810Y-49873781D01*
X94753572Y-50016639D01*
X94658334Y-50111877D01*
X94563096Y-50159496D01*
X95753572Y-49873781D02*
X95848810Y-49873781D01*
X95944048Y-49921401D01*
X95991667Y-49969020D01*
X96039286Y-50064258D01*
X96086905Y-50254734D01*
X96086905Y-50492829D01*
X96039286Y-50683305D01*
X95991667Y-50778543D01*
X95944048Y-50826162D01*
X95848810Y-50873781D01*
X95753572Y-50873781D01*
X95658334Y-50826162D01*
X95610715Y-50778543D01*
X95563096Y-50683305D01*
X95515477Y-50492829D01*
X95515477Y-50254734D01*
X95563096Y-50064258D01*
X95610715Y-49969020D01*
X95658334Y-49921401D01*
X95753572Y-49873781D01*
X104498334Y-36913781D02*
X104165001Y-36437591D01*
X103926905Y-36913781D02*
X103926905Y-35913781D01*
X104307858Y-35913781D01*
X104403096Y-35961401D01*
X104450715Y-36009020D01*
X104498334Y-36104258D01*
X104498334Y-36247115D01*
X104450715Y-36342353D01*
X104403096Y-36389972D01*
X104307858Y-36437591D01*
X103926905Y-36437591D01*
X104974524Y-36913781D02*
X105165001Y-36913781D01*
X105260239Y-36866162D01*
X105307858Y-36818543D01*
X105403096Y-36675686D01*
X105450715Y-36485210D01*
X105450715Y-36104258D01*
X105403096Y-36009020D01*
X105355477Y-35961401D01*
X105260239Y-35913781D01*
X105069762Y-35913781D01*
X104974524Y-35961401D01*
X104926905Y-36009020D01*
X104879286Y-36104258D01*
X104879286Y-36342353D01*
X104926905Y-36437591D01*
X104974524Y-36485210D01*
X105069762Y-36532829D01*
X105260239Y-36532829D01*
X105355477Y-36485210D01*
X105403096Y-36437591D01*
X105450715Y-36342353D01*
X110738334Y-31363781D02*
X110405001Y-30887591D01*
X110166905Y-31363781D02*
X110166905Y-30363781D01*
X110547858Y-30363781D01*
X110643096Y-30411401D01*
X110690715Y-30459020D01*
X110738334Y-30554258D01*
X110738334Y-30697115D01*
X110690715Y-30792353D01*
X110643096Y-30839972D01*
X110547858Y-30887591D01*
X110166905Y-30887591D01*
X111309762Y-30792353D02*
X111214524Y-30744734D01*
X111166905Y-30697115D01*
X111119286Y-30601877D01*
X111119286Y-30554258D01*
X111166905Y-30459020D01*
X111214524Y-30411401D01*
X111309762Y-30363781D01*
X111500239Y-30363781D01*
X111595477Y-30411401D01*
X111643096Y-30459020D01*
X111690715Y-30554258D01*
X111690715Y-30601877D01*
X111643096Y-30697115D01*
X111595477Y-30744734D01*
X111500239Y-30792353D01*
X111309762Y-30792353D01*
X111214524Y-30839972D01*
X111166905Y-30887591D01*
X111119286Y-30982829D01*
X111119286Y-31173305D01*
X111166905Y-31268543D01*
X111214524Y-31316162D01*
X111309762Y-31363781D01*
X111500239Y-31363781D01*
X111595477Y-31316162D01*
X111643096Y-31268543D01*
X111690715Y-31173305D01*
X111690715Y-30982829D01*
X111643096Y-30887591D01*
X111595477Y-30839972D01*
X111500239Y-30792353D01*
X82898334Y-60213781D02*
X82565001Y-59737591D01*
X82326905Y-60213781D02*
X82326905Y-59213781D01*
X82707858Y-59213781D01*
X82803096Y-59261401D01*
X82850715Y-59309020D01*
X82898334Y-59404258D01*
X82898334Y-59547115D01*
X82850715Y-59642353D01*
X82803096Y-59689972D01*
X82707858Y-59737591D01*
X82326905Y-59737591D01*
X83231667Y-59213781D02*
X83898334Y-59213781D01*
X83469762Y-60213781D01*
X88508334Y-56923781D02*
X88175001Y-56447591D01*
X87936905Y-56923781D02*
X87936905Y-55923781D01*
X88317858Y-55923781D01*
X88413096Y-55971401D01*
X88460715Y-56019020D01*
X88508334Y-56114258D01*
X88508334Y-56257115D01*
X88460715Y-56352353D01*
X88413096Y-56399972D01*
X88317858Y-56447591D01*
X87936905Y-56447591D01*
X89365477Y-55923781D02*
X89175001Y-55923781D01*
X89079762Y-55971401D01*
X89032143Y-56019020D01*
X88936905Y-56161877D01*
X88889286Y-56352353D01*
X88889286Y-56733305D01*
X88936905Y-56828543D01*
X88984524Y-56876162D01*
X89079762Y-56923781D01*
X89270239Y-56923781D01*
X89365477Y-56876162D01*
X89413096Y-56828543D01*
X89460715Y-56733305D01*
X89460715Y-56495210D01*
X89413096Y-56399972D01*
X89365477Y-56352353D01*
X89270239Y-56304734D01*
X89079762Y-56304734D01*
X88984524Y-56352353D01*
X88936905Y-56399972D01*
X88889286Y-56495210D01*
X99848334Y-42923781D02*
X99515001Y-42447591D01*
X99276905Y-42923781D02*
X99276905Y-41923781D01*
X99657858Y-41923781D01*
X99753096Y-41971401D01*
X99800715Y-42019020D01*
X99848334Y-42114258D01*
X99848334Y-42257115D01*
X99800715Y-42352353D01*
X99753096Y-42399972D01*
X99657858Y-42447591D01*
X99276905Y-42447591D01*
X100753096Y-41923781D02*
X100276905Y-41923781D01*
X100229286Y-42399972D01*
X100276905Y-42352353D01*
X100372143Y-42304734D01*
X100610239Y-42304734D01*
X100705477Y-42352353D01*
X100753096Y-42399972D01*
X100800715Y-42495210D01*
X100800715Y-42733305D01*
X100753096Y-42828543D01*
X100705477Y-42876162D01*
X100610239Y-42923781D01*
X100372143Y-42923781D01*
X100276905Y-42876162D01*
X100229286Y-42828543D01*
X74228334Y-67133781D02*
X73895001Y-66657591D01*
X73656905Y-67133781D02*
X73656905Y-66133781D01*
X74037858Y-66133781D01*
X74133096Y-66181401D01*
X74180715Y-66229020D01*
X74228334Y-66324258D01*
X74228334Y-66467115D01*
X74180715Y-66562353D01*
X74133096Y-66609972D01*
X74037858Y-66657591D01*
X73656905Y-66657591D01*
X75085477Y-66467115D02*
X75085477Y-67133781D01*
X74847381Y-66086162D02*
X74609286Y-66800448D01*
X75228334Y-66800448D01*
X105458334Y-40203781D02*
X105125001Y-39727591D01*
X104886905Y-40203781D02*
X104886905Y-39203781D01*
X105267858Y-39203781D01*
X105363096Y-39251401D01*
X105410715Y-39299020D01*
X105458334Y-39394258D01*
X105458334Y-39537115D01*
X105410715Y-39632353D01*
X105363096Y-39679972D01*
X105267858Y-39727591D01*
X104886905Y-39727591D01*
X105791667Y-39203781D02*
X106410715Y-39203781D01*
X106077381Y-39584734D01*
X106220239Y-39584734D01*
X106315477Y-39632353D01*
X106363096Y-39679972D01*
X106410715Y-39775210D01*
X106410715Y-40013305D01*
X106363096Y-40108543D01*
X106315477Y-40156162D01*
X106220239Y-40203781D01*
X105934524Y-40203781D01*
X105839286Y-40156162D01*
X105791667Y-40108543D01*
X79838334Y-66263781D02*
X79505001Y-65787591D01*
X79266905Y-66263781D02*
X79266905Y-65263781D01*
X79647858Y-65263781D01*
X79743096Y-65311401D01*
X79790715Y-65359020D01*
X79838334Y-65454258D01*
X79838334Y-65597115D01*
X79790715Y-65692353D01*
X79743096Y-65739972D01*
X79647858Y-65787591D01*
X79266905Y-65787591D01*
X80219286Y-65359020D02*
X80266905Y-65311401D01*
X80362143Y-65263781D01*
X80600239Y-65263781D01*
X80695477Y-65311401D01*
X80743096Y-65359020D01*
X80790715Y-65454258D01*
X80790715Y-65549496D01*
X80743096Y-65692353D01*
X80171667Y-66263781D01*
X80790715Y-66263781D01*
X111028334Y-28073781D02*
X110695001Y-27597591D01*
X110456905Y-28073781D02*
X110456905Y-27073781D01*
X110837858Y-27073781D01*
X110933096Y-27121401D01*
X110980715Y-27169020D01*
X111028334Y-27264258D01*
X111028334Y-27407115D01*
X110980715Y-27502353D01*
X110933096Y-27549972D01*
X110837858Y-27597591D01*
X110456905Y-27597591D01*
X111980715Y-28073781D02*
X111409286Y-28073781D01*
X111695001Y-28073781D02*
X111695001Y-27073781D01*
X111599762Y-27216639D01*
X111504524Y-27311877D01*
X111409286Y-27359496D01*
X44218266Y-137623180D02*
X44218266Y-138337466D01*
X44170647Y-138480323D01*
X44075409Y-138575561D01*
X43932552Y-138623180D01*
X43837314Y-138623180D01*
X44599219Y-137623180D02*
X45265885Y-137623180D01*
X44837314Y-138623180D01*
X65586666Y-148512380D02*
X65586666Y-149226666D01*
X65539047Y-149369523D01*
X65443809Y-149464761D01*
X65300952Y-149512380D01*
X65205714Y-149512380D01*
X66491428Y-148512380D02*
X66300952Y-148512380D01*
X66205714Y-148560000D01*
X66158095Y-148607619D01*
X66062857Y-148750476D01*
X66015238Y-148940952D01*
X66015238Y-149321904D01*
X66062857Y-149417142D01*
X66110476Y-149464761D01*
X66205714Y-149512380D01*
X66396190Y-149512380D01*
X66491428Y-149464761D01*
X66539047Y-149417142D01*
X66586666Y-149321904D01*
X66586666Y-149083809D01*
X66539047Y-148988571D01*
X66491428Y-148940952D01*
X66396190Y-148893333D01*
X66205714Y-148893333D01*
X66110476Y-148940952D01*
X66062857Y-148988571D01*
X66015238Y-149083809D01*
X125276666Y-148512380D02*
X125276666Y-149226666D01*
X125229047Y-149369523D01*
X125133809Y-149464761D01*
X124990952Y-149512380D01*
X124895714Y-149512380D01*
X126229047Y-148512380D02*
X125752857Y-148512380D01*
X125705238Y-148988571D01*
X125752857Y-148940952D01*
X125848095Y-148893333D01*
X126086190Y-148893333D01*
X126181428Y-148940952D01*
X126229047Y-148988571D01*
X126276666Y-149083809D01*
X126276666Y-149321904D01*
X126229047Y-149417142D01*
X126181428Y-149464761D01*
X126086190Y-149512380D01*
X125848095Y-149512380D01*
X125752857Y-149464761D01*
X125705238Y-149417142D01*
X111815180Y-143233733D02*
X112529466Y-143233733D01*
X112672323Y-143281352D01*
X112767561Y-143376590D01*
X112815180Y-143519447D01*
X112815180Y-143614685D01*
X111815180Y-142852780D02*
X111815180Y-142233733D01*
X112196133Y-142567066D01*
X112196133Y-142424209D01*
X112243752Y-142328971D01*
X112291371Y-142281352D01*
X112386609Y-142233733D01*
X112624704Y-142233733D01*
X112719942Y-142281352D01*
X112767561Y-142328971D01*
X112815180Y-142424209D01*
X112815180Y-142709923D01*
X112767561Y-142805161D01*
X112719942Y-142852780D01*
X77336667Y-18904780D02*
X77336667Y-19619066D01*
X77289048Y-19761923D01*
X77193810Y-19857161D01*
X77050953Y-19904780D01*
X76955715Y-19904780D01*
X78336667Y-19904780D02*
X77765239Y-19904780D01*
X78050953Y-19904780D02*
X78050953Y-18904780D01*
X77955715Y-19047638D01*
X77860477Y-19142876D01*
X77765239Y-19190495D01*
X42067314Y-146525980D02*
X42067314Y-145525980D01*
X42305409Y-145525980D01*
X42448266Y-145573600D01*
X42543504Y-145668838D01*
X42591123Y-145764076D01*
X42638742Y-145954552D01*
X42638742Y-146097409D01*
X42591123Y-146287885D01*
X42543504Y-146383123D01*
X42448266Y-146478361D01*
X42305409Y-146525980D01*
X42067314Y-146525980D01*
X43591123Y-146525980D02*
X43019695Y-146525980D01*
X43305409Y-146525980D02*
X43305409Y-145525980D01*
X43210171Y-145668838D01*
X43114933Y-145764076D01*
X43019695Y-145811695D01*
X43972076Y-145621219D02*
X44019695Y-145573600D01*
X44114933Y-145525980D01*
X44353028Y-145525980D01*
X44448266Y-145573600D01*
X44495885Y-145621219D01*
X44543504Y-145716457D01*
X44543504Y-145811695D01*
X44495885Y-145954552D01*
X43924457Y-146525980D01*
X44543504Y-146525980D01*
X48099695Y-145955980D02*
X48099695Y-144955980D01*
X48671123Y-145955980D02*
X48242552Y-145384552D01*
X48671123Y-144955980D02*
X48099695Y-145527409D01*
X68730715Y-61573781D02*
X68730715Y-60573781D01*
X68968810Y-60573781D01*
X69111667Y-60621401D01*
X69206905Y-60716639D01*
X69254524Y-60811877D01*
X69302143Y-61002353D01*
X69302143Y-61145210D01*
X69254524Y-61335686D01*
X69206905Y-61430924D01*
X69111667Y-61526162D01*
X68968810Y-61573781D01*
X68730715Y-61573781D01*
X70254524Y-61573781D02*
X69683096Y-61573781D01*
X69968810Y-61573781D02*
X69968810Y-60573781D01*
X69873572Y-60716639D01*
X69778334Y-60811877D01*
X69683096Y-60859496D01*
X71206905Y-61573781D02*
X70635477Y-61573781D01*
X70921191Y-61573781D02*
X70921191Y-60573781D01*
X70825953Y-60716639D01*
X70730715Y-60811877D01*
X70635477Y-60859496D01*
X104220715Y-19223781D02*
X104220715Y-18223781D01*
X104458810Y-18223781D01*
X104601667Y-18271401D01*
X104696905Y-18366639D01*
X104744524Y-18461877D01*
X104792143Y-18652353D01*
X104792143Y-18795210D01*
X104744524Y-18985686D01*
X104696905Y-19080924D01*
X104601667Y-19176162D01*
X104458810Y-19223781D01*
X104220715Y-19223781D01*
X105744524Y-19223781D02*
X105173096Y-19223781D01*
X105458810Y-19223781D02*
X105458810Y-18223781D01*
X105363572Y-18366639D01*
X105268334Y-18461877D01*
X105173096Y-18509496D01*
X106363572Y-18223781D02*
X106458810Y-18223781D01*
X106554048Y-18271401D01*
X106601667Y-18319020D01*
X106649286Y-18414258D01*
X106696905Y-18604734D01*
X106696905Y-18842829D01*
X106649286Y-19033305D01*
X106601667Y-19128543D01*
X106554048Y-19176162D01*
X106458810Y-19223781D01*
X106363572Y-19223781D01*
X106268334Y-19176162D01*
X106220715Y-19128543D01*
X106173096Y-19033305D01*
X106125477Y-18842829D01*
X106125477Y-18604734D01*
X106173096Y-18414258D01*
X106220715Y-18319020D01*
X106268334Y-18271401D01*
X106363572Y-18223781D01*
X110596905Y-19223781D02*
X110596905Y-18223781D01*
X110835001Y-18223781D01*
X110977858Y-18271401D01*
X111073096Y-18366639D01*
X111120715Y-18461877D01*
X111168334Y-18652353D01*
X111168334Y-18795210D01*
X111120715Y-18985686D01*
X111073096Y-19080924D01*
X110977858Y-19176162D01*
X110835001Y-19223781D01*
X110596905Y-19223781D01*
X111644524Y-19223781D02*
X111835001Y-19223781D01*
X111930239Y-19176162D01*
X111977858Y-19128543D01*
X112073096Y-18985686D01*
X112120715Y-18795210D01*
X112120715Y-18414258D01*
X112073096Y-18319020D01*
X112025477Y-18271401D01*
X111930239Y-18223781D01*
X111739762Y-18223781D01*
X111644524Y-18271401D01*
X111596905Y-18319020D01*
X111549286Y-18414258D01*
X111549286Y-18652353D01*
X111596905Y-18747591D01*
X111644524Y-18795210D01*
X111739762Y-18842829D01*
X111930239Y-18842829D01*
X112025477Y-18795210D01*
X112073096Y-18747591D01*
X112120715Y-18652353D01*
X115386905Y-27533781D02*
X115386905Y-26533781D01*
X115625001Y-26533781D01*
X115767858Y-26581401D01*
X115863096Y-26676639D01*
X115910715Y-26771877D01*
X115958334Y-26962353D01*
X115958334Y-27105210D01*
X115910715Y-27295686D01*
X115863096Y-27390924D01*
X115767858Y-27486162D01*
X115625001Y-27533781D01*
X115386905Y-27533781D01*
X116529762Y-26962353D02*
X116434524Y-26914734D01*
X116386905Y-26867115D01*
X116339286Y-26771877D01*
X116339286Y-26724258D01*
X116386905Y-26629020D01*
X116434524Y-26581401D01*
X116529762Y-26533781D01*
X116720239Y-26533781D01*
X116815477Y-26581401D01*
X116863096Y-26629020D01*
X116910715Y-26724258D01*
X116910715Y-26771877D01*
X116863096Y-26867115D01*
X116815477Y-26914734D01*
X116720239Y-26962353D01*
X116529762Y-26962353D01*
X116434524Y-27009972D01*
X116386905Y-27057591D01*
X116339286Y-27152829D01*
X116339286Y-27343305D01*
X116386905Y-27438543D01*
X116434524Y-27486162D01*
X116529762Y-27533781D01*
X116720239Y-27533781D01*
X116815477Y-27486162D01*
X116863096Y-27438543D01*
X116910715Y-27343305D01*
X116910715Y-27152829D01*
X116863096Y-27057591D01*
X116815477Y-27009972D01*
X116720239Y-26962353D01*
X115386905Y-24583781D02*
X115386905Y-23583781D01*
X115625001Y-23583781D01*
X115767858Y-23631401D01*
X115863096Y-23726639D01*
X115910715Y-23821877D01*
X115958334Y-24012353D01*
X115958334Y-24155210D01*
X115910715Y-24345686D01*
X115863096Y-24440924D01*
X115767858Y-24536162D01*
X115625001Y-24583781D01*
X115386905Y-24583781D01*
X116291667Y-23583781D02*
X116958334Y-23583781D01*
X116529762Y-24583781D01*
X115196905Y-31313781D02*
X115196905Y-30313781D01*
X115435001Y-30313781D01*
X115577858Y-30361401D01*
X115673096Y-30456639D01*
X115720715Y-30551877D01*
X115768334Y-30742353D01*
X115768334Y-30885210D01*
X115720715Y-31075686D01*
X115673096Y-31170924D01*
X115577858Y-31266162D01*
X115435001Y-31313781D01*
X115196905Y-31313781D01*
X116625477Y-30313781D02*
X116435001Y-30313781D01*
X116339762Y-30361401D01*
X116292143Y-30409020D01*
X116196905Y-30551877D01*
X116149286Y-30742353D01*
X116149286Y-31123305D01*
X116196905Y-31218543D01*
X116244524Y-31266162D01*
X116339762Y-31313781D01*
X116530239Y-31313781D01*
X116625477Y-31266162D01*
X116673096Y-31218543D01*
X116720715Y-31123305D01*
X116720715Y-30885210D01*
X116673096Y-30789972D01*
X116625477Y-30742353D01*
X116530239Y-30694734D01*
X116339762Y-30694734D01*
X116244524Y-30742353D01*
X116196905Y-30789972D01*
X116149286Y-30885210D01*
X69666905Y-54333781D02*
X69666905Y-53333781D01*
X69905001Y-53333781D01*
X70047858Y-53381401D01*
X70143096Y-53476639D01*
X70190715Y-53571877D01*
X70238334Y-53762353D01*
X70238334Y-53905210D01*
X70190715Y-54095686D01*
X70143096Y-54190924D01*
X70047858Y-54286162D01*
X69905001Y-54333781D01*
X69666905Y-54333781D01*
X71143096Y-53333781D02*
X70666905Y-53333781D01*
X70619286Y-53809972D01*
X70666905Y-53762353D01*
X70762143Y-53714734D01*
X71000239Y-53714734D01*
X71095477Y-53762353D01*
X71143096Y-53809972D01*
X71190715Y-53905210D01*
X71190715Y-54143305D01*
X71143096Y-54238543D01*
X71095477Y-54286162D01*
X71000239Y-54333781D01*
X70762143Y-54333781D01*
X70666905Y-54286162D01*
X70619286Y-54238543D01*
X84296905Y-66743781D02*
X84296905Y-65743781D01*
X84535001Y-65743781D01*
X84677858Y-65791401D01*
X84773096Y-65886639D01*
X84820715Y-65981877D01*
X84868334Y-66172353D01*
X84868334Y-66315210D01*
X84820715Y-66505686D01*
X84773096Y-66600924D01*
X84677858Y-66696162D01*
X84535001Y-66743781D01*
X84296905Y-66743781D01*
X85725477Y-66077115D02*
X85725477Y-66743781D01*
X85487381Y-65696162D02*
X85249286Y-66410448D01*
X85868334Y-66410448D01*
X104696905Y-24773781D02*
X104696905Y-23773781D01*
X104935001Y-23773781D01*
X105077858Y-23821401D01*
X105173096Y-23916639D01*
X105220715Y-24011877D01*
X105268334Y-24202353D01*
X105268334Y-24345210D01*
X105220715Y-24535686D01*
X105173096Y-24630924D01*
X105077858Y-24726162D01*
X104935001Y-24773781D01*
X104696905Y-24773781D01*
X105601667Y-23773781D02*
X106220715Y-23773781D01*
X105887381Y-24154734D01*
X106030239Y-24154734D01*
X106125477Y-24202353D01*
X106173096Y-24249972D01*
X106220715Y-24345210D01*
X106220715Y-24583305D01*
X106173096Y-24678543D01*
X106125477Y-24726162D01*
X106030239Y-24773781D01*
X105744524Y-24773781D01*
X105649286Y-24726162D01*
X105601667Y-24678543D01*
X48066905Y-58123781D02*
X48066905Y-57123781D01*
X48305001Y-57123781D01*
X48447858Y-57171401D01*
X48543096Y-57266639D01*
X48590715Y-57361877D01*
X48638334Y-57552353D01*
X48638334Y-57695210D01*
X48590715Y-57885686D01*
X48543096Y-57980924D01*
X48447858Y-58076162D01*
X48305001Y-58123781D01*
X48066905Y-58123781D01*
X49019286Y-57219020D02*
X49066905Y-57171401D01*
X49162143Y-57123781D01*
X49400239Y-57123781D01*
X49495477Y-57171401D01*
X49543096Y-57219020D01*
X49590715Y-57314258D01*
X49590715Y-57409496D01*
X49543096Y-57552353D01*
X48971667Y-58123781D01*
X49590715Y-58123781D01*
X53966905Y-58123781D02*
X53966905Y-57123781D01*
X54205001Y-57123781D01*
X54347858Y-57171401D01*
X54443096Y-57266639D01*
X54490715Y-57361877D01*
X54538334Y-57552353D01*
X54538334Y-57695210D01*
X54490715Y-57885686D01*
X54443096Y-57980924D01*
X54347858Y-58076162D01*
X54205001Y-58123781D01*
X53966905Y-58123781D01*
X55490715Y-58123781D02*
X54919286Y-58123781D01*
X55205001Y-58123781D02*
X55205001Y-57123781D01*
X55109762Y-57266639D01*
X55014524Y-57361877D01*
X54919286Y-57409496D01*
X88572143Y-50778543D02*
X88524524Y-50826162D01*
X88381667Y-50873781D01*
X88286429Y-50873781D01*
X88143572Y-50826162D01*
X88048334Y-50730924D01*
X88000715Y-50635686D01*
X87953096Y-50445210D01*
X87953096Y-50302353D01*
X88000715Y-50111877D01*
X88048334Y-50016639D01*
X88143572Y-49921401D01*
X88286429Y-49873781D01*
X88381667Y-49873781D01*
X88524524Y-49921401D01*
X88572143Y-49969020D01*
X89524524Y-50873781D02*
X88953096Y-50873781D01*
X89238810Y-50873781D02*
X89238810Y-49873781D01*
X89143572Y-50016639D01*
X89048334Y-50111877D01*
X88953096Y-50159496D01*
X90143572Y-49873781D02*
X90238810Y-49873781D01*
X90334048Y-49921401D01*
X90381667Y-49969020D01*
X90429286Y-50064258D01*
X90476905Y-50254734D01*
X90476905Y-50492829D01*
X90429286Y-50683305D01*
X90381667Y-50778543D01*
X90334048Y-50826162D01*
X90238810Y-50873781D01*
X90143572Y-50873781D01*
X90048334Y-50826162D01*
X90000715Y-50778543D01*
X89953096Y-50683305D01*
X89905477Y-50492829D01*
X89905477Y-50254734D01*
X89953096Y-50064258D01*
X90000715Y-49969020D01*
X90048334Y-49921401D01*
X90143572Y-49873781D01*
X105128334Y-30238543D02*
X105080715Y-30286162D01*
X104937858Y-30333781D01*
X104842620Y-30333781D01*
X104699762Y-30286162D01*
X104604524Y-30190924D01*
X104556905Y-30095686D01*
X104509286Y-29905210D01*
X104509286Y-29762353D01*
X104556905Y-29571877D01*
X104604524Y-29476639D01*
X104699762Y-29381401D01*
X104842620Y-29333781D01*
X104937858Y-29333781D01*
X105080715Y-29381401D01*
X105128334Y-29429020D01*
X105604524Y-30333781D02*
X105795001Y-30333781D01*
X105890239Y-30286162D01*
X105937858Y-30238543D01*
X106033096Y-30095686D01*
X106080715Y-29905210D01*
X106080715Y-29524258D01*
X106033096Y-29429020D01*
X105985477Y-29381401D01*
X105890239Y-29333781D01*
X105699762Y-29333781D01*
X105604524Y-29381401D01*
X105556905Y-29429020D01*
X105509286Y-29524258D01*
X105509286Y-29762353D01*
X105556905Y-29857591D01*
X105604524Y-29905210D01*
X105699762Y-29952829D01*
X105890239Y-29952829D01*
X105985477Y-29905210D01*
X106033096Y-29857591D01*
X106080715Y-29762353D01*
X63568109Y-61188543D02*
X63520490Y-61236162D01*
X63377633Y-61283781D01*
X63282395Y-61283781D01*
X63139537Y-61236162D01*
X63044299Y-61140924D01*
X62996680Y-61045686D01*
X62949061Y-60855210D01*
X62949061Y-60712353D01*
X62996680Y-60521877D01*
X63044299Y-60426639D01*
X63139537Y-60331401D01*
X63282395Y-60283781D01*
X63377633Y-60283781D01*
X63520490Y-60331401D01*
X63568109Y-60379020D01*
X64139537Y-60712353D02*
X64044299Y-60664734D01*
X63996680Y-60617115D01*
X63949061Y-60521877D01*
X63949061Y-60474258D01*
X63996680Y-60379020D01*
X64044299Y-60331401D01*
X64139537Y-60283781D01*
X64330014Y-60283781D01*
X64425252Y-60331401D01*
X64472871Y-60379020D01*
X64520490Y-60474258D01*
X64520490Y-60521877D01*
X64472871Y-60617115D01*
X64425252Y-60664734D01*
X64330014Y-60712353D01*
X64139537Y-60712353D01*
X64044299Y-60759972D01*
X63996680Y-60807591D01*
X63949061Y-60902829D01*
X63949061Y-61093305D01*
X63996680Y-61188543D01*
X64044299Y-61236162D01*
X64139537Y-61283781D01*
X64330014Y-61283781D01*
X64425252Y-61236162D01*
X64472871Y-61188543D01*
X64520490Y-61093305D01*
X64520490Y-60902829D01*
X64472871Y-60807591D01*
X64425252Y-60759972D01*
X64330014Y-60712353D01*
X66090416Y-39938543D02*
X66042797Y-39986162D01*
X65899940Y-40033781D01*
X65804702Y-40033781D01*
X65661844Y-39986162D01*
X65566606Y-39890924D01*
X65518987Y-39795686D01*
X65471368Y-39605210D01*
X65471368Y-39462353D01*
X65518987Y-39271877D01*
X65566606Y-39176639D01*
X65661844Y-39081401D01*
X65804702Y-39033781D01*
X65899940Y-39033781D01*
X66042797Y-39081401D01*
X66090416Y-39129020D01*
X66423749Y-39033781D02*
X67090416Y-39033781D01*
X66661844Y-40033781D01*
X63008334Y-68038543D02*
X62960715Y-68086162D01*
X62817858Y-68133781D01*
X62722620Y-68133781D01*
X62579762Y-68086162D01*
X62484524Y-67990924D01*
X62436905Y-67895686D01*
X62389286Y-67705210D01*
X62389286Y-67562353D01*
X62436905Y-67371877D01*
X62484524Y-67276639D01*
X62579762Y-67181401D01*
X62722620Y-67133781D01*
X62817858Y-67133781D01*
X62960715Y-67181401D01*
X63008334Y-67229020D01*
X63865477Y-67133781D02*
X63675001Y-67133781D01*
X63579762Y-67181401D01*
X63532143Y-67229020D01*
X63436905Y-67371877D01*
X63389286Y-67562353D01*
X63389286Y-67943305D01*
X63436905Y-68038543D01*
X63484524Y-68086162D01*
X63579762Y-68133781D01*
X63770239Y-68133781D01*
X63865477Y-68086162D01*
X63913096Y-68038543D01*
X63960715Y-67943305D01*
X63960715Y-67705210D01*
X63913096Y-67609972D01*
X63865477Y-67562353D01*
X63770239Y-67514734D01*
X63579762Y-67514734D01*
X63484524Y-67562353D01*
X63436905Y-67609972D01*
X63389286Y-67705210D01*
X68618334Y-68038543D02*
X68570715Y-68086162D01*
X68427858Y-68133781D01*
X68332620Y-68133781D01*
X68189762Y-68086162D01*
X68094524Y-67990924D01*
X68046905Y-67895686D01*
X67999286Y-67705210D01*
X67999286Y-67562353D01*
X68046905Y-67371877D01*
X68094524Y-67276639D01*
X68189762Y-67181401D01*
X68332620Y-67133781D01*
X68427858Y-67133781D01*
X68570715Y-67181401D01*
X68618334Y-67229020D01*
X69523096Y-67133781D02*
X69046905Y-67133781D01*
X68999286Y-67609972D01*
X69046905Y-67562353D01*
X69142143Y-67514734D01*
X69380239Y-67514734D01*
X69475477Y-67562353D01*
X69523096Y-67609972D01*
X69570715Y-67705210D01*
X69570715Y-67943305D01*
X69523096Y-68038543D01*
X69475477Y-68086162D01*
X69380239Y-68133781D01*
X69142143Y-68133781D01*
X69046905Y-68086162D01*
X68999286Y-68038543D01*
X111028334Y-24688543D02*
X110980715Y-24736162D01*
X110837858Y-24783781D01*
X110742620Y-24783781D01*
X110599762Y-24736162D01*
X110504524Y-24640924D01*
X110456905Y-24545686D01*
X110409286Y-24355210D01*
X110409286Y-24212353D01*
X110456905Y-24021877D01*
X110504524Y-23926639D01*
X110599762Y-23831401D01*
X110742620Y-23783781D01*
X110837858Y-23783781D01*
X110980715Y-23831401D01*
X111028334Y-23879020D01*
X111885477Y-24117115D02*
X111885477Y-24783781D01*
X111647381Y-23736162D02*
X111409286Y-24450448D01*
X112028334Y-24450448D01*
X111068334Y-41138543D02*
X111020715Y-41186162D01*
X110877858Y-41233781D01*
X110782620Y-41233781D01*
X110639762Y-41186162D01*
X110544524Y-41090924D01*
X110496905Y-40995686D01*
X110449286Y-40805210D01*
X110449286Y-40662353D01*
X110496905Y-40471877D01*
X110544524Y-40376639D01*
X110639762Y-40281401D01*
X110782620Y-40233781D01*
X110877858Y-40233781D01*
X111020715Y-40281401D01*
X111068334Y-40329020D01*
X111401667Y-40233781D02*
X112020715Y-40233781D01*
X111687381Y-40614734D01*
X111830239Y-40614734D01*
X111925477Y-40662353D01*
X111973096Y-40709972D01*
X112020715Y-40805210D01*
X112020715Y-41043305D01*
X111973096Y-41138543D01*
X111925477Y-41186162D01*
X111830239Y-41233781D01*
X111544524Y-41233781D01*
X111449286Y-41186162D01*
X111401667Y-41138543D01*
X99848334Y-46118543D02*
X99800715Y-46166162D01*
X99657858Y-46213781D01*
X99562620Y-46213781D01*
X99419762Y-46166162D01*
X99324524Y-46070924D01*
X99276905Y-45975686D01*
X99229286Y-45785210D01*
X99229286Y-45642353D01*
X99276905Y-45451877D01*
X99324524Y-45356639D01*
X99419762Y-45261401D01*
X99562620Y-45213781D01*
X99657858Y-45213781D01*
X99800715Y-45261401D01*
X99848334Y-45309020D01*
X100229286Y-45309020D02*
X100276905Y-45261401D01*
X100372143Y-45213781D01*
X100610239Y-45213781D01*
X100705477Y-45261401D01*
X100753096Y-45309020D01*
X100800715Y-45404258D01*
X100800715Y-45499496D01*
X100753096Y-45642353D01*
X100181667Y-46213781D01*
X100800715Y-46213781D01*
X104498334Y-33528543D02*
X104450715Y-33576162D01*
X104307858Y-33623781D01*
X104212620Y-33623781D01*
X104069762Y-33576162D01*
X103974524Y-33480924D01*
X103926905Y-33385686D01*
X103879286Y-33195210D01*
X103879286Y-33052353D01*
X103926905Y-32861877D01*
X103974524Y-32766639D01*
X104069762Y-32671401D01*
X104212620Y-32623781D01*
X104307858Y-32623781D01*
X104450715Y-32671401D01*
X104498334Y-32719020D01*
X105450715Y-33623781D02*
X104879286Y-33623781D01*
X105165001Y-33623781D02*
X105165001Y-32623781D01*
X105069762Y-32766639D01*
X104974524Y-32861877D01*
X104879286Y-32909496D01*
M02*
