G04 #@! TF.GenerationSoftware,KiCad,Pcbnew,(5.1.6)-1*
G04 #@! TF.CreationDate,2020-07-14T11:46:25+02:00*
G04 #@! TF.ProjectId,sboxnet-booster,73626f78-6e65-4742-9d62-6f6f73746572,rev?*
G04 #@! TF.SameCoordinates,Original*
G04 #@! TF.FileFunction,Soldermask,Top*
G04 #@! TF.FilePolarity,Negative*
%FSLAX46Y46*%
G04 Gerber Fmt 4.6, Leading zero omitted, Abs format (unit mm)*
G04 Created by KiCad (PCBNEW (5.1.6)-1) date 2020-07-14 11:46:25*
%MOMM*%
%LPD*%
G01*
G04 APERTURE LIST*
%ADD10C,0.100000*%
G04 APERTURE END LIST*
D10*
G36*
X63624071Y-154194063D02*
G01*
X63820300Y-154253589D01*
X64001146Y-154350253D01*
X64042437Y-154384140D01*
X64159660Y-154480340D01*
X64289748Y-154638855D01*
X64386410Y-154819697D01*
X64386411Y-154819699D01*
X64445937Y-155015928D01*
X64461000Y-155168868D01*
X64461000Y-157251132D01*
X64445937Y-157404072D01*
X64386411Y-157600301D01*
X64386410Y-157600303D01*
X64289748Y-157781145D01*
X64159660Y-157939660D01*
X64001145Y-158069748D01*
X63820303Y-158166410D01*
X63820301Y-158166411D01*
X63624072Y-158225937D01*
X63420000Y-158246036D01*
X63215929Y-158225937D01*
X63019700Y-158166411D01*
X63019698Y-158166410D01*
X62838856Y-158069748D01*
X62680341Y-157939660D01*
X62550253Y-157781145D01*
X62453591Y-157600303D01*
X62453590Y-157600301D01*
X62394064Y-157404072D01*
X62379001Y-157251132D01*
X62379000Y-155168869D01*
X62394063Y-155015929D01*
X62453589Y-154819700D01*
X62550253Y-154638854D01*
X62584140Y-154597563D01*
X62680340Y-154480340D01*
X62838855Y-154350252D01*
X63019697Y-154253590D01*
X63019699Y-154253589D01*
X63215928Y-154194063D01*
X63420000Y-154173964D01*
X63624071Y-154194063D01*
G37*
G36*
X68624071Y-154194063D02*
G01*
X68820300Y-154253589D01*
X69001146Y-154350253D01*
X69042437Y-154384140D01*
X69159660Y-154480340D01*
X69289748Y-154638855D01*
X69386410Y-154819697D01*
X69386411Y-154819699D01*
X69445937Y-155015928D01*
X69461000Y-155168868D01*
X69461000Y-157251132D01*
X69445937Y-157404072D01*
X69386411Y-157600301D01*
X69386410Y-157600303D01*
X69289748Y-157781145D01*
X69159660Y-157939660D01*
X69001145Y-158069748D01*
X68820303Y-158166410D01*
X68820301Y-158166411D01*
X68624072Y-158225937D01*
X68420000Y-158246036D01*
X68215929Y-158225937D01*
X68019700Y-158166411D01*
X68019698Y-158166410D01*
X67838856Y-158069748D01*
X67680341Y-157939660D01*
X67550253Y-157781145D01*
X67453591Y-157600303D01*
X67453590Y-157600301D01*
X67394064Y-157404072D01*
X67379001Y-157251132D01*
X67379000Y-155168869D01*
X67394063Y-155015929D01*
X67453589Y-154819700D01*
X67550253Y-154638854D01*
X67584140Y-154597563D01*
X67680340Y-154480340D01*
X67838855Y-154350252D01*
X68019697Y-154253590D01*
X68019699Y-154253589D01*
X68215928Y-154194063D01*
X68420000Y-154173964D01*
X68624071Y-154194063D01*
G37*
G36*
X123314071Y-154194063D02*
G01*
X123510300Y-154253589D01*
X123691146Y-154350253D01*
X123732437Y-154384140D01*
X123849660Y-154480340D01*
X123979748Y-154638855D01*
X124076410Y-154819697D01*
X124076411Y-154819699D01*
X124135937Y-155015928D01*
X124151000Y-155168868D01*
X124151000Y-157251132D01*
X124135937Y-157404072D01*
X124076411Y-157600301D01*
X124076410Y-157600303D01*
X123979748Y-157781145D01*
X123849660Y-157939660D01*
X123691145Y-158069748D01*
X123510303Y-158166410D01*
X123510301Y-158166411D01*
X123314072Y-158225937D01*
X123110000Y-158246036D01*
X122905929Y-158225937D01*
X122709700Y-158166411D01*
X122709698Y-158166410D01*
X122528856Y-158069748D01*
X122370341Y-157939660D01*
X122240253Y-157781145D01*
X122143591Y-157600303D01*
X122143590Y-157600301D01*
X122084064Y-157404072D01*
X122069001Y-157251132D01*
X122069000Y-155168869D01*
X122084063Y-155015929D01*
X122143589Y-154819700D01*
X122240253Y-154638854D01*
X122274140Y-154597563D01*
X122370340Y-154480340D01*
X122528855Y-154350252D01*
X122709697Y-154253590D01*
X122709699Y-154253589D01*
X122905928Y-154194063D01*
X123110000Y-154173964D01*
X123314071Y-154194063D01*
G37*
G36*
X133314071Y-154194063D02*
G01*
X133510300Y-154253589D01*
X133691146Y-154350253D01*
X133732437Y-154384140D01*
X133849660Y-154480340D01*
X133979748Y-154638855D01*
X134076410Y-154819697D01*
X134076411Y-154819699D01*
X134135937Y-155015928D01*
X134151000Y-155168868D01*
X134151000Y-157251132D01*
X134135937Y-157404072D01*
X134076411Y-157600301D01*
X134076410Y-157600303D01*
X133979748Y-157781145D01*
X133849660Y-157939660D01*
X133691145Y-158069748D01*
X133510303Y-158166410D01*
X133510301Y-158166411D01*
X133314072Y-158225937D01*
X133110000Y-158246036D01*
X132905929Y-158225937D01*
X132709700Y-158166411D01*
X132709698Y-158166410D01*
X132528856Y-158069748D01*
X132370341Y-157939660D01*
X132240253Y-157781145D01*
X132143591Y-157600303D01*
X132143590Y-157600301D01*
X132084064Y-157404072D01*
X132069001Y-157251132D01*
X132069000Y-155168869D01*
X132084063Y-155015929D01*
X132143589Y-154819700D01*
X132240253Y-154638854D01*
X132274140Y-154597563D01*
X132370340Y-154480340D01*
X132528855Y-154350252D01*
X132709697Y-154253590D01*
X132709699Y-154253589D01*
X132905928Y-154194063D01*
X133110000Y-154173964D01*
X133314071Y-154194063D01*
G37*
G36*
X73624071Y-154194063D02*
G01*
X73820300Y-154253589D01*
X74001146Y-154350253D01*
X74042437Y-154384140D01*
X74159660Y-154480340D01*
X74289748Y-154638855D01*
X74386410Y-154819697D01*
X74386411Y-154819699D01*
X74445937Y-155015928D01*
X74461000Y-155168868D01*
X74461000Y-157251132D01*
X74445937Y-157404072D01*
X74386411Y-157600301D01*
X74386410Y-157600303D01*
X74289748Y-157781145D01*
X74159660Y-157939660D01*
X74001145Y-158069748D01*
X73820303Y-158166410D01*
X73820301Y-158166411D01*
X73624072Y-158225937D01*
X73420000Y-158246036D01*
X73215929Y-158225937D01*
X73019700Y-158166411D01*
X73019698Y-158166410D01*
X72838856Y-158069748D01*
X72680341Y-157939660D01*
X72550253Y-157781145D01*
X72453591Y-157600303D01*
X72453590Y-157600301D01*
X72394064Y-157404072D01*
X72379001Y-157251132D01*
X72379000Y-155168869D01*
X72394063Y-155015929D01*
X72453589Y-154819700D01*
X72550253Y-154638854D01*
X72584140Y-154597563D01*
X72680340Y-154480340D01*
X72838855Y-154350252D01*
X73019697Y-154253590D01*
X73019699Y-154253589D01*
X73215928Y-154194063D01*
X73420000Y-154173964D01*
X73624071Y-154194063D01*
G37*
G36*
X128314071Y-154194063D02*
G01*
X128510300Y-154253589D01*
X128691146Y-154350253D01*
X128732437Y-154384140D01*
X128849660Y-154480340D01*
X128979748Y-154638855D01*
X129076410Y-154819697D01*
X129076411Y-154819699D01*
X129135937Y-155015928D01*
X129151000Y-155168868D01*
X129151000Y-157251132D01*
X129135937Y-157404072D01*
X129076411Y-157600301D01*
X129076410Y-157600303D01*
X128979748Y-157781145D01*
X128849660Y-157939660D01*
X128691145Y-158069748D01*
X128510303Y-158166410D01*
X128510301Y-158166411D01*
X128314072Y-158225937D01*
X128110000Y-158246036D01*
X127905929Y-158225937D01*
X127709700Y-158166411D01*
X127709698Y-158166410D01*
X127528856Y-158069748D01*
X127370341Y-157939660D01*
X127240253Y-157781145D01*
X127143591Y-157600303D01*
X127143590Y-157600301D01*
X127084064Y-157404072D01*
X127069001Y-157251132D01*
X127069000Y-155168869D01*
X127084063Y-155015929D01*
X127143589Y-154819700D01*
X127240253Y-154638854D01*
X127274140Y-154597563D01*
X127370340Y-154480340D01*
X127528855Y-154350252D01*
X127709697Y-154253590D01*
X127709699Y-154253589D01*
X127905928Y-154194063D01*
X128110000Y-154173964D01*
X128314071Y-154194063D01*
G37*
G36*
X59461000Y-158241000D02*
G01*
X57379000Y-158241000D01*
X57379000Y-154179000D01*
X59461000Y-154179000D01*
X59461000Y-158241000D01*
G37*
G36*
X119151000Y-158241000D02*
G01*
X117069000Y-158241000D01*
X117069000Y-154179000D01*
X119151000Y-154179000D01*
X119151000Y-158241000D01*
G37*
G36*
X90893112Y-146677927D02*
G01*
X91042412Y-146707624D01*
X91206384Y-146775544D01*
X91353954Y-146874147D01*
X91479453Y-146999646D01*
X91578056Y-147147216D01*
X91645976Y-147311188D01*
X91680600Y-147485259D01*
X91680600Y-147662741D01*
X91645976Y-147836812D01*
X91578056Y-148000784D01*
X91479453Y-148148354D01*
X91353954Y-148273853D01*
X91206384Y-148372456D01*
X91042412Y-148440376D01*
X90893112Y-148470073D01*
X90868342Y-148475000D01*
X90690858Y-148475000D01*
X90666088Y-148470073D01*
X90516788Y-148440376D01*
X90352816Y-148372456D01*
X90205246Y-148273853D01*
X90079747Y-148148354D01*
X89981144Y-148000784D01*
X89913224Y-147836812D01*
X89878600Y-147662741D01*
X89878600Y-147485259D01*
X89913224Y-147311188D01*
X89981144Y-147147216D01*
X90079747Y-146999646D01*
X90205246Y-146874147D01*
X90352816Y-146775544D01*
X90516788Y-146707624D01*
X90666088Y-146677927D01*
X90690858Y-146673000D01*
X90868342Y-146673000D01*
X90893112Y-146677927D01*
G37*
G36*
X94220600Y-148475000D02*
G01*
X92418600Y-148475000D01*
X92418600Y-146673000D01*
X94220600Y-146673000D01*
X94220600Y-148475000D01*
G37*
G36*
X49812600Y-144554600D02*
G01*
X46910600Y-144554600D01*
X46910600Y-141652600D01*
X49812600Y-141652600D01*
X49812600Y-144554600D01*
G37*
G36*
X38624841Y-141708360D02*
G01*
X38888905Y-141817739D01*
X39126558Y-141976534D01*
X39328666Y-142178642D01*
X39487461Y-142416295D01*
X39596840Y-142680359D01*
X39652600Y-142960688D01*
X39652600Y-143246512D01*
X39596840Y-143526841D01*
X39487461Y-143790905D01*
X39328666Y-144028558D01*
X39126558Y-144230666D01*
X38888905Y-144389461D01*
X38624841Y-144498840D01*
X38344512Y-144554600D01*
X38058688Y-144554600D01*
X37778359Y-144498840D01*
X37514295Y-144389461D01*
X37276642Y-144230666D01*
X37074534Y-144028558D01*
X36915739Y-143790905D01*
X36806360Y-143526841D01*
X36750600Y-143246512D01*
X36750600Y-142960688D01*
X36806360Y-142680359D01*
X36915739Y-142416295D01*
X37074534Y-142178642D01*
X37276642Y-141976534D01*
X37514295Y-141817739D01*
X37778359Y-141708360D01*
X38058688Y-141652600D01*
X38344512Y-141652600D01*
X38624841Y-141708360D01*
G37*
G36*
X110933800Y-143801400D02*
G01*
X109131800Y-143801400D01*
X109131800Y-141999400D01*
X110933800Y-141999400D01*
X110933800Y-143801400D01*
G37*
G36*
X107606312Y-142004327D02*
G01*
X107755612Y-142034024D01*
X107919584Y-142101944D01*
X108067154Y-142200547D01*
X108192653Y-142326046D01*
X108291256Y-142473616D01*
X108359176Y-142637588D01*
X108393800Y-142811659D01*
X108393800Y-142989141D01*
X108359176Y-143163212D01*
X108291256Y-143327184D01*
X108192653Y-143474754D01*
X108067154Y-143600253D01*
X107919584Y-143698856D01*
X107755612Y-143766776D01*
X107606312Y-143796473D01*
X107581542Y-143801400D01*
X107404058Y-143801400D01*
X107379288Y-143796473D01*
X107229988Y-143766776D01*
X107066016Y-143698856D01*
X106918446Y-143600253D01*
X106792947Y-143474754D01*
X106694344Y-143327184D01*
X106626424Y-143163212D01*
X106591800Y-142989141D01*
X106591800Y-142811659D01*
X106626424Y-142637588D01*
X106694344Y-142473616D01*
X106792947Y-142326046D01*
X106918446Y-142200547D01*
X107066016Y-142101944D01*
X107229988Y-142034024D01*
X107379288Y-142004327D01*
X107404058Y-141999400D01*
X107581542Y-141999400D01*
X107606312Y-142004327D01*
G37*
G36*
X99642600Y-123322601D02*
G01*
X99645002Y-123346987D01*
X99652115Y-123370436D01*
X99663666Y-123392047D01*
X99679211Y-123410989D01*
X99698153Y-123426534D01*
X99719764Y-123438085D01*
X99743213Y-123445198D01*
X99767599Y-123447600D01*
X101142600Y-123447600D01*
X101142600Y-134819600D01*
X99767599Y-134819600D01*
X99743213Y-134822002D01*
X99719764Y-134829115D01*
X99698153Y-134840666D01*
X99679211Y-134856211D01*
X99663666Y-134875153D01*
X99652115Y-134896764D01*
X99645002Y-134920213D01*
X99642600Y-134944599D01*
X99642600Y-137234600D01*
X96140600Y-137234600D01*
X96140600Y-134944599D01*
X96138198Y-134920213D01*
X96131085Y-134896764D01*
X96119534Y-134875153D01*
X96103989Y-134856211D01*
X96085047Y-134840666D01*
X96063436Y-134829115D01*
X96039987Y-134822002D01*
X96015601Y-134819600D01*
X94640600Y-134819600D01*
X94640600Y-123447600D01*
X96015601Y-123447600D01*
X96039987Y-123445198D01*
X96063436Y-123438085D01*
X96085047Y-123426534D01*
X96103989Y-123410989D01*
X96119534Y-123392047D01*
X96131085Y-123370436D01*
X96138198Y-123346987D01*
X96140600Y-123322601D01*
X96140600Y-121032600D01*
X99642600Y-121032600D01*
X99642600Y-123322601D01*
G37*
G36*
X51204185Y-133149602D02*
G01*
X51354010Y-133179404D01*
X51636274Y-133296321D01*
X51890305Y-133466059D01*
X52106341Y-133682095D01*
X52276079Y-133936126D01*
X52374180Y-134172965D01*
X52392996Y-134218391D01*
X52452600Y-134518039D01*
X52452600Y-134823561D01*
X52446105Y-134856211D01*
X52392996Y-135123210D01*
X52276079Y-135405474D01*
X52106341Y-135659505D01*
X51890305Y-135875541D01*
X51636274Y-136045279D01*
X51354010Y-136162196D01*
X51204185Y-136191998D01*
X51054361Y-136221800D01*
X50748839Y-136221800D01*
X50599015Y-136191998D01*
X50449190Y-136162196D01*
X50166926Y-136045279D01*
X49912895Y-135875541D01*
X49696859Y-135659505D01*
X49527121Y-135405474D01*
X49410204Y-135123210D01*
X49357095Y-134856211D01*
X49350600Y-134823561D01*
X49350600Y-134518039D01*
X49410204Y-134218391D01*
X49429020Y-134172965D01*
X49527121Y-133936126D01*
X49696859Y-133682095D01*
X49912895Y-133466059D01*
X50166926Y-133296321D01*
X50449190Y-133179404D01*
X50599015Y-133149602D01*
X50748839Y-133119800D01*
X51054361Y-133119800D01*
X51204185Y-133149602D01*
G37*
G36*
X38504185Y-133149602D02*
G01*
X38654010Y-133179404D01*
X38936274Y-133296321D01*
X39190305Y-133466059D01*
X39406341Y-133682095D01*
X39576079Y-133936126D01*
X39674180Y-134172965D01*
X39692996Y-134218391D01*
X39752600Y-134518039D01*
X39752600Y-134823561D01*
X39746105Y-134856211D01*
X39692996Y-135123210D01*
X39576079Y-135405474D01*
X39406341Y-135659505D01*
X39190305Y-135875541D01*
X38936274Y-136045279D01*
X38654010Y-136162196D01*
X38504185Y-136191998D01*
X38354361Y-136221800D01*
X38048839Y-136221800D01*
X37899015Y-136191998D01*
X37749190Y-136162196D01*
X37466926Y-136045279D01*
X37212895Y-135875541D01*
X36996859Y-135659505D01*
X36827121Y-135405474D01*
X36710204Y-135123210D01*
X36657095Y-134856211D01*
X36650600Y-134823561D01*
X36650600Y-134518039D01*
X36710204Y-134218391D01*
X36729020Y-134172965D01*
X36827121Y-133936126D01*
X36996859Y-133682095D01*
X37212895Y-133466059D01*
X37466926Y-133296321D01*
X37749190Y-133179404D01*
X37899015Y-133149602D01*
X38048839Y-133119800D01*
X38354361Y-133119800D01*
X38504185Y-133149602D01*
G37*
G36*
X41708164Y-133660189D02*
G01*
X41899433Y-133739415D01*
X41899435Y-133739416D01*
X41941615Y-133767600D01*
X42071573Y-133854435D01*
X42217965Y-134000827D01*
X42332985Y-134172967D01*
X42412211Y-134364236D01*
X42452600Y-134567284D01*
X42452600Y-134774316D01*
X42412211Y-134977364D01*
X42351800Y-135123209D01*
X42332984Y-135168635D01*
X42217965Y-135340773D01*
X42071573Y-135487165D01*
X41899435Y-135602184D01*
X41899434Y-135602185D01*
X41899433Y-135602185D01*
X41708164Y-135681411D01*
X41505116Y-135721800D01*
X41298084Y-135721800D01*
X41095036Y-135681411D01*
X40903767Y-135602185D01*
X40903766Y-135602185D01*
X40903765Y-135602184D01*
X40731627Y-135487165D01*
X40585235Y-135340773D01*
X40470216Y-135168635D01*
X40451400Y-135123209D01*
X40390989Y-134977364D01*
X40350600Y-134774316D01*
X40350600Y-134567284D01*
X40390989Y-134364236D01*
X40470215Y-134172967D01*
X40585235Y-134000827D01*
X40731627Y-133854435D01*
X40861585Y-133767600D01*
X40903765Y-133739416D01*
X40903767Y-133739415D01*
X41095036Y-133660189D01*
X41298084Y-133619800D01*
X41505116Y-133619800D01*
X41708164Y-133660189D01*
G37*
G36*
X91942600Y-134899600D02*
G01*
X90140600Y-134899600D01*
X90140600Y-123367600D01*
X91942600Y-123367600D01*
X91942600Y-134899600D01*
G37*
G36*
X105642600Y-134899600D02*
G01*
X103840600Y-134899600D01*
X103840600Y-123367600D01*
X105642600Y-123367600D01*
X105642600Y-134899600D01*
G37*
G36*
X48054185Y-131019602D02*
G01*
X48204010Y-131049404D01*
X48486274Y-131166321D01*
X48740305Y-131336059D01*
X48956341Y-131552095D01*
X49126079Y-131806126D01*
X49242996Y-132088390D01*
X49302600Y-132388040D01*
X49302600Y-132693560D01*
X49242996Y-132993210D01*
X49126079Y-133275474D01*
X48956341Y-133529505D01*
X48740305Y-133745541D01*
X48486274Y-133915279D01*
X48204010Y-134032196D01*
X48054185Y-134061998D01*
X47904361Y-134091800D01*
X47598839Y-134091800D01*
X47449015Y-134061998D01*
X47299190Y-134032196D01*
X47016926Y-133915279D01*
X46762895Y-133745541D01*
X46546859Y-133529505D01*
X46377121Y-133275474D01*
X46260204Y-132993210D01*
X46200600Y-132693560D01*
X46200600Y-132388040D01*
X46260204Y-132088390D01*
X46377121Y-131806126D01*
X46546859Y-131552095D01*
X46762895Y-131336059D01*
X47016926Y-131166321D01*
X47299190Y-131049404D01*
X47449015Y-131019602D01*
X47598839Y-130989800D01*
X47904361Y-130989800D01*
X48054185Y-131019602D01*
G37*
G36*
X38504185Y-121719602D02*
G01*
X38654010Y-121749404D01*
X38936274Y-121866321D01*
X39190305Y-122036059D01*
X39406341Y-122252095D01*
X39576079Y-122506126D01*
X39674180Y-122742965D01*
X39692996Y-122788391D01*
X39752600Y-123088039D01*
X39752600Y-123393561D01*
X39742329Y-123445198D01*
X39692996Y-123693210D01*
X39576079Y-123975474D01*
X39406341Y-124229505D01*
X39190305Y-124445541D01*
X38936274Y-124615279D01*
X38654010Y-124732196D01*
X38504185Y-124761998D01*
X38354361Y-124791800D01*
X38048839Y-124791800D01*
X37899015Y-124761998D01*
X37749190Y-124732196D01*
X37466926Y-124615279D01*
X37212895Y-124445541D01*
X36996859Y-124229505D01*
X36827121Y-123975474D01*
X36710204Y-123693210D01*
X36660871Y-123445198D01*
X36650600Y-123393561D01*
X36650600Y-123088039D01*
X36710204Y-122788391D01*
X36729020Y-122742965D01*
X36827121Y-122506126D01*
X36996859Y-122252095D01*
X37212895Y-122036059D01*
X37466926Y-121866321D01*
X37749190Y-121749404D01*
X37899015Y-121719602D01*
X38048839Y-121689800D01*
X38354361Y-121689800D01*
X38504185Y-121719602D01*
G37*
G36*
X51204185Y-121719602D02*
G01*
X51354010Y-121749404D01*
X51636274Y-121866321D01*
X51890305Y-122036059D01*
X52106341Y-122252095D01*
X52276079Y-122506126D01*
X52374180Y-122742965D01*
X52392996Y-122788391D01*
X52452600Y-123088039D01*
X52452600Y-123393561D01*
X52442329Y-123445198D01*
X52392996Y-123693210D01*
X52276079Y-123975474D01*
X52106341Y-124229505D01*
X51890305Y-124445541D01*
X51636274Y-124615279D01*
X51354010Y-124732196D01*
X51204185Y-124761998D01*
X51054361Y-124791800D01*
X50748839Y-124791800D01*
X50599015Y-124761998D01*
X50449190Y-124732196D01*
X50166926Y-124615279D01*
X49912895Y-124445541D01*
X49696859Y-124229505D01*
X49527121Y-123975474D01*
X49410204Y-123693210D01*
X49360871Y-123445198D01*
X49350600Y-123393561D01*
X49350600Y-123088039D01*
X49410204Y-122788391D01*
X49429020Y-122742965D01*
X49527121Y-122506126D01*
X49696859Y-122252095D01*
X49912895Y-122036059D01*
X50166926Y-121866321D01*
X50449190Y-121749404D01*
X50599015Y-121719602D01*
X50748839Y-121689800D01*
X51054361Y-121689800D01*
X51204185Y-121719602D01*
G37*
G36*
X41708164Y-122230189D02*
G01*
X41899433Y-122309415D01*
X41899435Y-122309416D01*
X42071573Y-122424435D01*
X42217965Y-122570827D01*
X42332985Y-122742967D01*
X42412211Y-122934236D01*
X42452600Y-123137284D01*
X42452600Y-123344316D01*
X42412211Y-123547364D01*
X42351800Y-123693209D01*
X42332984Y-123738635D01*
X42217965Y-123910773D01*
X42071573Y-124057165D01*
X41899435Y-124172184D01*
X41899434Y-124172185D01*
X41899433Y-124172185D01*
X41708164Y-124251411D01*
X41505116Y-124291800D01*
X41298084Y-124291800D01*
X41095036Y-124251411D01*
X40903767Y-124172185D01*
X40903766Y-124172185D01*
X40903765Y-124172184D01*
X40731627Y-124057165D01*
X40585235Y-123910773D01*
X40470216Y-123738635D01*
X40451400Y-123693209D01*
X40390989Y-123547364D01*
X40350600Y-123344316D01*
X40350600Y-123137284D01*
X40390989Y-122934236D01*
X40470215Y-122742967D01*
X40585235Y-122570827D01*
X40731627Y-122424435D01*
X40903765Y-122309416D01*
X40903767Y-122309415D01*
X41095036Y-122230189D01*
X41298084Y-122189800D01*
X41505116Y-122189800D01*
X41708164Y-122230189D01*
G37*
G36*
X62293605Y-68579748D02*
G01*
X62330145Y-68590833D01*
X62363822Y-68608834D01*
X62393342Y-68633060D01*
X62417568Y-68662580D01*
X62435569Y-68696257D01*
X62446654Y-68732797D01*
X62451001Y-68776939D01*
X62451001Y-70225863D01*
X62446654Y-70270005D01*
X62435569Y-70306545D01*
X62417568Y-70340222D01*
X62393342Y-70369742D01*
X62363822Y-70393968D01*
X62330145Y-70411969D01*
X62293605Y-70423054D01*
X62249463Y-70427401D01*
X61300539Y-70427401D01*
X61256397Y-70423054D01*
X61219857Y-70411969D01*
X61186180Y-70393968D01*
X61156660Y-70369742D01*
X61132434Y-70340222D01*
X61114433Y-70306545D01*
X61103348Y-70270005D01*
X61099001Y-70225863D01*
X61099001Y-68776939D01*
X61103348Y-68732797D01*
X61114433Y-68696257D01*
X61132434Y-68662580D01*
X61156660Y-68633060D01*
X61186180Y-68608834D01*
X61219857Y-68590833D01*
X61256397Y-68579748D01*
X61300539Y-68575401D01*
X62249463Y-68575401D01*
X62293605Y-68579748D01*
G37*
G36*
X70703605Y-68579748D02*
G01*
X70740145Y-68590833D01*
X70773822Y-68608834D01*
X70803342Y-68633060D01*
X70827568Y-68662580D01*
X70845569Y-68696257D01*
X70856654Y-68732797D01*
X70861001Y-68776939D01*
X70861001Y-70225863D01*
X70856654Y-70270005D01*
X70845569Y-70306545D01*
X70827568Y-70340222D01*
X70803342Y-70369742D01*
X70773822Y-70393968D01*
X70740145Y-70411969D01*
X70703605Y-70423054D01*
X70659463Y-70427401D01*
X69710539Y-70427401D01*
X69666397Y-70423054D01*
X69629857Y-70411969D01*
X69596180Y-70393968D01*
X69566660Y-70369742D01*
X69542434Y-70340222D01*
X69524433Y-70306545D01*
X69513348Y-70270005D01*
X69509001Y-70225863D01*
X69509001Y-68776939D01*
X69513348Y-68732797D01*
X69524433Y-68696257D01*
X69542434Y-68662580D01*
X69566660Y-68633060D01*
X69596180Y-68608834D01*
X69629857Y-68590833D01*
X69666397Y-68579748D01*
X69710539Y-68575401D01*
X70659463Y-68575401D01*
X70703605Y-68579748D01*
G37*
G36*
X67903605Y-68579748D02*
G01*
X67940145Y-68590833D01*
X67973822Y-68608834D01*
X68003342Y-68633060D01*
X68027568Y-68662580D01*
X68045569Y-68696257D01*
X68056654Y-68732797D01*
X68061001Y-68776939D01*
X68061001Y-70225863D01*
X68056654Y-70270005D01*
X68045569Y-70306545D01*
X68027568Y-70340222D01*
X68003342Y-70369742D01*
X67973822Y-70393968D01*
X67940145Y-70411969D01*
X67903605Y-70423054D01*
X67859463Y-70427401D01*
X66910539Y-70427401D01*
X66866397Y-70423054D01*
X66829857Y-70411969D01*
X66796180Y-70393968D01*
X66766660Y-70369742D01*
X66742434Y-70340222D01*
X66724433Y-70306545D01*
X66713348Y-70270005D01*
X66709001Y-70225863D01*
X66709001Y-68776939D01*
X66713348Y-68732797D01*
X66724433Y-68696257D01*
X66742434Y-68662580D01*
X66766660Y-68633060D01*
X66796180Y-68608834D01*
X66829857Y-68590833D01*
X66866397Y-68579748D01*
X66910539Y-68575401D01*
X67859463Y-68575401D01*
X67903605Y-68579748D01*
G37*
G36*
X65093605Y-68579748D02*
G01*
X65130145Y-68590833D01*
X65163822Y-68608834D01*
X65193342Y-68633060D01*
X65217568Y-68662580D01*
X65235569Y-68696257D01*
X65246654Y-68732797D01*
X65251001Y-68776939D01*
X65251001Y-70225863D01*
X65246654Y-70270005D01*
X65235569Y-70306545D01*
X65217568Y-70340222D01*
X65193342Y-70369742D01*
X65163822Y-70393968D01*
X65130145Y-70411969D01*
X65093605Y-70423054D01*
X65049463Y-70427401D01*
X64100539Y-70427401D01*
X64056397Y-70423054D01*
X64019857Y-70411969D01*
X63986180Y-70393968D01*
X63956660Y-70369742D01*
X63932434Y-70340222D01*
X63914433Y-70306545D01*
X63903348Y-70270005D01*
X63899001Y-70225863D01*
X63899001Y-68776939D01*
X63903348Y-68732797D01*
X63914433Y-68696257D01*
X63932434Y-68662580D01*
X63956660Y-68633060D01*
X63986180Y-68608834D01*
X64019857Y-68590833D01*
X64056397Y-68579748D01*
X64100539Y-68575401D01*
X65049463Y-68575401D01*
X65093605Y-68579748D01*
G37*
G36*
X84536001Y-70192401D02*
G01*
X83534001Y-70192401D01*
X83534001Y-69290401D01*
X84536001Y-69290401D01*
X84536001Y-70192401D01*
G37*
G36*
X76313605Y-67579748D02*
G01*
X76350145Y-67590833D01*
X76383822Y-67608834D01*
X76413342Y-67633060D01*
X76437568Y-67662580D01*
X76455569Y-67696257D01*
X76466654Y-67732797D01*
X76471001Y-67776939D01*
X76471001Y-69225863D01*
X76466654Y-69270005D01*
X76455569Y-69306545D01*
X76437568Y-69340222D01*
X76413342Y-69369742D01*
X76383822Y-69393968D01*
X76350145Y-69411969D01*
X76313605Y-69423054D01*
X76269463Y-69427401D01*
X75320539Y-69427401D01*
X75276397Y-69423054D01*
X75239857Y-69411969D01*
X75206180Y-69393968D01*
X75176660Y-69369742D01*
X75152434Y-69340222D01*
X75134433Y-69306545D01*
X75123348Y-69270005D01*
X75119001Y-69225863D01*
X75119001Y-67776939D01*
X75123348Y-67732797D01*
X75134433Y-67696257D01*
X75152434Y-67662580D01*
X75176660Y-67633060D01*
X75206180Y-67608834D01*
X75239857Y-67590833D01*
X75276397Y-67579748D01*
X75320539Y-67575401D01*
X76269463Y-67575401D01*
X76313605Y-67579748D01*
G37*
G36*
X73513605Y-67579748D02*
G01*
X73550145Y-67590833D01*
X73583822Y-67608834D01*
X73613342Y-67633060D01*
X73637568Y-67662580D01*
X73655569Y-67696257D01*
X73666654Y-67732797D01*
X73671001Y-67776939D01*
X73671001Y-69225863D01*
X73666654Y-69270005D01*
X73655569Y-69306545D01*
X73637568Y-69340222D01*
X73613342Y-69369742D01*
X73583822Y-69393968D01*
X73550145Y-69411969D01*
X73513605Y-69423054D01*
X73469463Y-69427401D01*
X72520539Y-69427401D01*
X72476397Y-69423054D01*
X72439857Y-69411969D01*
X72406180Y-69393968D01*
X72376660Y-69369742D01*
X72352434Y-69340222D01*
X72334433Y-69306545D01*
X72323348Y-69270005D01*
X72319001Y-69225863D01*
X72319001Y-67776939D01*
X72323348Y-67732797D01*
X72334433Y-67696257D01*
X72352434Y-67662580D01*
X72376660Y-67633060D01*
X72406180Y-67608834D01*
X72439857Y-67590833D01*
X72476397Y-67579748D01*
X72520539Y-67575401D01*
X73469463Y-67575401D01*
X73513605Y-67579748D01*
G37*
G36*
X86536001Y-69242401D02*
G01*
X85534001Y-69242401D01*
X85534001Y-68340401D01*
X86536001Y-68340401D01*
X86536001Y-69242401D01*
G37*
G36*
X79123605Y-66709748D02*
G01*
X79160145Y-66720833D01*
X79193822Y-66738834D01*
X79223342Y-66763060D01*
X79247568Y-66792580D01*
X79265569Y-66826257D01*
X79276654Y-66862797D01*
X79281001Y-66906939D01*
X79281001Y-68355863D01*
X79276654Y-68400005D01*
X79265569Y-68436545D01*
X79247568Y-68470222D01*
X79223342Y-68499742D01*
X79193822Y-68523968D01*
X79160145Y-68541969D01*
X79123605Y-68553054D01*
X79079463Y-68557401D01*
X78130539Y-68557401D01*
X78086397Y-68553054D01*
X78049857Y-68541969D01*
X78016180Y-68523968D01*
X77986660Y-68499742D01*
X77962434Y-68470222D01*
X77944433Y-68436545D01*
X77933348Y-68400005D01*
X77929001Y-68355863D01*
X77929001Y-66906939D01*
X77933348Y-66862797D01*
X77944433Y-66826257D01*
X77962434Y-66792580D01*
X77986660Y-66763060D01*
X78016180Y-66738834D01*
X78049857Y-66720833D01*
X78086397Y-66709748D01*
X78130539Y-66705401D01*
X79079463Y-66705401D01*
X79123605Y-66709748D01*
G37*
G36*
X81923605Y-66709748D02*
G01*
X81960145Y-66720833D01*
X81993822Y-66738834D01*
X82023342Y-66763060D01*
X82047568Y-66792580D01*
X82065569Y-66826257D01*
X82076654Y-66862797D01*
X82081001Y-66906939D01*
X82081001Y-68355863D01*
X82076654Y-68400005D01*
X82065569Y-68436545D01*
X82047568Y-68470222D01*
X82023342Y-68499742D01*
X81993822Y-68523968D01*
X81960145Y-68541969D01*
X81923605Y-68553054D01*
X81879463Y-68557401D01*
X80930539Y-68557401D01*
X80886397Y-68553054D01*
X80849857Y-68541969D01*
X80816180Y-68523968D01*
X80786660Y-68499742D01*
X80762434Y-68470222D01*
X80744433Y-68436545D01*
X80733348Y-68400005D01*
X80729001Y-68355863D01*
X80729001Y-66906939D01*
X80733348Y-66862797D01*
X80744433Y-66826257D01*
X80762434Y-66792580D01*
X80786660Y-66763060D01*
X80816180Y-66738834D01*
X80849857Y-66720833D01*
X80886397Y-66709748D01*
X80930539Y-66705401D01*
X81879463Y-66705401D01*
X81923605Y-66709748D01*
G37*
G36*
X84536001Y-68292401D02*
G01*
X83534001Y-68292401D01*
X83534001Y-67390401D01*
X84536001Y-67390401D01*
X84536001Y-68292401D01*
G37*
G36*
X84733605Y-63949748D02*
G01*
X84770145Y-63960833D01*
X84803822Y-63978834D01*
X84833342Y-64003060D01*
X84857568Y-64032580D01*
X84875569Y-64066257D01*
X84886654Y-64102797D01*
X84891001Y-64146939D01*
X84891001Y-65595863D01*
X84886654Y-65640005D01*
X84875569Y-65676545D01*
X84857568Y-65710222D01*
X84833342Y-65739742D01*
X84803822Y-65763968D01*
X84770145Y-65781969D01*
X84733605Y-65793054D01*
X84689463Y-65797401D01*
X83740539Y-65797401D01*
X83696397Y-65793054D01*
X83659857Y-65781969D01*
X83626180Y-65763968D01*
X83596660Y-65739742D01*
X83572434Y-65710222D01*
X83554433Y-65676545D01*
X83543348Y-65640005D01*
X83539001Y-65595863D01*
X83539001Y-64146939D01*
X83543348Y-64102797D01*
X83554433Y-64066257D01*
X83572434Y-64032580D01*
X83596660Y-64003060D01*
X83626180Y-63978834D01*
X83659857Y-63960833D01*
X83696397Y-63949748D01*
X83740539Y-63945401D01*
X84689463Y-63945401D01*
X84733605Y-63949748D01*
G37*
G36*
X87533605Y-63949748D02*
G01*
X87570145Y-63960833D01*
X87603822Y-63978834D01*
X87633342Y-64003060D01*
X87657568Y-64032580D01*
X87675569Y-64066257D01*
X87686654Y-64102797D01*
X87691001Y-64146939D01*
X87691001Y-65595863D01*
X87686654Y-65640005D01*
X87675569Y-65676545D01*
X87657568Y-65710222D01*
X87633342Y-65739742D01*
X87603822Y-65763968D01*
X87570145Y-65781969D01*
X87533605Y-65793054D01*
X87489463Y-65797401D01*
X86540539Y-65797401D01*
X86496397Y-65793054D01*
X86459857Y-65781969D01*
X86426180Y-65763968D01*
X86396660Y-65739742D01*
X86372434Y-65710222D01*
X86354433Y-65676545D01*
X86343348Y-65640005D01*
X86339001Y-65595863D01*
X86339001Y-64146939D01*
X86343348Y-64102797D01*
X86354433Y-64066257D01*
X86372434Y-64032580D01*
X86396660Y-64003060D01*
X86426180Y-63978834D01*
X86459857Y-63960833D01*
X86496397Y-63949748D01*
X86540539Y-63945401D01*
X87489463Y-63945401D01*
X87533605Y-63949748D01*
G37*
G36*
X64983004Y-63763104D02*
G01*
X65137876Y-63827254D01*
X65277257Y-63920386D01*
X65395791Y-64038920D01*
X65488923Y-64178301D01*
X65553073Y-64333173D01*
X65585776Y-64497585D01*
X65585776Y-64665217D01*
X65553073Y-64829629D01*
X65488923Y-64984501D01*
X65395791Y-65123882D01*
X65277257Y-65242416D01*
X65137876Y-65335548D01*
X64983004Y-65399698D01*
X64818592Y-65432401D01*
X64650960Y-65432401D01*
X64486548Y-65399698D01*
X64331676Y-65335548D01*
X64192295Y-65242416D01*
X64073761Y-65123882D01*
X63980629Y-64984501D01*
X63916479Y-64829629D01*
X63883776Y-64665217D01*
X63883776Y-64497585D01*
X63916479Y-64333173D01*
X63980629Y-64178301D01*
X64073761Y-64038920D01*
X64192295Y-63920386D01*
X64331676Y-63827254D01*
X64486548Y-63763104D01*
X64650960Y-63730401D01*
X64818592Y-63730401D01*
X64983004Y-63763104D01*
G37*
G36*
X63585776Y-65432401D02*
G01*
X61883776Y-65432401D01*
X61883776Y-63730401D01*
X63585776Y-63730401D01*
X63585776Y-65432401D01*
G37*
G36*
X69626001Y-65032401D02*
G01*
X67724001Y-65032401D01*
X67724001Y-63130401D01*
X69626001Y-63130401D01*
X69626001Y-65032401D01*
G37*
G36*
X71492396Y-63166947D02*
G01*
X71665467Y-63238635D01*
X71665468Y-63238636D01*
X71821228Y-63342711D01*
X71953691Y-63475174D01*
X71953692Y-63475176D01*
X72057767Y-63630935D01*
X72129455Y-63804006D01*
X72166001Y-63987734D01*
X72166001Y-64175068D01*
X72129455Y-64358796D01*
X72057767Y-64531867D01*
X72057766Y-64531868D01*
X71953691Y-64687628D01*
X71821228Y-64820091D01*
X71742819Y-64872482D01*
X71665467Y-64924167D01*
X71492396Y-64995855D01*
X71308668Y-65032401D01*
X71121334Y-65032401D01*
X70937606Y-64995855D01*
X70764535Y-64924167D01*
X70687183Y-64872482D01*
X70608774Y-64820091D01*
X70476311Y-64687628D01*
X70372236Y-64531868D01*
X70372235Y-64531867D01*
X70300547Y-64358796D01*
X70264001Y-64175068D01*
X70264001Y-63987734D01*
X70300547Y-63804006D01*
X70372235Y-63630935D01*
X70476310Y-63475176D01*
X70476311Y-63475174D01*
X70608774Y-63342711D01*
X70764534Y-63238636D01*
X70764535Y-63238635D01*
X70937606Y-63166947D01*
X71121334Y-63130401D01*
X71308668Y-63130401D01*
X71492396Y-63166947D01*
G37*
G36*
X75621143Y-62104642D02*
G01*
X75769102Y-62165929D01*
X75902256Y-62254899D01*
X76015502Y-62368145D01*
X76104472Y-62501299D01*
X76165759Y-62649258D01*
X76197001Y-62806325D01*
X76197001Y-62966475D01*
X76165759Y-63123542D01*
X76104472Y-63271501D01*
X76015502Y-63404655D01*
X75902256Y-63517901D01*
X75769102Y-63606871D01*
X75621143Y-63668158D01*
X75464076Y-63699400D01*
X75303926Y-63699400D01*
X75146859Y-63668158D01*
X74998900Y-63606871D01*
X74865746Y-63517901D01*
X74752500Y-63404655D01*
X74663530Y-63271501D01*
X74602243Y-63123542D01*
X74571001Y-62966475D01*
X74571001Y-62806325D01*
X74602243Y-62649258D01*
X74663530Y-62501299D01*
X74752500Y-62368145D01*
X74865746Y-62254899D01*
X74998900Y-62165929D01*
X75146859Y-62104642D01*
X75303926Y-62073400D01*
X75464076Y-62073400D01*
X75621143Y-62104642D01*
G37*
G36*
X78161143Y-62104642D02*
G01*
X78309102Y-62165929D01*
X78442256Y-62254899D01*
X78555502Y-62368145D01*
X78644472Y-62501299D01*
X78705759Y-62649258D01*
X78737001Y-62806325D01*
X78737001Y-62966475D01*
X78705759Y-63123542D01*
X78644472Y-63271501D01*
X78555502Y-63404655D01*
X78442256Y-63517901D01*
X78309102Y-63606871D01*
X78161143Y-63668158D01*
X78004076Y-63699400D01*
X77843926Y-63699400D01*
X77686859Y-63668158D01*
X77538900Y-63606871D01*
X77405746Y-63517901D01*
X77292500Y-63404655D01*
X77203530Y-63271501D01*
X77142243Y-63123542D01*
X77111001Y-62966475D01*
X77111001Y-62806325D01*
X77142243Y-62649258D01*
X77203530Y-62501299D01*
X77292500Y-62368145D01*
X77405746Y-62254899D01*
X77538900Y-62165929D01*
X77686859Y-62104642D01*
X77843926Y-62073400D01*
X78004076Y-62073400D01*
X78161143Y-62104642D01*
G37*
G36*
X90593605Y-60659748D02*
G01*
X90630145Y-60670833D01*
X90663822Y-60688834D01*
X90693342Y-60713060D01*
X90717568Y-60742580D01*
X90735569Y-60776257D01*
X90746654Y-60812797D01*
X90751001Y-60856939D01*
X90751001Y-62305863D01*
X90746654Y-62350005D01*
X90735569Y-62386545D01*
X90717568Y-62420222D01*
X90693342Y-62449742D01*
X90663822Y-62473968D01*
X90630145Y-62491969D01*
X90593605Y-62503054D01*
X90549463Y-62507401D01*
X89600539Y-62507401D01*
X89556397Y-62503054D01*
X89519857Y-62491969D01*
X89486180Y-62473968D01*
X89456660Y-62449742D01*
X89432434Y-62420222D01*
X89414433Y-62386545D01*
X89403348Y-62350005D01*
X89399001Y-62305863D01*
X89399001Y-60856939D01*
X89403348Y-60812797D01*
X89414433Y-60776257D01*
X89432434Y-60742580D01*
X89456660Y-60713060D01*
X89486180Y-60688834D01*
X89519857Y-60670833D01*
X89556397Y-60659748D01*
X89600539Y-60655401D01*
X90549463Y-60655401D01*
X90593605Y-60659748D01*
G37*
G36*
X82183605Y-60659748D02*
G01*
X82220145Y-60670833D01*
X82253822Y-60688834D01*
X82283342Y-60713060D01*
X82307568Y-60742580D01*
X82325569Y-60776257D01*
X82336654Y-60812797D01*
X82341001Y-60856939D01*
X82341001Y-62305863D01*
X82336654Y-62350005D01*
X82325569Y-62386545D01*
X82307568Y-62420222D01*
X82283342Y-62449742D01*
X82253822Y-62473968D01*
X82220145Y-62491969D01*
X82183605Y-62503054D01*
X82139463Y-62507401D01*
X81190539Y-62507401D01*
X81146397Y-62503054D01*
X81109857Y-62491969D01*
X81076180Y-62473968D01*
X81046660Y-62449742D01*
X81022434Y-62420222D01*
X81004433Y-62386545D01*
X80993348Y-62350005D01*
X80989001Y-62305863D01*
X80989001Y-60856939D01*
X80993348Y-60812797D01*
X81004433Y-60776257D01*
X81022434Y-60742580D01*
X81046660Y-60713060D01*
X81076180Y-60688834D01*
X81109857Y-60670833D01*
X81146397Y-60659748D01*
X81190539Y-60655401D01*
X82139463Y-60655401D01*
X82183605Y-60659748D01*
G37*
G36*
X84983605Y-60659748D02*
G01*
X85020145Y-60670833D01*
X85053822Y-60688834D01*
X85083342Y-60713060D01*
X85107568Y-60742580D01*
X85125569Y-60776257D01*
X85136654Y-60812797D01*
X85141001Y-60856939D01*
X85141001Y-62305863D01*
X85136654Y-62350005D01*
X85125569Y-62386545D01*
X85107568Y-62420222D01*
X85083342Y-62449742D01*
X85053822Y-62473968D01*
X85020145Y-62491969D01*
X84983605Y-62503054D01*
X84939463Y-62507401D01*
X83990539Y-62507401D01*
X83946397Y-62503054D01*
X83909857Y-62491969D01*
X83876180Y-62473968D01*
X83846660Y-62449742D01*
X83822434Y-62420222D01*
X83804433Y-62386545D01*
X83793348Y-62350005D01*
X83789001Y-62305863D01*
X83789001Y-60856939D01*
X83793348Y-60812797D01*
X83804433Y-60776257D01*
X83822434Y-60742580D01*
X83846660Y-60713060D01*
X83876180Y-60688834D01*
X83909857Y-60670833D01*
X83946397Y-60659748D01*
X83990539Y-60655401D01*
X84939463Y-60655401D01*
X84983605Y-60659748D01*
G37*
G36*
X87793605Y-60659748D02*
G01*
X87830145Y-60670833D01*
X87863822Y-60688834D01*
X87893342Y-60713060D01*
X87917568Y-60742580D01*
X87935569Y-60776257D01*
X87946654Y-60812797D01*
X87951001Y-60856939D01*
X87951001Y-62305863D01*
X87946654Y-62350005D01*
X87935569Y-62386545D01*
X87917568Y-62420222D01*
X87893342Y-62449742D01*
X87863822Y-62473968D01*
X87830145Y-62491969D01*
X87793605Y-62503054D01*
X87749463Y-62507401D01*
X86800539Y-62507401D01*
X86756397Y-62503054D01*
X86719857Y-62491969D01*
X86686180Y-62473968D01*
X86656660Y-62449742D01*
X86632434Y-62420222D01*
X86614433Y-62386545D01*
X86603348Y-62350005D01*
X86599001Y-62305863D01*
X86599001Y-60856939D01*
X86603348Y-60812797D01*
X86614433Y-60776257D01*
X86632434Y-60742580D01*
X86656660Y-60713060D01*
X86686180Y-60688834D01*
X86719857Y-60670833D01*
X86756397Y-60659748D01*
X86800539Y-60655401D01*
X87749463Y-60655401D01*
X87793605Y-60659748D01*
G37*
G36*
X50352396Y-59716947D02*
G01*
X50525467Y-59788635D01*
X50525468Y-59788636D01*
X50681228Y-59892711D01*
X50813691Y-60025174D01*
X50813692Y-60025176D01*
X50917767Y-60180935D01*
X50989455Y-60354006D01*
X51026001Y-60537734D01*
X51026001Y-60725068D01*
X50989455Y-60908796D01*
X50917767Y-61081867D01*
X50917766Y-61081868D01*
X50813691Y-61237628D01*
X50681228Y-61370091D01*
X50602819Y-61422482D01*
X50525467Y-61474167D01*
X50352396Y-61545855D01*
X50168668Y-61582401D01*
X49981334Y-61582401D01*
X49797606Y-61545855D01*
X49624535Y-61474167D01*
X49547183Y-61422482D01*
X49468774Y-61370091D01*
X49336311Y-61237628D01*
X49232236Y-61081868D01*
X49232235Y-61081867D01*
X49160547Y-60908796D01*
X49124001Y-60725068D01*
X49124001Y-60537734D01*
X49160547Y-60354006D01*
X49232235Y-60180935D01*
X49336310Y-60025176D01*
X49336311Y-60025174D01*
X49468774Y-59892711D01*
X49624534Y-59788636D01*
X49624535Y-59788635D01*
X49797606Y-59716947D01*
X49981334Y-59680401D01*
X50168668Y-59680401D01*
X50352396Y-59716947D01*
G37*
G36*
X56252396Y-59716947D02*
G01*
X56425467Y-59788635D01*
X56425468Y-59788636D01*
X56581228Y-59892711D01*
X56713691Y-60025174D01*
X56713692Y-60025176D01*
X56817767Y-60180935D01*
X56889455Y-60354006D01*
X56926001Y-60537734D01*
X56926001Y-60725068D01*
X56889455Y-60908796D01*
X56817767Y-61081867D01*
X56817766Y-61081868D01*
X56713691Y-61237628D01*
X56581228Y-61370091D01*
X56502819Y-61422482D01*
X56425467Y-61474167D01*
X56252396Y-61545855D01*
X56068668Y-61582401D01*
X55881334Y-61582401D01*
X55697606Y-61545855D01*
X55524535Y-61474167D01*
X55447183Y-61422482D01*
X55368774Y-61370091D01*
X55236311Y-61237628D01*
X55132236Y-61081868D01*
X55132235Y-61081867D01*
X55060547Y-60908796D01*
X55024001Y-60725068D01*
X55024001Y-60537734D01*
X55060547Y-60354006D01*
X55132235Y-60180935D01*
X55236310Y-60025176D01*
X55236311Y-60025174D01*
X55368774Y-59892711D01*
X55524534Y-59788636D01*
X55524535Y-59788635D01*
X55697606Y-59716947D01*
X55881334Y-59680401D01*
X56068668Y-59680401D01*
X56252396Y-59716947D01*
G37*
G36*
X54386001Y-61582401D02*
G01*
X52484001Y-61582401D01*
X52484001Y-59680401D01*
X54386001Y-59680401D01*
X54386001Y-61582401D01*
G37*
G36*
X48486001Y-61582401D02*
G01*
X46584001Y-61582401D01*
X46584001Y-59680401D01*
X48486001Y-59680401D01*
X48486001Y-61582401D01*
G37*
G36*
X78161143Y-59564642D02*
G01*
X78309102Y-59625929D01*
X78442256Y-59714899D01*
X78555502Y-59828145D01*
X78644472Y-59961299D01*
X78705759Y-60109258D01*
X78737001Y-60266325D01*
X78737001Y-60426475D01*
X78705759Y-60583542D01*
X78644472Y-60731501D01*
X78555502Y-60864655D01*
X78442256Y-60977901D01*
X78309102Y-61066871D01*
X78161143Y-61128158D01*
X78004076Y-61159400D01*
X77843926Y-61159400D01*
X77686859Y-61128158D01*
X77538900Y-61066871D01*
X77405746Y-60977901D01*
X77292500Y-60864655D01*
X77203530Y-60731501D01*
X77142243Y-60583542D01*
X77111001Y-60426475D01*
X77111001Y-60266325D01*
X77142243Y-60109258D01*
X77203530Y-59961299D01*
X77292500Y-59828145D01*
X77405746Y-59714899D01*
X77538900Y-59625929D01*
X77686859Y-59564642D01*
X77843926Y-59533400D01*
X78004076Y-59533400D01*
X78161143Y-59564642D01*
G37*
G36*
X75621143Y-59564642D02*
G01*
X75769102Y-59625929D01*
X75902256Y-59714899D01*
X76015502Y-59828145D01*
X76104472Y-59961299D01*
X76165759Y-60109258D01*
X76197001Y-60266325D01*
X76197001Y-60426475D01*
X76165759Y-60583542D01*
X76104472Y-60731501D01*
X76015502Y-60864655D01*
X75902256Y-60977901D01*
X75769102Y-61066871D01*
X75621143Y-61128158D01*
X75464076Y-61159400D01*
X75303926Y-61159400D01*
X75146859Y-61128158D01*
X74998900Y-61066871D01*
X74865746Y-60977901D01*
X74752500Y-60864655D01*
X74663530Y-60731501D01*
X74602243Y-60583542D01*
X74571001Y-60426475D01*
X74571001Y-60266325D01*
X74602243Y-60109258D01*
X74663530Y-59961299D01*
X74752500Y-59828145D01*
X74865746Y-59714899D01*
X74998900Y-59625929D01*
X75146859Y-59564642D01*
X75303926Y-59533400D01*
X75464076Y-59533400D01*
X75621143Y-59564642D01*
G37*
G36*
X96203605Y-57899748D02*
G01*
X96240145Y-57910833D01*
X96273822Y-57928834D01*
X96303342Y-57953060D01*
X96327568Y-57982580D01*
X96345569Y-58016257D01*
X96356654Y-58052797D01*
X96361001Y-58096939D01*
X96361001Y-59545863D01*
X96356654Y-59590005D01*
X96345569Y-59626545D01*
X96327568Y-59660222D01*
X96303342Y-59689742D01*
X96273822Y-59713968D01*
X96240145Y-59731969D01*
X96203605Y-59743054D01*
X96159463Y-59747401D01*
X95210539Y-59747401D01*
X95166397Y-59743054D01*
X95129857Y-59731969D01*
X95096180Y-59713968D01*
X95066660Y-59689742D01*
X95042434Y-59660222D01*
X95024433Y-59626545D01*
X95013348Y-59590005D01*
X95009001Y-59545863D01*
X95009001Y-58096939D01*
X95013348Y-58052797D01*
X95024433Y-58016257D01*
X95042434Y-57982580D01*
X95066660Y-57953060D01*
X95096180Y-57928834D01*
X95129857Y-57910833D01*
X95166397Y-57899748D01*
X95210539Y-57895401D01*
X96159463Y-57895401D01*
X96203605Y-57899748D01*
G37*
G36*
X93403605Y-57899748D02*
G01*
X93440145Y-57910833D01*
X93473822Y-57928834D01*
X93503342Y-57953060D01*
X93527568Y-57982580D01*
X93545569Y-58016257D01*
X93556654Y-58052797D01*
X93561001Y-58096939D01*
X93561001Y-59545863D01*
X93556654Y-59590005D01*
X93545569Y-59626545D01*
X93527568Y-59660222D01*
X93503342Y-59689742D01*
X93473822Y-59713968D01*
X93440145Y-59731969D01*
X93403605Y-59743054D01*
X93359463Y-59747401D01*
X92410539Y-59747401D01*
X92366397Y-59743054D01*
X92329857Y-59731969D01*
X92296180Y-59713968D01*
X92266660Y-59689742D01*
X92242434Y-59660222D01*
X92224433Y-59626545D01*
X92213348Y-59590005D01*
X92209001Y-59545863D01*
X92209001Y-58096939D01*
X92213348Y-58052797D01*
X92224433Y-58016257D01*
X92242434Y-57982580D01*
X92266660Y-57953060D01*
X92296180Y-57928834D01*
X92329857Y-57910833D01*
X92366397Y-57899748D01*
X92410539Y-57895401D01*
X93359463Y-57895401D01*
X93403605Y-57899748D01*
G37*
G36*
X84983605Y-57369748D02*
G01*
X85020145Y-57380833D01*
X85053822Y-57398834D01*
X85083342Y-57423060D01*
X85107568Y-57452580D01*
X85125569Y-57486257D01*
X85136654Y-57522797D01*
X85141001Y-57566939D01*
X85141001Y-59015863D01*
X85136654Y-59060005D01*
X85125569Y-59096545D01*
X85107568Y-59130222D01*
X85083342Y-59159742D01*
X85053822Y-59183968D01*
X85020145Y-59201969D01*
X84983605Y-59213054D01*
X84939463Y-59217401D01*
X83990539Y-59217401D01*
X83946397Y-59213054D01*
X83909857Y-59201969D01*
X83876180Y-59183968D01*
X83846660Y-59159742D01*
X83822434Y-59130222D01*
X83804433Y-59096545D01*
X83793348Y-59060005D01*
X83789001Y-59015863D01*
X83789001Y-57566939D01*
X83793348Y-57522797D01*
X83804433Y-57486257D01*
X83822434Y-57452580D01*
X83846660Y-57423060D01*
X83876180Y-57398834D01*
X83909857Y-57380833D01*
X83946397Y-57369748D01*
X83990539Y-57365401D01*
X84939463Y-57365401D01*
X84983605Y-57369748D01*
G37*
G36*
X87793605Y-57369748D02*
G01*
X87830145Y-57380833D01*
X87863822Y-57398834D01*
X87893342Y-57423060D01*
X87917568Y-57452580D01*
X87935569Y-57486257D01*
X87946654Y-57522797D01*
X87951001Y-57566939D01*
X87951001Y-59015863D01*
X87946654Y-59060005D01*
X87935569Y-59096545D01*
X87917568Y-59130222D01*
X87893342Y-59159742D01*
X87863822Y-59183968D01*
X87830145Y-59201969D01*
X87793605Y-59213054D01*
X87749463Y-59217401D01*
X86800539Y-59217401D01*
X86756397Y-59213054D01*
X86719857Y-59201969D01*
X86686180Y-59183968D01*
X86656660Y-59159742D01*
X86632434Y-59130222D01*
X86614433Y-59096545D01*
X86603348Y-59060005D01*
X86599001Y-59015863D01*
X86599001Y-57566939D01*
X86603348Y-57522797D01*
X86614433Y-57486257D01*
X86632434Y-57452580D01*
X86656660Y-57423060D01*
X86686180Y-57398834D01*
X86719857Y-57380833D01*
X86756397Y-57369748D01*
X86800539Y-57365401D01*
X87749463Y-57365401D01*
X87793605Y-57369748D01*
G37*
G36*
X82183605Y-57369748D02*
G01*
X82220145Y-57380833D01*
X82253822Y-57398834D01*
X82283342Y-57423060D01*
X82307568Y-57452580D01*
X82325569Y-57486257D01*
X82336654Y-57522797D01*
X82341001Y-57566939D01*
X82341001Y-59015863D01*
X82336654Y-59060005D01*
X82325569Y-59096545D01*
X82307568Y-59130222D01*
X82283342Y-59159742D01*
X82253822Y-59183968D01*
X82220145Y-59201969D01*
X82183605Y-59213054D01*
X82139463Y-59217401D01*
X81190539Y-59217401D01*
X81146397Y-59213054D01*
X81109857Y-59201969D01*
X81076180Y-59183968D01*
X81046660Y-59159742D01*
X81022434Y-59130222D01*
X81004433Y-59096545D01*
X80993348Y-59060005D01*
X80989001Y-59015863D01*
X80989001Y-57566939D01*
X80993348Y-57522797D01*
X81004433Y-57486257D01*
X81022434Y-57452580D01*
X81046660Y-57423060D01*
X81076180Y-57398834D01*
X81109857Y-57380833D01*
X81146397Y-57369748D01*
X81190539Y-57365401D01*
X82139463Y-57365401D01*
X82183605Y-57369748D01*
G37*
G36*
X90593605Y-57369748D02*
G01*
X90630145Y-57380833D01*
X90663822Y-57398834D01*
X90693342Y-57423060D01*
X90717568Y-57452580D01*
X90735569Y-57486257D01*
X90746654Y-57522797D01*
X90751001Y-57566939D01*
X90751001Y-59015863D01*
X90746654Y-59060005D01*
X90735569Y-59096545D01*
X90717568Y-59130222D01*
X90693342Y-59159742D01*
X90663822Y-59183968D01*
X90630145Y-59201969D01*
X90593605Y-59213054D01*
X90549463Y-59217401D01*
X89600539Y-59217401D01*
X89556397Y-59213054D01*
X89519857Y-59201969D01*
X89486180Y-59183968D01*
X89456660Y-59159742D01*
X89432434Y-59130222D01*
X89414433Y-59096545D01*
X89403348Y-59060005D01*
X89399001Y-59015863D01*
X89399001Y-57566939D01*
X89403348Y-57522797D01*
X89414433Y-57486257D01*
X89432434Y-57452580D01*
X89456660Y-57423060D01*
X89486180Y-57398834D01*
X89519857Y-57380833D01*
X89556397Y-57369748D01*
X89600539Y-57365401D01*
X90549463Y-57365401D01*
X90593605Y-57369748D01*
G37*
G36*
X75621143Y-57024642D02*
G01*
X75769102Y-57085929D01*
X75902256Y-57174899D01*
X76015502Y-57288145D01*
X76104472Y-57421299D01*
X76165759Y-57569258D01*
X76197001Y-57726325D01*
X76197001Y-57886475D01*
X76165759Y-58043542D01*
X76104472Y-58191501D01*
X76015502Y-58324655D01*
X75902256Y-58437901D01*
X75769102Y-58526871D01*
X75621143Y-58588158D01*
X75464076Y-58619400D01*
X75303926Y-58619400D01*
X75146859Y-58588158D01*
X74998900Y-58526871D01*
X74865746Y-58437901D01*
X74752500Y-58324655D01*
X74663530Y-58191501D01*
X74602243Y-58043542D01*
X74571001Y-57886475D01*
X74571001Y-57726325D01*
X74602243Y-57569258D01*
X74663530Y-57421299D01*
X74752500Y-57288145D01*
X74865746Y-57174899D01*
X74998900Y-57085929D01*
X75146859Y-57024642D01*
X75303926Y-56993400D01*
X75464076Y-56993400D01*
X75621143Y-57024642D01*
G37*
G36*
X78161143Y-57024642D02*
G01*
X78309102Y-57085929D01*
X78442256Y-57174899D01*
X78555502Y-57288145D01*
X78644472Y-57421299D01*
X78705759Y-57569258D01*
X78737001Y-57726325D01*
X78737001Y-57886475D01*
X78705759Y-58043542D01*
X78644472Y-58191501D01*
X78555502Y-58324655D01*
X78442256Y-58437901D01*
X78309102Y-58526871D01*
X78161143Y-58588158D01*
X78004076Y-58619400D01*
X77843926Y-58619400D01*
X77686859Y-58588158D01*
X77538900Y-58526871D01*
X77405746Y-58437901D01*
X77292500Y-58324655D01*
X77203530Y-58191501D01*
X77142243Y-58043542D01*
X77111001Y-57886475D01*
X77111001Y-57726325D01*
X77142243Y-57569258D01*
X77203530Y-57421299D01*
X77292500Y-57288145D01*
X77405746Y-57174899D01*
X77538900Y-57085929D01*
X77686859Y-57024642D01*
X77843926Y-56993400D01*
X78004076Y-56993400D01*
X78161143Y-57024642D01*
G37*
G36*
X69906001Y-57782401D02*
G01*
X68904001Y-57782401D01*
X68904001Y-56880401D01*
X69906001Y-56880401D01*
X69906001Y-57782401D01*
G37*
G36*
X71906001Y-56832401D02*
G01*
X70904001Y-56832401D01*
X70904001Y-55930401D01*
X71906001Y-55930401D01*
X71906001Y-56832401D01*
G37*
G36*
X93403605Y-54609748D02*
G01*
X93440145Y-54620833D01*
X93473822Y-54638834D01*
X93503342Y-54663060D01*
X93527568Y-54692580D01*
X93545569Y-54726257D01*
X93556654Y-54762797D01*
X93561001Y-54806939D01*
X93561001Y-56255863D01*
X93556654Y-56300005D01*
X93545569Y-56336545D01*
X93527568Y-56370222D01*
X93503342Y-56399742D01*
X93473822Y-56423968D01*
X93440145Y-56441969D01*
X93403605Y-56453054D01*
X93359463Y-56457401D01*
X92410539Y-56457401D01*
X92366397Y-56453054D01*
X92329857Y-56441969D01*
X92296180Y-56423968D01*
X92266660Y-56399742D01*
X92242434Y-56370222D01*
X92224433Y-56336545D01*
X92213348Y-56300005D01*
X92209001Y-56255863D01*
X92209001Y-54806939D01*
X92213348Y-54762797D01*
X92224433Y-54726257D01*
X92242434Y-54692580D01*
X92266660Y-54663060D01*
X92296180Y-54638834D01*
X92329857Y-54620833D01*
X92366397Y-54609748D01*
X92410539Y-54605401D01*
X93359463Y-54605401D01*
X93403605Y-54609748D01*
G37*
G36*
X96203605Y-54609748D02*
G01*
X96240145Y-54620833D01*
X96273822Y-54638834D01*
X96303342Y-54663060D01*
X96327568Y-54692580D01*
X96345569Y-54726257D01*
X96356654Y-54762797D01*
X96361001Y-54806939D01*
X96361001Y-56255863D01*
X96356654Y-56300005D01*
X96345569Y-56336545D01*
X96327568Y-56370222D01*
X96303342Y-56399742D01*
X96273822Y-56423968D01*
X96240145Y-56441969D01*
X96203605Y-56453054D01*
X96159463Y-56457401D01*
X95210539Y-56457401D01*
X95166397Y-56453054D01*
X95129857Y-56441969D01*
X95096180Y-56423968D01*
X95066660Y-56399742D01*
X95042434Y-56370222D01*
X95024433Y-56336545D01*
X95013348Y-56300005D01*
X95009001Y-56255863D01*
X95009001Y-54806939D01*
X95013348Y-54762797D01*
X95024433Y-54726257D01*
X95042434Y-54692580D01*
X95066660Y-54663060D01*
X95096180Y-54638834D01*
X95129857Y-54620833D01*
X95166397Y-54609748D01*
X95210539Y-54605401D01*
X96159463Y-54605401D01*
X96203605Y-54609748D01*
G37*
G36*
X78161143Y-54484642D02*
G01*
X78309102Y-54545929D01*
X78442256Y-54634899D01*
X78555502Y-54748145D01*
X78644472Y-54881299D01*
X78705759Y-55029258D01*
X78737001Y-55186325D01*
X78737001Y-55346475D01*
X78705759Y-55503542D01*
X78644472Y-55651501D01*
X78555502Y-55784655D01*
X78442256Y-55897901D01*
X78309102Y-55986871D01*
X78161143Y-56048158D01*
X78004076Y-56079400D01*
X77843926Y-56079400D01*
X77686859Y-56048158D01*
X77538900Y-55986871D01*
X77405746Y-55897901D01*
X77292500Y-55784655D01*
X77203530Y-55651501D01*
X77142243Y-55503542D01*
X77111001Y-55346475D01*
X77111001Y-55186325D01*
X77142243Y-55029258D01*
X77203530Y-54881299D01*
X77292500Y-54748145D01*
X77405746Y-54634899D01*
X77538900Y-54545929D01*
X77686859Y-54484642D01*
X77843926Y-54453400D01*
X78004076Y-54453400D01*
X78161143Y-54484642D01*
G37*
G36*
X75621143Y-54484642D02*
G01*
X75769102Y-54545929D01*
X75902256Y-54634899D01*
X76015502Y-54748145D01*
X76104472Y-54881299D01*
X76165759Y-55029258D01*
X76197001Y-55186325D01*
X76197001Y-55346475D01*
X76165759Y-55503542D01*
X76104472Y-55651501D01*
X76015502Y-55784655D01*
X75902256Y-55897901D01*
X75769102Y-55986871D01*
X75621143Y-56048158D01*
X75464076Y-56079400D01*
X75303926Y-56079400D01*
X75146859Y-56048158D01*
X74998900Y-55986871D01*
X74865746Y-55897901D01*
X74752500Y-55784655D01*
X74663530Y-55651501D01*
X74602243Y-55503542D01*
X74571001Y-55346475D01*
X74571001Y-55186325D01*
X74602243Y-55029258D01*
X74663530Y-54881299D01*
X74752500Y-54748145D01*
X74865746Y-54634899D01*
X74998900Y-54545929D01*
X75146859Y-54484642D01*
X75303926Y-54453400D01*
X75464076Y-54453400D01*
X75621143Y-54484642D01*
G37*
G36*
X69906001Y-55882401D02*
G01*
X68904001Y-55882401D01*
X68904001Y-54980401D01*
X69906001Y-54980401D01*
X69906001Y-55882401D01*
G37*
G36*
X82395516Y-54616917D02*
G01*
X82388403Y-54640366D01*
X82386001Y-54664752D01*
X82386001Y-55622401D01*
X80984001Y-55622401D01*
X80984001Y-54620401D01*
X82333889Y-54620401D01*
X82358275Y-54617999D01*
X82381724Y-54610886D01*
X82403335Y-54599335D01*
X82406147Y-54597027D01*
X82395516Y-54616917D01*
G37*
G36*
X82441554Y-52681983D02*
G01*
X82463165Y-52693534D01*
X82486614Y-52700647D01*
X82511000Y-52703049D01*
X85628861Y-52703049D01*
X85645000Y-52704638D01*
X85654609Y-52707553D01*
X85663473Y-52712291D01*
X85671238Y-52718664D01*
X85677611Y-52726429D01*
X85682349Y-52735293D01*
X85685264Y-52744902D01*
X85686853Y-52761041D01*
X85686853Y-54481761D01*
X85685264Y-54497900D01*
X85682349Y-54507509D01*
X85677611Y-54516373D01*
X85671238Y-54524138D01*
X85663473Y-54530511D01*
X85654609Y-54535249D01*
X85645000Y-54538164D01*
X85628861Y-54539753D01*
X82511000Y-54539753D01*
X82486614Y-54542155D01*
X82463165Y-54549268D01*
X82441554Y-54560819D01*
X82438742Y-54563127D01*
X82449373Y-54543237D01*
X82456486Y-54519788D01*
X82458888Y-54495402D01*
X82458286Y-54483146D01*
X82458149Y-54481755D01*
X82458149Y-54248252D01*
X82455747Y-54223866D01*
X82448634Y-54200417D01*
X82437083Y-54178806D01*
X82421538Y-54159864D01*
X82402596Y-54144319D01*
X82380985Y-54132768D01*
X82357536Y-54125655D01*
X82333150Y-54123253D01*
X81041141Y-54123253D01*
X81025002Y-54121664D01*
X81015393Y-54118749D01*
X81006529Y-54114011D01*
X80998764Y-54107638D01*
X80992391Y-54099873D01*
X80987653Y-54091009D01*
X80984738Y-54081400D01*
X80983149Y-54065261D01*
X80983149Y-53177541D01*
X80984738Y-53161402D01*
X80987653Y-53151793D01*
X80992391Y-53142929D01*
X80998764Y-53135164D01*
X81006529Y-53128791D01*
X81015393Y-53124053D01*
X81025002Y-53121138D01*
X81041141Y-53119549D01*
X82333150Y-53119549D01*
X82357536Y-53117147D01*
X82380985Y-53110034D01*
X82402596Y-53098483D01*
X82421538Y-53082938D01*
X82437083Y-53063996D01*
X82448634Y-53042385D01*
X82455747Y-53018936D01*
X82458149Y-52994550D01*
X82458149Y-52761047D01*
X82458286Y-52759656D01*
X82458286Y-52735152D01*
X82453507Y-52711118D01*
X82444130Y-52688479D01*
X82437648Y-52678778D01*
X82441554Y-52681983D01*
G37*
G36*
X75621143Y-51944642D02*
G01*
X75769102Y-52005929D01*
X75902256Y-52094899D01*
X76015502Y-52208145D01*
X76104472Y-52341299D01*
X76165759Y-52489258D01*
X76197001Y-52646325D01*
X76197001Y-52806475D01*
X76165759Y-52963542D01*
X76104472Y-53111501D01*
X76015502Y-53244655D01*
X75902256Y-53357901D01*
X75769102Y-53446871D01*
X75621143Y-53508158D01*
X75464076Y-53539400D01*
X75303926Y-53539400D01*
X75146859Y-53508158D01*
X74998900Y-53446871D01*
X74865746Y-53357901D01*
X74752500Y-53244655D01*
X74663530Y-53111501D01*
X74602243Y-52963542D01*
X74571001Y-52806475D01*
X74571001Y-52646325D01*
X74602243Y-52489258D01*
X74663530Y-52341299D01*
X74752500Y-52208145D01*
X74865746Y-52094899D01*
X74998900Y-52005929D01*
X75146859Y-51944642D01*
X75303926Y-51913400D01*
X75464076Y-51913400D01*
X75621143Y-51944642D01*
G37*
G36*
X78161143Y-51944642D02*
G01*
X78309102Y-52005929D01*
X78442256Y-52094899D01*
X78555502Y-52208145D01*
X78644472Y-52341299D01*
X78705759Y-52489258D01*
X78737001Y-52646325D01*
X78737001Y-52806475D01*
X78705759Y-52963542D01*
X78644472Y-53111501D01*
X78555502Y-53244655D01*
X78442256Y-53357901D01*
X78309102Y-53446871D01*
X78161143Y-53508158D01*
X78004076Y-53539400D01*
X77843926Y-53539400D01*
X77686859Y-53508158D01*
X77538900Y-53446871D01*
X77405746Y-53357901D01*
X77292500Y-53244655D01*
X77203530Y-53111501D01*
X77142243Y-52963542D01*
X77111001Y-52806475D01*
X77111001Y-52646325D01*
X77142243Y-52489258D01*
X77203530Y-52341299D01*
X77292500Y-52208145D01*
X77405746Y-52094899D01*
X77538900Y-52005929D01*
X77686859Y-51944642D01*
X77843926Y-51913400D01*
X78004076Y-51913400D01*
X78161143Y-51944642D01*
G37*
G36*
X96743605Y-51319748D02*
G01*
X96780145Y-51330833D01*
X96813822Y-51348834D01*
X96843342Y-51373060D01*
X96867568Y-51402580D01*
X96885569Y-51436257D01*
X96896654Y-51472797D01*
X96901001Y-51516939D01*
X96901001Y-52965863D01*
X96896654Y-53010005D01*
X96885569Y-53046545D01*
X96867568Y-53080222D01*
X96843342Y-53109742D01*
X96813822Y-53133968D01*
X96780145Y-53151969D01*
X96743605Y-53163054D01*
X96699463Y-53167401D01*
X95750539Y-53167401D01*
X95706397Y-53163054D01*
X95669857Y-53151969D01*
X95636180Y-53133968D01*
X95606660Y-53109742D01*
X95582434Y-53080222D01*
X95564433Y-53046545D01*
X95553348Y-53010005D01*
X95549001Y-52965863D01*
X95549001Y-51516939D01*
X95553348Y-51472797D01*
X95564433Y-51436257D01*
X95582434Y-51402580D01*
X95606660Y-51373060D01*
X95636180Y-51348834D01*
X95669857Y-51330833D01*
X95706397Y-51319748D01*
X95750539Y-51315401D01*
X96699463Y-51315401D01*
X96743605Y-51319748D01*
G37*
G36*
X93943605Y-51319748D02*
G01*
X93980145Y-51330833D01*
X94013822Y-51348834D01*
X94043342Y-51373060D01*
X94067568Y-51402580D01*
X94085569Y-51436257D01*
X94096654Y-51472797D01*
X94101001Y-51516939D01*
X94101001Y-52965863D01*
X94096654Y-53010005D01*
X94085569Y-53046545D01*
X94067568Y-53080222D01*
X94043342Y-53109742D01*
X94013822Y-53133968D01*
X93980145Y-53151969D01*
X93943605Y-53163054D01*
X93899463Y-53167401D01*
X92950539Y-53167401D01*
X92906397Y-53163054D01*
X92869857Y-53151969D01*
X92836180Y-53133968D01*
X92806660Y-53109742D01*
X92782434Y-53080222D01*
X92764433Y-53046545D01*
X92753348Y-53010005D01*
X92749001Y-52965863D01*
X92749001Y-51516939D01*
X92753348Y-51472797D01*
X92764433Y-51436257D01*
X92782434Y-51402580D01*
X92806660Y-51373060D01*
X92836180Y-51348834D01*
X92869857Y-51330833D01*
X92906397Y-51319748D01*
X92950539Y-51315401D01*
X93899463Y-51315401D01*
X93943605Y-51319748D01*
G37*
G36*
X88333605Y-51319748D02*
G01*
X88370145Y-51330833D01*
X88403822Y-51348834D01*
X88433342Y-51373060D01*
X88457568Y-51402580D01*
X88475569Y-51436257D01*
X88486654Y-51472797D01*
X88491001Y-51516939D01*
X88491001Y-52965863D01*
X88486654Y-53010005D01*
X88475569Y-53046545D01*
X88457568Y-53080222D01*
X88433342Y-53109742D01*
X88403822Y-53133968D01*
X88370145Y-53151969D01*
X88333605Y-53163054D01*
X88289463Y-53167401D01*
X87340539Y-53167401D01*
X87296397Y-53163054D01*
X87259857Y-53151969D01*
X87226180Y-53133968D01*
X87196660Y-53109742D01*
X87172434Y-53080222D01*
X87154433Y-53046545D01*
X87143348Y-53010005D01*
X87139001Y-52965863D01*
X87139001Y-51516939D01*
X87143348Y-51472797D01*
X87154433Y-51436257D01*
X87172434Y-51402580D01*
X87196660Y-51373060D01*
X87226180Y-51348834D01*
X87259857Y-51330833D01*
X87296397Y-51319748D01*
X87340539Y-51315401D01*
X88289463Y-51315401D01*
X88333605Y-51319748D01*
G37*
G36*
X91133605Y-51319748D02*
G01*
X91170145Y-51330833D01*
X91203822Y-51348834D01*
X91233342Y-51373060D01*
X91257568Y-51402580D01*
X91275569Y-51436257D01*
X91286654Y-51472797D01*
X91291001Y-51516939D01*
X91291001Y-52965863D01*
X91286654Y-53010005D01*
X91275569Y-53046545D01*
X91257568Y-53080222D01*
X91233342Y-53109742D01*
X91203822Y-53133968D01*
X91170145Y-53151969D01*
X91133605Y-53163054D01*
X91089463Y-53167401D01*
X90140539Y-53167401D01*
X90096397Y-53163054D01*
X90059857Y-53151969D01*
X90026180Y-53133968D01*
X89996660Y-53109742D01*
X89972434Y-53080222D01*
X89954433Y-53046545D01*
X89943348Y-53010005D01*
X89939001Y-52965863D01*
X89939001Y-51516939D01*
X89943348Y-51472797D01*
X89954433Y-51436257D01*
X89972434Y-51402580D01*
X89996660Y-51373060D01*
X90026180Y-51348834D01*
X90059857Y-51330833D01*
X90096397Y-51319748D01*
X90140539Y-51315401D01*
X91089463Y-51315401D01*
X91133605Y-51319748D01*
G37*
G36*
X82386001Y-52578050D02*
G01*
X82388403Y-52602436D01*
X82395516Y-52625885D01*
X82406393Y-52646235D01*
X82392816Y-52637162D01*
X82370178Y-52627784D01*
X82346145Y-52623003D01*
X82333889Y-52622401D01*
X80984001Y-52622401D01*
X80984001Y-51620401D01*
X82386001Y-51620401D01*
X82386001Y-52578050D01*
G37*
G36*
X99553605Y-49949748D02*
G01*
X99590145Y-49960833D01*
X99623822Y-49978834D01*
X99653342Y-50003060D01*
X99677568Y-50032580D01*
X99695569Y-50066257D01*
X99706654Y-50102797D01*
X99711001Y-50146939D01*
X99711001Y-51595863D01*
X99706654Y-51640005D01*
X99695569Y-51676545D01*
X99677568Y-51710222D01*
X99653342Y-51739742D01*
X99623822Y-51763968D01*
X99590145Y-51781969D01*
X99553605Y-51793054D01*
X99509463Y-51797401D01*
X98560539Y-51797401D01*
X98516397Y-51793054D01*
X98479857Y-51781969D01*
X98446180Y-51763968D01*
X98416660Y-51739742D01*
X98392434Y-51710222D01*
X98374433Y-51676545D01*
X98363348Y-51640005D01*
X98359001Y-51595863D01*
X98359001Y-50146939D01*
X98363348Y-50102797D01*
X98374433Y-50066257D01*
X98392434Y-50032580D01*
X98416660Y-50003060D01*
X98446180Y-49978834D01*
X98479857Y-49960833D01*
X98516397Y-49949748D01*
X98560539Y-49945401D01*
X99509463Y-49945401D01*
X99553605Y-49949748D01*
G37*
G36*
X102353605Y-49949748D02*
G01*
X102390145Y-49960833D01*
X102423822Y-49978834D01*
X102453342Y-50003060D01*
X102477568Y-50032580D01*
X102495569Y-50066257D01*
X102506654Y-50102797D01*
X102511001Y-50146939D01*
X102511001Y-51595863D01*
X102506654Y-51640005D01*
X102495569Y-51676545D01*
X102477568Y-51710222D01*
X102453342Y-51739742D01*
X102423822Y-51763968D01*
X102390145Y-51781969D01*
X102353605Y-51793054D01*
X102309463Y-51797401D01*
X101360539Y-51797401D01*
X101316397Y-51793054D01*
X101279857Y-51781969D01*
X101246180Y-51763968D01*
X101216660Y-51739742D01*
X101192434Y-51710222D01*
X101174433Y-51676545D01*
X101163348Y-51640005D01*
X101159001Y-51595863D01*
X101159001Y-50146939D01*
X101163348Y-50102797D01*
X101174433Y-50066257D01*
X101192434Y-50032580D01*
X101216660Y-50003060D01*
X101246180Y-49978834D01*
X101279857Y-49960833D01*
X101316397Y-49949748D01*
X101360539Y-49945401D01*
X102309463Y-49945401D01*
X102353605Y-49949748D01*
G37*
G36*
X75621143Y-49404642D02*
G01*
X75769102Y-49465929D01*
X75902256Y-49554899D01*
X76015502Y-49668145D01*
X76104472Y-49801299D01*
X76165759Y-49949258D01*
X76197001Y-50106325D01*
X76197001Y-50266475D01*
X76165759Y-50423542D01*
X76104472Y-50571501D01*
X76015502Y-50704655D01*
X75902256Y-50817901D01*
X75769102Y-50906871D01*
X75621143Y-50968158D01*
X75464076Y-50999400D01*
X75303926Y-50999400D01*
X75146859Y-50968158D01*
X74998900Y-50906871D01*
X74865746Y-50817901D01*
X74752500Y-50704655D01*
X74663530Y-50571501D01*
X74602243Y-50423542D01*
X74571001Y-50266475D01*
X74571001Y-50106325D01*
X74602243Y-49949258D01*
X74663530Y-49801299D01*
X74752500Y-49668145D01*
X74865746Y-49554899D01*
X74998900Y-49465929D01*
X75146859Y-49404642D01*
X75303926Y-49373400D01*
X75464076Y-49373400D01*
X75621143Y-49404642D01*
G37*
G36*
X78161143Y-49404642D02*
G01*
X78309102Y-49465929D01*
X78442256Y-49554899D01*
X78555502Y-49668145D01*
X78644472Y-49801299D01*
X78705759Y-49949258D01*
X78737001Y-50106325D01*
X78737001Y-50266475D01*
X78705759Y-50423542D01*
X78644472Y-50571501D01*
X78555502Y-50704655D01*
X78442256Y-50817901D01*
X78309102Y-50906871D01*
X78161143Y-50968158D01*
X78004076Y-50999400D01*
X77843926Y-50999400D01*
X77686859Y-50968158D01*
X77538900Y-50906871D01*
X77405746Y-50817901D01*
X77292500Y-50704655D01*
X77203530Y-50571501D01*
X77142243Y-50423542D01*
X77111001Y-50266475D01*
X77111001Y-50106325D01*
X77142243Y-49949258D01*
X77203530Y-49801299D01*
X77292500Y-49668145D01*
X77405746Y-49554899D01*
X77538900Y-49465929D01*
X77686859Y-49404642D01*
X77843926Y-49373400D01*
X78004076Y-49373400D01*
X78161143Y-49404642D01*
G37*
G36*
X99133605Y-46659748D02*
G01*
X99170145Y-46670833D01*
X99203822Y-46688834D01*
X99233342Y-46713060D01*
X99257568Y-46742580D01*
X99275569Y-46776257D01*
X99286654Y-46812797D01*
X99291001Y-46856939D01*
X99291001Y-48305863D01*
X99286654Y-48350005D01*
X99275569Y-48386545D01*
X99257568Y-48420222D01*
X99233342Y-48449742D01*
X99203822Y-48473968D01*
X99170145Y-48491969D01*
X99133605Y-48503054D01*
X99089463Y-48507401D01*
X98140539Y-48507401D01*
X98096397Y-48503054D01*
X98059857Y-48491969D01*
X98026180Y-48473968D01*
X97996660Y-48449742D01*
X97972434Y-48420222D01*
X97954433Y-48386545D01*
X97943348Y-48350005D01*
X97939001Y-48305863D01*
X97939001Y-46856939D01*
X97943348Y-46812797D01*
X97954433Y-46776257D01*
X97972434Y-46742580D01*
X97996660Y-46713060D01*
X98026180Y-46688834D01*
X98059857Y-46670833D01*
X98096397Y-46659748D01*
X98140539Y-46655401D01*
X99089463Y-46655401D01*
X99133605Y-46659748D01*
G37*
G36*
X101933605Y-46659748D02*
G01*
X101970145Y-46670833D01*
X102003822Y-46688834D01*
X102033342Y-46713060D01*
X102057568Y-46742580D01*
X102075569Y-46776257D01*
X102086654Y-46812797D01*
X102091001Y-46856939D01*
X102091001Y-48305863D01*
X102086654Y-48350005D01*
X102075569Y-48386545D01*
X102057568Y-48420222D01*
X102033342Y-48449742D01*
X102003822Y-48473968D01*
X101970145Y-48491969D01*
X101933605Y-48503054D01*
X101889463Y-48507401D01*
X100940539Y-48507401D01*
X100896397Y-48503054D01*
X100859857Y-48491969D01*
X100826180Y-48473968D01*
X100796660Y-48449742D01*
X100772434Y-48420222D01*
X100754433Y-48386545D01*
X100743348Y-48350005D01*
X100739001Y-48305863D01*
X100739001Y-46856939D01*
X100743348Y-46812797D01*
X100754433Y-46776257D01*
X100772434Y-46742580D01*
X100796660Y-46713060D01*
X100826180Y-46688834D01*
X100859857Y-46670833D01*
X100896397Y-46659748D01*
X100940539Y-46655401D01*
X101889463Y-46655401D01*
X101933605Y-46659748D01*
G37*
G36*
X78161143Y-46864642D02*
G01*
X78309102Y-46925929D01*
X78442256Y-47014899D01*
X78555502Y-47128145D01*
X78644472Y-47261299D01*
X78705759Y-47409258D01*
X78737001Y-47566325D01*
X78737001Y-47726475D01*
X78705759Y-47883542D01*
X78644472Y-48031501D01*
X78555502Y-48164655D01*
X78442256Y-48277901D01*
X78309102Y-48366871D01*
X78161143Y-48428158D01*
X78004076Y-48459400D01*
X77843926Y-48459400D01*
X77686859Y-48428158D01*
X77538900Y-48366871D01*
X77405746Y-48277901D01*
X77292500Y-48164655D01*
X77203530Y-48031501D01*
X77142243Y-47883542D01*
X77111001Y-47726475D01*
X77111001Y-47566325D01*
X77142243Y-47409258D01*
X77203530Y-47261299D01*
X77292500Y-47128145D01*
X77405746Y-47014899D01*
X77538900Y-46925929D01*
X77686859Y-46864642D01*
X77843926Y-46833400D01*
X78004076Y-46833400D01*
X78161143Y-46864642D01*
G37*
G36*
X75621143Y-46864642D02*
G01*
X75769102Y-46925929D01*
X75902256Y-47014899D01*
X76015502Y-47128145D01*
X76104472Y-47261299D01*
X76165759Y-47409258D01*
X76197001Y-47566325D01*
X76197001Y-47726475D01*
X76165759Y-47883542D01*
X76104472Y-48031501D01*
X76015502Y-48164655D01*
X75902256Y-48277901D01*
X75769102Y-48366871D01*
X75621143Y-48428158D01*
X75464076Y-48459400D01*
X75303926Y-48459400D01*
X75146859Y-48428158D01*
X74998900Y-48366871D01*
X74865746Y-48277901D01*
X74752500Y-48164655D01*
X74663530Y-48031501D01*
X74602243Y-47883542D01*
X74571001Y-47726475D01*
X74571001Y-47566325D01*
X74602243Y-47409258D01*
X74663530Y-47261299D01*
X74752500Y-47128145D01*
X74865746Y-47014899D01*
X74998900Y-46925929D01*
X75146859Y-46864642D01*
X75303926Y-46833400D01*
X75464076Y-46833400D01*
X75621143Y-46864642D01*
G37*
G36*
X69121986Y-45878476D02*
G01*
X69220786Y-45919400D01*
X69349654Y-45972779D01*
X69554549Y-46109686D01*
X69728798Y-46283935D01*
X69728799Y-46283937D01*
X69865706Y-46488832D01*
X69960008Y-46716498D01*
X70008083Y-46958187D01*
X70008083Y-47204615D01*
X69967377Y-47409257D01*
X69960008Y-47446304D01*
X69865705Y-47673972D01*
X69728798Y-47878867D01*
X69554549Y-48053116D01*
X69349654Y-48190023D01*
X69349653Y-48190024D01*
X69349652Y-48190024D01*
X69121986Y-48284326D01*
X68880297Y-48332401D01*
X68633869Y-48332401D01*
X68392180Y-48284326D01*
X68164514Y-48190024D01*
X68164513Y-48190024D01*
X68164512Y-48190023D01*
X67959617Y-48053116D01*
X67785368Y-47878867D01*
X67648461Y-47673972D01*
X67554158Y-47446304D01*
X67546789Y-47409257D01*
X67506083Y-47204615D01*
X67506083Y-46958187D01*
X67554158Y-46716498D01*
X67648460Y-46488832D01*
X67785367Y-46283937D01*
X67785368Y-46283935D01*
X67959617Y-46109686D01*
X68164512Y-45972779D01*
X68293381Y-45919400D01*
X68392180Y-45878476D01*
X68633869Y-45830401D01*
X68880297Y-45830401D01*
X69121986Y-45878476D01*
G37*
G36*
X65008083Y-48332401D02*
G01*
X62506083Y-48332401D01*
X62506083Y-45830401D01*
X65008083Y-45830401D01*
X65008083Y-48332401D01*
G37*
G36*
X78161143Y-44324642D02*
G01*
X78309102Y-44385929D01*
X78442256Y-44474899D01*
X78555502Y-44588145D01*
X78644472Y-44721299D01*
X78705759Y-44869258D01*
X78737001Y-45026325D01*
X78737001Y-45186475D01*
X78705759Y-45343542D01*
X78644472Y-45491501D01*
X78555502Y-45624655D01*
X78442256Y-45737901D01*
X78309102Y-45826871D01*
X78161143Y-45888158D01*
X78004076Y-45919400D01*
X77843926Y-45919400D01*
X77686859Y-45888158D01*
X77538900Y-45826871D01*
X77405746Y-45737901D01*
X77292500Y-45624655D01*
X77203530Y-45491501D01*
X77142243Y-45343542D01*
X77111001Y-45186475D01*
X77111001Y-45026325D01*
X77142243Y-44869258D01*
X77203530Y-44721299D01*
X77292500Y-44588145D01*
X77405746Y-44474899D01*
X77538900Y-44385929D01*
X77686859Y-44324642D01*
X77843926Y-44293400D01*
X78004076Y-44293400D01*
X78161143Y-44324642D01*
G37*
G36*
X75621143Y-44324642D02*
G01*
X75769102Y-44385929D01*
X75902256Y-44474899D01*
X76015502Y-44588145D01*
X76104472Y-44721299D01*
X76165759Y-44869258D01*
X76197001Y-45026325D01*
X76197001Y-45186475D01*
X76165759Y-45343542D01*
X76104472Y-45491501D01*
X76015502Y-45624655D01*
X75902256Y-45737901D01*
X75769102Y-45826871D01*
X75621143Y-45888158D01*
X75464076Y-45919400D01*
X75303926Y-45919400D01*
X75146859Y-45888158D01*
X74998900Y-45826871D01*
X74865746Y-45737901D01*
X74752500Y-45624655D01*
X74663530Y-45491501D01*
X74602243Y-45343542D01*
X74571001Y-45186475D01*
X74571001Y-45026325D01*
X74602243Y-44869258D01*
X74663530Y-44721299D01*
X74752500Y-44588145D01*
X74865746Y-44474899D01*
X74998900Y-44385929D01*
X75146859Y-44324642D01*
X75303926Y-44293400D01*
X75464076Y-44293400D01*
X75621143Y-44324642D01*
G37*
G36*
X104743605Y-43939748D02*
G01*
X104780145Y-43950833D01*
X104813822Y-43968834D01*
X104843342Y-43993060D01*
X104867568Y-44022580D01*
X104885569Y-44056257D01*
X104896654Y-44092797D01*
X104901001Y-44136939D01*
X104901001Y-45585863D01*
X104896654Y-45630005D01*
X104885569Y-45666545D01*
X104867568Y-45700222D01*
X104843342Y-45729742D01*
X104813822Y-45753968D01*
X104780145Y-45771969D01*
X104743605Y-45783054D01*
X104699463Y-45787401D01*
X103750539Y-45787401D01*
X103706397Y-45783054D01*
X103669857Y-45771969D01*
X103636180Y-45753968D01*
X103606660Y-45729742D01*
X103582434Y-45700222D01*
X103564433Y-45666545D01*
X103553348Y-45630005D01*
X103549001Y-45585863D01*
X103549001Y-44136939D01*
X103553348Y-44092797D01*
X103564433Y-44056257D01*
X103582434Y-44022580D01*
X103606660Y-43993060D01*
X103636180Y-43968834D01*
X103669857Y-43950833D01*
X103706397Y-43939748D01*
X103750539Y-43935401D01*
X104699463Y-43935401D01*
X104743605Y-43939748D01*
G37*
G36*
X107543605Y-43939748D02*
G01*
X107580145Y-43950833D01*
X107613822Y-43968834D01*
X107643342Y-43993060D01*
X107667568Y-44022580D01*
X107685569Y-44056257D01*
X107696654Y-44092797D01*
X107701001Y-44136939D01*
X107701001Y-45585863D01*
X107696654Y-45630005D01*
X107685569Y-45666545D01*
X107667568Y-45700222D01*
X107643342Y-45729742D01*
X107613822Y-45753968D01*
X107580145Y-45771969D01*
X107543605Y-45783054D01*
X107499463Y-45787401D01*
X106550539Y-45787401D01*
X106506397Y-45783054D01*
X106469857Y-45771969D01*
X106436180Y-45753968D01*
X106406660Y-45729742D01*
X106382434Y-45700222D01*
X106364433Y-45666545D01*
X106353348Y-45630005D01*
X106349001Y-45585863D01*
X106349001Y-44136939D01*
X106353348Y-44092797D01*
X106364433Y-44056257D01*
X106382434Y-44022580D01*
X106406660Y-43993060D01*
X106436180Y-43968834D01*
X106469857Y-43950833D01*
X106506397Y-43939748D01*
X106550539Y-43935401D01*
X107499463Y-43935401D01*
X107543605Y-43939748D01*
G37*
G36*
X101933605Y-43369748D02*
G01*
X101970145Y-43380833D01*
X102003822Y-43398834D01*
X102033342Y-43423060D01*
X102057568Y-43452580D01*
X102075569Y-43486257D01*
X102086654Y-43522797D01*
X102091001Y-43566939D01*
X102091001Y-45015863D01*
X102086654Y-45060005D01*
X102075569Y-45096545D01*
X102057568Y-45130222D01*
X102033342Y-45159742D01*
X102003822Y-45183968D01*
X101970145Y-45201969D01*
X101933605Y-45213054D01*
X101889463Y-45217401D01*
X100940539Y-45217401D01*
X100896397Y-45213054D01*
X100859857Y-45201969D01*
X100826180Y-45183968D01*
X100796660Y-45159742D01*
X100772434Y-45130222D01*
X100754433Y-45096545D01*
X100743348Y-45060005D01*
X100739001Y-45015863D01*
X100739001Y-43566939D01*
X100743348Y-43522797D01*
X100754433Y-43486257D01*
X100772434Y-43452580D01*
X100796660Y-43423060D01*
X100826180Y-43398834D01*
X100859857Y-43380833D01*
X100896397Y-43369748D01*
X100940539Y-43365401D01*
X101889463Y-43365401D01*
X101933605Y-43369748D01*
G37*
G36*
X99133605Y-43369748D02*
G01*
X99170145Y-43380833D01*
X99203822Y-43398834D01*
X99233342Y-43423060D01*
X99257568Y-43452580D01*
X99275569Y-43486257D01*
X99286654Y-43522797D01*
X99291001Y-43566939D01*
X99291001Y-45015863D01*
X99286654Y-45060005D01*
X99275569Y-45096545D01*
X99257568Y-45130222D01*
X99233342Y-45159742D01*
X99203822Y-45183968D01*
X99170145Y-45201969D01*
X99133605Y-45213054D01*
X99089463Y-45217401D01*
X98140539Y-45217401D01*
X98096397Y-45213054D01*
X98059857Y-45201969D01*
X98026180Y-45183968D01*
X97996660Y-45159742D01*
X97972434Y-45130222D01*
X97954433Y-45096545D01*
X97943348Y-45060005D01*
X97939001Y-45015863D01*
X97939001Y-43566939D01*
X97943348Y-43522797D01*
X97954433Y-43486257D01*
X97972434Y-43452580D01*
X97996660Y-43423060D01*
X98026180Y-43398834D01*
X98059857Y-43380833D01*
X98096397Y-43369748D01*
X98140539Y-43365401D01*
X99089463Y-43365401D01*
X99133605Y-43369748D01*
G37*
G36*
X110353605Y-41679748D02*
G01*
X110390145Y-41690833D01*
X110423822Y-41708834D01*
X110453342Y-41733060D01*
X110477568Y-41762580D01*
X110495569Y-41796257D01*
X110506654Y-41832797D01*
X110511001Y-41876939D01*
X110511001Y-43325863D01*
X110506654Y-43370005D01*
X110495569Y-43406545D01*
X110477568Y-43440222D01*
X110453342Y-43469742D01*
X110423822Y-43493968D01*
X110390145Y-43511969D01*
X110353605Y-43523054D01*
X110309463Y-43527401D01*
X109360539Y-43527401D01*
X109316397Y-43523054D01*
X109279857Y-43511969D01*
X109246180Y-43493968D01*
X109216660Y-43469742D01*
X109192434Y-43440222D01*
X109174433Y-43406545D01*
X109163348Y-43370005D01*
X109159001Y-43325863D01*
X109159001Y-41876939D01*
X109163348Y-41832797D01*
X109174433Y-41796257D01*
X109192434Y-41762580D01*
X109216660Y-41733060D01*
X109246180Y-41708834D01*
X109279857Y-41690833D01*
X109316397Y-41679748D01*
X109360539Y-41675401D01*
X110309463Y-41675401D01*
X110353605Y-41679748D01*
G37*
G36*
X113153605Y-41679748D02*
G01*
X113190145Y-41690833D01*
X113223822Y-41708834D01*
X113253342Y-41733060D01*
X113277568Y-41762580D01*
X113295569Y-41796257D01*
X113306654Y-41832797D01*
X113311001Y-41876939D01*
X113311001Y-43325863D01*
X113306654Y-43370005D01*
X113295569Y-43406545D01*
X113277568Y-43440222D01*
X113253342Y-43469742D01*
X113223822Y-43493968D01*
X113190145Y-43511969D01*
X113153605Y-43523054D01*
X113109463Y-43527401D01*
X112160539Y-43527401D01*
X112116397Y-43523054D01*
X112079857Y-43511969D01*
X112046180Y-43493968D01*
X112016660Y-43469742D01*
X111992434Y-43440222D01*
X111974433Y-43406545D01*
X111963348Y-43370005D01*
X111959001Y-43325863D01*
X111959001Y-41876939D01*
X111963348Y-41832797D01*
X111974433Y-41796257D01*
X111992434Y-41762580D01*
X112016660Y-41733060D01*
X112046180Y-41708834D01*
X112079857Y-41690833D01*
X112116397Y-41679748D01*
X112160539Y-41675401D01*
X113109463Y-41675401D01*
X113153605Y-41679748D01*
G37*
G36*
X78161143Y-41784642D02*
G01*
X78309102Y-41845929D01*
X78442256Y-41934899D01*
X78555502Y-42048145D01*
X78644472Y-42181299D01*
X78705759Y-42329258D01*
X78737001Y-42486325D01*
X78737001Y-42646475D01*
X78705759Y-42803542D01*
X78644472Y-42951501D01*
X78555502Y-43084655D01*
X78442256Y-43197901D01*
X78309102Y-43286871D01*
X78161143Y-43348158D01*
X78004076Y-43379400D01*
X77843926Y-43379400D01*
X77686859Y-43348158D01*
X77538900Y-43286871D01*
X77405746Y-43197901D01*
X77292500Y-43084655D01*
X77203530Y-42951501D01*
X77142243Y-42803542D01*
X77111001Y-42646475D01*
X77111001Y-42486325D01*
X77142243Y-42329258D01*
X77203530Y-42181299D01*
X77292500Y-42048145D01*
X77405746Y-41934899D01*
X77538900Y-41845929D01*
X77686859Y-41784642D01*
X77843926Y-41753400D01*
X78004076Y-41753400D01*
X78161143Y-41784642D01*
G37*
G36*
X75621143Y-41784642D02*
G01*
X75769102Y-41845929D01*
X75902256Y-41934899D01*
X76015502Y-42048145D01*
X76104472Y-42181299D01*
X76165759Y-42329258D01*
X76197001Y-42486325D01*
X76197001Y-42646475D01*
X76165759Y-42803542D01*
X76104472Y-42951501D01*
X76015502Y-43084655D01*
X75902256Y-43197901D01*
X75769102Y-43286871D01*
X75621143Y-43348158D01*
X75464076Y-43379400D01*
X75303926Y-43379400D01*
X75146859Y-43348158D01*
X74998900Y-43286871D01*
X74865746Y-43197901D01*
X74752500Y-43084655D01*
X74663530Y-42951501D01*
X74602243Y-42803542D01*
X74571001Y-42646475D01*
X74571001Y-42486325D01*
X74602243Y-42329258D01*
X74663530Y-42181299D01*
X74752500Y-42048145D01*
X74865746Y-41934899D01*
X74998900Y-41845929D01*
X75146859Y-41784642D01*
X75303926Y-41753400D01*
X75464076Y-41753400D01*
X75621143Y-41784642D01*
G37*
G36*
X104743605Y-40649748D02*
G01*
X104780145Y-40660833D01*
X104813822Y-40678834D01*
X104843342Y-40703060D01*
X104867568Y-40732580D01*
X104885569Y-40766257D01*
X104896654Y-40802797D01*
X104901001Y-40846939D01*
X104901001Y-42295863D01*
X104896654Y-42340005D01*
X104885569Y-42376545D01*
X104867568Y-42410222D01*
X104843342Y-42439742D01*
X104813822Y-42463968D01*
X104780145Y-42481969D01*
X104743605Y-42493054D01*
X104699463Y-42497401D01*
X103750539Y-42497401D01*
X103706397Y-42493054D01*
X103669857Y-42481969D01*
X103636180Y-42463968D01*
X103606660Y-42439742D01*
X103582434Y-42410222D01*
X103564433Y-42376545D01*
X103553348Y-42340005D01*
X103549001Y-42295863D01*
X103549001Y-40846939D01*
X103553348Y-40802797D01*
X103564433Y-40766257D01*
X103582434Y-40732580D01*
X103606660Y-40703060D01*
X103636180Y-40678834D01*
X103669857Y-40660833D01*
X103706397Y-40649748D01*
X103750539Y-40645401D01*
X104699463Y-40645401D01*
X104743605Y-40649748D01*
G37*
G36*
X107543605Y-40649748D02*
G01*
X107580145Y-40660833D01*
X107613822Y-40678834D01*
X107643342Y-40703060D01*
X107667568Y-40732580D01*
X107685569Y-40766257D01*
X107696654Y-40802797D01*
X107701001Y-40846939D01*
X107701001Y-42295863D01*
X107696654Y-42340005D01*
X107685569Y-42376545D01*
X107667568Y-42410222D01*
X107643342Y-42439742D01*
X107613822Y-42463968D01*
X107580145Y-42481969D01*
X107543605Y-42493054D01*
X107499463Y-42497401D01*
X106550539Y-42497401D01*
X106506397Y-42493054D01*
X106469857Y-42481969D01*
X106436180Y-42463968D01*
X106406660Y-42439742D01*
X106382434Y-42410222D01*
X106364433Y-42376545D01*
X106353348Y-42340005D01*
X106349001Y-42295863D01*
X106349001Y-40846939D01*
X106353348Y-40802797D01*
X106364433Y-40766257D01*
X106382434Y-40732580D01*
X106406660Y-40703060D01*
X106436180Y-40678834D01*
X106469857Y-40660833D01*
X106506397Y-40649748D01*
X106550539Y-40645401D01*
X107499463Y-40645401D01*
X107543605Y-40649748D01*
G37*
G36*
X99648513Y-39455328D02*
G01*
X99797813Y-39485025D01*
X99961785Y-39552945D01*
X100109355Y-39651548D01*
X100234854Y-39777047D01*
X100333457Y-39924617D01*
X100401377Y-40088589D01*
X100436001Y-40262660D01*
X100436001Y-40440142D01*
X100401377Y-40614213D01*
X100333457Y-40778185D01*
X100234854Y-40925755D01*
X100109355Y-41051254D01*
X99961785Y-41149857D01*
X99797813Y-41217777D01*
X99648513Y-41247474D01*
X99623743Y-41252401D01*
X99446259Y-41252401D01*
X99421489Y-41247474D01*
X99272189Y-41217777D01*
X99108217Y-41149857D01*
X98960647Y-41051254D01*
X98835148Y-40925755D01*
X98736545Y-40778185D01*
X98668625Y-40614213D01*
X98634001Y-40440142D01*
X98634001Y-40262660D01*
X98668625Y-40088589D01*
X98736545Y-39924617D01*
X98835148Y-39777047D01*
X98960647Y-39651548D01*
X99108217Y-39552945D01*
X99272189Y-39485025D01*
X99421489Y-39455328D01*
X99446259Y-39450401D01*
X99623743Y-39450401D01*
X99648513Y-39455328D01*
G37*
G36*
X78161143Y-39244642D02*
G01*
X78309102Y-39305929D01*
X78442256Y-39394899D01*
X78555502Y-39508145D01*
X78644472Y-39641299D01*
X78705759Y-39789258D01*
X78737001Y-39946325D01*
X78737001Y-40106475D01*
X78705759Y-40263542D01*
X78644472Y-40411501D01*
X78555502Y-40544655D01*
X78442256Y-40657901D01*
X78309102Y-40746871D01*
X78161143Y-40808158D01*
X78004076Y-40839400D01*
X77843926Y-40839400D01*
X77686859Y-40808158D01*
X77538900Y-40746871D01*
X77405746Y-40657901D01*
X77292500Y-40544655D01*
X77203530Y-40411501D01*
X77142243Y-40263542D01*
X77111001Y-40106475D01*
X77111001Y-39946325D01*
X77142243Y-39789258D01*
X77203530Y-39641299D01*
X77292500Y-39508145D01*
X77405746Y-39394899D01*
X77538900Y-39305929D01*
X77686859Y-39244642D01*
X77843926Y-39213400D01*
X78004076Y-39213400D01*
X78161143Y-39244642D01*
G37*
G36*
X75621143Y-39244642D02*
G01*
X75769102Y-39305929D01*
X75902256Y-39394899D01*
X76015502Y-39508145D01*
X76104472Y-39641299D01*
X76165759Y-39789258D01*
X76197001Y-39946325D01*
X76197001Y-40106475D01*
X76165759Y-40263542D01*
X76104472Y-40411501D01*
X76015502Y-40544655D01*
X75902256Y-40657901D01*
X75769102Y-40746871D01*
X75621143Y-40808158D01*
X75464076Y-40839400D01*
X75303926Y-40839400D01*
X75146859Y-40808158D01*
X74998900Y-40746871D01*
X74865746Y-40657901D01*
X74752500Y-40544655D01*
X74663530Y-40411501D01*
X74602243Y-40263542D01*
X74571001Y-40106475D01*
X74571001Y-39946325D01*
X74602243Y-39789258D01*
X74663530Y-39641299D01*
X74752500Y-39508145D01*
X74865746Y-39394899D01*
X74998900Y-39305929D01*
X75146859Y-39244642D01*
X75303926Y-39213400D01*
X75464076Y-39213400D01*
X75621143Y-39244642D01*
G37*
G36*
X110353605Y-38389748D02*
G01*
X110390145Y-38400833D01*
X110423822Y-38418834D01*
X110453342Y-38443060D01*
X110477568Y-38472580D01*
X110495569Y-38506257D01*
X110506654Y-38542797D01*
X110511001Y-38586939D01*
X110511001Y-40035863D01*
X110506654Y-40080005D01*
X110495569Y-40116545D01*
X110477568Y-40150222D01*
X110453342Y-40179742D01*
X110423822Y-40203968D01*
X110390145Y-40221969D01*
X110353605Y-40233054D01*
X110309463Y-40237401D01*
X109360539Y-40237401D01*
X109316397Y-40233054D01*
X109279857Y-40221969D01*
X109246180Y-40203968D01*
X109216660Y-40179742D01*
X109192434Y-40150222D01*
X109174433Y-40116545D01*
X109163348Y-40080005D01*
X109159001Y-40035863D01*
X109159001Y-38586939D01*
X109163348Y-38542797D01*
X109174433Y-38506257D01*
X109192434Y-38472580D01*
X109216660Y-38443060D01*
X109246180Y-38418834D01*
X109279857Y-38400833D01*
X109316397Y-38389748D01*
X109360539Y-38385401D01*
X110309463Y-38385401D01*
X110353605Y-38389748D01*
G37*
G36*
X113153605Y-38389748D02*
G01*
X113190145Y-38400833D01*
X113223822Y-38418834D01*
X113253342Y-38443060D01*
X113277568Y-38472580D01*
X113295569Y-38506257D01*
X113306654Y-38542797D01*
X113311001Y-38586939D01*
X113311001Y-40035863D01*
X113306654Y-40080005D01*
X113295569Y-40116545D01*
X113277568Y-40150222D01*
X113253342Y-40179742D01*
X113223822Y-40203968D01*
X113190145Y-40221969D01*
X113153605Y-40233054D01*
X113109463Y-40237401D01*
X112160539Y-40237401D01*
X112116397Y-40233054D01*
X112079857Y-40221969D01*
X112046180Y-40203968D01*
X112016660Y-40179742D01*
X111992434Y-40150222D01*
X111974433Y-40116545D01*
X111963348Y-40080005D01*
X111959001Y-40035863D01*
X111959001Y-38586939D01*
X111963348Y-38542797D01*
X111974433Y-38506257D01*
X111992434Y-38472580D01*
X112016660Y-38443060D01*
X112046180Y-38418834D01*
X112079857Y-38400833D01*
X112116397Y-38389748D01*
X112160539Y-38385401D01*
X113109463Y-38385401D01*
X113153605Y-38389748D01*
G37*
G36*
X103783605Y-37359748D02*
G01*
X103820145Y-37370833D01*
X103853822Y-37388834D01*
X103883342Y-37413060D01*
X103907568Y-37442580D01*
X103925569Y-37476257D01*
X103936654Y-37512797D01*
X103941001Y-37556939D01*
X103941001Y-39005863D01*
X103936654Y-39050005D01*
X103925569Y-39086545D01*
X103907568Y-39120222D01*
X103883342Y-39149742D01*
X103853822Y-39173968D01*
X103820145Y-39191969D01*
X103783605Y-39203054D01*
X103739463Y-39207401D01*
X102790539Y-39207401D01*
X102746397Y-39203054D01*
X102709857Y-39191969D01*
X102676180Y-39173968D01*
X102646660Y-39149742D01*
X102622434Y-39120222D01*
X102604433Y-39086545D01*
X102593348Y-39050005D01*
X102589001Y-39005863D01*
X102589001Y-37556939D01*
X102593348Y-37512797D01*
X102604433Y-37476257D01*
X102622434Y-37442580D01*
X102646660Y-37413060D01*
X102676180Y-37388834D01*
X102709857Y-37370833D01*
X102746397Y-37359748D01*
X102790539Y-37355401D01*
X103739463Y-37355401D01*
X103783605Y-37359748D01*
G37*
G36*
X106583605Y-37359748D02*
G01*
X106620145Y-37370833D01*
X106653822Y-37388834D01*
X106683342Y-37413060D01*
X106707568Y-37442580D01*
X106725569Y-37476257D01*
X106736654Y-37512797D01*
X106741001Y-37556939D01*
X106741001Y-39005863D01*
X106736654Y-39050005D01*
X106725569Y-39086545D01*
X106707568Y-39120222D01*
X106683342Y-39149742D01*
X106653822Y-39173968D01*
X106620145Y-39191969D01*
X106583605Y-39203054D01*
X106539463Y-39207401D01*
X105590539Y-39207401D01*
X105546397Y-39203054D01*
X105509857Y-39191969D01*
X105476180Y-39173968D01*
X105446660Y-39149742D01*
X105422434Y-39120222D01*
X105404433Y-39086545D01*
X105393348Y-39050005D01*
X105389001Y-39005863D01*
X105389001Y-37556939D01*
X105393348Y-37512797D01*
X105404433Y-37476257D01*
X105422434Y-37442580D01*
X105446660Y-37413060D01*
X105476180Y-37388834D01*
X105509857Y-37370833D01*
X105546397Y-37359748D01*
X105590539Y-37355401D01*
X106539463Y-37355401D01*
X106583605Y-37359748D01*
G37*
G36*
X99641675Y-36913968D02*
G01*
X99797813Y-36945025D01*
X99961785Y-37012945D01*
X100109355Y-37111548D01*
X100234854Y-37237047D01*
X100333457Y-37384617D01*
X100401377Y-37548589D01*
X100436001Y-37722660D01*
X100436001Y-37900142D01*
X100401377Y-38074213D01*
X100333457Y-38238185D01*
X100234854Y-38385755D01*
X100109355Y-38511254D01*
X99961785Y-38609857D01*
X99797813Y-38677777D01*
X99648513Y-38707474D01*
X99623743Y-38712401D01*
X99446259Y-38712401D01*
X99421489Y-38707474D01*
X99272189Y-38677777D01*
X99108217Y-38609857D01*
X98960647Y-38511254D01*
X98835148Y-38385755D01*
X98736545Y-38238185D01*
X98668625Y-38074213D01*
X98634001Y-37900142D01*
X98634001Y-37722660D01*
X98668625Y-37548589D01*
X98736545Y-37384617D01*
X98835148Y-37237047D01*
X98960647Y-37111548D01*
X99108217Y-37012945D01*
X99272189Y-36945025D01*
X99428327Y-36913968D01*
X99446259Y-36910401D01*
X99623743Y-36910401D01*
X99641675Y-36913968D01*
G37*
G36*
X75621143Y-36704642D02*
G01*
X75769102Y-36765929D01*
X75902256Y-36854899D01*
X76015502Y-36968145D01*
X76104472Y-37101299D01*
X76165759Y-37249258D01*
X76197001Y-37406325D01*
X76197001Y-37566475D01*
X76165759Y-37723542D01*
X76104472Y-37871501D01*
X76015502Y-38004655D01*
X75902256Y-38117901D01*
X75769102Y-38206871D01*
X75621143Y-38268158D01*
X75464076Y-38299400D01*
X75303926Y-38299400D01*
X75146859Y-38268158D01*
X74998900Y-38206871D01*
X74865746Y-38117901D01*
X74752500Y-38004655D01*
X74663530Y-37871501D01*
X74602243Y-37723542D01*
X74571001Y-37566475D01*
X74571001Y-37406325D01*
X74602243Y-37249258D01*
X74663530Y-37101299D01*
X74752500Y-36968145D01*
X74865746Y-36854899D01*
X74998900Y-36765929D01*
X75146859Y-36704642D01*
X75303926Y-36673400D01*
X75464076Y-36673400D01*
X75621143Y-36704642D01*
G37*
G36*
X78161143Y-36704642D02*
G01*
X78309102Y-36765929D01*
X78442256Y-36854899D01*
X78555502Y-36968145D01*
X78644472Y-37101299D01*
X78705759Y-37249258D01*
X78737001Y-37406325D01*
X78737001Y-37566475D01*
X78705759Y-37723542D01*
X78644472Y-37871501D01*
X78555502Y-38004655D01*
X78442256Y-38117901D01*
X78309102Y-38206871D01*
X78161143Y-38268158D01*
X78004076Y-38299400D01*
X77843926Y-38299400D01*
X77686859Y-38268158D01*
X77538900Y-38206871D01*
X77405746Y-38117901D01*
X77292500Y-38004655D01*
X77203530Y-37871501D01*
X77142243Y-37723542D01*
X77111001Y-37566475D01*
X77111001Y-37406325D01*
X77142243Y-37249258D01*
X77203530Y-37101299D01*
X77292500Y-36968145D01*
X77405746Y-36854899D01*
X77538900Y-36765929D01*
X77686859Y-36704642D01*
X77843926Y-36673400D01*
X78004076Y-36673400D01*
X78161143Y-36704642D01*
G37*
G36*
X109393605Y-35099748D02*
G01*
X109430145Y-35110833D01*
X109463822Y-35128834D01*
X109493342Y-35153060D01*
X109517568Y-35182580D01*
X109535569Y-35216257D01*
X109546654Y-35252797D01*
X109551001Y-35296939D01*
X109551001Y-36745863D01*
X109546654Y-36790005D01*
X109535569Y-36826545D01*
X109517568Y-36860222D01*
X109493342Y-36889742D01*
X109463822Y-36913968D01*
X109430145Y-36931969D01*
X109393605Y-36943054D01*
X109349463Y-36947401D01*
X108400539Y-36947401D01*
X108356397Y-36943054D01*
X108319857Y-36931969D01*
X108286180Y-36913968D01*
X108256660Y-36889742D01*
X108232434Y-36860222D01*
X108214433Y-36826545D01*
X108203348Y-36790005D01*
X108199001Y-36745863D01*
X108199001Y-35296939D01*
X108203348Y-35252797D01*
X108214433Y-35216257D01*
X108232434Y-35182580D01*
X108256660Y-35153060D01*
X108286180Y-35128834D01*
X108319857Y-35110833D01*
X108356397Y-35099748D01*
X108400539Y-35095401D01*
X109349463Y-35095401D01*
X109393605Y-35099748D01*
G37*
G36*
X112193605Y-35099748D02*
G01*
X112230145Y-35110833D01*
X112263822Y-35128834D01*
X112293342Y-35153060D01*
X112317568Y-35182580D01*
X112335569Y-35216257D01*
X112346654Y-35252797D01*
X112351001Y-35296939D01*
X112351001Y-36745863D01*
X112346654Y-36790005D01*
X112335569Y-36826545D01*
X112317568Y-36860222D01*
X112293342Y-36889742D01*
X112263822Y-36913968D01*
X112230145Y-36931969D01*
X112193605Y-36943054D01*
X112149463Y-36947401D01*
X111200539Y-36947401D01*
X111156397Y-36943054D01*
X111119857Y-36931969D01*
X111086180Y-36913968D01*
X111056660Y-36889742D01*
X111032434Y-36860222D01*
X111014433Y-36826545D01*
X111003348Y-36790005D01*
X110999001Y-36745863D01*
X110999001Y-35296939D01*
X111003348Y-35252797D01*
X111014433Y-35216257D01*
X111032434Y-35182580D01*
X111056660Y-35153060D01*
X111086180Y-35128834D01*
X111119857Y-35110833D01*
X111156397Y-35099748D01*
X111200539Y-35095401D01*
X112149463Y-35095401D01*
X112193605Y-35099748D01*
G37*
G36*
X100436001Y-36172401D02*
G01*
X98634001Y-36172401D01*
X98634001Y-34370401D01*
X100436001Y-34370401D01*
X100436001Y-36172401D01*
G37*
G36*
X25969904Y-33578476D02*
G01*
X26160447Y-33657401D01*
X26197572Y-33672779D01*
X26402467Y-33809686D01*
X26576716Y-33983935D01*
X26713623Y-34188830D01*
X26713624Y-34188832D01*
X26807926Y-34416498D01*
X26856001Y-34658187D01*
X26856001Y-34904615D01*
X26807926Y-35146304D01*
X26731216Y-35331500D01*
X26713623Y-35373972D01*
X26576716Y-35578867D01*
X26402467Y-35753116D01*
X26197572Y-35890023D01*
X26197571Y-35890024D01*
X26197570Y-35890024D01*
X25969904Y-35984326D01*
X25728215Y-36032401D01*
X25481787Y-36032401D01*
X25240098Y-35984326D01*
X25012432Y-35890024D01*
X25012431Y-35890024D01*
X25012430Y-35890023D01*
X24807535Y-35753116D01*
X24633286Y-35578867D01*
X24496379Y-35373972D01*
X24478787Y-35331500D01*
X24402076Y-35146304D01*
X24354001Y-34904615D01*
X24354001Y-34658187D01*
X24402076Y-34416498D01*
X24496378Y-34188832D01*
X24496379Y-34188830D01*
X24633286Y-33983935D01*
X24807535Y-33809686D01*
X25012430Y-33672779D01*
X25049556Y-33657401D01*
X25240098Y-33578476D01*
X25481787Y-33530401D01*
X25728215Y-33530401D01*
X25969904Y-33578476D01*
G37*
G36*
X71689904Y-33578476D02*
G01*
X71880447Y-33657401D01*
X71917572Y-33672779D01*
X72122467Y-33809686D01*
X72296716Y-33983935D01*
X72433623Y-34188830D01*
X72433624Y-34188832D01*
X72527926Y-34416498D01*
X72576001Y-34658187D01*
X72576001Y-34904615D01*
X72527926Y-35146304D01*
X72451216Y-35331500D01*
X72433623Y-35373972D01*
X72296716Y-35578867D01*
X72122467Y-35753116D01*
X71917572Y-35890023D01*
X71917571Y-35890024D01*
X71917570Y-35890024D01*
X71689904Y-35984326D01*
X71448215Y-36032401D01*
X71201787Y-36032401D01*
X70960098Y-35984326D01*
X70732432Y-35890024D01*
X70732431Y-35890024D01*
X70732430Y-35890023D01*
X70527535Y-35753116D01*
X70353286Y-35578867D01*
X70216379Y-35373972D01*
X70198787Y-35331500D01*
X70122076Y-35146304D01*
X70074001Y-34904615D01*
X70074001Y-34658187D01*
X70122076Y-34416498D01*
X70216378Y-34188832D01*
X70216379Y-34188830D01*
X70353286Y-33983935D01*
X70527535Y-33809686D01*
X70732430Y-33672779D01*
X70769556Y-33657401D01*
X70960098Y-33578476D01*
X71201787Y-33530401D01*
X71448215Y-33530401D01*
X71689904Y-33578476D01*
G37*
G36*
X103783605Y-34069748D02*
G01*
X103820145Y-34080833D01*
X103853822Y-34098834D01*
X103883342Y-34123060D01*
X103907568Y-34152580D01*
X103925569Y-34186257D01*
X103936654Y-34222797D01*
X103941001Y-34266939D01*
X103941001Y-35715863D01*
X103936654Y-35760005D01*
X103925569Y-35796545D01*
X103907568Y-35830222D01*
X103883342Y-35859742D01*
X103853822Y-35883968D01*
X103820145Y-35901969D01*
X103783605Y-35913054D01*
X103739463Y-35917401D01*
X102790539Y-35917401D01*
X102746397Y-35913054D01*
X102709857Y-35901969D01*
X102676180Y-35883968D01*
X102646660Y-35859742D01*
X102622434Y-35830222D01*
X102604433Y-35796545D01*
X102593348Y-35760005D01*
X102589001Y-35715863D01*
X102589001Y-34266939D01*
X102593348Y-34222797D01*
X102604433Y-34186257D01*
X102622434Y-34152580D01*
X102646660Y-34123060D01*
X102676180Y-34098834D01*
X102709857Y-34080833D01*
X102746397Y-34069748D01*
X102790539Y-34065401D01*
X103739463Y-34065401D01*
X103783605Y-34069748D01*
G37*
G36*
X106583605Y-34069748D02*
G01*
X106620145Y-34080833D01*
X106653822Y-34098834D01*
X106683342Y-34123060D01*
X106707568Y-34152580D01*
X106725569Y-34186257D01*
X106736654Y-34222797D01*
X106741001Y-34266939D01*
X106741001Y-35715863D01*
X106736654Y-35760005D01*
X106725569Y-35796545D01*
X106707568Y-35830222D01*
X106683342Y-35859742D01*
X106653822Y-35883968D01*
X106620145Y-35901969D01*
X106583605Y-35913054D01*
X106539463Y-35917401D01*
X105590539Y-35917401D01*
X105546397Y-35913054D01*
X105509857Y-35901969D01*
X105476180Y-35883968D01*
X105446660Y-35859742D01*
X105422434Y-35830222D01*
X105404433Y-35796545D01*
X105393348Y-35760005D01*
X105389001Y-35715863D01*
X105389001Y-34266939D01*
X105393348Y-34222797D01*
X105404433Y-34186257D01*
X105422434Y-34152580D01*
X105446660Y-34123060D01*
X105476180Y-34098834D01*
X105509857Y-34080833D01*
X105546397Y-34069748D01*
X105590539Y-34065401D01*
X106539463Y-34065401D01*
X106583605Y-34069748D01*
G37*
G36*
X75621143Y-34164642D02*
G01*
X75769102Y-34225929D01*
X75902256Y-34314899D01*
X76015502Y-34428145D01*
X76104472Y-34561299D01*
X76165759Y-34709258D01*
X76197001Y-34866325D01*
X76197001Y-35026475D01*
X76165759Y-35183542D01*
X76104472Y-35331501D01*
X76015502Y-35464655D01*
X75902256Y-35577901D01*
X75769102Y-35666871D01*
X75621143Y-35728158D01*
X75464076Y-35759400D01*
X75303926Y-35759400D01*
X75146859Y-35728158D01*
X74998900Y-35666871D01*
X74865746Y-35577901D01*
X74752500Y-35464655D01*
X74663530Y-35331501D01*
X74602243Y-35183542D01*
X74571001Y-35026475D01*
X74571001Y-34866325D01*
X74602243Y-34709258D01*
X74663530Y-34561299D01*
X74752500Y-34428145D01*
X74865746Y-34314899D01*
X74998900Y-34225929D01*
X75146859Y-34164642D01*
X75303926Y-34133400D01*
X75464076Y-34133400D01*
X75621143Y-34164642D01*
G37*
G36*
X78161143Y-34164642D02*
G01*
X78309102Y-34225929D01*
X78442256Y-34314899D01*
X78555502Y-34428145D01*
X78644472Y-34561299D01*
X78705759Y-34709258D01*
X78737001Y-34866325D01*
X78737001Y-35026475D01*
X78705759Y-35183542D01*
X78644472Y-35331501D01*
X78555502Y-35464655D01*
X78442256Y-35577901D01*
X78309102Y-35666871D01*
X78161143Y-35728158D01*
X78004076Y-35759400D01*
X77843926Y-35759400D01*
X77686859Y-35728158D01*
X77538900Y-35666871D01*
X77405746Y-35577901D01*
X77292500Y-35464655D01*
X77203530Y-35331501D01*
X77142243Y-35183542D01*
X77111001Y-35026475D01*
X77111001Y-34866325D01*
X77142243Y-34709258D01*
X77203530Y-34561299D01*
X77292500Y-34428145D01*
X77405746Y-34314899D01*
X77538900Y-34225929D01*
X77686859Y-34164642D01*
X77843926Y-34133400D01*
X78004076Y-34133400D01*
X78161143Y-34164642D01*
G37*
G36*
X115436001Y-34762401D02*
G01*
X114434001Y-34762401D01*
X114434001Y-33860401D01*
X115436001Y-33860401D01*
X115436001Y-34762401D01*
G37*
G36*
X117436001Y-33812401D02*
G01*
X116434001Y-33812401D01*
X116434001Y-32910401D01*
X117436001Y-32910401D01*
X117436001Y-33812401D01*
G37*
G36*
X110023605Y-31809748D02*
G01*
X110060145Y-31820833D01*
X110093822Y-31838834D01*
X110123342Y-31863060D01*
X110147568Y-31892580D01*
X110165569Y-31926257D01*
X110176654Y-31962797D01*
X110181001Y-32006939D01*
X110181001Y-33455863D01*
X110176654Y-33500005D01*
X110165569Y-33536545D01*
X110147568Y-33570222D01*
X110123342Y-33599742D01*
X110093822Y-33623968D01*
X110060145Y-33641969D01*
X110023605Y-33653054D01*
X109979463Y-33657401D01*
X109030539Y-33657401D01*
X108986397Y-33653054D01*
X108949857Y-33641969D01*
X108916180Y-33623968D01*
X108886660Y-33599742D01*
X108862434Y-33570222D01*
X108844433Y-33536545D01*
X108833348Y-33500005D01*
X108829001Y-33455863D01*
X108829001Y-32006939D01*
X108833348Y-31962797D01*
X108844433Y-31926257D01*
X108862434Y-31892580D01*
X108886660Y-31863060D01*
X108916180Y-31838834D01*
X108949857Y-31820833D01*
X108986397Y-31809748D01*
X109030539Y-31805401D01*
X109979463Y-31805401D01*
X110023605Y-31809748D01*
G37*
G36*
X112823605Y-31809748D02*
G01*
X112860145Y-31820833D01*
X112893822Y-31838834D01*
X112923342Y-31863060D01*
X112947568Y-31892580D01*
X112965569Y-31926257D01*
X112976654Y-31962797D01*
X112981001Y-32006939D01*
X112981001Y-33455863D01*
X112976654Y-33500005D01*
X112965569Y-33536545D01*
X112947568Y-33570222D01*
X112923342Y-33599742D01*
X112893822Y-33623968D01*
X112860145Y-33641969D01*
X112823605Y-33653054D01*
X112779463Y-33657401D01*
X111830539Y-33657401D01*
X111786397Y-33653054D01*
X111749857Y-33641969D01*
X111716180Y-33623968D01*
X111686660Y-33599742D01*
X111662434Y-33570222D01*
X111644433Y-33536545D01*
X111633348Y-33500005D01*
X111629001Y-33455863D01*
X111629001Y-32006939D01*
X111633348Y-31962797D01*
X111644433Y-31926257D01*
X111662434Y-31892580D01*
X111686660Y-31863060D01*
X111716180Y-31838834D01*
X111749857Y-31820833D01*
X111786397Y-31809748D01*
X111830539Y-31805401D01*
X112779463Y-31805401D01*
X112823605Y-31809748D01*
G37*
G36*
X78161143Y-31624642D02*
G01*
X78309102Y-31685929D01*
X78442256Y-31774899D01*
X78555502Y-31888145D01*
X78644472Y-32021299D01*
X78705759Y-32169258D01*
X78737001Y-32326325D01*
X78737001Y-32486475D01*
X78705759Y-32643542D01*
X78644472Y-32791501D01*
X78555502Y-32924655D01*
X78442256Y-33037901D01*
X78309102Y-33126871D01*
X78161143Y-33188158D01*
X78004076Y-33219400D01*
X77843926Y-33219400D01*
X77686859Y-33188158D01*
X77538900Y-33126871D01*
X77405746Y-33037901D01*
X77292500Y-32924655D01*
X77203530Y-32791501D01*
X77142243Y-32643542D01*
X77111001Y-32486475D01*
X77111001Y-32326325D01*
X77142243Y-32169258D01*
X77203530Y-32021299D01*
X77292500Y-31888145D01*
X77405746Y-31774899D01*
X77538900Y-31685929D01*
X77686859Y-31624642D01*
X77843926Y-31593400D01*
X78004076Y-31593400D01*
X78161143Y-31624642D01*
G37*
G36*
X75621143Y-31624642D02*
G01*
X75769102Y-31685929D01*
X75902256Y-31774899D01*
X76015502Y-31888145D01*
X76104472Y-32021299D01*
X76165759Y-32169258D01*
X76197001Y-32326325D01*
X76197001Y-32486475D01*
X76165759Y-32643542D01*
X76104472Y-32791501D01*
X76015502Y-32924655D01*
X75902256Y-33037901D01*
X75769102Y-33126871D01*
X75621143Y-33188158D01*
X75464076Y-33219400D01*
X75303926Y-33219400D01*
X75146859Y-33188158D01*
X74998900Y-33126871D01*
X74865746Y-33037901D01*
X74752500Y-32924655D01*
X74663530Y-32791501D01*
X74602243Y-32643542D01*
X74571001Y-32486475D01*
X74571001Y-32326325D01*
X74602243Y-32169258D01*
X74663530Y-32021299D01*
X74752500Y-31888145D01*
X74865746Y-31774899D01*
X74998900Y-31685929D01*
X75146859Y-31624642D01*
X75303926Y-31593400D01*
X75464076Y-31593400D01*
X75621143Y-31624642D01*
G37*
G36*
X115436001Y-32862401D02*
G01*
X114434001Y-32862401D01*
X114434001Y-31960401D01*
X115436001Y-31960401D01*
X115436001Y-32862401D01*
G37*
G36*
X107213605Y-30779748D02*
G01*
X107250145Y-30790833D01*
X107283822Y-30808834D01*
X107313342Y-30833060D01*
X107337568Y-30862580D01*
X107355569Y-30896257D01*
X107366654Y-30932797D01*
X107371001Y-30976939D01*
X107371001Y-32425863D01*
X107366654Y-32470005D01*
X107355569Y-32506545D01*
X107337568Y-32540222D01*
X107313342Y-32569742D01*
X107283822Y-32593968D01*
X107250145Y-32611969D01*
X107213605Y-32623054D01*
X107169463Y-32627401D01*
X106220539Y-32627401D01*
X106176397Y-32623054D01*
X106139857Y-32611969D01*
X106106180Y-32593968D01*
X106076660Y-32569742D01*
X106052434Y-32540222D01*
X106034433Y-32506545D01*
X106023348Y-32470005D01*
X106019001Y-32425863D01*
X106019001Y-30976939D01*
X106023348Y-30932797D01*
X106034433Y-30896257D01*
X106052434Y-30862580D01*
X106076660Y-30833060D01*
X106106180Y-30808834D01*
X106139857Y-30790833D01*
X106176397Y-30779748D01*
X106220539Y-30775401D01*
X107169463Y-30775401D01*
X107213605Y-30779748D01*
G37*
G36*
X104413605Y-30779748D02*
G01*
X104450145Y-30790833D01*
X104483822Y-30808834D01*
X104513342Y-30833060D01*
X104537568Y-30862580D01*
X104555569Y-30896257D01*
X104566654Y-30932797D01*
X104571001Y-30976939D01*
X104571001Y-32425863D01*
X104566654Y-32470005D01*
X104555569Y-32506545D01*
X104537568Y-32540222D01*
X104513342Y-32569742D01*
X104483822Y-32593968D01*
X104450145Y-32611969D01*
X104413605Y-32623054D01*
X104369463Y-32627401D01*
X103420539Y-32627401D01*
X103376397Y-32623054D01*
X103339857Y-32611969D01*
X103306180Y-32593968D01*
X103276660Y-32569742D01*
X103252434Y-32540222D01*
X103234433Y-32506545D01*
X103223348Y-32470005D01*
X103219001Y-32425863D01*
X103219001Y-30976939D01*
X103223348Y-30932797D01*
X103234433Y-30896257D01*
X103252434Y-30862580D01*
X103276660Y-30833060D01*
X103306180Y-30808834D01*
X103339857Y-30790833D01*
X103376397Y-30779748D01*
X103420539Y-30775401D01*
X104369463Y-30775401D01*
X104413605Y-30779748D01*
G37*
G36*
X78161143Y-29084642D02*
G01*
X78309102Y-29145929D01*
X78442256Y-29234899D01*
X78555502Y-29348145D01*
X78644472Y-29481299D01*
X78705759Y-29629258D01*
X78737001Y-29786325D01*
X78737001Y-29946475D01*
X78705759Y-30103542D01*
X78644472Y-30251501D01*
X78555502Y-30384655D01*
X78442256Y-30497901D01*
X78309102Y-30586871D01*
X78161143Y-30648158D01*
X78004076Y-30679400D01*
X77843926Y-30679400D01*
X77686859Y-30648158D01*
X77538900Y-30586871D01*
X77405746Y-30497901D01*
X77292500Y-30384655D01*
X77203530Y-30251501D01*
X77142243Y-30103542D01*
X77111001Y-29946475D01*
X77111001Y-29786325D01*
X77142243Y-29629258D01*
X77203530Y-29481299D01*
X77292500Y-29348145D01*
X77405746Y-29234899D01*
X77538900Y-29145929D01*
X77686859Y-29084642D01*
X77843926Y-29053400D01*
X78004076Y-29053400D01*
X78161143Y-29084642D01*
G37*
G36*
X75621143Y-29084642D02*
G01*
X75769102Y-29145929D01*
X75902256Y-29234899D01*
X76015502Y-29348145D01*
X76104472Y-29481299D01*
X76165759Y-29629258D01*
X76197001Y-29786325D01*
X76197001Y-29946475D01*
X76165759Y-30103542D01*
X76104472Y-30251501D01*
X76015502Y-30384655D01*
X75902256Y-30497901D01*
X75769102Y-30586871D01*
X75621143Y-30648158D01*
X75464076Y-30679400D01*
X75303926Y-30679400D01*
X75146859Y-30648158D01*
X74998900Y-30586871D01*
X74865746Y-30497901D01*
X74752500Y-30384655D01*
X74663530Y-30251501D01*
X74602243Y-30103542D01*
X74571001Y-29946475D01*
X74571001Y-29786325D01*
X74602243Y-29629258D01*
X74663530Y-29481299D01*
X74752500Y-29348145D01*
X74865746Y-29234899D01*
X74998900Y-29145929D01*
X75146859Y-29084642D01*
X75303926Y-29053400D01*
X75464076Y-29053400D01*
X75621143Y-29084642D01*
G37*
G36*
X113113605Y-28519748D02*
G01*
X113150145Y-28530833D01*
X113183822Y-28548834D01*
X113213342Y-28573060D01*
X113237568Y-28602580D01*
X113255569Y-28636257D01*
X113266654Y-28672797D01*
X113271001Y-28716939D01*
X113271001Y-30165863D01*
X113266654Y-30210005D01*
X113255569Y-30246545D01*
X113237568Y-30280222D01*
X113213342Y-30309742D01*
X113183822Y-30333968D01*
X113150145Y-30351969D01*
X113113605Y-30363054D01*
X113069463Y-30367401D01*
X112120539Y-30367401D01*
X112076397Y-30363054D01*
X112039857Y-30351969D01*
X112006180Y-30333968D01*
X111976660Y-30309742D01*
X111952434Y-30280222D01*
X111934433Y-30246545D01*
X111923348Y-30210005D01*
X111919001Y-30165863D01*
X111919001Y-28716939D01*
X111923348Y-28672797D01*
X111934433Y-28636257D01*
X111952434Y-28602580D01*
X111976660Y-28573060D01*
X112006180Y-28548834D01*
X112039857Y-28530833D01*
X112076397Y-28519748D01*
X112120539Y-28515401D01*
X113069463Y-28515401D01*
X113113605Y-28519748D01*
G37*
G36*
X110313605Y-28519748D02*
G01*
X110350145Y-28530833D01*
X110383822Y-28548834D01*
X110413342Y-28573060D01*
X110437568Y-28602580D01*
X110455569Y-28636257D01*
X110466654Y-28672797D01*
X110471001Y-28716939D01*
X110471001Y-30165863D01*
X110466654Y-30210005D01*
X110455569Y-30246545D01*
X110437568Y-30280222D01*
X110413342Y-30309742D01*
X110383822Y-30333968D01*
X110350145Y-30351969D01*
X110313605Y-30363054D01*
X110269463Y-30367401D01*
X109320539Y-30367401D01*
X109276397Y-30363054D01*
X109239857Y-30351969D01*
X109206180Y-30333968D01*
X109176660Y-30309742D01*
X109152434Y-30280222D01*
X109134433Y-30246545D01*
X109123348Y-30210005D01*
X109119001Y-30165863D01*
X109119001Y-28716939D01*
X109123348Y-28672797D01*
X109134433Y-28636257D01*
X109152434Y-28602580D01*
X109176660Y-28573060D01*
X109206180Y-28548834D01*
X109239857Y-28530833D01*
X109276397Y-28519748D01*
X109320539Y-28515401D01*
X110269463Y-28515401D01*
X110313605Y-28519748D01*
G37*
G36*
X115426001Y-29207401D02*
G01*
X114724001Y-29207401D01*
X114724001Y-28655401D01*
X115426001Y-28655401D01*
X115426001Y-29207401D01*
G37*
G36*
X117526001Y-29207401D02*
G01*
X116824001Y-29207401D01*
X116824001Y-28655401D01*
X117526001Y-28655401D01*
X117526001Y-29207401D01*
G37*
G36*
X105116001Y-28232401D02*
G01*
X103214001Y-28232401D01*
X103214001Y-26330401D01*
X105116001Y-26330401D01*
X105116001Y-28232401D01*
G37*
G36*
X106982396Y-26366947D02*
G01*
X107155467Y-26438635D01*
X107155468Y-26438636D01*
X107311228Y-26542711D01*
X107443691Y-26675174D01*
X107443692Y-26675176D01*
X107547767Y-26830935D01*
X107619455Y-27004006D01*
X107656001Y-27187734D01*
X107656001Y-27375068D01*
X107619455Y-27558796D01*
X107547767Y-27731867D01*
X107547766Y-27731868D01*
X107443691Y-27887628D01*
X107311228Y-28020091D01*
X107232819Y-28072482D01*
X107155467Y-28124167D01*
X106982396Y-28195855D01*
X106798668Y-28232401D01*
X106611334Y-28232401D01*
X106427606Y-28195855D01*
X106254535Y-28124167D01*
X106177183Y-28072482D01*
X106098774Y-28020091D01*
X105966311Y-27887628D01*
X105862236Y-27731868D01*
X105862235Y-27731867D01*
X105790547Y-27558796D01*
X105754001Y-27375068D01*
X105754001Y-27187734D01*
X105790547Y-27004006D01*
X105862235Y-26830935D01*
X105966310Y-26675176D01*
X105966311Y-26675174D01*
X106098774Y-26542711D01*
X106254534Y-26438636D01*
X106254535Y-26438635D01*
X106427606Y-26366947D01*
X106611334Y-26330401D01*
X106798668Y-26330401D01*
X106982396Y-26366947D01*
G37*
G36*
X75621143Y-26544642D02*
G01*
X75769102Y-26605929D01*
X75902256Y-26694899D01*
X76015502Y-26808145D01*
X76104472Y-26941299D01*
X76165759Y-27089258D01*
X76197001Y-27246325D01*
X76197001Y-27406475D01*
X76165759Y-27563542D01*
X76104472Y-27711501D01*
X76015502Y-27844655D01*
X75902256Y-27957901D01*
X75769102Y-28046871D01*
X75621143Y-28108158D01*
X75464076Y-28139400D01*
X75303926Y-28139400D01*
X75146859Y-28108158D01*
X74998900Y-28046871D01*
X74865746Y-27957901D01*
X74752500Y-27844655D01*
X74663530Y-27711501D01*
X74602243Y-27563542D01*
X74571001Y-27406475D01*
X74571001Y-27246325D01*
X74602243Y-27089258D01*
X74663530Y-26941299D01*
X74752500Y-26808145D01*
X74865746Y-26694899D01*
X74998900Y-26605929D01*
X75146859Y-26544642D01*
X75303926Y-26513400D01*
X75464076Y-26513400D01*
X75621143Y-26544642D01*
G37*
G36*
X78161143Y-26544642D02*
G01*
X78309102Y-26605929D01*
X78442256Y-26694899D01*
X78555502Y-26808145D01*
X78644472Y-26941299D01*
X78705759Y-27089258D01*
X78737001Y-27246325D01*
X78737001Y-27406475D01*
X78705759Y-27563542D01*
X78644472Y-27711501D01*
X78555502Y-27844655D01*
X78442256Y-27957901D01*
X78309102Y-28046871D01*
X78161143Y-28108158D01*
X78004076Y-28139400D01*
X77843926Y-28139400D01*
X77686859Y-28108158D01*
X77538900Y-28046871D01*
X77405746Y-27957901D01*
X77292500Y-27844655D01*
X77203530Y-27711501D01*
X77142243Y-27563542D01*
X77111001Y-27406475D01*
X77111001Y-27246325D01*
X77142243Y-27089258D01*
X77203530Y-26941299D01*
X77292500Y-26808145D01*
X77405746Y-26694899D01*
X77538900Y-26605929D01*
X77686859Y-26544642D01*
X77843926Y-26513400D01*
X78004076Y-26513400D01*
X78161143Y-26544642D01*
G37*
G36*
X113113605Y-25229748D02*
G01*
X113150145Y-25240833D01*
X113183822Y-25258834D01*
X113213342Y-25283060D01*
X113237568Y-25312580D01*
X113255569Y-25346257D01*
X113266654Y-25382797D01*
X113271001Y-25426939D01*
X113271001Y-26875863D01*
X113266654Y-26920005D01*
X113255569Y-26956545D01*
X113237568Y-26990222D01*
X113213342Y-27019742D01*
X113183822Y-27043968D01*
X113150145Y-27061969D01*
X113113605Y-27073054D01*
X113069463Y-27077401D01*
X112120539Y-27077401D01*
X112076397Y-27073054D01*
X112039857Y-27061969D01*
X112006180Y-27043968D01*
X111976660Y-27019742D01*
X111952434Y-26990222D01*
X111934433Y-26956545D01*
X111923348Y-26920005D01*
X111919001Y-26875863D01*
X111919001Y-25426939D01*
X111923348Y-25382797D01*
X111934433Y-25346257D01*
X111952434Y-25312580D01*
X111976660Y-25283060D01*
X112006180Y-25258834D01*
X112039857Y-25240833D01*
X112076397Y-25229748D01*
X112120539Y-25225401D01*
X113069463Y-25225401D01*
X113113605Y-25229748D01*
G37*
G36*
X110313605Y-25229748D02*
G01*
X110350145Y-25240833D01*
X110383822Y-25258834D01*
X110413342Y-25283060D01*
X110437568Y-25312580D01*
X110455569Y-25346257D01*
X110466654Y-25382797D01*
X110471001Y-25426939D01*
X110471001Y-26875863D01*
X110466654Y-26920005D01*
X110455569Y-26956545D01*
X110437568Y-26990222D01*
X110413342Y-27019742D01*
X110383822Y-27043968D01*
X110350145Y-27061969D01*
X110313605Y-27073054D01*
X110269463Y-27077401D01*
X109320539Y-27077401D01*
X109276397Y-27073054D01*
X109239857Y-27061969D01*
X109206180Y-27043968D01*
X109176660Y-27019742D01*
X109152434Y-26990222D01*
X109134433Y-26956545D01*
X109123348Y-26920005D01*
X109119001Y-26875863D01*
X109119001Y-25426939D01*
X109123348Y-25382797D01*
X109134433Y-25346257D01*
X109152434Y-25312580D01*
X109176660Y-25283060D01*
X109206180Y-25258834D01*
X109239857Y-25240833D01*
X109276397Y-25229748D01*
X109320539Y-25225401D01*
X110269463Y-25225401D01*
X110313605Y-25229748D01*
G37*
G36*
X115426001Y-26257401D02*
G01*
X114724001Y-26257401D01*
X114724001Y-25705401D01*
X115426001Y-25705401D01*
X115426001Y-26257401D01*
G37*
G36*
X117526001Y-26257401D02*
G01*
X116824001Y-26257401D01*
X116824001Y-25705401D01*
X117526001Y-25705401D01*
X117526001Y-26257401D01*
G37*
G36*
X75621143Y-24004642D02*
G01*
X75769102Y-24065929D01*
X75902256Y-24154899D01*
X76015502Y-24268145D01*
X76104472Y-24401299D01*
X76165759Y-24549258D01*
X76197001Y-24706325D01*
X76197001Y-24866475D01*
X76165759Y-25023542D01*
X76104472Y-25171501D01*
X76015502Y-25304655D01*
X75902256Y-25417901D01*
X75769102Y-25506871D01*
X75621143Y-25568158D01*
X75464076Y-25599400D01*
X75303926Y-25599400D01*
X75146859Y-25568158D01*
X74998900Y-25506871D01*
X74865746Y-25417901D01*
X74752500Y-25304655D01*
X74663530Y-25171501D01*
X74602243Y-25023542D01*
X74571001Y-24866475D01*
X74571001Y-24706325D01*
X74602243Y-24549258D01*
X74663530Y-24401299D01*
X74752500Y-24268145D01*
X74865746Y-24154899D01*
X74998900Y-24065929D01*
X75146859Y-24004642D01*
X75303926Y-23973400D01*
X75464076Y-23973400D01*
X75621143Y-24004642D01*
G37*
G36*
X78161143Y-24004642D02*
G01*
X78309102Y-24065929D01*
X78442256Y-24154899D01*
X78555502Y-24268145D01*
X78644472Y-24401299D01*
X78705759Y-24549258D01*
X78737001Y-24706325D01*
X78737001Y-24866475D01*
X78705759Y-25023542D01*
X78644472Y-25171501D01*
X78555502Y-25304655D01*
X78442256Y-25417901D01*
X78309102Y-25506871D01*
X78161143Y-25568158D01*
X78004076Y-25599400D01*
X77843926Y-25599400D01*
X77686859Y-25568158D01*
X77538900Y-25506871D01*
X77405746Y-25417901D01*
X77292500Y-25304655D01*
X77203530Y-25171501D01*
X77142243Y-25023542D01*
X77111001Y-24866475D01*
X77111001Y-24706325D01*
X77142243Y-24549258D01*
X77203530Y-24401299D01*
X77292500Y-24268145D01*
X77405746Y-24154899D01*
X77538900Y-24065929D01*
X77686859Y-24004642D01*
X77843926Y-23973400D01*
X78004076Y-23973400D01*
X78161143Y-24004642D01*
G37*
G36*
X71688300Y-23028157D02*
G01*
X71689904Y-23028476D01*
X71917572Y-23122779D01*
X72122467Y-23259686D01*
X72296716Y-23433935D01*
X72296717Y-23433937D01*
X72433624Y-23638832D01*
X72527926Y-23866498D01*
X72576001Y-24108187D01*
X72576001Y-24354615D01*
X72527926Y-24596304D01*
X72482354Y-24706326D01*
X72433623Y-24823972D01*
X72296716Y-25028867D01*
X72122467Y-25203116D01*
X71917572Y-25340023D01*
X71917571Y-25340024D01*
X71917570Y-25340024D01*
X71689904Y-25434326D01*
X71448215Y-25482401D01*
X71201787Y-25482401D01*
X70960098Y-25434326D01*
X70732432Y-25340024D01*
X70732431Y-25340024D01*
X70732430Y-25340023D01*
X70527535Y-25203116D01*
X70353286Y-25028867D01*
X70216379Y-24823972D01*
X70167649Y-24706326D01*
X70122076Y-24596304D01*
X70074001Y-24354615D01*
X70074001Y-24108187D01*
X70122076Y-23866498D01*
X70216378Y-23638832D01*
X70353285Y-23433937D01*
X70353286Y-23433935D01*
X70527535Y-23259686D01*
X70732430Y-23122779D01*
X70960098Y-23028476D01*
X70961702Y-23028157D01*
X71201787Y-22980401D01*
X71448215Y-22980401D01*
X71688300Y-23028157D01*
G37*
G36*
X25968300Y-23028157D02*
G01*
X25969904Y-23028476D01*
X26197572Y-23122779D01*
X26402467Y-23259686D01*
X26576716Y-23433935D01*
X26576717Y-23433937D01*
X26713624Y-23638832D01*
X26807926Y-23866498D01*
X26856001Y-24108187D01*
X26856001Y-24354615D01*
X26807926Y-24596304D01*
X26762354Y-24706326D01*
X26713623Y-24823972D01*
X26576716Y-25028867D01*
X26402467Y-25203116D01*
X26197572Y-25340023D01*
X26197571Y-25340024D01*
X26197570Y-25340024D01*
X25969904Y-25434326D01*
X25728215Y-25482401D01*
X25481787Y-25482401D01*
X25240098Y-25434326D01*
X25012432Y-25340024D01*
X25012431Y-25340024D01*
X25012430Y-25340023D01*
X24807535Y-25203116D01*
X24633286Y-25028867D01*
X24496379Y-24823972D01*
X24447649Y-24706326D01*
X24402076Y-24596304D01*
X24354001Y-24354615D01*
X24354001Y-24108187D01*
X24402076Y-23866498D01*
X24496378Y-23638832D01*
X24633285Y-23433937D01*
X24633286Y-23433935D01*
X24807535Y-23259686D01*
X25012430Y-23122779D01*
X25240098Y-23028476D01*
X25241702Y-23028157D01*
X25481787Y-22980401D01*
X25728215Y-22980401D01*
X25968300Y-23028157D01*
G37*
G36*
X78737001Y-23059400D02*
G01*
X77111001Y-23059400D01*
X77111001Y-21433400D01*
X78737001Y-21433400D01*
X78737001Y-23059400D01*
G37*
G36*
X75621143Y-21464642D02*
G01*
X75769102Y-21525929D01*
X75902256Y-21614899D01*
X76015502Y-21728145D01*
X76104472Y-21861299D01*
X76165759Y-22009258D01*
X76197001Y-22166325D01*
X76197001Y-22326475D01*
X76165759Y-22483542D01*
X76104472Y-22631501D01*
X76015502Y-22764655D01*
X75902256Y-22877901D01*
X75769102Y-22966871D01*
X75621143Y-23028158D01*
X75464076Y-23059400D01*
X75303926Y-23059400D01*
X75146859Y-23028158D01*
X74998900Y-22966871D01*
X74865746Y-22877901D01*
X74752500Y-22764655D01*
X74663530Y-22631501D01*
X74602243Y-22483542D01*
X74571001Y-22326475D01*
X74571001Y-22166325D01*
X74602243Y-22009258D01*
X74663530Y-21861299D01*
X74752500Y-21728145D01*
X74865746Y-21614899D01*
X74998900Y-21525929D01*
X75146859Y-21464642D01*
X75303926Y-21433400D01*
X75464076Y-21433400D01*
X75621143Y-21464642D01*
G37*
G36*
X112882396Y-20816947D02*
G01*
X113055467Y-20888635D01*
X113055468Y-20888636D01*
X113211228Y-20992711D01*
X113343691Y-21125174D01*
X113343692Y-21125176D01*
X113447767Y-21280935D01*
X113519455Y-21454006D01*
X113556001Y-21637734D01*
X113556001Y-21825068D01*
X113519455Y-22008796D01*
X113447767Y-22181867D01*
X113447766Y-22181868D01*
X113343691Y-22337628D01*
X113211228Y-22470091D01*
X113132819Y-22522482D01*
X113055467Y-22574167D01*
X112882396Y-22645855D01*
X112698668Y-22682401D01*
X112511334Y-22682401D01*
X112327606Y-22645855D01*
X112154535Y-22574167D01*
X112077183Y-22522482D01*
X111998774Y-22470091D01*
X111866311Y-22337628D01*
X111762236Y-22181868D01*
X111762235Y-22181867D01*
X111690547Y-22008796D01*
X111654001Y-21825068D01*
X111654001Y-21637734D01*
X111690547Y-21454006D01*
X111762235Y-21280935D01*
X111866310Y-21125176D01*
X111866311Y-21125174D01*
X111998774Y-20992711D01*
X112154534Y-20888636D01*
X112154535Y-20888635D01*
X112327606Y-20816947D01*
X112511334Y-20780401D01*
X112698668Y-20780401D01*
X112882396Y-20816947D01*
G37*
G36*
X111016001Y-22682401D02*
G01*
X109114001Y-22682401D01*
X109114001Y-20780401D01*
X111016001Y-20780401D01*
X111016001Y-22682401D01*
G37*
G36*
X105116001Y-22682401D02*
G01*
X103214001Y-22682401D01*
X103214001Y-20780401D01*
X105116001Y-20780401D01*
X105116001Y-22682401D01*
G37*
G36*
X106982396Y-20816947D02*
G01*
X107155467Y-20888635D01*
X107155468Y-20888636D01*
X107311228Y-20992711D01*
X107443691Y-21125174D01*
X107443692Y-21125176D01*
X107547767Y-21280935D01*
X107619455Y-21454006D01*
X107656001Y-21637734D01*
X107656001Y-21825068D01*
X107619455Y-22008796D01*
X107547767Y-22181867D01*
X107547766Y-22181868D01*
X107443691Y-22337628D01*
X107311228Y-22470091D01*
X107232819Y-22522482D01*
X107155467Y-22574167D01*
X106982396Y-22645855D01*
X106798668Y-22682401D01*
X106611334Y-22682401D01*
X106427606Y-22645855D01*
X106254535Y-22574167D01*
X106177183Y-22522482D01*
X106098774Y-22470091D01*
X105966311Y-22337628D01*
X105862236Y-22181868D01*
X105862235Y-22181867D01*
X105790547Y-22008796D01*
X105754001Y-21825068D01*
X105754001Y-21637734D01*
X105790547Y-21454006D01*
X105862235Y-21280935D01*
X105966310Y-21125176D01*
X105966311Y-21125174D01*
X106098774Y-20992711D01*
X106254534Y-20888636D01*
X106254535Y-20888635D01*
X106427606Y-20816947D01*
X106611334Y-20780401D01*
X106798668Y-20780401D01*
X106982396Y-20816947D01*
G37*
M02*
