M48
; DRILL file {KiCad 5.1.5-52549c5~84~ubuntu18.04.1} date Mon 27 Jan 2020 10:34:28 CET
; FORMAT={-:-/ absolute / inch / decimal}
; #@! TF.CreationDate,2020-01-27T10:34:28+01:00
; #@! TF.GenerationSoftware,Kicad,Pcbnew,5.1.5-52549c5~84~ubuntu18.04.1
; #@! TF.FileFunction,Plated,1,2,PTH
FMAT,2
INCH
T1C0.0157
T2C0.0300
T3C0.0315
T4C0.0354
T5C0.0394
T6C0.0433
%
G90
G05
T1
X3.6831Y-3.2362
X3.7354Y-4.6575
X3.7744Y-3.2996
X3.7766Y-3.1368
X3.8835Y-4.7362
X3.9024Y-3.3602
X3.9441Y-4.6201
X4.1105Y-2.9525
X4.2365Y-4.736
X4.2765Y-2.8695
X4.3449Y-4.5972
X4.3954Y-3.7187
X4.4279Y-3.8515
X4.4665Y-3.9823
X4.518Y-2.875
X4.522Y-3.172
X4.5451Y-3.7797
X4.5701Y-3.3795
X4.6102Y-3.311
X4.641Y-2.8745
X4.6457Y-3.874
X4.6878Y-3.5921
X4.7421Y-3.1969
X4.7715Y-4.7634
X4.7735Y-4.883
X4.7805Y-4.9885
X4.7874Y-3.8193
X4.801Y-4.5555
X4.8158Y-3.0202
X4.831Y-3.1294
X4.8344Y-3.3106
X4.8345Y-4.6785
X4.8858Y-4.8181
X4.9004Y-3.611
X4.907Y-3.974
X4.9146Y-3.7764
X4.947Y-3.104
X4.9626Y-3.9665
X5.079Y-3.105
X5.083Y-2.83
X5.117Y-4.579
X5.1189Y-2.992
X5.1513Y-4.5452
X5.1906Y-4.4859
X5.2012Y-4.5295
X5.2059Y-3.5598
X5.265Y-4.821
X5.481Y-4.411
X5.672Y-2.9715
X5.7945Y-2.972
T2
X3.4815Y-3.137
X3.4815Y-3.237
X3.4815Y-3.337
X3.4815Y-3.437
X3.4815Y-3.537
X3.4815Y-3.637
X3.4815Y-3.737
X3.4815Y-3.837
X3.4815Y-3.937
X3.4815Y-4.037
X3.4815Y-4.137
X3.4815Y-4.237
X3.4815Y-4.337
X3.4815Y-4.437
X3.4815Y-4.537
X3.4815Y-4.637
X3.4815Y-4.737
X3.5815Y-3.137
X3.5815Y-3.237
X3.5815Y-3.337
X3.5815Y-3.437
X3.5815Y-3.537
X3.5815Y-3.637
X3.5815Y-3.737
X3.5815Y-3.837
X3.5815Y-3.937
X3.5815Y-4.037
X3.5815Y-4.137
X3.5815Y-4.237
X3.5815Y-4.337
X3.5815Y-4.437
X3.5815Y-4.537
X3.5815Y-4.637
X3.5815Y-4.737
T3
X4.1217Y-3.3098
X4.2575Y-3.174
T4
X5.292Y-4.43
X5.292Y-4.53
X5.292Y-4.6298
X5.292Y-4.7298
X5.392Y-4.4798
X5.392Y-4.5798
X5.392Y-4.6798
X5.2961Y-3.7069
X5.2961Y-3.8069
X5.2961Y-3.9067
X5.2961Y-4.0067
X5.3961Y-3.7567
X5.3961Y-3.8567
X5.3961Y-3.9567
T5
X5.6394Y-3.4425
X5.7394Y-3.4425
X5.8394Y-3.4425
X4.996Y-4.178
X4.996Y-4.278
X4.996Y-4.378
X4.996Y-4.478
T6
X4.35Y-4.85
X4.35Y-5.0272
X4.6059Y-4.85
X4.6059Y-5.0272
T4
G00X5.392Y-4.7798
M15
G01X5.392Y-4.7798
M16
G05
G00X5.3961Y-4.0567
M15
G01X5.3961Y-4.0567
M16
G05
T0
M30
