%TF.GenerationSoftware,KiCad,Pcbnew,5.1.5-52549c5~84~ubuntu18.04.1*%
%TF.CreationDate,2020-01-27T10:34:20+01:00*%
%TF.ProjectId,sboxnet-modul,73626f78-6e65-4742-9d6d-6f64756c2e6b,rev?*%
%TF.SameCoordinates,Original*%
%TF.FileFunction,Soldermask,Bot*%
%TF.FilePolarity,Negative*%
%FSLAX46Y46*%
G04 Gerber Fmt 4.6, Leading zero omitted, Abs format (unit mm)*
G04 Created by KiCad (PCBNEW 5.1.5-52549c5~84~ubuntu18.04.1) date 2020-01-27 10:34:20*
%MOMM*%
%LPD*%
G04 APERTURE LIST*
%ADD10C,3.170000*%
%ADD11R,1.524000X1.524000*%
%ADD12C,1.524000*%
%ADD13O,1.700000X1.700000*%
%ADD14R,1.700000X1.700000*%
%ADD15C,2.200000*%
%ADD16C,1.500000*%
%ADD17C,0.100000*%
%ADD18R,3.500000X2.300000*%
%ADD19R,2.000000X1.500000*%
%ADD20R,2.000000X3.800000*%
%ADD21C,2.000000*%
G04 APERTURE END LIST*
D10*
X143534460Y-92850000D03*
X143410000Y-104315000D03*
D11*
X137060000Y-103040000D03*
D12*
X134520000Y-101770000D03*
X137060000Y-100500000D03*
X134520000Y-99230000D03*
X137060000Y-97960000D03*
X137060000Y-95420000D03*
X134520000Y-96695000D03*
X134520000Y-94155000D03*
D13*
X148320000Y-87440000D03*
X145780000Y-87440000D03*
D14*
X143240000Y-87440000D03*
D10*
X143431260Y-111217000D03*
X143306800Y-122682000D03*
D11*
X136956800Y-121407000D03*
D12*
X134416800Y-120137000D03*
X136956800Y-118867000D03*
X134416800Y-117597000D03*
X136956800Y-116327000D03*
X136956800Y-113787000D03*
X134416800Y-115062000D03*
X134416800Y-112522000D03*
D15*
X88900000Y-71120000D03*
X88900000Y-128270000D03*
X151130000Y-128270000D03*
X151130000Y-71120000D03*
D16*
X108140681Y-80619319D03*
X104690000Y-84070000D03*
D17*
G36*
X122802304Y-75834204D02*
G01*
X122826573Y-75837804D01*
X122850371Y-75843765D01*
X122873471Y-75852030D01*
X122895649Y-75862520D01*
X122916693Y-75875133D01*
X122936398Y-75889747D01*
X122954577Y-75906223D01*
X122971053Y-75924402D01*
X122985667Y-75944107D01*
X122998280Y-75965151D01*
X123008770Y-75987329D01*
X123017035Y-76010429D01*
X123022996Y-76034227D01*
X123026596Y-76058496D01*
X123027800Y-76083000D01*
X123027800Y-77333000D01*
X123026596Y-77357504D01*
X123022996Y-77381773D01*
X123017035Y-77405571D01*
X123008770Y-77428671D01*
X122998280Y-77450849D01*
X122985667Y-77471893D01*
X122971053Y-77491598D01*
X122954577Y-77509777D01*
X122936398Y-77526253D01*
X122916693Y-77540867D01*
X122895649Y-77553480D01*
X122873471Y-77563970D01*
X122850371Y-77572235D01*
X122826573Y-77578196D01*
X122802304Y-77581796D01*
X122777800Y-77583000D01*
X121852800Y-77583000D01*
X121828296Y-77581796D01*
X121804027Y-77578196D01*
X121780229Y-77572235D01*
X121757129Y-77563970D01*
X121734951Y-77553480D01*
X121713907Y-77540867D01*
X121694202Y-77526253D01*
X121676023Y-77509777D01*
X121659547Y-77491598D01*
X121644933Y-77471893D01*
X121632320Y-77450849D01*
X121621830Y-77428671D01*
X121613565Y-77405571D01*
X121607604Y-77381773D01*
X121604004Y-77357504D01*
X121602800Y-77333000D01*
X121602800Y-76083000D01*
X121604004Y-76058496D01*
X121607604Y-76034227D01*
X121613565Y-76010429D01*
X121621830Y-75987329D01*
X121632320Y-75965151D01*
X121644933Y-75944107D01*
X121659547Y-75924402D01*
X121676023Y-75906223D01*
X121694202Y-75889747D01*
X121713907Y-75875133D01*
X121734951Y-75862520D01*
X121757129Y-75852030D01*
X121780229Y-75843765D01*
X121804027Y-75837804D01*
X121828296Y-75834204D01*
X121852800Y-75833000D01*
X122777800Y-75833000D01*
X122802304Y-75834204D01*
G37*
G36*
X119827304Y-75834204D02*
G01*
X119851573Y-75837804D01*
X119875371Y-75843765D01*
X119898471Y-75852030D01*
X119920649Y-75862520D01*
X119941693Y-75875133D01*
X119961398Y-75889747D01*
X119979577Y-75906223D01*
X119996053Y-75924402D01*
X120010667Y-75944107D01*
X120023280Y-75965151D01*
X120033770Y-75987329D01*
X120042035Y-76010429D01*
X120047996Y-76034227D01*
X120051596Y-76058496D01*
X120052800Y-76083000D01*
X120052800Y-77333000D01*
X120051596Y-77357504D01*
X120047996Y-77381773D01*
X120042035Y-77405571D01*
X120033770Y-77428671D01*
X120023280Y-77450849D01*
X120010667Y-77471893D01*
X119996053Y-77491598D01*
X119979577Y-77509777D01*
X119961398Y-77526253D01*
X119941693Y-77540867D01*
X119920649Y-77553480D01*
X119898471Y-77563970D01*
X119875371Y-77572235D01*
X119851573Y-77578196D01*
X119827304Y-77581796D01*
X119802800Y-77583000D01*
X118877800Y-77583000D01*
X118853296Y-77581796D01*
X118829027Y-77578196D01*
X118805229Y-77572235D01*
X118782129Y-77563970D01*
X118759951Y-77553480D01*
X118738907Y-77540867D01*
X118719202Y-77526253D01*
X118701023Y-77509777D01*
X118684547Y-77491598D01*
X118669933Y-77471893D01*
X118657320Y-77450849D01*
X118646830Y-77428671D01*
X118638565Y-77405571D01*
X118632604Y-77381773D01*
X118629004Y-77357504D01*
X118627800Y-77333000D01*
X118627800Y-76083000D01*
X118629004Y-76058496D01*
X118632604Y-76034227D01*
X118638565Y-76010429D01*
X118646830Y-75987329D01*
X118657320Y-75965151D01*
X118669933Y-75944107D01*
X118684547Y-75924402D01*
X118701023Y-75906223D01*
X118719202Y-75889747D01*
X118738907Y-75875133D01*
X118759951Y-75862520D01*
X118782129Y-75852030D01*
X118805229Y-75843765D01*
X118829027Y-75837804D01*
X118853296Y-75834204D01*
X118877800Y-75833000D01*
X119802800Y-75833000D01*
X119827304Y-75834204D01*
G37*
D18*
X150450000Y-82490000D03*
X145050000Y-82490000D03*
D19*
X133857600Y-84113400D03*
X133857600Y-79513400D03*
X133857600Y-81813400D03*
D20*
X140157600Y-81813400D03*
D19*
X122707000Y-84088000D03*
X122707000Y-79488000D03*
X122707000Y-81788000D03*
D20*
X129007000Y-81788000D03*
D21*
X116990000Y-127690000D03*
X110490000Y-127690000D03*
X116990000Y-123190000D03*
X110490000Y-123190000D03*
D17*
G36*
X140898204Y-74437204D02*
G01*
X140922473Y-74440804D01*
X140946271Y-74446765D01*
X140969371Y-74455030D01*
X140991549Y-74465520D01*
X141012593Y-74478133D01*
X141032298Y-74492747D01*
X141050477Y-74509223D01*
X141066953Y-74527402D01*
X141081567Y-74547107D01*
X141094180Y-74568151D01*
X141104670Y-74590329D01*
X141112935Y-74613429D01*
X141118896Y-74637227D01*
X141122496Y-74661496D01*
X141123700Y-74686000D01*
X141123700Y-75936000D01*
X141122496Y-75960504D01*
X141118896Y-75984773D01*
X141112935Y-76008571D01*
X141104670Y-76031671D01*
X141094180Y-76053849D01*
X141081567Y-76074893D01*
X141066953Y-76094598D01*
X141050477Y-76112777D01*
X141032298Y-76129253D01*
X141012593Y-76143867D01*
X140991549Y-76156480D01*
X140969371Y-76166970D01*
X140946271Y-76175235D01*
X140922473Y-76181196D01*
X140898204Y-76184796D01*
X140873700Y-76186000D01*
X139948700Y-76186000D01*
X139924196Y-76184796D01*
X139899927Y-76181196D01*
X139876129Y-76175235D01*
X139853029Y-76166970D01*
X139830851Y-76156480D01*
X139809807Y-76143867D01*
X139790102Y-76129253D01*
X139771923Y-76112777D01*
X139755447Y-76094598D01*
X139740833Y-76074893D01*
X139728220Y-76053849D01*
X139717730Y-76031671D01*
X139709465Y-76008571D01*
X139703504Y-75984773D01*
X139699904Y-75960504D01*
X139698700Y-75936000D01*
X139698700Y-74686000D01*
X139699904Y-74661496D01*
X139703504Y-74637227D01*
X139709465Y-74613429D01*
X139717730Y-74590329D01*
X139728220Y-74568151D01*
X139740833Y-74547107D01*
X139755447Y-74527402D01*
X139771923Y-74509223D01*
X139790102Y-74492747D01*
X139809807Y-74478133D01*
X139830851Y-74465520D01*
X139853029Y-74455030D01*
X139876129Y-74446765D01*
X139899927Y-74440804D01*
X139924196Y-74437204D01*
X139948700Y-74436000D01*
X140873700Y-74436000D01*
X140898204Y-74437204D01*
G37*
G36*
X137923204Y-74437204D02*
G01*
X137947473Y-74440804D01*
X137971271Y-74446765D01*
X137994371Y-74455030D01*
X138016549Y-74465520D01*
X138037593Y-74478133D01*
X138057298Y-74492747D01*
X138075477Y-74509223D01*
X138091953Y-74527402D01*
X138106567Y-74547107D01*
X138119180Y-74568151D01*
X138129670Y-74590329D01*
X138137935Y-74613429D01*
X138143896Y-74637227D01*
X138147496Y-74661496D01*
X138148700Y-74686000D01*
X138148700Y-75936000D01*
X138147496Y-75960504D01*
X138143896Y-75984773D01*
X138137935Y-76008571D01*
X138129670Y-76031671D01*
X138119180Y-76053849D01*
X138106567Y-76074893D01*
X138091953Y-76094598D01*
X138075477Y-76112777D01*
X138057298Y-76129253D01*
X138037593Y-76143867D01*
X138016549Y-76156480D01*
X137994371Y-76166970D01*
X137971271Y-76175235D01*
X137947473Y-76181196D01*
X137923204Y-76184796D01*
X137898700Y-76186000D01*
X136973700Y-76186000D01*
X136949196Y-76184796D01*
X136924927Y-76181196D01*
X136901129Y-76175235D01*
X136878029Y-76166970D01*
X136855851Y-76156480D01*
X136834807Y-76143867D01*
X136815102Y-76129253D01*
X136796923Y-76112777D01*
X136780447Y-76094598D01*
X136765833Y-76074893D01*
X136753220Y-76053849D01*
X136742730Y-76031671D01*
X136734465Y-76008571D01*
X136728504Y-75984773D01*
X136724904Y-75960504D01*
X136723700Y-75936000D01*
X136723700Y-74686000D01*
X136724904Y-74661496D01*
X136728504Y-74637227D01*
X136734465Y-74613429D01*
X136742730Y-74590329D01*
X136753220Y-74568151D01*
X136765833Y-74547107D01*
X136780447Y-74527402D01*
X136796923Y-74509223D01*
X136815102Y-74492747D01*
X136834807Y-74478133D01*
X136855851Y-74465520D01*
X136878029Y-74455030D01*
X136901129Y-74446765D01*
X136924927Y-74440804D01*
X136949196Y-74437204D01*
X136973700Y-74436000D01*
X137898700Y-74436000D01*
X137923204Y-74437204D01*
G37*
G36*
X121086204Y-72151204D02*
G01*
X121110473Y-72154804D01*
X121134271Y-72160765D01*
X121157371Y-72169030D01*
X121179549Y-72179520D01*
X121200593Y-72192133D01*
X121220298Y-72206747D01*
X121238477Y-72223223D01*
X121254953Y-72241402D01*
X121269567Y-72261107D01*
X121282180Y-72282151D01*
X121292670Y-72304329D01*
X121300935Y-72327429D01*
X121306896Y-72351227D01*
X121310496Y-72375496D01*
X121311700Y-72400000D01*
X121311700Y-73650000D01*
X121310496Y-73674504D01*
X121306896Y-73698773D01*
X121300935Y-73722571D01*
X121292670Y-73745671D01*
X121282180Y-73767849D01*
X121269567Y-73788893D01*
X121254953Y-73808598D01*
X121238477Y-73826777D01*
X121220298Y-73843253D01*
X121200593Y-73857867D01*
X121179549Y-73870480D01*
X121157371Y-73880970D01*
X121134271Y-73889235D01*
X121110473Y-73895196D01*
X121086204Y-73898796D01*
X121061700Y-73900000D01*
X120136700Y-73900000D01*
X120112196Y-73898796D01*
X120087927Y-73895196D01*
X120064129Y-73889235D01*
X120041029Y-73880970D01*
X120018851Y-73870480D01*
X119997807Y-73857867D01*
X119978102Y-73843253D01*
X119959923Y-73826777D01*
X119943447Y-73808598D01*
X119928833Y-73788893D01*
X119916220Y-73767849D01*
X119905730Y-73745671D01*
X119897465Y-73722571D01*
X119891504Y-73698773D01*
X119887904Y-73674504D01*
X119886700Y-73650000D01*
X119886700Y-72400000D01*
X119887904Y-72375496D01*
X119891504Y-72351227D01*
X119897465Y-72327429D01*
X119905730Y-72304329D01*
X119916220Y-72282151D01*
X119928833Y-72261107D01*
X119943447Y-72241402D01*
X119959923Y-72223223D01*
X119978102Y-72206747D01*
X119997807Y-72192133D01*
X120018851Y-72179520D01*
X120041029Y-72169030D01*
X120064129Y-72160765D01*
X120087927Y-72154804D01*
X120112196Y-72151204D01*
X120136700Y-72150000D01*
X121061700Y-72150000D01*
X121086204Y-72151204D01*
G37*
G36*
X124061204Y-72151204D02*
G01*
X124085473Y-72154804D01*
X124109271Y-72160765D01*
X124132371Y-72169030D01*
X124154549Y-72179520D01*
X124175593Y-72192133D01*
X124195298Y-72206747D01*
X124213477Y-72223223D01*
X124229953Y-72241402D01*
X124244567Y-72261107D01*
X124257180Y-72282151D01*
X124267670Y-72304329D01*
X124275935Y-72327429D01*
X124281896Y-72351227D01*
X124285496Y-72375496D01*
X124286700Y-72400000D01*
X124286700Y-73650000D01*
X124285496Y-73674504D01*
X124281896Y-73698773D01*
X124275935Y-73722571D01*
X124267670Y-73745671D01*
X124257180Y-73767849D01*
X124244567Y-73788893D01*
X124229953Y-73808598D01*
X124213477Y-73826777D01*
X124195298Y-73843253D01*
X124175593Y-73857867D01*
X124154549Y-73870480D01*
X124132371Y-73880970D01*
X124109271Y-73889235D01*
X124085473Y-73895196D01*
X124061204Y-73898796D01*
X124036700Y-73900000D01*
X123111700Y-73900000D01*
X123087196Y-73898796D01*
X123062927Y-73895196D01*
X123039129Y-73889235D01*
X123016029Y-73880970D01*
X122993851Y-73870480D01*
X122972807Y-73857867D01*
X122953102Y-73843253D01*
X122934923Y-73826777D01*
X122918447Y-73808598D01*
X122903833Y-73788893D01*
X122891220Y-73767849D01*
X122880730Y-73745671D01*
X122872465Y-73722571D01*
X122866504Y-73698773D01*
X122862904Y-73674504D01*
X122861700Y-73650000D01*
X122861700Y-72400000D01*
X122862904Y-72375496D01*
X122866504Y-72351227D01*
X122872465Y-72327429D01*
X122880730Y-72304329D01*
X122891220Y-72282151D01*
X122903833Y-72261107D01*
X122918447Y-72241402D01*
X122934923Y-72223223D01*
X122953102Y-72206747D01*
X122972807Y-72192133D01*
X122993851Y-72179520D01*
X123016029Y-72169030D01*
X123039129Y-72160765D01*
X123062927Y-72154804D01*
X123087196Y-72151204D01*
X123111700Y-72150000D01*
X124036700Y-72150000D01*
X124061204Y-72151204D01*
G37*
D12*
X90970100Y-102539800D03*
X90970100Y-120319800D03*
X90970100Y-99999800D03*
X90970100Y-84759800D03*
X90970100Y-87299800D03*
X90970100Y-92379800D03*
X90970100Y-97459800D03*
X90970100Y-89839800D03*
X90970100Y-94919800D03*
X90970100Y-105079800D03*
X90970100Y-107619800D03*
X90970100Y-82219800D03*
X90970100Y-115239800D03*
X90970100Y-117779800D03*
X90970100Y-110159800D03*
X90970100Y-112699800D03*
X90970100Y-79679800D03*
D11*
X88430100Y-79679800D03*
D12*
X88430100Y-82219800D03*
X88430100Y-84759800D03*
X88430100Y-87299800D03*
X88430100Y-89839800D03*
X88430100Y-92379800D03*
X88430100Y-94919800D03*
X88430100Y-97459800D03*
X88430100Y-99999800D03*
X88430100Y-102539800D03*
X88430100Y-105079800D03*
X88430100Y-107619800D03*
X88430100Y-110159800D03*
X88430100Y-112699800D03*
X88430100Y-115239800D03*
X88430100Y-117779800D03*
X88430100Y-120319800D03*
D13*
X126898400Y-113741200D03*
X126898400Y-111201200D03*
X126898400Y-108661200D03*
D14*
X126898400Y-106121200D03*
D17*
G36*
X115931604Y-96954304D02*
G01*
X115955873Y-96957904D01*
X115979671Y-96963865D01*
X116002771Y-96972130D01*
X116024949Y-96982620D01*
X116045993Y-96995233D01*
X116065698Y-97009847D01*
X116083877Y-97026323D01*
X116100353Y-97044502D01*
X116114967Y-97064207D01*
X116127580Y-97085251D01*
X116138070Y-97107429D01*
X116146335Y-97130529D01*
X116152296Y-97154327D01*
X116155896Y-97178596D01*
X116157100Y-97203100D01*
X116157100Y-98453100D01*
X116155896Y-98477604D01*
X116152296Y-98501873D01*
X116146335Y-98525671D01*
X116138070Y-98548771D01*
X116127580Y-98570949D01*
X116114967Y-98591993D01*
X116100353Y-98611698D01*
X116083877Y-98629877D01*
X116065698Y-98646353D01*
X116045993Y-98660967D01*
X116024949Y-98673580D01*
X116002771Y-98684070D01*
X115979671Y-98692335D01*
X115955873Y-98698296D01*
X115931604Y-98701896D01*
X115907100Y-98703100D01*
X114982100Y-98703100D01*
X114957596Y-98701896D01*
X114933327Y-98698296D01*
X114909529Y-98692335D01*
X114886429Y-98684070D01*
X114864251Y-98673580D01*
X114843207Y-98660967D01*
X114823502Y-98646353D01*
X114805323Y-98629877D01*
X114788847Y-98611698D01*
X114774233Y-98591993D01*
X114761620Y-98570949D01*
X114751130Y-98548771D01*
X114742865Y-98525671D01*
X114736904Y-98501873D01*
X114733304Y-98477604D01*
X114732100Y-98453100D01*
X114732100Y-97203100D01*
X114733304Y-97178596D01*
X114736904Y-97154327D01*
X114742865Y-97130529D01*
X114751130Y-97107429D01*
X114761620Y-97085251D01*
X114774233Y-97064207D01*
X114788847Y-97044502D01*
X114805323Y-97026323D01*
X114823502Y-97009847D01*
X114843207Y-96995233D01*
X114864251Y-96982620D01*
X114886429Y-96972130D01*
X114909529Y-96963865D01*
X114933327Y-96957904D01*
X114957596Y-96954304D01*
X114982100Y-96953100D01*
X115907100Y-96953100D01*
X115931604Y-96954304D01*
G37*
G36*
X112956604Y-96954304D02*
G01*
X112980873Y-96957904D01*
X113004671Y-96963865D01*
X113027771Y-96972130D01*
X113049949Y-96982620D01*
X113070993Y-96995233D01*
X113090698Y-97009847D01*
X113108877Y-97026323D01*
X113125353Y-97044502D01*
X113139967Y-97064207D01*
X113152580Y-97085251D01*
X113163070Y-97107429D01*
X113171335Y-97130529D01*
X113177296Y-97154327D01*
X113180896Y-97178596D01*
X113182100Y-97203100D01*
X113182100Y-98453100D01*
X113180896Y-98477604D01*
X113177296Y-98501873D01*
X113171335Y-98525671D01*
X113163070Y-98548771D01*
X113152580Y-98570949D01*
X113139967Y-98591993D01*
X113125353Y-98611698D01*
X113108877Y-98629877D01*
X113090698Y-98646353D01*
X113070993Y-98660967D01*
X113049949Y-98673580D01*
X113027771Y-98684070D01*
X113004671Y-98692335D01*
X112980873Y-98698296D01*
X112956604Y-98701896D01*
X112932100Y-98703100D01*
X112007100Y-98703100D01*
X111982596Y-98701896D01*
X111958327Y-98698296D01*
X111934529Y-98692335D01*
X111911429Y-98684070D01*
X111889251Y-98673580D01*
X111868207Y-98660967D01*
X111848502Y-98646353D01*
X111830323Y-98629877D01*
X111813847Y-98611698D01*
X111799233Y-98591993D01*
X111786620Y-98570949D01*
X111776130Y-98548771D01*
X111767865Y-98525671D01*
X111761904Y-98501873D01*
X111758304Y-98477604D01*
X111757100Y-98453100D01*
X111757100Y-97203100D01*
X111758304Y-97178596D01*
X111761904Y-97154327D01*
X111767865Y-97130529D01*
X111776130Y-97107429D01*
X111786620Y-97085251D01*
X111799233Y-97064207D01*
X111813847Y-97044502D01*
X111830323Y-97026323D01*
X111848502Y-97009847D01*
X111868207Y-96995233D01*
X111889251Y-96982620D01*
X111911429Y-96972130D01*
X111934529Y-96963865D01*
X111958327Y-96957904D01*
X111982596Y-96954304D01*
X112007100Y-96953100D01*
X112932100Y-96953100D01*
X112956604Y-96954304D01*
G37*
G36*
X115106104Y-93461804D02*
G01*
X115130373Y-93465404D01*
X115154171Y-93471365D01*
X115177271Y-93479630D01*
X115199449Y-93490120D01*
X115220493Y-93502733D01*
X115240198Y-93517347D01*
X115258377Y-93533823D01*
X115274853Y-93552002D01*
X115289467Y-93571707D01*
X115302080Y-93592751D01*
X115312570Y-93614929D01*
X115320835Y-93638029D01*
X115326796Y-93661827D01*
X115330396Y-93686096D01*
X115331600Y-93710600D01*
X115331600Y-94960600D01*
X115330396Y-94985104D01*
X115326796Y-95009373D01*
X115320835Y-95033171D01*
X115312570Y-95056271D01*
X115302080Y-95078449D01*
X115289467Y-95099493D01*
X115274853Y-95119198D01*
X115258377Y-95137377D01*
X115240198Y-95153853D01*
X115220493Y-95168467D01*
X115199449Y-95181080D01*
X115177271Y-95191570D01*
X115154171Y-95199835D01*
X115130373Y-95205796D01*
X115106104Y-95209396D01*
X115081600Y-95210600D01*
X114156600Y-95210600D01*
X114132096Y-95209396D01*
X114107827Y-95205796D01*
X114084029Y-95199835D01*
X114060929Y-95191570D01*
X114038751Y-95181080D01*
X114017707Y-95168467D01*
X113998002Y-95153853D01*
X113979823Y-95137377D01*
X113963347Y-95119198D01*
X113948733Y-95099493D01*
X113936120Y-95078449D01*
X113925630Y-95056271D01*
X113917365Y-95033171D01*
X113911404Y-95009373D01*
X113907804Y-94985104D01*
X113906600Y-94960600D01*
X113906600Y-93710600D01*
X113907804Y-93686096D01*
X113911404Y-93661827D01*
X113917365Y-93638029D01*
X113925630Y-93614929D01*
X113936120Y-93592751D01*
X113948733Y-93571707D01*
X113963347Y-93552002D01*
X113979823Y-93533823D01*
X113998002Y-93517347D01*
X114017707Y-93502733D01*
X114038751Y-93490120D01*
X114060929Y-93479630D01*
X114084029Y-93471365D01*
X114107827Y-93465404D01*
X114132096Y-93461804D01*
X114156600Y-93460600D01*
X115081600Y-93460600D01*
X115106104Y-93461804D01*
G37*
G36*
X112131104Y-93461804D02*
G01*
X112155373Y-93465404D01*
X112179171Y-93471365D01*
X112202271Y-93479630D01*
X112224449Y-93490120D01*
X112245493Y-93502733D01*
X112265198Y-93517347D01*
X112283377Y-93533823D01*
X112299853Y-93552002D01*
X112314467Y-93571707D01*
X112327080Y-93592751D01*
X112337570Y-93614929D01*
X112345835Y-93638029D01*
X112351796Y-93661827D01*
X112355396Y-93686096D01*
X112356600Y-93710600D01*
X112356600Y-94960600D01*
X112355396Y-94985104D01*
X112351796Y-95009373D01*
X112345835Y-95033171D01*
X112337570Y-95056271D01*
X112327080Y-95078449D01*
X112314467Y-95099493D01*
X112299853Y-95119198D01*
X112283377Y-95137377D01*
X112265198Y-95153853D01*
X112245493Y-95168467D01*
X112224449Y-95181080D01*
X112202271Y-95191570D01*
X112179171Y-95199835D01*
X112155373Y-95205796D01*
X112131104Y-95209396D01*
X112106600Y-95210600D01*
X111181600Y-95210600D01*
X111157096Y-95209396D01*
X111132827Y-95205796D01*
X111109029Y-95199835D01*
X111085929Y-95191570D01*
X111063751Y-95181080D01*
X111042707Y-95168467D01*
X111023002Y-95153853D01*
X111004823Y-95137377D01*
X110988347Y-95119198D01*
X110973733Y-95099493D01*
X110961120Y-95078449D01*
X110950630Y-95056271D01*
X110942365Y-95033171D01*
X110936404Y-95009373D01*
X110932804Y-94985104D01*
X110931600Y-94960600D01*
X110931600Y-93710600D01*
X110932804Y-93686096D01*
X110936404Y-93661827D01*
X110942365Y-93638029D01*
X110950630Y-93614929D01*
X110961120Y-93592751D01*
X110973733Y-93571707D01*
X110988347Y-93552002D01*
X111004823Y-93533823D01*
X111023002Y-93517347D01*
X111042707Y-93502733D01*
X111063751Y-93490120D01*
X111085929Y-93479630D01*
X111109029Y-93471365D01*
X111132827Y-93465404D01*
X111157096Y-93461804D01*
X111181600Y-93460600D01*
X112106600Y-93460600D01*
X112131104Y-93461804D01*
G37*
G36*
X130419104Y-75123004D02*
G01*
X130443373Y-75126604D01*
X130467171Y-75132565D01*
X130490271Y-75140830D01*
X130512449Y-75151320D01*
X130533493Y-75163933D01*
X130553198Y-75178547D01*
X130571377Y-75195023D01*
X130587853Y-75213202D01*
X130602467Y-75232907D01*
X130615080Y-75253951D01*
X130625570Y-75276129D01*
X130633835Y-75299229D01*
X130639796Y-75323027D01*
X130643396Y-75347296D01*
X130644600Y-75371800D01*
X130644600Y-76621800D01*
X130643396Y-76646304D01*
X130639796Y-76670573D01*
X130633835Y-76694371D01*
X130625570Y-76717471D01*
X130615080Y-76739649D01*
X130602467Y-76760693D01*
X130587853Y-76780398D01*
X130571377Y-76798577D01*
X130553198Y-76815053D01*
X130533493Y-76829667D01*
X130512449Y-76842280D01*
X130490271Y-76852770D01*
X130467171Y-76861035D01*
X130443373Y-76866996D01*
X130419104Y-76870596D01*
X130394600Y-76871800D01*
X129644600Y-76871800D01*
X129620096Y-76870596D01*
X129595827Y-76866996D01*
X129572029Y-76861035D01*
X129548929Y-76852770D01*
X129526751Y-76842280D01*
X129505707Y-76829667D01*
X129486002Y-76815053D01*
X129467823Y-76798577D01*
X129451347Y-76780398D01*
X129436733Y-76760693D01*
X129424120Y-76739649D01*
X129413630Y-76717471D01*
X129405365Y-76694371D01*
X129399404Y-76670573D01*
X129395804Y-76646304D01*
X129394600Y-76621800D01*
X129394600Y-75371800D01*
X129395804Y-75347296D01*
X129399404Y-75323027D01*
X129405365Y-75299229D01*
X129413630Y-75276129D01*
X129424120Y-75253951D01*
X129436733Y-75232907D01*
X129451347Y-75213202D01*
X129467823Y-75195023D01*
X129486002Y-75178547D01*
X129505707Y-75163933D01*
X129526751Y-75151320D01*
X129548929Y-75140830D01*
X129572029Y-75132565D01*
X129595827Y-75126604D01*
X129620096Y-75123004D01*
X129644600Y-75121800D01*
X130394600Y-75121800D01*
X130419104Y-75123004D01*
G37*
G36*
X133219104Y-75123004D02*
G01*
X133243373Y-75126604D01*
X133267171Y-75132565D01*
X133290271Y-75140830D01*
X133312449Y-75151320D01*
X133333493Y-75163933D01*
X133353198Y-75178547D01*
X133371377Y-75195023D01*
X133387853Y-75213202D01*
X133402467Y-75232907D01*
X133415080Y-75253951D01*
X133425570Y-75276129D01*
X133433835Y-75299229D01*
X133439796Y-75323027D01*
X133443396Y-75347296D01*
X133444600Y-75371800D01*
X133444600Y-76621800D01*
X133443396Y-76646304D01*
X133439796Y-76670573D01*
X133433835Y-76694371D01*
X133425570Y-76717471D01*
X133415080Y-76739649D01*
X133402467Y-76760693D01*
X133387853Y-76780398D01*
X133371377Y-76798577D01*
X133353198Y-76815053D01*
X133333493Y-76829667D01*
X133312449Y-76842280D01*
X133290271Y-76852770D01*
X133267171Y-76861035D01*
X133243373Y-76866996D01*
X133219104Y-76870596D01*
X133194600Y-76871800D01*
X132444600Y-76871800D01*
X132420096Y-76870596D01*
X132395827Y-76866996D01*
X132372029Y-76861035D01*
X132348929Y-76852770D01*
X132326751Y-76842280D01*
X132305707Y-76829667D01*
X132286002Y-76815053D01*
X132267823Y-76798577D01*
X132251347Y-76780398D01*
X132236733Y-76760693D01*
X132224120Y-76739649D01*
X132213630Y-76717471D01*
X132205365Y-76694371D01*
X132199404Y-76670573D01*
X132195804Y-76646304D01*
X132194600Y-76621800D01*
X132194600Y-75371800D01*
X132195804Y-75347296D01*
X132199404Y-75323027D01*
X132205365Y-75299229D01*
X132213630Y-75276129D01*
X132224120Y-75253951D01*
X132236733Y-75232907D01*
X132251347Y-75213202D01*
X132267823Y-75195023D01*
X132286002Y-75178547D01*
X132305707Y-75163933D01*
X132326751Y-75151320D01*
X132348929Y-75140830D01*
X132372029Y-75132565D01*
X132395827Y-75126604D01*
X132420096Y-75123004D01*
X132444600Y-75121800D01*
X133194600Y-75121800D01*
X133219104Y-75123004D01*
G37*
G36*
X129557104Y-70932004D02*
G01*
X129581373Y-70935604D01*
X129605171Y-70941565D01*
X129628271Y-70949830D01*
X129650449Y-70960320D01*
X129671493Y-70972933D01*
X129691198Y-70987547D01*
X129709377Y-71004023D01*
X129725853Y-71022202D01*
X129740467Y-71041907D01*
X129753080Y-71062951D01*
X129763570Y-71085129D01*
X129771835Y-71108229D01*
X129777796Y-71132027D01*
X129781396Y-71156296D01*
X129782600Y-71180800D01*
X129782600Y-72430800D01*
X129781396Y-72455304D01*
X129777796Y-72479573D01*
X129771835Y-72503371D01*
X129763570Y-72526471D01*
X129753080Y-72548649D01*
X129740467Y-72569693D01*
X129725853Y-72589398D01*
X129709377Y-72607577D01*
X129691198Y-72624053D01*
X129671493Y-72638667D01*
X129650449Y-72651280D01*
X129628271Y-72661770D01*
X129605171Y-72670035D01*
X129581373Y-72675996D01*
X129557104Y-72679596D01*
X129532600Y-72680800D01*
X128607600Y-72680800D01*
X128583096Y-72679596D01*
X128558827Y-72675996D01*
X128535029Y-72670035D01*
X128511929Y-72661770D01*
X128489751Y-72651280D01*
X128468707Y-72638667D01*
X128449002Y-72624053D01*
X128430823Y-72607577D01*
X128414347Y-72589398D01*
X128399733Y-72569693D01*
X128387120Y-72548649D01*
X128376630Y-72526471D01*
X128368365Y-72503371D01*
X128362404Y-72479573D01*
X128358804Y-72455304D01*
X128357600Y-72430800D01*
X128357600Y-71180800D01*
X128358804Y-71156296D01*
X128362404Y-71132027D01*
X128368365Y-71108229D01*
X128376630Y-71085129D01*
X128387120Y-71062951D01*
X128399733Y-71041907D01*
X128414347Y-71022202D01*
X128430823Y-71004023D01*
X128449002Y-70987547D01*
X128468707Y-70972933D01*
X128489751Y-70960320D01*
X128511929Y-70949830D01*
X128535029Y-70941565D01*
X128558827Y-70935604D01*
X128583096Y-70932004D01*
X128607600Y-70930800D01*
X129532600Y-70930800D01*
X129557104Y-70932004D01*
G37*
G36*
X126582104Y-70932004D02*
G01*
X126606373Y-70935604D01*
X126630171Y-70941565D01*
X126653271Y-70949830D01*
X126675449Y-70960320D01*
X126696493Y-70972933D01*
X126716198Y-70987547D01*
X126734377Y-71004023D01*
X126750853Y-71022202D01*
X126765467Y-71041907D01*
X126778080Y-71062951D01*
X126788570Y-71085129D01*
X126796835Y-71108229D01*
X126802796Y-71132027D01*
X126806396Y-71156296D01*
X126807600Y-71180800D01*
X126807600Y-72430800D01*
X126806396Y-72455304D01*
X126802796Y-72479573D01*
X126796835Y-72503371D01*
X126788570Y-72526471D01*
X126778080Y-72548649D01*
X126765467Y-72569693D01*
X126750853Y-72589398D01*
X126734377Y-72607577D01*
X126716198Y-72624053D01*
X126696493Y-72638667D01*
X126675449Y-72651280D01*
X126653271Y-72661770D01*
X126630171Y-72670035D01*
X126606373Y-72675996D01*
X126582104Y-72679596D01*
X126557600Y-72680800D01*
X125632600Y-72680800D01*
X125608096Y-72679596D01*
X125583827Y-72675996D01*
X125560029Y-72670035D01*
X125536929Y-72661770D01*
X125514751Y-72651280D01*
X125493707Y-72638667D01*
X125474002Y-72624053D01*
X125455823Y-72607577D01*
X125439347Y-72589398D01*
X125424733Y-72569693D01*
X125412120Y-72548649D01*
X125401630Y-72526471D01*
X125393365Y-72503371D01*
X125387404Y-72479573D01*
X125383804Y-72455304D01*
X125382600Y-72430800D01*
X125382600Y-71180800D01*
X125383804Y-71156296D01*
X125387404Y-71132027D01*
X125393365Y-71108229D01*
X125401630Y-71085129D01*
X125412120Y-71062951D01*
X125424733Y-71041907D01*
X125439347Y-71022202D01*
X125455823Y-71004023D01*
X125474002Y-70987547D01*
X125493707Y-70972933D01*
X125514751Y-70960320D01*
X125536929Y-70949830D01*
X125560029Y-70941565D01*
X125583827Y-70935604D01*
X125608096Y-70932004D01*
X125632600Y-70930800D01*
X126557600Y-70930800D01*
X126582104Y-70932004D01*
G37*
G36*
X134057304Y-86476804D02*
G01*
X134081573Y-86480404D01*
X134105371Y-86486365D01*
X134128471Y-86494630D01*
X134150649Y-86505120D01*
X134171693Y-86517733D01*
X134191398Y-86532347D01*
X134209577Y-86548823D01*
X134226053Y-86567002D01*
X134240667Y-86586707D01*
X134253280Y-86607751D01*
X134263770Y-86629929D01*
X134272035Y-86653029D01*
X134277996Y-86676827D01*
X134281596Y-86701096D01*
X134282800Y-86725600D01*
X134282800Y-87975600D01*
X134281596Y-88000104D01*
X134277996Y-88024373D01*
X134272035Y-88048171D01*
X134263770Y-88071271D01*
X134253280Y-88093449D01*
X134240667Y-88114493D01*
X134226053Y-88134198D01*
X134209577Y-88152377D01*
X134191398Y-88168853D01*
X134171693Y-88183467D01*
X134150649Y-88196080D01*
X134128471Y-88206570D01*
X134105371Y-88214835D01*
X134081573Y-88220796D01*
X134057304Y-88224396D01*
X134032800Y-88225600D01*
X133282800Y-88225600D01*
X133258296Y-88224396D01*
X133234027Y-88220796D01*
X133210229Y-88214835D01*
X133187129Y-88206570D01*
X133164951Y-88196080D01*
X133143907Y-88183467D01*
X133124202Y-88168853D01*
X133106023Y-88152377D01*
X133089547Y-88134198D01*
X133074933Y-88114493D01*
X133062320Y-88093449D01*
X133051830Y-88071271D01*
X133043565Y-88048171D01*
X133037604Y-88024373D01*
X133034004Y-88000104D01*
X133032800Y-87975600D01*
X133032800Y-86725600D01*
X133034004Y-86701096D01*
X133037604Y-86676827D01*
X133043565Y-86653029D01*
X133051830Y-86629929D01*
X133062320Y-86607751D01*
X133074933Y-86586707D01*
X133089547Y-86567002D01*
X133106023Y-86548823D01*
X133124202Y-86532347D01*
X133143907Y-86517733D01*
X133164951Y-86505120D01*
X133187129Y-86494630D01*
X133210229Y-86486365D01*
X133234027Y-86480404D01*
X133258296Y-86476804D01*
X133282800Y-86475600D01*
X134032800Y-86475600D01*
X134057304Y-86476804D01*
G37*
G36*
X131257304Y-86476804D02*
G01*
X131281573Y-86480404D01*
X131305371Y-86486365D01*
X131328471Y-86494630D01*
X131350649Y-86505120D01*
X131371693Y-86517733D01*
X131391398Y-86532347D01*
X131409577Y-86548823D01*
X131426053Y-86567002D01*
X131440667Y-86586707D01*
X131453280Y-86607751D01*
X131463770Y-86629929D01*
X131472035Y-86653029D01*
X131477996Y-86676827D01*
X131481596Y-86701096D01*
X131482800Y-86725600D01*
X131482800Y-87975600D01*
X131481596Y-88000104D01*
X131477996Y-88024373D01*
X131472035Y-88048171D01*
X131463770Y-88071271D01*
X131453280Y-88093449D01*
X131440667Y-88114493D01*
X131426053Y-88134198D01*
X131409577Y-88152377D01*
X131391398Y-88168853D01*
X131371693Y-88183467D01*
X131350649Y-88196080D01*
X131328471Y-88206570D01*
X131305371Y-88214835D01*
X131281573Y-88220796D01*
X131257304Y-88224396D01*
X131232800Y-88225600D01*
X130482800Y-88225600D01*
X130458296Y-88224396D01*
X130434027Y-88220796D01*
X130410229Y-88214835D01*
X130387129Y-88206570D01*
X130364951Y-88196080D01*
X130343907Y-88183467D01*
X130324202Y-88168853D01*
X130306023Y-88152377D01*
X130289547Y-88134198D01*
X130274933Y-88114493D01*
X130262320Y-88093449D01*
X130251830Y-88071271D01*
X130243565Y-88048171D01*
X130237604Y-88024373D01*
X130234004Y-88000104D01*
X130232800Y-87975600D01*
X130232800Y-86725600D01*
X130234004Y-86701096D01*
X130237604Y-86676827D01*
X130243565Y-86653029D01*
X130251830Y-86629929D01*
X130262320Y-86607751D01*
X130274933Y-86586707D01*
X130289547Y-86567002D01*
X130306023Y-86548823D01*
X130324202Y-86532347D01*
X130343907Y-86517733D01*
X130364951Y-86505120D01*
X130387129Y-86494630D01*
X130410229Y-86486365D01*
X130434027Y-86480404D01*
X130458296Y-86476804D01*
X130482800Y-86475600D01*
X131232800Y-86475600D01*
X131257304Y-86476804D01*
G37*
M02*
